<svg width="762" height="534" xmlns="http://www.w3.org/2000/svg" xmlns:xlink="http://www.w3.org/1999/xlink" xml:space="preserve" overflow="hidden"><defs><clipPath id="clip0"><rect x="2011" y="1162" width="762" height="534"/></clipPath></defs><g clip-path="url(#clip0)" transform="translate(-2011 -1162)"><path d="M2773 1173.22C2773 1173.1 2773 1173 2772.97 1172.88 2772.94 1172.77 2772.92 1172.48 2772.91 1172.28 2772.84 1171.39 2772.66 1170.51 2772.38 1169.66 2772.34 1169.54 2772.38 1169.42 2772.31 1169.3 2772.24 1169.19 2772.24 1169.21 2772.22 1169.16 2771.86 1168.22 2771.37 1167.34 2770.76 1166.54 2770.63 1166.36 2770.49 1166.2 2770.34 1166.03 2769.75 1165.32 2769.08 1164.69 2768.34 1164.14 2768.27 1164.08 2768.2 1164.01 2768.13 1163.96 2767.3 1163.42 2766.4 1162.98 2765.46 1162.67 2765.24 1162.6 2765.03 1162.53 2764.82 1162.47 2763.83 1162.17 2762.81 1162.01 2761.77 1162L2022.23 1162C2021.19 1162.01 2020.17 1162.17 2019.18 1162.47 2018.95 1162.53 2018.74 1162.6 2018.54 1162.67 2017.6 1162.98 2016.7 1163.42 2015.87 1163.96 2015.8 1164.01 2015.73 1164.08 2015.66 1164.14 2014.92 1164.69 2014.25 1165.32 2013.66 1166.03 2013.52 1166.2 2013.37 1166.36 2013.24 1166.54 2012.64 1167.34 2012.14 1168.22 2011.78 1169.16 2011.78 1169.21 2011.71 1169.25 2011.69 1169.3 2011.67 1169.36 2011.66 1169.54 2011.62 1169.66 2011.34 1170.51 2011.16 1171.39 2011.09 1172.28 2011.09 1172.49 2011.03 1172.68 2011.03 1172.88 2011.03 1173.08 2011 1173.1 2011 1173.22L2011 1684.74C2011 1684.89 2011.04 1685.03 2011.04 1685.17 2011.06 1685.58 2011.1 1685.98 2011.17 1686.38 2011.22 1686.71 2011.26 1687.02 2011.34 1687.36 2011.44 1687.75 2011.56 1688.13 2011.7 1688.51 2011.81 1688.81 2011.91 1689.11 2012.05 1689.4 2012.23 1689.78 2012.43 1690.15 2012.65 1690.51 2012.8 1690.76 2012.95 1691.03 2013.13 1691.27 2013.38 1691.61 2013.65 1691.94 2013.93 1692.25 2014.14 1692.48 2014.36 1692.71 2014.58 1692.93 2014.71 1693.05 2014.81 1693.2 2014.95 1693.32 2015.1 1693.44 2015.19 1693.43 2015.29 1693.51 2016.17 1694.22 2017.15 1694.79 2018.2 1695.2 2018.42 1695.29 2018.65 1695.34 2018.88 1695.42 2019.9 1695.75 2020.96 1695.93 2022.02 1695.96 2022.1 1695.96 2022.17 1696 2022.25 1696L2022.4 1696 2761.61 1696 2761.75 1696C2761.83 1696 2761.9 1695.96 2761.97 1695.96 2763.04 1695.93 2764.1 1695.75 2765.12 1695.42 2765.34 1695.34 2765.57 1695.29 2765.76 1695.2 2766.81 1694.79 2767.79 1694.22 2768.67 1693.51 2768.78 1693.43 2768.9 1693.4 2769.01 1693.32 2769.11 1693.24 2769.25 1693.05 2769.39 1692.93 2769.62 1692.71 2769.83 1692.49 2770.03 1692.25 2770.31 1691.94 2770.58 1691.61 2770.83 1691.27 2771.01 1691.03 2771.16 1690.77 2771.32 1690.51 2771.53 1690.15 2771.73 1689.78 2771.91 1689.4 2772.05 1689.11 2772.15 1688.81 2772.26 1688.51 2772.4 1688.13 2772.52 1687.75 2772.62 1687.36 2772.7 1687.04 2772.74 1686.72 2772.79 1686.38 2772.86 1685.98 2772.9 1685.58 2772.92 1685.17 2772.92 1685.03 2772.96 1684.89 2772.96 1684.74ZM2274.95 1405.31 2384.64 1499.61C2388.86 1503.24 2395.1 1503.24 2399.32 1499.61L2509.02 1405.31 2737.39 1673.49 2046.59 1673.49ZM2033.48 1654.19 2033.48 1197.73 2257.91 1390.64ZM2526.06 1390.64 2750.49 1197.73 2750.49 1654.19ZM2731.4 1184.46 2503.08 1380.75C2503.04 1380.78 2502.99 1380.8 2502.95 1380.84 2502.92 1380.88 2502.88 1380.93 2502.83 1380.97L2391.99 1476.26 2281.14 1380.97C2281.1 1380.93 2281.07 1380.88 2281.02 1380.84L2280.89 1380.75 2052.56 1184.46Z" fill-rule="evenodd"/></g></svg>