<?xml version="1.0" encoding="utf-8" standalone="no"?>
<!DOCTYPE svg PUBLIC "-//W3C//DTD SVG 1.1//EN"
  "http://www.w3.org/Graphics/SVG/1.1/DTD/svg11.dtd">
<svg xmlns:xlink="http://www.w3.org/1999/xlink" width="247.046875pt" height="280.425313pt" viewBox="0 0 247.046875 280.425313" xmlns="http://www.w3.org/2000/svg" version="1.1">
 <metadata>
  <rdf:RDF xmlns:dc="http://purl.org/dc/elements/1.1/" xmlns:cc="http://creativecommons.org/ns#" xmlns:rdf="http://www.w3.org/1999/02/22-rdf-syntax-ns#">
   <cc:Work>
    <dc:type rdf:resource="http://purl.org/dc/dcmitype/StillImage"/>
    <dc:date>2024-08-15T21:24:38.487711</dc:date>
    <dc:format>image/svg+xml</dc:format>
    <dc:creator>
     <cc:Agent>
      <dc:title>Matplotlib v3.8.2, https://matplotlib.org/</dc:title>
     </cc:Agent>
    </dc:creator>
   </cc:Work>
  </rdf:RDF>
 </metadata>
 <defs>
  <style type="text/css">*{stroke-linejoin: round; stroke-linecap: butt}</style>
 </defs>
 <g id="figure_1">
  <g id="patch_1">
   <path d="M 0 280.425313 
L 247.046875 280.425313 
L 247.046875 0 
L 0 0 
z
" style="fill: #ffffff"/>
  </g>
  <g id="axes_1">
   <g id="patch_2">
    <path d="M 44.546875 243.695625 
L 239.846875 243.695625 
L 239.846875 21.935625 
L 44.546875 21.935625 
z
" style="fill: #ffffff"/>
   </g>
   <g id="PathCollection_1">
    <defs>
     <path id="ma6f60e0828" d="M 0 3 
C 0.795609 3 1.55874 2.683901 2.12132 2.12132 
C 2.683901 1.55874 3 0.795609 3 0 
C 3 -0.795609 2.683901 -1.55874 2.12132 -2.12132 
C 1.55874 -2.683901 0.795609 -3 0 -3 
C -0.795609 -3 -1.55874 -2.683901 -2.12132 -2.12132 
C -2.683901 -1.55874 -3 -0.795609 -3 0 
C -3 0.795609 -2.683901 1.55874 -2.12132 2.12132 
C -1.55874 2.683901 -0.795609 3 0 3 
z
" style="stroke: #ffffff; stroke-width: 0.48"/>
    </defs>
    <g clip-path="url(#p16984c4958)">
     <use xlink:href="#ma6f60e0828" x="95.055496" y="143.802333" style="fill: #40498e; stroke: #ffffff; stroke-width: 0.48"/>
     <use xlink:href="#ma6f60e0828" x="85.259884" y="100.591165" style="fill: #40498e; stroke: #ffffff; stroke-width: 0.48"/>
     <use xlink:href="#ma6f60e0828" x="108.524461" y="69.211365" style="fill: #40498e; stroke: #ffffff; stroke-width: 0.48"/>
     <use xlink:href="#ma6f60e0828" x="96.279947" y="60.964087" style="fill: #40498e; stroke: #ffffff; stroke-width: 0.48"/>
     <use xlink:href="#ma6f60e0828" x="206.480574" y="109.236421" style="fill: #40498e; stroke: #ffffff; stroke-width: 0.48"/>
     <use xlink:href="#ma6f60e0828" x="206.480574" y="96.32317" style="fill: #40498e; stroke: #ffffff; stroke-width: 0.48"/>
     <use xlink:href="#ma6f60e0828" x="119.544524" y="161.115172" style="fill: #40498e; stroke: #ffffff; stroke-width: 0.48"/>
     <use xlink:href="#ma6f60e0828" x="118.320072" y="140.7581" style="fill: #40498e; stroke: #ffffff; stroke-width: 0.48"/>
     <use xlink:href="#ma6f60e0828" x="85.259884" y="98.571418" style="fill: #40498e; stroke: #ffffff; stroke-width: 0.48"/>
     <use xlink:href="#ma6f60e0828" x="151.380261" y="133.04619" style="fill: #40498e; stroke: #ffffff; stroke-width: 0.48"/>
     <use xlink:href="#ma6f60e0828" x="124.44233" y="108.248692" style="fill: #40498e; stroke: #ffffff; stroke-width: 0.48"/>
     <use xlink:href="#ma6f60e0828" x="119.544524" y="140.704984" style="fill: #40498e; stroke: #ffffff; stroke-width: 0.48"/>
     <use xlink:href="#ma6f60e0828" x="145.258004" y="141.049136" style="fill: #40498e; stroke: #ffffff; stroke-width: 0.48"/>
     <use xlink:href="#ma6f60e0828" x="145.258004" y="156.528245" style="fill: #40498e; stroke: #ffffff; stroke-width: 0.48"/>
     <use xlink:href="#ma6f60e0828" x="162.400323" y="117.123951" style="fill: #40498e; stroke: #ffffff; stroke-width: 0.48"/>
     <use xlink:href="#ma6f60e0828" x="186.889351" y="124.006066" style="fill: #40498e; stroke: #ffffff; stroke-width: 0.48"/>
     <use xlink:href="#ma6f60e0828" x="96.279947" y="79.017906" style="fill: #40498e; stroke: #ffffff; stroke-width: 0.48"/>
     <use xlink:href="#ma6f60e0828" x="96.279947" y="89.612846" style="fill: #40498e; stroke: #ffffff; stroke-width: 0.48"/>
     <use xlink:href="#ma6f60e0828" x="80.362079" y="90.455613" style="fill: #40498e; stroke: #ffffff; stroke-width: 0.48"/>
     <use xlink:href="#ma6f60e0828" x="85.259884" y="98.046012" style="fill: #40498e; stroke: #ffffff; stroke-width: 0.48"/>
     <use xlink:href="#ma6f60e0828" x="75.464273" y="69.541871" style="fill: #40498e; stroke: #ffffff; stroke-width: 0.48"/>
     <use xlink:href="#ma6f60e0828" x="85.259884" y="95.643597" style="fill: #40498e; stroke: #ffffff; stroke-width: 0.48"/>
     <use xlink:href="#ma6f60e0828" x="65.668662" y="67.772" style="fill: #40498e; stroke: #ffffff; stroke-width: 0.48"/>
     <use xlink:href="#ma6f60e0828" x="104.851107" y="84.80293" style="fill: #40498e; stroke: #ffffff; stroke-width: 0.48"/>
     <use xlink:href="#ma6f60e0828" x="68.117565" y="68.719153" style="fill: #40498e; stroke: #ffffff; stroke-width: 0.48"/>
     <use xlink:href="#ma6f60e0828" x="66.893113" y="70.369177" style="fill: #40498e; stroke: #ffffff; stroke-width: 0.48"/>
     <use xlink:href="#ma6f60e0828" x="79.137627" y="65.52779" style="fill: #40498e; stroke: #ffffff; stroke-width: 0.48"/>
     <use xlink:href="#ma6f60e0828" x="75.464273" y="73.596633" style="fill: #40498e; stroke: #ffffff; stroke-width: 0.48"/>
     <use xlink:href="#ma6f60e0828" x="230.969602" y="163.559347" style="fill: #40498e; stroke: #ffffff; stroke-width: 0.48"/>
     <use xlink:href="#ma6f60e0828" x="206.480574" y="107.778233" style="fill: #40498e; stroke: #ffffff; stroke-width: 0.48"/>
     <use xlink:href="#ma6f60e0828" x="206.480574" y="103.184431" style="fill: #40498e; stroke: #ffffff; stroke-width: 0.48"/>
     <use xlink:href="#ma6f60e0828" x="230.969602" y="137.278388" style="fill: #40498e; stroke: #ffffff; stroke-width: 0.48"/>
    </g>
   </g>
   <g id="PathCollection_2">
    <defs>
     <path id="m8c6a17f786" d="M 0 3 
C 0.795609 3 1.55874 2.683901 2.12132 2.12132 
C 2.683901 1.55874 3 0.795609 3 0 
C 3 -0.795609 2.683901 -1.55874 2.12132 -2.12132 
C 1.55874 -2.683901 0.795609 -3 0 -3 
C -0.795609 -3 -1.55874 -2.683901 -2.12132 -2.12132 
C -2.683901 -1.55874 -3 -0.795609 -3 0 
C -3 0.795609 -2.683901 1.55874 -2.12132 2.12132 
C -1.55874 2.683901 -0.795609 3 0 3 
z
" style="stroke: #ffffff; stroke-width: 0.48"/>
    </defs>
    <g clip-path="url(#p16984c4958)">
     <use xlink:href="#m8c6a17f786" x="60.770856" y="53.167775" style="fill: #0b0405; stroke: #ffffff; stroke-width: 0.48"/>
     <use xlink:href="#m8c6a17f786" x="64.44421" y="66.167951" style="fill: #0b0405; stroke: #ffffff; stroke-width: 0.48"/>
     <use xlink:href="#m8c6a17f786" x="66.893113" y="60.866492" style="fill: #0b0405; stroke: #ffffff; stroke-width: 0.48"/>
     <use xlink:href="#m8c6a17f786" x="66.893113" y="72.747858" style="fill: #0b0405; stroke: #ffffff; stroke-width: 0.48"/>
     <use xlink:href="#m8c6a17f786" x="60.770856" y="36.888945" style="fill: #0b0405; stroke: #ffffff; stroke-width: 0.48"/>
     <use xlink:href="#m8c6a17f786" x="69.342016" y="41.680984" style="fill: #0b0405; stroke: #ffffff; stroke-width: 0.48"/>
     <use xlink:href="#m8c6a17f786" x="68.117565" y="68.353312" style="fill: #0b0405; stroke: #ffffff; stroke-width: 0.48"/>
     <use xlink:href="#m8c6a17f786" x="73.01537" y="48.128754" style="fill: #0b0405; stroke: #ffffff; stroke-width: 0.48"/>
     <use xlink:href="#m8c6a17f786" x="71.790919" y="63.535588" style="fill: #0b0405; stroke: #ffffff; stroke-width: 0.48"/>
     <use xlink:href="#m8c6a17f786" x="73.01537" y="72.443523" style="fill: #0b0405; stroke: #ffffff; stroke-width: 0.48"/>
     <use xlink:href="#m8c6a17f786" x="58.321953" y="58.520151" style="fill: #0b0405; stroke: #ffffff; stroke-width: 0.48"/>
     <use xlink:href="#m8c6a17f786" x="63.219759" y="55.571158" style="fill: #0b0405; stroke: #ffffff; stroke-width: 0.48"/>
     <use xlink:href="#m8c6a17f786" x="64.44421" y="59.244821" style="fill: #0b0405; stroke: #ffffff; stroke-width: 0.48"/>
     <use xlink:href="#m8c6a17f786" x="61.995308" y="64.289008" style="fill: #0b0405; stroke: #ffffff; stroke-width: 0.48"/>
     <use xlink:href="#m8c6a17f786" x="69.342016" y="62.274505" style="fill: #0b0405; stroke: #ffffff; stroke-width: 0.48"/>
     <use xlink:href="#m8c6a17f786" x="58.321953" y="58.525116" style="fill: #0b0405; stroke: #ffffff; stroke-width: 0.48"/>
     <use xlink:href="#m8c6a17f786" x="64.44421" y="51.021679" style="fill: #0b0405; stroke: #ffffff; stroke-width: 0.48"/>
     <use xlink:href="#m8c6a17f786" x="63.219759" y="43.497569" style="fill: #0b0405; stroke: #ffffff; stroke-width: 0.48"/>
     <use xlink:href="#m8c6a17f786" x="80.362079" y="84.298747" style="fill: #0b0405; stroke: #ffffff; stroke-width: 0.48"/>
     <use xlink:href="#m8c6a17f786" x="86.484336" y="63.527466" style="fill: #0b0405; stroke: #ffffff; stroke-width: 0.48"/>
     <use xlink:href="#m8c6a17f786" x="65.668662" y="87.255777" style="fill: #0b0405; stroke: #ffffff; stroke-width: 0.48"/>
     <use xlink:href="#m8c6a17f786" x="69.342016" y="98.801231" style="fill: #0b0405; stroke: #ffffff; stroke-width: 0.48"/>
     <use xlink:href="#m8c6a17f786" x="64.44421" y="76.579748" style="fill: #0b0405; stroke: #ffffff; stroke-width: 0.48"/>
     <use xlink:href="#m8c6a17f786" x="60.770856" y="72.899738" style="fill: #0b0405; stroke: #ffffff; stroke-width: 0.48"/>
     <use xlink:href="#m8c6a17f786" x="80.362079" y="100.354164" style="fill: #0b0405; stroke: #ffffff; stroke-width: 0.48"/>
     <use xlink:href="#m8c6a17f786" x="64.44421" y="59.438804" style="fill: #0b0405; stroke: #ffffff; stroke-width: 0.48"/>
     <use xlink:href="#m8c6a17f786" x="64.44421" y="46.76862" style="fill: #0b0405; stroke: #ffffff; stroke-width: 0.48"/>
     <use xlink:href="#m8c6a17f786" x="64.44421" y="43.924279" style="fill: #0b0405; stroke: #ffffff; stroke-width: 0.48"/>
     <use xlink:href="#m8c6a17f786" x="53.424148" y="42.246398" style="fill: #0b0405; stroke: #ffffff; stroke-width: 0.48"/>
     <use xlink:href="#m8c6a17f786" x="53.424148" y="46.478278" style="fill: #0b0405; stroke: #ffffff; stroke-width: 0.48"/>
    </g>
   </g>
   <g id="PolyCollection_1">
    <path d="M 65.668662 75.090038 
L 65.668662 97.003541 
L 67.338368 97.478242 
L 69.008075 97.946082 
L 70.677781 98.343563 
L 72.347488 98.801543 
L 74.017194 99.143506 
L 75.686901 99.768957 
L 77.356607 100.26578 
L 79.026314 100.703651 
L 80.69602 100.997556 
L 82.365727 101.366447 
L 84.035433 101.629378 
L 85.705139 102.04498 
L 87.374846 102.558952 
L 89.044552 103.073989 
L 90.714259 103.591201 
L 92.383965 104.105289 
L 94.053672 104.613981 
L 95.723378 105.115723 
L 97.393085 105.587061 
L 99.062791 105.976029 
L 100.732498 106.343649 
L 102.402204 106.753702 
L 104.071911 107.194625 
L 105.741617 108.004931 
L 107.411324 108.444112 
L 109.08103 108.92472 
L 110.750736 109.614096 
L 112.420443 110.260698 
L 114.090149 110.77315 
L 115.759856 111.313585 
L 117.429562 111.9528 
L 119.099269 112.580214 
L 120.768975 113.059477 
L 122.438682 113.736238 
L 124.108388 114.305012 
L 125.778095 114.90913 
L 127.447801 115.527251 
L 129.117508 116.03661 
L 130.787214 116.715484 
L 132.456921 117.359742 
L 134.126627 118.053746 
L 135.796334 118.538784 
L 137.46604 119.024724 
L 139.135746 119.626848 
L 140.805453 120.294716 
L 142.475159 121.002296 
L 144.144866 121.849634 
L 145.814572 122.549719 
L 147.484279 123.435314 
L 149.153985 124.247538 
L 150.823692 124.93256 
L 152.493398 125.617583 
L 154.163105 126.302605 
L 155.832811 126.987627 
L 157.502518 127.749017 
L 159.172224 128.503241 
L 160.841931 129.124493 
L 162.511637 129.829814 
L 164.181344 130.597824 
L 165.85105 131.298066 
L 167.520756 131.99088 
L 169.190463 132.668317 
L 170.860169 133.449841 
L 172.529876 134.229434 
L 174.199582 134.929686 
L 175.869289 135.555689 
L 177.538995 136.394852 
L 179.208702 137.253583 
L 180.878408 138.112313 
L 182.548115 138.910271 
L 184.217821 139.580295 
L 185.887528 140.359679 
L 187.557234 141.190436 
L 189.226941 141.910671 
L 190.896647 142.608344 
L 192.566353 143.389357 
L 194.23606 144.253379 
L 195.905766 145.113763 
L 197.575473 145.748145 
L 199.245179 146.40819 
L 200.914886 147.288262 
L 202.584592 148.168333 
L 204.254299 148.995084 
L 205.924005 149.638696 
L 207.593712 150.513898 
L 209.263418 151.3891 
L 210.933125 152.172807 
L 212.602831 153.015033 
L 214.272538 153.877892 
L 215.942244 154.710306 
L 217.611951 155.576582 
L 219.281657 156.450068 
L 220.951363 157.323555 
L 222.62107 158.193474 
L 224.290776 159.057338 
L 225.960483 159.921201 
L 227.630189 160.817949 
L 229.299896 161.692658 
L 230.969602 162.512792 
L 230.969602 123.727342 
L 230.969602 123.727342 
L 229.299896 123.365862 
L 227.630189 123.006307 
L 225.960483 122.646751 
L 224.290776 122.273834 
L 222.62107 121.845159 
L 220.951363 121.488961 
L 219.281657 121.093925 
L 217.611951 120.652168 
L 215.942244 120.210411 
L 214.272538 119.768654 
L 212.602831 119.317866 
L 210.933125 118.888109 
L 209.263418 118.557242 
L 207.593712 118.173643 
L 205.924005 117.683858 
L 204.254299 117.194073 
L 202.584592 116.704287 
L 200.914886 116.251822 
L 199.245179 115.874373 
L 197.575473 115.502692 
L 195.905766 115.118838 
L 194.23606 114.74223 
L 192.566353 114.365721 
L 190.896647 114.002232 
L 189.226941 113.609893 
L 187.557234 113.229426 
L 185.887528 112.852748 
L 184.217821 112.47789 
L 182.548115 112.111829 
L 180.878408 111.731711 
L 179.208702 111.332092 
L 177.538995 110.916907 
L 175.869289 110.591588 
L 174.199582 110.081461 
L 172.529876 109.774284 
L 170.860169 109.40891 
L 169.190463 108.838837 
L 167.520756 108.411753 
L 165.85105 108.023485 
L 164.181344 107.590129 
L 162.511637 107.15759 
L 160.841931 106.745528 
L 159.172224 106.378216 
L 157.502518 105.93464 
L 155.832811 105.489849 
L 154.163105 105.043841 
L 152.493398 104.597833 
L 150.823692 104.153574 
L 149.153985 103.712484 
L 147.484279 103.331474 
L 145.814572 102.825055 
L 144.144866 102.375824 
L 142.475159 101.869689 
L 140.805453 101.351722 
L 139.135746 100.866776 
L 137.46604 100.274019 
L 135.796334 99.657618 
L 134.126627 99.042034 
L 132.456921 98.427075 
L 130.787214 97.834145 
L 129.117508 97.456001 
L 127.447801 97.038223 
L 125.778095 96.488818 
L 124.108388 95.939413 
L 122.438682 95.476565 
L 120.768975 94.969127 
L 119.099269 94.388887 
L 117.429562 93.872149 
L 115.759856 93.296378 
L 114.090149 92.808478 
L 112.420443 92.309636 
L 110.750736 91.795528 
L 109.08103 91.237227 
L 107.411324 90.679126 
L 105.741617 90.067169 
L 104.071911 89.486894 
L 102.402204 88.945898 
L 100.732498 88.443744 
L 99.062791 87.851903 
L 97.393085 87.322396 
L 95.723378 86.715822 
L 94.053672 86.103569 
L 92.383965 85.452289 
L 90.714259 84.87445 
L 89.044552 84.264148 
L 87.374846 83.648407 
L 85.705139 83.032686 
L 84.035433 82.299773 
L 82.365727 81.743516 
L 80.69602 81.082475 
L 79.026314 80.552974 
L 77.356607 79.96602 
L 75.686901 79.325507 
L 74.017194 78.605234 
L 72.347488 78.012009 
L 70.677781 77.280835 
L 69.008075 76.496439 
L 67.338368 75.90032 
L 65.668662 75.090038 
z
" clip-path="url(#p16984c4958)" style="fill: #40498e; fill-opacity: 0.15"/>
   </g>
   <g id="PolyCollection_2">
    <path d="M 53.424148 37.819398 
L 53.424148 56.708727 
L 53.758089 56.825282 
L 54.09203 56.944453 
L 54.425972 57.101769 
L 54.759913 57.259084 
L 55.093854 57.4164 
L 55.427795 57.586941 
L 55.761737 57.824143 
L 56.095678 57.940316 
L 56.429619 58.055452 
L 56.763561 58.253898 
L 57.097502 58.490644 
L 57.431443 58.617822 
L 57.765385 58.785264 
L 58.099326 59.020149 
L 58.433267 59.197171 
L 58.767208 59.365897 
L 59.10115 59.601051 
L 59.435091 59.852528 
L 59.769032 60.050627 
L 60.102974 60.276025 
L 60.436915 60.514163 
L 60.770856 60.771771 
L 61.104797 61.019778 
L 61.438739 61.381301 
L 61.77268 61.709692 
L 62.106621 62.056903 
L 62.440563 62.397286 
L 62.774504 62.781072 
L 63.108445 63.078383 
L 63.442387 63.384418 
L 63.776328 63.714596 
L 64.110269 64.095614 
L 64.44421 64.499 
L 64.778152 64.954053 
L 65.112093 65.316538 
L 65.446034 65.692142 
L 65.779976 66.13568 
L 66.113917 66.582773 
L 66.447858 67.076746 
L 66.781799 67.635042 
L 67.115741 68.151866 
L 67.449682 68.732459 
L 67.783623 69.257359 
L 68.117565 69.895237 
L 68.451506 70.454687 
L 68.785447 71.073138 
L 69.119389 71.62223 
L 69.45333 72.193499 
L 69.787271 72.781864 
L 70.121212 73.413798 
L 70.455154 73.970106 
L 70.789095 74.551967 
L 71.123036 75.275939 
L 71.456978 75.979074 
L 71.790919 76.570918 
L 72.12486 77.03563 
L 72.458801 77.694544 
L 72.792743 78.283197 
L 73.126684 78.871261 
L 73.460625 79.48293 
L 73.794567 80.097231 
L 74.128508 80.752059 
L 74.462449 81.352628 
L 74.796391 81.931087 
L 75.130332 82.544397 
L 75.464273 83.157706 
L 75.798214 83.805972 
L 76.132156 84.614596 
L 76.466097 85.233055 
L 76.800038 85.840131 
L 77.13398 86.447207 
L 77.467921 87.083182 
L 77.801862 87.755693 
L 78.135803 88.375557 
L 78.469745 88.99304 
L 78.803686 89.610523 
L 79.137627 90.228005 
L 79.471569 90.875965 
L 79.80551 91.542792 
L 80.139451 92.213159 
L 80.473393 92.907994 
L 80.807334 93.606897 
L 81.141275 94.304519 
L 81.475216 94.907943 
L 81.809158 95.572542 
L 82.143099 96.260994 
L 82.47704 96.90262 
L 82.810982 97.573574 
L 83.144923 98.244528 
L 83.478864 98.914758 
L 83.812805 99.582243 
L 84.146747 100.249729 
L 84.480688 100.855569 
L 84.814629 101.57018 
L 85.148571 102.239692 
L 85.482512 102.814642 
L 85.816453 103.389593 
L 86.150395 103.964544 
L 86.484336 104.539495 
L 86.484336 68.594137 
L 86.484336 68.594137 
L 86.150395 68.429106 
L 85.816453 68.264075 
L 85.482512 68.099044 
L 85.148571 67.934084 
L 84.814629 67.76165 
L 84.480688 67.605726 
L 84.146747 67.440292 
L 83.812805 67.274859 
L 83.478864 67.110251 
L 83.144923 66.967762 
L 82.810982 66.832239 
L 82.47704 66.615211 
L 82.143099 66.448736 
L 81.809158 66.283705 
L 81.475216 66.118674 
L 81.141275 65.953643 
L 80.807334 65.788613 
L 80.473393 65.616212 
L 80.139451 65.437626 
L 79.80551 65.246058 
L 79.471569 65.078961 
L 79.137627 64.92282 
L 78.803686 64.724408 
L 78.469745 64.542292 
L 78.135803 64.362231 
L 77.801862 64.182169 
L 77.467921 64.003165 
L 77.13398 63.826455 
L 76.800038 63.647934 
L 76.466097 63.480539 
L 76.132156 63.419848 
L 75.798214 63.271053 
L 75.464273 63.06793 
L 75.130332 62.832668 
L 74.796391 62.597405 
L 74.462449 62.394262 
L 74.128508 62.213805 
L 73.794567 62.035748 
L 73.460625 61.862627 
L 73.126684 61.672186 
L 72.792743 61.470635 
L 72.458801 61.230277 
L 72.12486 60.998049 
L 71.790919 60.786877 
L 71.456978 60.555413 
L 71.123036 60.329842 
L 70.789095 60.141426 
L 70.455154 59.95741 
L 70.121212 59.797997 
L 69.787271 59.555005 
L 69.45333 59.310437 
L 69.119389 59.06587 
L 68.785447 58.821303 
L 68.451506 58.577234 
L 68.117565 58.33363 
L 67.783623 58.060471 
L 67.449682 57.816149 
L 67.115741 57.602815 
L 66.781799 57.391666 
L 66.447858 57.115029 
L 66.113917 56.859091 
L 65.779976 56.624962 
L 65.446034 56.38253 
L 65.112093 56.076986 
L 64.778152 55.684213 
L 64.44421 55.319789 
L 64.110269 55.003485 
L 63.776328 54.554712 
L 63.442387 54.154183 
L 63.108445 53.844507 
L 62.774504 53.570225 
L 62.440563 52.998146 
L 62.106621 52.53618 
L 61.77268 52.052901 
L 61.438739 51.527734 
L 61.104797 51.156122 
L 60.770856 50.608084 
L 60.436915 50.212924 
L 60.102974 49.72305 
L 59.769032 49.210667 
L 59.435091 48.764422 
L 59.10115 48.178019 
L 58.767208 47.694381 
L 58.433267 47.099935 
L 58.099326 46.504447 
L 57.765385 45.851634 
L 57.431443 45.299168 
L 57.097502 44.649135 
L 56.763561 44.047273 
L 56.429619 43.380007 
L 56.095678 42.654274 
L 55.761737 41.973085 
L 55.427795 41.380552 
L 55.093854 40.852458 
L 54.759913 40.192316 
L 54.425972 39.596801 
L 54.09203 39.004737 
L 53.758089 38.412672 
L 53.424148 37.819398 
z
" clip-path="url(#p16984c4958)" style="fill: #0b0405; fill-opacity: 0.15"/>
   </g>
   <g id="matplotlib.axis_1">
    <g id="xtick_1">
     <g id="line2d_1">
      <defs>
       <path id="mb6bfe1e32d" d="M 0 0 
L 0 3.5 
" style="stroke: #000000; stroke-width: 0.8"/>
      </defs>
      <g>
       <use xlink:href="#mb6bfe1e32d" x="65.668662" y="243.695625" style="stroke: #000000; stroke-width: 0.8"/>
      </g>
     </g>
     <g id="text_1">
      <!-- 0 -->
      <g transform="translate(62.888193 257.853438) scale(0.1 -0.1)">
       <defs>
        <path id="ArialMT-30" d="M 266 2259 
Q 266 3072 433 3567 
Q 600 4063 929 4331 
Q 1259 4600 1759 4600 
Q 2128 4600 2406 4451 
Q 2684 4303 2865 4023 
Q 3047 3744 3150 3342 
Q 3253 2941 3253 2259 
Q 3253 1453 3087 958 
Q 2922 463 2592 192 
Q 2263 -78 1759 -78 
Q 1097 -78 719 397 
Q 266 969 266 2259 
z
M 844 2259 
Q 844 1131 1108 757 
Q 1372 384 1759 384 
Q 2147 384 2411 759 
Q 2675 1134 2675 2259 
Q 2675 3391 2411 3762 
Q 2147 4134 1753 4134 
Q 1366 4134 1134 3806 
Q 844 3388 844 2259 
z
" transform="scale(0.015625)"/>
       </defs>
       <use xlink:href="#ArialMT-30"/>
      </g>
     </g>
    </g>
    <g id="xtick_2">
     <g id="line2d_2">
      <g>
       <use xlink:href="#mb6bfe1e32d" x="126.891232" y="243.695625" style="stroke: #000000; stroke-width: 0.8"/>
      </g>
     </g>
     <g id="text_2">
      <!-- 1 -->
      <g transform="translate(124.110764 257.853438) scale(0.1 -0.1)">
       <defs>
        <path id="ArialMT-31" d="M 2384 0 
L 1822 0 
L 1822 3584 
Q 1619 3391 1289 3197 
Q 959 3003 697 2906 
L 697 3450 
Q 1169 3672 1522 3987 
Q 1875 4303 2022 4600 
L 2384 4600 
L 2384 0 
z
" transform="scale(0.015625)"/>
       </defs>
       <use xlink:href="#ArialMT-31"/>
      </g>
     </g>
    </g>
    <g id="xtick_3">
     <g id="line2d_3">
      <g>
       <use xlink:href="#mb6bfe1e32d" x="188.113803" y="243.695625" style="stroke: #000000; stroke-width: 0.8"/>
      </g>
     </g>
     <g id="text_3">
      <!-- 2 -->
      <g transform="translate(185.333334 257.853438) scale(0.1 -0.1)">
       <defs>
        <path id="ArialMT-32" d="M 3222 541 
L 3222 0 
L 194 0 
Q 188 203 259 391 
Q 375 700 629 1000 
Q 884 1300 1366 1694 
Q 2113 2306 2375 2664 
Q 2638 3022 2638 3341 
Q 2638 3675 2398 3904 
Q 2159 4134 1775 4134 
Q 1369 4134 1125 3890 
Q 881 3647 878 3216 
L 300 3275 
Q 359 3922 746 4261 
Q 1134 4600 1788 4600 
Q 2447 4600 2831 4234 
Q 3216 3869 3216 3328 
Q 3216 3053 3103 2787 
Q 2991 2522 2730 2228 
Q 2469 1934 1863 1422 
Q 1356 997 1212 845 
Q 1069 694 975 541 
L 3222 541 
z
" transform="scale(0.015625)"/>
       </defs>
       <use xlink:href="#ArialMT-32"/>
      </g>
     </g>
    </g>
    <g id="text_4">
     <!-- Visual Acuity (logMAR) -->
     <g transform="translate(91.435156 271.120625) scale(0.1 -0.1)">
      <defs>
       <path id="ArialMT-56" d="M 1803 0 
L 28 4581 
L 684 4581 
L 1875 1253 
Q 2019 853 2116 503 
Q 2222 878 2363 1253 
L 3600 4581 
L 4219 4581 
L 2425 0 
L 1803 0 
z
" transform="scale(0.015625)"/>
       <path id="ArialMT-69" d="M 425 3934 
L 425 4581 
L 988 4581 
L 988 3934 
L 425 3934 
z
M 425 0 
L 425 3319 
L 988 3319 
L 988 0 
L 425 0 
z
" transform="scale(0.015625)"/>
       <path id="ArialMT-73" d="M 197 991 
L 753 1078 
Q 800 744 1014 566 
Q 1228 388 1613 388 
Q 2000 388 2187 545 
Q 2375 703 2375 916 
Q 2375 1106 2209 1216 
Q 2094 1291 1634 1406 
Q 1016 1563 777 1677 
Q 538 1791 414 1992 
Q 291 2194 291 2438 
Q 291 2659 392 2848 
Q 494 3038 669 3163 
Q 800 3259 1026 3326 
Q 1253 3394 1513 3394 
Q 1903 3394 2198 3281 
Q 2494 3169 2634 2976 
Q 2775 2784 2828 2463 
L 2278 2388 
Q 2241 2644 2061 2787 
Q 1881 2931 1553 2931 
Q 1166 2931 1000 2803 
Q 834 2675 834 2503 
Q 834 2394 903 2306 
Q 972 2216 1119 2156 
Q 1203 2125 1616 2013 
Q 2213 1853 2448 1751 
Q 2684 1650 2818 1456 
Q 2953 1263 2953 975 
Q 2953 694 2789 445 
Q 2625 197 2315 61 
Q 2006 -75 1616 -75 
Q 969 -75 630 194 
Q 291 463 197 991 
z
" transform="scale(0.015625)"/>
       <path id="ArialMT-75" d="M 2597 0 
L 2597 488 
Q 2209 -75 1544 -75 
Q 1250 -75 995 37 
Q 741 150 617 320 
Q 494 491 444 738 
Q 409 903 409 1263 
L 409 3319 
L 972 3319 
L 972 1478 
Q 972 1038 1006 884 
Q 1059 663 1231 536 
Q 1403 409 1656 409 
Q 1909 409 2131 539 
Q 2353 669 2445 892 
Q 2538 1116 2538 1541 
L 2538 3319 
L 3100 3319 
L 3100 0 
L 2597 0 
z
" transform="scale(0.015625)"/>
       <path id="ArialMT-61" d="M 2588 409 
Q 2275 144 1986 34 
Q 1697 -75 1366 -75 
Q 819 -75 525 192 
Q 231 459 231 875 
Q 231 1119 342 1320 
Q 453 1522 633 1644 
Q 813 1766 1038 1828 
Q 1203 1872 1538 1913 
Q 2219 1994 2541 2106 
Q 2544 2222 2544 2253 
Q 2544 2597 2384 2738 
Q 2169 2928 1744 2928 
Q 1347 2928 1158 2789 
Q 969 2650 878 2297 
L 328 2372 
Q 403 2725 575 2942 
Q 747 3159 1072 3276 
Q 1397 3394 1825 3394 
Q 2250 3394 2515 3294 
Q 2781 3194 2906 3042 
Q 3031 2891 3081 2659 
Q 3109 2516 3109 2141 
L 3109 1391 
Q 3109 606 3145 398 
Q 3181 191 3288 0 
L 2700 0 
Q 2613 175 2588 409 
z
M 2541 1666 
Q 2234 1541 1622 1453 
Q 1275 1403 1131 1340 
Q 988 1278 909 1158 
Q 831 1038 831 891 
Q 831 666 1001 516 
Q 1172 366 1500 366 
Q 1825 366 2078 508 
Q 2331 650 2450 897 
Q 2541 1088 2541 1459 
L 2541 1666 
z
" transform="scale(0.015625)"/>
       <path id="ArialMT-6c" d="M 409 0 
L 409 4581 
L 972 4581 
L 972 0 
L 409 0 
z
" transform="scale(0.015625)"/>
       <path id="ArialMT-20" transform="scale(0.015625)"/>
       <path id="ArialMT-41" d="M -9 0 
L 1750 4581 
L 2403 4581 
L 4278 0 
L 3588 0 
L 3053 1388 
L 1138 1388 
L 634 0 
L -9 0 
z
M 1313 1881 
L 2866 1881 
L 2388 3150 
Q 2169 3728 2063 4100 
Q 1975 3659 1816 3225 
L 1313 1881 
z
" transform="scale(0.015625)"/>
       <path id="ArialMT-63" d="M 2588 1216 
L 3141 1144 
Q 3050 572 2676 248 
Q 2303 -75 1759 -75 
Q 1078 -75 664 370 
Q 250 816 250 1647 
Q 250 2184 428 2587 
Q 606 2991 970 3192 
Q 1334 3394 1763 3394 
Q 2303 3394 2647 3120 
Q 2991 2847 3088 2344 
L 2541 2259 
Q 2463 2594 2264 2762 
Q 2066 2931 1784 2931 
Q 1359 2931 1093 2626 
Q 828 2322 828 1663 
Q 828 994 1084 691 
Q 1341 388 1753 388 
Q 2084 388 2306 591 
Q 2528 794 2588 1216 
z
" transform="scale(0.015625)"/>
       <path id="ArialMT-74" d="M 1650 503 
L 1731 6 
Q 1494 -44 1306 -44 
Q 1000 -44 831 53 
Q 663 150 594 308 
Q 525 466 525 972 
L 525 2881 
L 113 2881 
L 113 3319 
L 525 3319 
L 525 4141 
L 1084 4478 
L 1084 3319 
L 1650 3319 
L 1650 2881 
L 1084 2881 
L 1084 941 
Q 1084 700 1114 631 
Q 1144 563 1211 522 
Q 1278 481 1403 481 
Q 1497 481 1650 503 
z
" transform="scale(0.015625)"/>
       <path id="ArialMT-79" d="M 397 -1278 
L 334 -750 
Q 519 -800 656 -800 
Q 844 -800 956 -737 
Q 1069 -675 1141 -563 
Q 1194 -478 1313 -144 
Q 1328 -97 1363 -6 
L 103 3319 
L 709 3319 
L 1400 1397 
Q 1534 1031 1641 628 
Q 1738 1016 1872 1384 
L 2581 3319 
L 3144 3319 
L 1881 -56 
Q 1678 -603 1566 -809 
Q 1416 -1088 1222 -1217 
Q 1028 -1347 759 -1347 
Q 597 -1347 397 -1278 
z
" transform="scale(0.015625)"/>
       <path id="ArialMT-28" d="M 1497 -1347 
Q 1031 -759 709 28 
Q 388 816 388 1659 
Q 388 2403 628 3084 
Q 909 3875 1497 4659 
L 1900 4659 
Q 1522 4009 1400 3731 
Q 1209 3300 1100 2831 
Q 966 2247 966 1656 
Q 966 153 1900 -1347 
L 1497 -1347 
z
" transform="scale(0.015625)"/>
       <path id="ArialMT-6f" d="M 213 1659 
Q 213 2581 725 3025 
Q 1153 3394 1769 3394 
Q 2453 3394 2887 2945 
Q 3322 2497 3322 1706 
Q 3322 1066 3130 698 
Q 2938 331 2570 128 
Q 2203 -75 1769 -75 
Q 1072 -75 642 372 
Q 213 819 213 1659 
z
M 791 1659 
Q 791 1022 1069 705 
Q 1347 388 1769 388 
Q 2188 388 2466 706 
Q 2744 1025 2744 1678 
Q 2744 2294 2464 2611 
Q 2184 2928 1769 2928 
Q 1347 2928 1069 2612 
Q 791 2297 791 1659 
z
" transform="scale(0.015625)"/>
       <path id="ArialMT-67" d="M 319 -275 
L 866 -356 
Q 900 -609 1056 -725 
Q 1266 -881 1628 -881 
Q 2019 -881 2231 -725 
Q 2444 -569 2519 -288 
Q 2563 -116 2559 434 
Q 2191 0 1641 0 
Q 956 0 581 494 
Q 206 988 206 1678 
Q 206 2153 378 2554 
Q 550 2956 876 3175 
Q 1203 3394 1644 3394 
Q 2231 3394 2613 2919 
L 2613 3319 
L 3131 3319 
L 3131 450 
Q 3131 -325 2973 -648 
Q 2816 -972 2473 -1159 
Q 2131 -1347 1631 -1347 
Q 1038 -1347 672 -1080 
Q 306 -813 319 -275 
z
M 784 1719 
Q 784 1066 1043 766 
Q 1303 466 1694 466 
Q 2081 466 2343 764 
Q 2606 1063 2606 1700 
Q 2606 2309 2336 2618 
Q 2066 2928 1684 2928 
Q 1309 2928 1046 2623 
Q 784 2319 784 1719 
z
" transform="scale(0.015625)"/>
       <path id="ArialMT-4d" d="M 475 0 
L 475 4581 
L 1388 4581 
L 2472 1338 
Q 2622 884 2691 659 
Q 2769 909 2934 1394 
L 4031 4581 
L 4847 4581 
L 4847 0 
L 4263 0 
L 4263 3834 
L 2931 0 
L 2384 0 
L 1059 3900 
L 1059 0 
L 475 0 
z
" transform="scale(0.015625)"/>
       <path id="ArialMT-52" d="M 503 0 
L 503 4581 
L 2534 4581 
Q 3147 4581 3465 4457 
Q 3784 4334 3975 4021 
Q 4166 3709 4166 3331 
Q 4166 2844 3850 2509 
Q 3534 2175 2875 2084 
Q 3116 1969 3241 1856 
Q 3506 1613 3744 1247 
L 4541 0 
L 3778 0 
L 3172 953 
Q 2906 1366 2734 1584 
Q 2563 1803 2427 1890 
Q 2291 1978 2150 2013 
Q 2047 2034 1813 2034 
L 1109 2034 
L 1109 0 
L 503 0 
z
M 1109 2559 
L 2413 2559 
Q 2828 2559 3062 2645 
Q 3297 2731 3419 2920 
Q 3541 3109 3541 3331 
Q 3541 3656 3305 3865 
Q 3069 4075 2559 4075 
L 1109 4075 
L 1109 2559 
z
" transform="scale(0.015625)"/>
       <path id="ArialMT-29" d="M 791 -1347 
L 388 -1347 
Q 1322 153 1322 1656 
Q 1322 2244 1188 2822 
Q 1081 3291 891 3722 
Q 769 4003 388 4659 
L 791 4659 
Q 1378 3875 1659 3084 
Q 1900 2403 1900 1659 
Q 1900 816 1576 28 
Q 1253 -759 791 -1347 
z
" transform="scale(0.015625)"/>
      </defs>
      <use xlink:href="#ArialMT-56"/>
      <use xlink:href="#ArialMT-69" x="64.949219"/>
      <use xlink:href="#ArialMT-73" x="87.166016"/>
      <use xlink:href="#ArialMT-75" x="137.166016"/>
      <use xlink:href="#ArialMT-61" x="192.78125"/>
      <use xlink:href="#ArialMT-6c" x="248.396484"/>
      <use xlink:href="#ArialMT-20" x="270.613281"/>
      <use xlink:href="#ArialMT-41" x="292.896484"/>
      <use xlink:href="#ArialMT-63" x="359.595703"/>
      <use xlink:href="#ArialMT-75" x="409.595703"/>
      <use xlink:href="#ArialMT-69" x="465.210938"/>
      <use xlink:href="#ArialMT-74" x="487.427734"/>
      <use xlink:href="#ArialMT-79" x="515.210938"/>
      <use xlink:href="#ArialMT-20" x="565.210938"/>
      <use xlink:href="#ArialMT-28" x="592.994141"/>
      <use xlink:href="#ArialMT-6c" x="626.294922"/>
      <use xlink:href="#ArialMT-6f" x="648.511719"/>
      <use xlink:href="#ArialMT-67" x="704.126953"/>
      <use xlink:href="#ArialMT-4d" x="759.742188"/>
      <use xlink:href="#ArialMT-41" x="843.042969"/>
      <use xlink:href="#ArialMT-52" x="909.742188"/>
      <use xlink:href="#ArialMT-29" x="981.958984"/>
     </g>
    </g>
   </g>
   <g id="matplotlib.axis_2">
    <g id="ytick_1">
     <g id="line2d_4">
      <defs>
       <path id="me9c312714e" d="M 0 0 
L -3.5 0 
" style="stroke: #000000; stroke-width: 0.8"/>
      </defs>
      <g>
       <use xlink:href="#me9c312714e" x="44.546875" y="228.911625" style="stroke: #000000; stroke-width: 0.8"/>
      </g>
     </g>
     <g id="text_5">
      <!-- −40 -->
      <g transform="translate(20.584375 232.490531) scale(0.1 -0.1)">
       <defs>
        <path id="ArialMT-2212" d="M 3381 1997 
L 356 1997 
L 356 2522 
L 3381 2522 
L 3381 1997 
z
" transform="scale(0.015625)"/>
        <path id="ArialMT-34" d="M 2069 0 
L 2069 1097 
L 81 1097 
L 81 1613 
L 2172 4581 
L 2631 4581 
L 2631 1613 
L 3250 1613 
L 3250 1097 
L 2631 1097 
L 2631 0 
L 2069 0 
z
M 2069 1613 
L 2069 3678 
L 634 1613 
L 2069 1613 
z
" transform="scale(0.015625)"/>
       </defs>
       <use xlink:href="#ArialMT-2212"/>
       <use xlink:href="#ArialMT-34" x="58.398438"/>
       <use xlink:href="#ArialMT-30" x="114.013672"/>
      </g>
     </g>
    </g>
    <g id="ytick_2">
     <g id="line2d_5">
      <g>
       <use xlink:href="#me9c312714e" x="44.546875" y="199.343625" style="stroke: #000000; stroke-width: 0.8"/>
      </g>
     </g>
     <g id="text_6">
      <!-- −30 -->
      <g transform="translate(20.584375 202.922531) scale(0.1 -0.1)">
       <defs>
        <path id="ArialMT-33" d="M 269 1209 
L 831 1284 
Q 928 806 1161 595 
Q 1394 384 1728 384 
Q 2125 384 2398 659 
Q 2672 934 2672 1341 
Q 2672 1728 2419 1979 
Q 2166 2231 1775 2231 
Q 1616 2231 1378 2169 
L 1441 2663 
Q 1497 2656 1531 2656 
Q 1891 2656 2178 2843 
Q 2466 3031 2466 3422 
Q 2466 3731 2256 3934 
Q 2047 4138 1716 4138 
Q 1388 4138 1169 3931 
Q 950 3725 888 3313 
L 325 3413 
Q 428 3978 793 4289 
Q 1159 4600 1703 4600 
Q 2078 4600 2393 4439 
Q 2709 4278 2876 4000 
Q 3044 3722 3044 3409 
Q 3044 3113 2884 2869 
Q 2725 2625 2413 2481 
Q 2819 2388 3044 2092 
Q 3269 1797 3269 1353 
Q 3269 753 2831 336 
Q 2394 -81 1725 -81 
Q 1122 -81 723 278 
Q 325 638 269 1209 
z
" transform="scale(0.015625)"/>
       </defs>
       <use xlink:href="#ArialMT-2212"/>
       <use xlink:href="#ArialMT-33" x="58.398438"/>
       <use xlink:href="#ArialMT-30" x="114.013672"/>
      </g>
     </g>
    </g>
    <g id="ytick_3">
     <g id="line2d_6">
      <g>
       <use xlink:href="#me9c312714e" x="44.546875" y="169.775625" style="stroke: #000000; stroke-width: 0.8"/>
      </g>
     </g>
     <g id="text_7">
      <!-- −20 -->
      <g transform="translate(20.584375 173.354531) scale(0.1 -0.1)">
       <use xlink:href="#ArialMT-2212"/>
       <use xlink:href="#ArialMT-32" x="58.398438"/>
       <use xlink:href="#ArialMT-30" x="114.013672"/>
      </g>
     </g>
    </g>
    <g id="ytick_4">
     <g id="line2d_7">
      <g>
       <use xlink:href="#me9c312714e" x="44.546875" y="140.207625" style="stroke: #000000; stroke-width: 0.8"/>
      </g>
     </g>
     <g id="text_8">
      <!-- −10 -->
      <g transform="translate(20.584375 143.786531) scale(0.1 -0.1)">
       <use xlink:href="#ArialMT-2212"/>
       <use xlink:href="#ArialMT-31" x="58.398438"/>
       <use xlink:href="#ArialMT-30" x="114.013672"/>
      </g>
     </g>
    </g>
    <g id="ytick_5">
     <g id="line2d_8">
      <g>
       <use xlink:href="#me9c312714e" x="44.546875" y="110.639625" style="stroke: #000000; stroke-width: 0.8"/>
      </g>
     </g>
     <g id="text_9">
      <!-- 0 -->
      <g transform="translate(31.985937 114.218531) scale(0.1 -0.1)">
       <use xlink:href="#ArialMT-30"/>
      </g>
     </g>
    </g>
    <g id="ytick_6">
     <g id="line2d_9">
      <g>
       <use xlink:href="#me9c312714e" x="44.546875" y="81.071625" style="stroke: #000000; stroke-width: 0.8"/>
      </g>
     </g>
     <g id="text_10">
      <!-- 10 -->
      <g transform="translate(26.425 84.650531) scale(0.1 -0.1)">
       <use xlink:href="#ArialMT-31"/>
       <use xlink:href="#ArialMT-30" x="55.615234"/>
      </g>
     </g>
    </g>
    <g id="ytick_7">
     <g id="line2d_10">
      <g>
       <use xlink:href="#me9c312714e" x="44.546875" y="51.503625" style="stroke: #000000; stroke-width: 0.8"/>
      </g>
     </g>
     <g id="text_11">
      <!-- 20 -->
      <g transform="translate(26.425 55.082531) scale(0.1 -0.1)">
       <use xlink:href="#ArialMT-32"/>
       <use xlink:href="#ArialMT-30" x="55.615234"/>
      </g>
     </g>
    </g>
    <g id="ytick_8">
     <g id="line2d_11">
      <g>
       <use xlink:href="#me9c312714e" x="44.546875" y="21.935625" style="stroke: #000000; stroke-width: 0.8"/>
      </g>
     </g>
     <g id="text_12">
      <!-- 30 -->
      <g transform="translate(26.425 25.514531) scale(0.1 -0.1)">
       <use xlink:href="#ArialMT-33"/>
       <use xlink:href="#ArialMT-30" x="55.615234"/>
      </g>
     </g>
    </g>
    <g id="text_13">
     <!-- SNR (db) -->
     <g transform="translate(14.479687 153.652344) rotate(-90) scale(0.1 -0.1)">
      <defs>
       <path id="ArialMT-53" d="M 288 1472 
L 859 1522 
Q 900 1178 1048 958 
Q 1197 738 1509 602 
Q 1822 466 2213 466 
Q 2559 466 2825 569 
Q 3091 672 3220 851 
Q 3350 1031 3350 1244 
Q 3350 1459 3225 1620 
Q 3100 1781 2813 1891 
Q 2628 1963 1997 2114 
Q 1366 2266 1113 2400 
Q 784 2572 623 2826 
Q 463 3081 463 3397 
Q 463 3744 659 4045 
Q 856 4347 1234 4503 
Q 1613 4659 2075 4659 
Q 2584 4659 2973 4495 
Q 3363 4331 3572 4012 
Q 3781 3694 3797 3291 
L 3216 3247 
Q 3169 3681 2898 3903 
Q 2628 4125 2100 4125 
Q 1550 4125 1298 3923 
Q 1047 3722 1047 3438 
Q 1047 3191 1225 3031 
Q 1400 2872 2139 2705 
Q 2878 2538 3153 2413 
Q 3553 2228 3743 1945 
Q 3934 1663 3934 1294 
Q 3934 928 3725 604 
Q 3516 281 3123 101 
Q 2731 -78 2241 -78 
Q 1619 -78 1198 103 
Q 778 284 539 648 
Q 300 1013 288 1472 
z
" transform="scale(0.015625)"/>
       <path id="ArialMT-4e" d="M 488 0 
L 488 4581 
L 1109 4581 
L 3516 984 
L 3516 4581 
L 4097 4581 
L 4097 0 
L 3475 0 
L 1069 3600 
L 1069 0 
L 488 0 
z
" transform="scale(0.015625)"/>
       <path id="ArialMT-64" d="M 2575 0 
L 2575 419 
Q 2259 -75 1647 -75 
Q 1250 -75 917 144 
Q 584 363 401 755 
Q 219 1147 219 1656 
Q 219 2153 384 2558 
Q 550 2963 881 3178 
Q 1213 3394 1622 3394 
Q 1922 3394 2156 3267 
Q 2391 3141 2538 2938 
L 2538 4581 
L 3097 4581 
L 3097 0 
L 2575 0 
z
M 797 1656 
Q 797 1019 1065 703 
Q 1334 388 1700 388 
Q 2069 388 2326 689 
Q 2584 991 2584 1609 
Q 2584 2291 2321 2609 
Q 2059 2928 1675 2928 
Q 1300 2928 1048 2622 
Q 797 2316 797 1656 
z
" transform="scale(0.015625)"/>
       <path id="ArialMT-62" d="M 941 0 
L 419 0 
L 419 4581 
L 981 4581 
L 981 2947 
Q 1338 3394 1891 3394 
Q 2197 3394 2470 3270 
Q 2744 3147 2920 2923 
Q 3097 2700 3197 2384 
Q 3297 2069 3297 1709 
Q 3297 856 2875 390 
Q 2453 -75 1863 -75 
Q 1275 -75 941 416 
L 941 0 
z
M 934 1684 
Q 934 1088 1097 822 
Q 1363 388 1816 388 
Q 2184 388 2453 708 
Q 2722 1028 2722 1663 
Q 2722 2313 2464 2622 
Q 2206 2931 1841 2931 
Q 1472 2931 1203 2611 
Q 934 2291 934 1684 
z
" transform="scale(0.015625)"/>
      </defs>
      <use xlink:href="#ArialMT-53"/>
      <use xlink:href="#ArialMT-4e" x="66.699219"/>
      <use xlink:href="#ArialMT-52" x="138.916016"/>
      <use xlink:href="#ArialMT-20" x="211.132812"/>
      <use xlink:href="#ArialMT-28" x="238.916016"/>
      <use xlink:href="#ArialMT-64" x="272.216797"/>
      <use xlink:href="#ArialMT-62" x="327.832031"/>
      <use xlink:href="#ArialMT-29" x="383.447266"/>
     </g>
    </g>
   </g>
   <g id="line2d_12">
    <path d="M 65.668662 85.51074 
L 67.338368 86.061655 
L 69.008075 86.61257 
L 70.677781 87.163485 
L 72.347488 87.7144 
L 74.017194 88.265315 
L 75.686901 88.81623 
L 77.356607 89.367145 
L 79.026314 89.91806 
L 80.69602 90.468975 
L 82.365727 91.01989 
L 84.035433 91.570805 
L 85.705139 92.12172 
L 87.374846 92.672635 
L 89.044552 93.22355 
L 90.714259 93.774465 
L 92.383965 94.32538 
L 94.053672 94.876295 
L 95.723378 95.42721 
L 97.393085 95.978125 
L 99.062791 96.52904 
L 100.732498 97.079955 
L 102.402204 97.63087 
L 104.071911 98.181785 
L 105.741617 98.7327 
L 107.411324 99.283615 
L 109.08103 99.83453 
L 110.750736 100.385445 
L 112.420443 100.93636 
L 114.090149 101.487275 
L 115.759856 102.03819 
L 117.429562 102.589105 
L 119.099269 103.14002 
L 120.768975 103.690935 
L 122.438682 104.24185 
L 124.108388 104.792765 
L 125.778095 105.34368 
L 127.447801 105.894595 
L 129.117508 106.44551 
L 130.787214 106.996425 
L 132.456921 107.54734 
L 134.126627 108.098255 
L 135.796334 108.649169 
L 137.46604 109.200084 
L 139.135746 109.750999 
L 140.805453 110.301914 
L 142.475159 110.852829 
L 144.144866 111.403744 
L 145.814572 111.954659 
L 147.484279 112.505574 
L 149.153985 113.056489 
L 150.823692 113.607404 
L 152.493398 114.158319 
L 154.163105 114.709234 
L 155.832811 115.260149 
L 157.502518 115.811064 
L 159.172224 116.361979 
L 160.841931 116.912894 
L 162.511637 117.463809 
L 164.181344 118.014724 
L 165.85105 118.565639 
L 167.520756 119.116554 
L 169.190463 119.667469 
L 170.860169 120.218384 
L 172.529876 120.769299 
L 174.199582 121.320214 
L 175.869289 121.871129 
L 177.538995 122.422044 
L 179.208702 122.972959 
L 180.878408 123.523874 
L 182.548115 124.074789 
L 184.217821 124.625704 
L 185.887528 125.176619 
L 187.557234 125.727534 
L 189.226941 126.278449 
L 190.896647 126.829364 
L 192.566353 127.380279 
L 194.23606 127.931194 
L 195.905766 128.482109 
L 197.575473 129.033024 
L 199.245179 129.583939 
L 200.914886 130.134854 
L 202.584592 130.685769 
L 204.254299 131.236684 
L 205.924005 131.787599 
L 207.593712 132.338514 
L 209.263418 132.889428 
L 210.933125 133.440343 
L 212.602831 133.991258 
L 214.272538 134.542173 
L 215.942244 135.093088 
L 217.611951 135.644003 
L 219.281657 136.194918 
L 220.951363 136.745833 
L 222.62107 137.296748 
L 224.290776 137.847663 
L 225.960483 138.398578 
L 227.630189 138.949493 
L 229.299896 139.500408 
L 230.969602 140.051323 
" clip-path="url(#p16984c4958)" style="fill: none; stroke: #40498e; stroke-width: 2.25; stroke-linecap: square"/>
   </g>
   <g id="line2d_13">
    <path d="M 53.424148 48.267738 
L 53.758089 48.626262 
L 54.09203 48.984786 
L 54.425972 49.34331 
L 54.759913 49.701834 
L 55.093854 50.060359 
L 55.427795 50.418883 
L 55.761737 50.777407 
L 56.095678 51.135931 
L 56.429619 51.494456 
L 56.763561 51.85298 
L 57.097502 52.211504 
L 57.431443 52.570028 
L 57.765385 52.928553 
L 58.099326 53.287077 
L 58.433267 53.645601 
L 58.767208 54.004125 
L 59.10115 54.362649 
L 59.435091 54.721174 
L 59.769032 55.079698 
L 60.102974 55.438222 
L 60.436915 55.796746 
L 60.770856 56.155271 
L 61.104797 56.513795 
L 61.438739 56.872319 
L 61.77268 57.230843 
L 62.106621 57.589368 
L 62.440563 57.947892 
L 62.774504 58.306416 
L 63.108445 58.66494 
L 63.442387 59.023464 
L 63.776328 59.381989 
L 64.110269 59.740513 
L 64.44421 60.099037 
L 64.778152 60.457561 
L 65.112093 60.816086 
L 65.446034 61.17461 
L 65.779976 61.533134 
L 66.113917 61.891658 
L 66.447858 62.250183 
L 66.781799 62.608707 
L 67.115741 62.967231 
L 67.449682 63.325755 
L 67.783623 63.684279 
L 68.117565 64.042804 
L 68.451506 64.401328 
L 68.785447 64.759852 
L 69.119389 65.118376 
L 69.45333 65.476901 
L 69.787271 65.835425 
L 70.121212 66.193949 
L 70.455154 66.552473 
L 70.789095 66.910998 
L 71.123036 67.269522 
L 71.456978 67.628046 
L 71.790919 67.98657 
L 72.12486 68.345094 
L 72.458801 68.703619 
L 72.792743 69.062143 
L 73.126684 69.420667 
L 73.460625 69.779191 
L 73.794567 70.137716 
L 74.128508 70.49624 
L 74.462449 70.854764 
L 74.796391 71.213288 
L 75.130332 71.571813 
L 75.464273 71.930337 
L 75.798214 72.288861 
L 76.132156 72.647385 
L 76.466097 73.005909 
L 76.800038 73.364434 
L 77.13398 73.722958 
L 77.467921 74.081482 
L 77.801862 74.440006 
L 78.135803 74.798531 
L 78.469745 75.157055 
L 78.803686 75.515579 
L 79.137627 75.874103 
L 79.471569 76.232628 
L 79.80551 76.591152 
L 80.139451 76.949676 
L 80.473393 77.3082 
L 80.807334 77.666725 
L 81.141275 78.025249 
L 81.475216 78.383773 
L 81.809158 78.742297 
L 82.143099 79.100821 
L 82.47704 79.459346 
L 82.810982 79.81787 
L 83.144923 80.176394 
L 83.478864 80.534918 
L 83.812805 80.893443 
L 84.146747 81.251967 
L 84.480688 81.610491 
L 84.814629 81.969015 
L 85.148571 82.32754 
L 85.482512 82.686064 
L 85.816453 83.044588 
L 86.150395 83.403112 
L 86.484336 83.761636 
" clip-path="url(#p16984c4958)" style="fill: none; stroke: #0b0405; stroke-width: 2.25; stroke-linecap: square"/>
   </g>
   <g id="patch_3">
    <path d="M 44.546875 243.695625 
L 44.546875 21.935625 
" style="fill: none; stroke: #000000; stroke-width: 0.8; stroke-linejoin: miter; stroke-linecap: square"/>
   </g>
   <g id="patch_4">
    <path d="M 239.846875 243.695625 
L 239.846875 21.935625 
" style="fill: none; stroke: #000000; stroke-width: 0.8; stroke-linejoin: miter; stroke-linecap: square"/>
   </g>
   <g id="patch_5">
    <path d="M 44.546875 243.695625 
L 239.846875 243.695625 
" style="fill: none; stroke: #000000; stroke-width: 0.8; stroke-linejoin: miter; stroke-linecap: square"/>
   </g>
   <g id="patch_6">
    <path d="M 44.546875 21.935625 
L 239.846875 21.935625 
" style="fill: none; stroke: #000000; stroke-width: 0.8; stroke-linejoin: miter; stroke-linecap: square"/>
   </g>
   <g id="text_14">
    <!-- Spatial Frequency = 3.33 cpd -->
    <g transform="translate(63.985 15.935625) scale(0.12 -0.12)">
     <defs>
      <path id="ArialMT-70" d="M 422 -1272 
L 422 3319 
L 934 3319 
L 934 2888 
Q 1116 3141 1344 3267 
Q 1572 3394 1897 3394 
Q 2322 3394 2647 3175 
Q 2972 2956 3137 2557 
Q 3303 2159 3303 1684 
Q 3303 1175 3120 767 
Q 2938 359 2589 142 
Q 2241 -75 1856 -75 
Q 1575 -75 1351 44 
Q 1128 163 984 344 
L 984 -1272 
L 422 -1272 
z
M 931 1641 
Q 931 1000 1190 694 
Q 1450 388 1819 388 
Q 2194 388 2461 705 
Q 2728 1022 2728 1688 
Q 2728 2322 2467 2637 
Q 2206 2953 1844 2953 
Q 1484 2953 1207 2617 
Q 931 2281 931 1641 
z
" transform="scale(0.015625)"/>
      <path id="ArialMT-46" d="M 525 0 
L 525 4581 
L 3616 4581 
L 3616 4041 
L 1131 4041 
L 1131 2622 
L 3281 2622 
L 3281 2081 
L 1131 2081 
L 1131 0 
L 525 0 
z
" transform="scale(0.015625)"/>
      <path id="ArialMT-72" d="M 416 0 
L 416 3319 
L 922 3319 
L 922 2816 
Q 1116 3169 1280 3281 
Q 1444 3394 1641 3394 
Q 1925 3394 2219 3213 
L 2025 2691 
Q 1819 2813 1613 2813 
Q 1428 2813 1281 2702 
Q 1134 2591 1072 2394 
Q 978 2094 978 1738 
L 978 0 
L 416 0 
z
" transform="scale(0.015625)"/>
      <path id="ArialMT-65" d="M 2694 1069 
L 3275 997 
Q 3138 488 2766 206 
Q 2394 -75 1816 -75 
Q 1088 -75 661 373 
Q 234 822 234 1631 
Q 234 2469 665 2931 
Q 1097 3394 1784 3394 
Q 2450 3394 2872 2941 
Q 3294 2488 3294 1666 
Q 3294 1616 3291 1516 
L 816 1516 
Q 847 969 1125 678 
Q 1403 388 1819 388 
Q 2128 388 2347 550 
Q 2566 713 2694 1069 
z
M 847 1978 
L 2700 1978 
Q 2663 2397 2488 2606 
Q 2219 2931 1791 2931 
Q 1403 2931 1139 2672 
Q 875 2413 847 1978 
z
" transform="scale(0.015625)"/>
      <path id="ArialMT-71" d="M 2538 -1272 
L 2538 353 
Q 2406 169 2170 47 
Q 1934 -75 1669 -75 
Q 1078 -75 651 397 
Q 225 869 225 1691 
Q 225 2191 398 2587 
Q 572 2984 901 3189 
Q 1231 3394 1625 3394 
Q 2241 3394 2594 2875 
L 2594 3319 
L 3100 3319 
L 3100 -1272 
L 2538 -1272 
z
M 803 1669 
Q 803 1028 1072 708 
Q 1341 388 1716 388 
Q 2075 388 2334 692 
Q 2594 997 2594 1619 
Q 2594 2281 2320 2615 
Q 2047 2950 1678 2950 
Q 1313 2950 1058 2639 
Q 803 2328 803 1669 
z
" transform="scale(0.015625)"/>
      <path id="ArialMT-6e" d="M 422 0 
L 422 3319 
L 928 3319 
L 928 2847 
Q 1294 3394 1984 3394 
Q 2284 3394 2536 3286 
Q 2788 3178 2913 3003 
Q 3038 2828 3088 2588 
Q 3119 2431 3119 2041 
L 3119 0 
L 2556 0 
L 2556 2019 
Q 2556 2363 2490 2533 
Q 2425 2703 2258 2804 
Q 2091 2906 1866 2906 
Q 1506 2906 1245 2678 
Q 984 2450 984 1813 
L 984 0 
L 422 0 
z
" transform="scale(0.015625)"/>
      <path id="ArialMT-3d" d="M 3381 2694 
L 356 2694 
L 356 3219 
L 3381 3219 
L 3381 2694 
z
M 3381 1303 
L 356 1303 
L 356 1828 
L 3381 1828 
L 3381 1303 
z
" transform="scale(0.015625)"/>
      <path id="ArialMT-2e" d="M 581 0 
L 581 641 
L 1222 641 
L 1222 0 
L 581 0 
z
" transform="scale(0.015625)"/>
     </defs>
     <use xlink:href="#ArialMT-53"/>
     <use xlink:href="#ArialMT-70" x="66.699219"/>
     <use xlink:href="#ArialMT-61" x="122.314453"/>
     <use xlink:href="#ArialMT-74" x="177.929688"/>
     <use xlink:href="#ArialMT-69" x="205.712891"/>
     <use xlink:href="#ArialMT-61" x="227.929688"/>
     <use xlink:href="#ArialMT-6c" x="283.544922"/>
     <use xlink:href="#ArialMT-20" x="305.761719"/>
     <use xlink:href="#ArialMT-46" x="333.544922"/>
     <use xlink:href="#ArialMT-72" x="394.628906"/>
     <use xlink:href="#ArialMT-65" x="427.929688"/>
     <use xlink:href="#ArialMT-71" x="483.544922"/>
     <use xlink:href="#ArialMT-75" x="539.160156"/>
     <use xlink:href="#ArialMT-65" x="594.775391"/>
     <use xlink:href="#ArialMT-6e" x="650.390625"/>
     <use xlink:href="#ArialMT-63" x="706.005859"/>
     <use xlink:href="#ArialMT-79" x="756.005859"/>
     <use xlink:href="#ArialMT-20" x="806.005859"/>
     <use xlink:href="#ArialMT-3d" x="833.789062"/>
     <use xlink:href="#ArialMT-20" x="892.1875"/>
     <use xlink:href="#ArialMT-33" x="919.970703"/>
     <use xlink:href="#ArialMT-2e" x="975.585938"/>
     <use xlink:href="#ArialMT-33" x="1003.369141"/>
     <use xlink:href="#ArialMT-33" x="1058.984375"/>
     <use xlink:href="#ArialMT-20" x="1114.599609"/>
     <use xlink:href="#ArialMT-63" x="1142.382812"/>
     <use xlink:href="#ArialMT-70" x="1192.382812"/>
     <use xlink:href="#ArialMT-64" x="1247.998047"/>
    </g>
   </g>
   <g id="legend_1">
    <g id="patch_7">
     <path d="M 51.546875 238.695625 
L 160.265625 238.695625 
Q 162.265625 238.695625 162.265625 236.695625 
L 162.265625 188.18 
Q 162.265625 186.18 160.265625 186.18 
L 51.546875 186.18 
Q 49.546875 186.18 49.546875 188.18 
L 49.546875 236.695625 
Q 49.546875 238.695625 51.546875 238.695625 
z
" style="fill: #ffffff; opacity: 0.8; stroke: #cccccc; stroke-linejoin: miter"/>
    </g>
    <g id="PathCollection_3">
     <g>
      <use xlink:href="#ma6f60e0828" x="63.546875" y="201.012812" style="fill: #40498e; stroke: #ffffff; stroke-width: 0.48"/>
     </g>
    </g>
    <g id="text_15">
     <!-- CRB1: -->
     <g transform="translate(81.546875 197.337813) scale(0.1 -0.1)">
      <defs>
       <path id="ArialMT-43" d="M 3763 1606 
L 4369 1453 
Q 4178 706 3683 314 
Q 3188 -78 2472 -78 
Q 1731 -78 1267 223 
Q 803 525 561 1097 
Q 319 1669 319 2325 
Q 319 3041 592 3573 
Q 866 4106 1370 4382 
Q 1875 4659 2481 4659 
Q 3169 4659 3637 4309 
Q 4106 3959 4291 3325 
L 3694 3184 
Q 3534 3684 3231 3912 
Q 2928 4141 2469 4141 
Q 1941 4141 1586 3887 
Q 1231 3634 1087 3207 
Q 944 2781 944 2328 
Q 944 1744 1114 1308 
Q 1284 872 1643 656 
Q 2003 441 2422 441 
Q 2931 441 3284 734 
Q 3638 1028 3763 1606 
z
" transform="scale(0.015625)"/>
       <path id="ArialMT-42" d="M 469 0 
L 469 4581 
L 2188 4581 
Q 2713 4581 3030 4442 
Q 3347 4303 3526 4014 
Q 3706 3725 3706 3409 
Q 3706 3116 3547 2856 
Q 3388 2597 3066 2438 
Q 3481 2316 3704 2022 
Q 3928 1728 3928 1328 
Q 3928 1006 3792 729 
Q 3656 453 3456 303 
Q 3256 153 2954 76 
Q 2653 0 2216 0 
L 469 0 
z
M 1075 2656 
L 2066 2656 
Q 2469 2656 2644 2709 
Q 2875 2778 2992 2937 
Q 3109 3097 3109 3338 
Q 3109 3566 3000 3739 
Q 2891 3913 2687 3977 
Q 2484 4041 1991 4041 
L 1075 4041 
L 1075 2656 
z
M 1075 541 
L 2216 541 
Q 2509 541 2628 563 
Q 2838 600 2978 687 
Q 3119 775 3209 942 
Q 3300 1109 3300 1328 
Q 3300 1584 3169 1773 
Q 3038 1963 2805 2039 
Q 2572 2116 2134 2116 
L 1075 2116 
L 1075 541 
z
" transform="scale(0.015625)"/>
       <path id="ArialMT-3a" d="M 578 2678 
L 578 3319 
L 1219 3319 
L 1219 2678 
L 578 2678 
z
M 578 0 
L 578 641 
L 1219 641 
L 1219 0 
L 578 0 
z
" transform="scale(0.015625)"/>
      </defs>
      <use xlink:href="#ArialMT-43"/>
      <use xlink:href="#ArialMT-52" x="72.216797"/>
      <use xlink:href="#ArialMT-42" x="144.433594"/>
      <use xlink:href="#ArialMT-31" x="211.132812"/>
      <use xlink:href="#ArialMT-3a" x="266.748047"/>
     </g>
     <!--  r=-0.56, p=0.001 -->
     <g transform="translate(81.546875 207.950312) scale(0.1 -0.1)">
      <defs>
       <path id="ArialMT-2d" d="M 203 1375 
L 203 1941 
L 1931 1941 
L 1931 1375 
L 203 1375 
z
" transform="scale(0.015625)"/>
       <path id="ArialMT-35" d="M 266 1200 
L 856 1250 
Q 922 819 1161 601 
Q 1400 384 1738 384 
Q 2144 384 2425 690 
Q 2706 997 2706 1503 
Q 2706 1984 2436 2262 
Q 2166 2541 1728 2541 
Q 1456 2541 1237 2417 
Q 1019 2294 894 2097 
L 366 2166 
L 809 4519 
L 3088 4519 
L 3088 3981 
L 1259 3981 
L 1013 2750 
Q 1425 3038 1878 3038 
Q 2478 3038 2890 2622 
Q 3303 2206 3303 1553 
Q 3303 931 2941 478 
Q 2500 -78 1738 -78 
Q 1113 -78 717 272 
Q 322 622 266 1200 
z
" transform="scale(0.015625)"/>
       <path id="ArialMT-36" d="M 3184 3459 
L 2625 3416 
Q 2550 3747 2413 3897 
Q 2184 4138 1850 4138 
Q 1581 4138 1378 3988 
Q 1113 3794 959 3422 
Q 806 3050 800 2363 
Q 1003 2672 1297 2822 
Q 1591 2972 1913 2972 
Q 2475 2972 2870 2558 
Q 3266 2144 3266 1488 
Q 3266 1056 3080 686 
Q 2894 316 2569 119 
Q 2244 -78 1831 -78 
Q 1128 -78 684 439 
Q 241 956 241 2144 
Q 241 3472 731 4075 
Q 1159 4600 1884 4600 
Q 2425 4600 2770 4297 
Q 3116 3994 3184 3459 
z
M 888 1484 
Q 888 1194 1011 928 
Q 1134 663 1356 523 
Q 1578 384 1822 384 
Q 2178 384 2434 671 
Q 2691 959 2691 1453 
Q 2691 1928 2437 2201 
Q 2184 2475 1800 2475 
Q 1419 2475 1153 2201 
Q 888 1928 888 1484 
z
" transform="scale(0.015625)"/>
       <path id="ArialMT-2c" d="M 569 0 
L 569 641 
L 1209 641 
L 1209 0 
Q 1209 -353 1084 -570 
Q 959 -788 688 -906 
L 531 -666 
Q 709 -588 793 -436 
Q 878 -284 888 0 
L 569 0 
z
" transform="scale(0.015625)"/>
      </defs>
      <use xlink:href="#ArialMT-20"/>
      <use xlink:href="#ArialMT-72" x="27.783203"/>
      <use xlink:href="#ArialMT-3d" x="61.083984"/>
      <use xlink:href="#ArialMT-2d" x="119.482422"/>
      <use xlink:href="#ArialMT-30" x="152.783203"/>
      <use xlink:href="#ArialMT-2e" x="208.398438"/>
      <use xlink:href="#ArialMT-35" x="236.181641"/>
      <use xlink:href="#ArialMT-36" x="291.796875"/>
      <use xlink:href="#ArialMT-2c" x="347.412109"/>
      <use xlink:href="#ArialMT-20" x="375.195312"/>
      <use xlink:href="#ArialMT-70" x="402.978516"/>
      <use xlink:href="#ArialMT-3d" x="458.59375"/>
      <use xlink:href="#ArialMT-30" x="516.992188"/>
      <use xlink:href="#ArialMT-2e" x="572.607422"/>
      <use xlink:href="#ArialMT-30" x="600.390625"/>
      <use xlink:href="#ArialMT-30" x="656.005859"/>
      <use xlink:href="#ArialMT-31" x="711.621094"/>
     </g>
    </g>
    <g id="PathCollection_4">
     <g>
      <use xlink:href="#m8c6a17f786" x="63.546875" y="225.770625" style="fill: #0b0405; stroke: #ffffff; stroke-width: 0.48"/>
     </g>
    </g>
    <g id="text_16">
     <!-- Controls: -->
     <g transform="translate(81.546875 222.095625) scale(0.1 -0.1)">
      <use xlink:href="#ArialMT-43"/>
      <use xlink:href="#ArialMT-6f" x="72.216797"/>
      <use xlink:href="#ArialMT-6e" x="127.832031"/>
      <use xlink:href="#ArialMT-74" x="183.447266"/>
      <use xlink:href="#ArialMT-72" x="211.230469"/>
      <use xlink:href="#ArialMT-6f" x="244.53125"/>
      <use xlink:href="#ArialMT-6c" x="300.146484"/>
      <use xlink:href="#ArialMT-73" x="322.363281"/>
      <use xlink:href="#ArialMT-3a" x="372.363281"/>
     </g>
     <!--  r=-0.49, p=0.006 -->
     <g transform="translate(81.546875 232.708125) scale(0.1 -0.1)">
      <defs>
       <path id="ArialMT-39" d="M 350 1059 
L 891 1109 
Q 959 728 1153 556 
Q 1347 384 1650 384 
Q 1909 384 2104 503 
Q 2300 622 2425 820 
Q 2550 1019 2634 1356 
Q 2719 1694 2719 2044 
Q 2719 2081 2716 2156 
Q 2547 1888 2255 1720 
Q 1963 1553 1622 1553 
Q 1053 1553 659 1965 
Q 266 2378 266 3053 
Q 266 3750 677 4175 
Q 1088 4600 1706 4600 
Q 2153 4600 2523 4359 
Q 2894 4119 3086 3673 
Q 3278 3228 3278 2384 
Q 3278 1506 3087 986 
Q 2897 466 2520 194 
Q 2144 -78 1638 -78 
Q 1100 -78 759 220 
Q 419 519 350 1059 
z
M 2653 3081 
Q 2653 3566 2395 3850 
Q 2138 4134 1775 4134 
Q 1400 4134 1122 3828 
Q 844 3522 844 3034 
Q 844 2597 1108 2323 
Q 1372 2050 1759 2050 
Q 2150 2050 2401 2323 
Q 2653 2597 2653 3081 
z
" transform="scale(0.015625)"/>
      </defs>
      <use xlink:href="#ArialMT-20"/>
      <use xlink:href="#ArialMT-72" x="27.783203"/>
      <use xlink:href="#ArialMT-3d" x="61.083984"/>
      <use xlink:href="#ArialMT-2d" x="119.482422"/>
      <use xlink:href="#ArialMT-30" x="152.783203"/>
      <use xlink:href="#ArialMT-2e" x="208.398438"/>
      <use xlink:href="#ArialMT-34" x="236.181641"/>
      <use xlink:href="#ArialMT-39" x="291.796875"/>
      <use xlink:href="#ArialMT-2c" x="347.412109"/>
      <use xlink:href="#ArialMT-20" x="375.195312"/>
      <use xlink:href="#ArialMT-70" x="402.978516"/>
      <use xlink:href="#ArialMT-3d" x="458.59375"/>
      <use xlink:href="#ArialMT-30" x="516.992188"/>
      <use xlink:href="#ArialMT-2e" x="572.607422"/>
      <use xlink:href="#ArialMT-30" x="600.390625"/>
      <use xlink:href="#ArialMT-30" x="656.005859"/>
      <use xlink:href="#ArialMT-36" x="711.621094"/>
     </g>
    </g>
   </g>
  </g>
 </g>
 <defs>
  <clipPath id="p16984c4958">
   <rect x="44.546875" y="21.935625" width="195.3" height="221.76"/>
  </clipPath>
 </defs>
</svg>
