<?xml version="1.0" encoding="utf-8" standalone="no"?>
<!DOCTYPE svg PUBLIC "-//W3C//DTD SVG 1.1//EN"
  "http://www.w3.org/Graphics/SVG/1.1/DTD/svg11.dtd">
<svg xmlns:xlink="http://www.w3.org/1999/xlink" width="247.046875pt" height="280.425313pt" viewBox="0 0 247.046875 280.425313" xmlns="http://www.w3.org/2000/svg" version="1.1">
 <metadata>
  <rdf:RDF xmlns:dc="http://purl.org/dc/elements/1.1/" xmlns:cc="http://creativecommons.org/ns#" xmlns:rdf="http://www.w3.org/1999/02/22-rdf-syntax-ns#">
   <cc:Work>
    <dc:type rdf:resource="http://purl.org/dc/dcmitype/StillImage"/>
    <dc:date>2024-08-15T21:24:39.954711</dc:date>
    <dc:format>image/svg+xml</dc:format>
    <dc:creator>
     <cc:Agent>
      <dc:title>Matplotlib v3.8.2, https://matplotlib.org/</dc:title>
     </cc:Agent>
    </dc:creator>
   </cc:Work>
  </rdf:RDF>
 </metadata>
 <defs>
  <style type="text/css">*{stroke-linejoin: round; stroke-linecap: butt}</style>
 </defs>
 <g id="figure_1">
  <g id="patch_1">
   <path d="M 0 280.425313 
L 247.046875 280.425313 
L 247.046875 0 
L 0 0 
z
" style="fill: #ffffff"/>
  </g>
  <g id="axes_1">
   <g id="patch_2">
    <path d="M 44.546875 243.695625 
L 239.846875 243.695625 
L 239.846875 21.935625 
L 44.546875 21.935625 
z
" style="fill: #ffffff"/>
   </g>
   <g id="PathCollection_1">
    <defs>
     <path id="m4de3c42b9a" d="M 0 3 
C 0.795609 3 1.55874 2.683901 2.12132 2.12132 
C 2.683901 1.55874 3 0.795609 3 0 
C 3 -0.795609 2.683901 -1.55874 2.12132 -2.12132 
C 1.55874 -2.683901 0.795609 -3 0 -3 
C -0.795609 -3 -1.55874 -2.683901 -2.12132 -2.12132 
C -2.683901 -1.55874 -3 -0.795609 -3 0 
C -3 0.795609 -2.683901 1.55874 -2.12132 2.12132 
C -1.55874 2.683901 -0.795609 3 0 3 
z
" style="stroke: #ffffff; stroke-width: 0.48"/>
    </defs>
    <g clip-path="url(#p31f25f78b0)">
     <use xlink:href="#m4de3c42b9a" x="95.055496" y="137.819551" style="fill: #40498e; stroke: #ffffff; stroke-width: 0.48"/>
     <use xlink:href="#m4de3c42b9a" x="85.259884" y="105.626113" style="fill: #40498e; stroke: #ffffff; stroke-width: 0.48"/>
     <use xlink:href="#m4de3c42b9a" x="108.524461" y="71.609846" style="fill: #40498e; stroke: #ffffff; stroke-width: 0.48"/>
     <use xlink:href="#m4de3c42b9a" x="96.279947" y="55.720106" style="fill: #40498e; stroke: #ffffff; stroke-width: 0.48"/>
     <use xlink:href="#m4de3c42b9a" x="206.480574" y="97.444941" style="fill: #40498e; stroke: #ffffff; stroke-width: 0.48"/>
     <use xlink:href="#m4de3c42b9a" x="206.480574" y="103.711912" style="fill: #40498e; stroke: #ffffff; stroke-width: 0.48"/>
     <use xlink:href="#m4de3c42b9a" x="119.544524" y="124.59341" style="fill: #40498e; stroke: #ffffff; stroke-width: 0.48"/>
     <use xlink:href="#m4de3c42b9a" x="118.320072" y="104.160529" style="fill: #40498e; stroke: #ffffff; stroke-width: 0.48"/>
     <use xlink:href="#m4de3c42b9a" x="85.259884" y="126.720389" style="fill: #40498e; stroke: #ffffff; stroke-width: 0.48"/>
     <use xlink:href="#m4de3c42b9a" x="151.380261" y="107.98473" style="fill: #40498e; stroke: #ffffff; stroke-width: 0.48"/>
     <use xlink:href="#m4de3c42b9a" x="124.44233" y="112.002694" style="fill: #40498e; stroke: #ffffff; stroke-width: 0.48"/>
     <use xlink:href="#m4de3c42b9a" x="119.544524" y="97.202901" style="fill: #40498e; stroke: #ffffff; stroke-width: 0.48"/>
     <use xlink:href="#m4de3c42b9a" x="145.258004" y="97.679528" style="fill: #40498e; stroke: #ffffff; stroke-width: 0.48"/>
     <use xlink:href="#m4de3c42b9a" x="145.258004" y="107.417427" style="fill: #40498e; stroke: #ffffff; stroke-width: 0.48"/>
     <use xlink:href="#m4de3c42b9a" x="162.400323" y="88.950432" style="fill: #40498e; stroke: #ffffff; stroke-width: 0.48"/>
     <use xlink:href="#m4de3c42b9a" x="186.889351" y="112.431268" style="fill: #40498e; stroke: #ffffff; stroke-width: 0.48"/>
     <use xlink:href="#m4de3c42b9a" x="96.279947" y="95.152995" style="fill: #40498e; stroke: #ffffff; stroke-width: 0.48"/>
     <use xlink:href="#m4de3c42b9a" x="96.279947" y="103.893798" style="fill: #40498e; stroke: #ffffff; stroke-width: 0.48"/>
     <use xlink:href="#m4de3c42b9a" x="80.362079" y="101.064711" style="fill: #40498e; stroke: #ffffff; stroke-width: 0.48"/>
     <use xlink:href="#m4de3c42b9a" x="85.259884" y="90.696594" style="fill: #40498e; stroke: #ffffff; stroke-width: 0.48"/>
     <use xlink:href="#m4de3c42b9a" x="75.464273" y="56.727677" style="fill: #40498e; stroke: #ffffff; stroke-width: 0.48"/>
     <use xlink:href="#m4de3c42b9a" x="85.259884" y="94.987539" style="fill: #40498e; stroke: #ffffff; stroke-width: 0.48"/>
     <use xlink:href="#m4de3c42b9a" x="65.668662" y="76.4624" style="fill: #40498e; stroke: #ffffff; stroke-width: 0.48"/>
     <use xlink:href="#m4de3c42b9a" x="104.851107" y="88.970916" style="fill: #40498e; stroke: #ffffff; stroke-width: 0.48"/>
     <use xlink:href="#m4de3c42b9a" x="68.117565" y="57.141994" style="fill: #40498e; stroke: #ffffff; stroke-width: 0.48"/>
     <use xlink:href="#m4de3c42b9a" x="66.893113" y="71.137279" style="fill: #40498e; stroke: #ffffff; stroke-width: 0.48"/>
     <use xlink:href="#m4de3c42b9a" x="79.137627" y="108.708326" style="fill: #40498e; stroke: #ffffff; stroke-width: 0.48"/>
     <use xlink:href="#m4de3c42b9a" x="75.464273" y="90.180634" style="fill: #40498e; stroke: #ffffff; stroke-width: 0.48"/>
     <use xlink:href="#m4de3c42b9a" x="230.969602" y="123.630796" style="fill: #40498e; stroke: #ffffff; stroke-width: 0.48"/>
     <use xlink:href="#m4de3c42b9a" x="206.480574" y="126.105525" style="fill: #40498e; stroke: #ffffff; stroke-width: 0.48"/>
     <use xlink:href="#m4de3c42b9a" x="206.480574" y="137.815964" style="fill: #40498e; stroke: #ffffff; stroke-width: 0.48"/>
     <use xlink:href="#m4de3c42b9a" x="230.969602" y="128.955059" style="fill: #40498e; stroke: #ffffff; stroke-width: 0.48"/>
    </g>
   </g>
   <g id="PathCollection_2">
    <defs>
     <path id="m5c9c417e4f" d="M 0 3 
C 0.795609 3 1.55874 2.683901 2.12132 2.12132 
C 2.683901 1.55874 3 0.795609 3 0 
C 3 -0.795609 2.683901 -1.55874 2.12132 -2.12132 
C 1.55874 -2.683901 0.795609 -3 0 -3 
C -0.795609 -3 -1.55874 -2.683901 -2.12132 -2.12132 
C -2.683901 -1.55874 -3 -0.795609 -3 0 
C -3 0.795609 -2.683901 1.55874 -2.12132 2.12132 
C -1.55874 2.683901 -0.795609 3 0 3 
z
" style="stroke: #ffffff; stroke-width: 0.48"/>
    </defs>
    <g clip-path="url(#p31f25f78b0)">
     <use xlink:href="#m5c9c417e4f" x="60.770856" y="63.158778" style="fill: #0b0405; stroke: #ffffff; stroke-width: 0.48"/>
     <use xlink:href="#m5c9c417e4f" x="64.44421" y="60.183624" style="fill: #0b0405; stroke: #ffffff; stroke-width: 0.48"/>
     <use xlink:href="#m5c9c417e4f" x="66.893113" y="68.906519" style="fill: #0b0405; stroke: #ffffff; stroke-width: 0.48"/>
     <use xlink:href="#m5c9c417e4f" x="66.893113" y="68.122104" style="fill: #0b0405; stroke: #ffffff; stroke-width: 0.48"/>
     <use xlink:href="#m5c9c417e4f" x="60.770856" y="42.800968" style="fill: #0b0405; stroke: #ffffff; stroke-width: 0.48"/>
     <use xlink:href="#m5c9c417e4f" x="69.342016" y="49.358638" style="fill: #0b0405; stroke: #ffffff; stroke-width: 0.48"/>
     <use xlink:href="#m5c9c417e4f" x="68.117565" y="59.043487" style="fill: #0b0405; stroke: #ffffff; stroke-width: 0.48"/>
     <use xlink:href="#m5c9c417e4f" x="73.01537" y="53.418706" style="fill: #0b0405; stroke: #ffffff; stroke-width: 0.48"/>
     <use xlink:href="#m5c9c417e4f" x="71.790919" y="76.238447" style="fill: #0b0405; stroke: #ffffff; stroke-width: 0.48"/>
     <use xlink:href="#m5c9c417e4f" x="73.01537" y="76.225103" style="fill: #0b0405; stroke: #ffffff; stroke-width: 0.48"/>
     <use xlink:href="#m5c9c417e4f" x="58.321953" y="70.157069" style="fill: #0b0405; stroke: #ffffff; stroke-width: 0.48"/>
     <use xlink:href="#m5c9c417e4f" x="63.219759" y="58.601573" style="fill: #0b0405; stroke: #ffffff; stroke-width: 0.48"/>
     <use xlink:href="#m5c9c417e4f" x="64.44421" y="45.109125" style="fill: #0b0405; stroke: #ffffff; stroke-width: 0.48"/>
     <use xlink:href="#m5c9c417e4f" x="61.995308" y="65.26591" style="fill: #0b0405; stroke: #ffffff; stroke-width: 0.48"/>
     <use xlink:href="#m5c9c417e4f" x="69.342016" y="64.782024" style="fill: #0b0405; stroke: #ffffff; stroke-width: 0.48"/>
     <use xlink:href="#m5c9c417e4f" x="58.321953" y="62.883403" style="fill: #0b0405; stroke: #ffffff; stroke-width: 0.48"/>
     <use xlink:href="#m5c9c417e4f" x="64.44421" y="43.703684" style="fill: #0b0405; stroke: #ffffff; stroke-width: 0.48"/>
     <use xlink:href="#m5c9c417e4f" x="63.219759" y="56.015122" style="fill: #0b0405; stroke: #ffffff; stroke-width: 0.48"/>
     <use xlink:href="#m5c9c417e4f" x="80.362079" y="65.961647" style="fill: #0b0405; stroke: #ffffff; stroke-width: 0.48"/>
     <use xlink:href="#m5c9c417e4f" x="86.484336" y="67.037715" style="fill: #0b0405; stroke: #ffffff; stroke-width: 0.48"/>
     <use xlink:href="#m5c9c417e4f" x="65.668662" y="99.791453" style="fill: #0b0405; stroke: #ffffff; stroke-width: 0.48"/>
     <use xlink:href="#m5c9c417e4f" x="69.342016" y="93.093647" style="fill: #0b0405; stroke: #ffffff; stroke-width: 0.48"/>
     <use xlink:href="#m5c9c417e4f" x="64.44421" y="65.145224" style="fill: #0b0405; stroke: #ffffff; stroke-width: 0.48"/>
     <use xlink:href="#m5c9c417e4f" x="60.770856" y="58.816484" style="fill: #0b0405; stroke: #ffffff; stroke-width: 0.48"/>
     <use xlink:href="#m5c9c417e4f" x="80.362079" y="78.258394" style="fill: #0b0405; stroke: #ffffff; stroke-width: 0.48"/>
     <use xlink:href="#m5c9c417e4f" x="64.44421" y="102.726797" style="fill: #0b0405; stroke: #ffffff; stroke-width: 0.48"/>
     <use xlink:href="#m5c9c417e4f" x="64.44421" y="44.535283" style="fill: #0b0405; stroke: #ffffff; stroke-width: 0.48"/>
     <use xlink:href="#m5c9c417e4f" x="64.44421" y="43.733584" style="fill: #0b0405; stroke: #ffffff; stroke-width: 0.48"/>
     <use xlink:href="#m5c9c417e4f" x="53.424148" y="34.471123" style="fill: #0b0405; stroke: #ffffff; stroke-width: 0.48"/>
     <use xlink:href="#m5c9c417e4f" x="53.424148" y="51.757665" style="fill: #0b0405; stroke: #ffffff; stroke-width: 0.48"/>
    </g>
   </g>
   <g id="PolyCollection_1">
    <path d="M 65.668662 75.69245 
L 65.668662 98.748346 
L 67.338368 98.948281 
L 69.008075 99.193797 
L 70.677781 99.439313 
L 72.347488 99.682259 
L 74.017194 99.923952 
L 75.686901 100.08021 
L 77.356607 100.314219 
L 79.026314 100.48267 
L 80.69602 100.650613 
L 82.365727 100.816396 
L 84.035433 101.043085 
L 85.705139 101.179453 
L 87.374846 101.319133 
L 89.044552 101.503278 
L 90.714259 101.771207 
L 92.383965 102.018683 
L 94.053672 102.159217 
L 95.723378 102.379322 
L 97.393085 102.553033 
L 99.062791 102.727956 
L 100.732498 102.9473 
L 102.402204 103.166644 
L 104.071911 103.451997 
L 105.741617 103.7449 
L 107.411324 104.044893 
L 109.08103 104.321959 
L 110.750736 104.471794 
L 112.420443 104.635721 
L 114.090149 104.929879 
L 115.759856 105.135832 
L 117.429562 105.410823 
L 119.099269 105.627829 
L 120.768975 105.947451 
L 122.438682 106.190154 
L 124.108388 106.578887 
L 125.778095 106.96712 
L 127.447801 107.354767 
L 129.117508 107.741533 
L 130.787214 107.981882 
L 132.456921 108.220561 
L 134.126627 108.455728 
L 135.796334 108.70301 
L 137.46604 108.976424 
L 139.135746 109.412595 
L 140.805453 109.679225 
L 142.475159 109.973736 
L 144.144866 110.34408 
L 145.814572 110.63891 
L 147.484279 110.999179 
L 149.153985 111.311631 
L 150.823692 111.749821 
L 152.493398 112.090519 
L 154.163105 112.440414 
L 155.832811 112.88993 
L 157.502518 113.237995 
L 159.172224 113.763906 
L 160.841931 114.14479 
L 162.511637 114.481476 
L 164.181344 114.856193 
L 165.85105 115.253423 
L 167.520756 115.673858 
L 169.190463 116.166709 
L 170.860169 116.657785 
L 172.529876 117.140184 
L 174.199582 117.620165 
L 175.869289 118.057519 
L 177.538995 118.544833 
L 179.208702 118.999071 
L 180.878408 119.504683 
L 182.548115 120.009639 
L 184.217821 120.527449 
L 185.887528 120.955121 
L 187.557234 121.356521 
L 189.226941 121.746298 
L 190.896647 122.2072 
L 192.566353 122.639386 
L 194.23606 123.138046 
L 195.905766 123.654454 
L 197.575473 124.100021 
L 199.245179 124.542717 
L 200.914886 125.027731 
L 202.584592 125.479205 
L 204.254299 125.970139 
L 205.924005 126.520608 
L 207.593712 126.972466 
L 209.263418 127.554386 
L 210.933125 128.135859 
L 212.602831 128.716254 
L 214.272538 129.221946 
L 215.942244 129.696673 
L 217.611951 130.153409 
L 219.281657 130.610145 
L 220.951363 131.135497 
L 222.62107 131.638146 
L 224.290776 132.121084 
L 225.960483 132.638924 
L 227.630189 133.15024 
L 229.299896 133.717875 
L 230.969602 134.195028 
L 230.969602 112.728814 
L 230.969602 112.728814 
L 229.299896 112.594374 
L 227.630189 112.459934 
L 225.960483 112.325495 
L 224.290776 112.191055 
L 222.62107 112.056616 
L 220.951363 111.885897 
L 219.281657 111.657845 
L 217.611951 111.430567 
L 215.942244 111.149598 
L 214.272538 110.874233 
L 212.602831 110.729531 
L 210.933125 110.521704 
L 209.263418 110.293333 
L 207.593712 110.062456 
L 205.924005 109.820323 
L 204.254299 109.576102 
L 202.584592 109.344093 
L 200.914886 109.081601 
L 199.245179 108.830116 
L 197.575473 108.513884 
L 195.905766 108.202646 
L 194.23606 107.927975 
L 192.566353 107.676531 
L 190.896647 107.513146 
L 189.226941 107.135428 
L 187.557234 106.825512 
L 185.887528 106.513337 
L 184.217821 106.241973 
L 182.548115 105.998013 
L 180.878408 105.720958 
L 179.208702 105.447519 
L 177.538995 105.174079 
L 175.869289 104.882555 
L 174.199582 104.580535 
L 172.529876 104.387888 
L 170.860169 104.160191 
L 169.190463 103.920941 
L 167.520756 103.524443 
L 165.85105 103.221095 
L 164.181344 102.974177 
L 162.511637 102.697038 
L 160.841931 102.344138 
L 159.172224 102.092448 
L 157.502518 101.717712 
L 155.832811 101.262206 
L 154.163105 100.893386 
L 152.493398 100.483571 
L 150.823692 100.12859 
L 149.153985 99.77482 
L 147.484279 99.421084 
L 145.814572 99.011607 
L 144.144866 98.649427 
L 142.475159 98.267778 
L 140.805453 97.759376 
L 139.135746 97.40619 
L 137.46604 96.910457 
L 135.796334 96.596456 
L 134.126627 96.126052 
L 132.456921 95.900607 
L 130.787214 95.46391 
L 129.117508 95.116191 
L 127.447801 94.593064 
L 125.778095 94.12878 
L 124.108388 93.743528 
L 122.438682 93.19899 
L 120.768975 92.811324 
L 119.099269 92.502115 
L 117.429562 92.063976 
L 115.759856 91.617529 
L 114.090149 91.085016 
L 112.420443 90.578333 
L 110.750736 90.081801 
L 109.08103 89.541019 
L 107.411324 89.089442 
L 105.741617 88.669107 
L 104.071911 88.135599 
L 102.402204 87.589197 
L 100.732498 87.047294 
L 99.062791 86.505392 
L 97.393085 85.96349 
L 95.723378 85.422006 
L 94.053672 84.801444 
L 92.383965 84.196508 
L 90.714259 83.670478 
L 89.044552 83.192131 
L 87.374846 82.719057 
L 85.705139 82.178525 
L 84.035433 81.600089 
L 82.365727 81.002407 
L 80.69602 80.462224 
L 79.026314 79.972015 
L 77.356607 79.475868 
L 75.686901 78.935337 
L 74.017194 78.394806 
L 72.347488 77.854274 
L 70.677781 77.313743 
L 69.008075 76.773324 
L 67.338368 76.26578 
L 65.668662 75.69245 
z
" clip-path="url(#p31f25f78b0)" style="fill: #40498e; fill-opacity: 0.15"/>
   </g>
   <g id="PolyCollection_2">
    <path d="M 53.424148 44.5372 
L 53.424148 63.26858 
L 53.758089 63.363658 
L 54.09203 63.471524 
L 54.425972 63.609157 
L 54.759913 63.74619 
L 55.093854 63.882606 
L 55.427795 63.968915 
L 55.761737 64.043998 
L 56.095678 64.191493 
L 56.429619 64.338107 
L 56.763561 64.47328 
L 57.097502 64.56701 
L 57.431443 64.661289 
L 57.765385 64.766181 
L 58.099326 64.928571 
L 58.433267 64.94088 
L 58.767208 65.035623 
L 59.10115 65.126962 
L 59.435091 65.30289 
L 59.769032 65.37062 
L 60.102974 65.447161 
L 60.436915 65.554859 
L 60.770856 65.685696 
L 61.104797 65.871322 
L 61.438739 66.083289 
L 61.77268 66.248969 
L 62.106621 66.289824 
L 62.440563 66.564543 
L 62.774504 66.789973 
L 63.108445 66.948396 
L 63.442387 67.13196 
L 63.776328 67.35638 
L 64.110269 67.421224 
L 64.44421 67.585364 
L 64.778152 67.873998 
L 65.112093 67.895603 
L 65.446034 68.03615 
L 65.779976 68.300745 
L 66.113917 68.58027 
L 66.447858 68.841298 
L 66.781799 69.141269 
L 67.115741 69.553488 
L 67.449682 69.863544 
L 67.783623 70.174428 
L 68.117565 70.352893 
L 68.451506 70.74925 
L 68.785447 71.147566 
L 69.119389 71.506359 
L 69.45333 71.862165 
L 69.787271 72.14146 
L 70.121212 72.530923 
L 70.455154 72.875361 
L 70.789095 73.313676 
L 71.123036 73.838708 
L 71.456978 74.346415 
L 71.790919 74.791063 
L 72.12486 75.254859 
L 72.458801 75.675636 
L 72.792743 76.117912 
L 73.126684 76.576968 
L 73.460625 77.026096 
L 73.794567 77.444052 
L 74.128508 77.886031 
L 74.462449 78.311611 
L 74.796391 78.733607 
L 75.130332 79.155603 
L 75.464273 79.5776 
L 75.798214 79.999596 
L 76.132156 80.543451 
L 76.466097 80.986688 
L 76.800038 81.426809 
L 77.13398 81.808045 
L 77.467921 82.298432 
L 77.801862 82.754489 
L 78.135803 83.198313 
L 78.469745 83.641196 
L 78.803686 84.082349 
L 79.137627 84.523241 
L 79.471569 84.966129 
L 79.80551 85.409246 
L 80.139451 85.893136 
L 80.473393 86.346217 
L 80.807334 86.839953 
L 81.141275 87.30777 
L 81.475216 87.775588 
L 81.809158 88.243405 
L 82.143099 88.710669 
L 82.47704 89.176585 
L 82.810982 89.642501 
L 83.144923 90.108418 
L 83.478864 90.555099 
L 83.812805 90.995125 
L 84.146747 91.481985 
L 84.480688 91.968844 
L 84.814629 92.443259 
L 85.148571 92.91079 
L 85.482512 93.378322 
L 85.816453 93.845853 
L 86.150395 94.313385 
L 86.484336 94.780916 
L 86.484336 68.273407 
L 86.484336 68.273407 
L 86.150395 68.142983 
L 85.816453 68.012559 
L 85.482512 67.882135 
L 85.148571 67.751711 
L 84.814629 67.616834 
L 84.480688 67.47796 
L 84.146747 67.339085 
L 83.812805 67.227055 
L 83.478864 67.131136 
L 83.144923 66.996324 
L 82.810982 66.841732 
L 82.47704 66.702685 
L 82.143099 66.523488 
L 81.809158 66.410462 
L 81.475216 66.264296 
L 81.141275 66.143234 
L 80.807334 66.076415 
L 80.473393 66.009962 
L 80.139451 65.942507 
L 79.80551 65.816005 
L 79.471569 65.679273 
L 79.137627 65.49833 
L 78.803686 65.321815 
L 78.469745 65.145998 
L 78.135803 64.994973 
L 77.801862 64.862417 
L 77.467921 64.617478 
L 77.13398 64.44104 
L 76.800038 64.265858 
L 76.466097 64.116478 
L 76.132156 63.968379 
L 75.798214 63.827699 
L 75.464273 63.696796 
L 75.130332 63.556704 
L 74.796391 63.415107 
L 74.462449 63.265041 
L 74.128508 63.135963 
L 73.794567 62.995652 
L 73.460625 62.799782 
L 73.126684 62.607084 
L 72.792743 62.39005 
L 72.458801 62.177328 
L 72.12486 61.968261 
L 71.790919 61.761071 
L 71.456978 61.554605 
L 71.123036 61.348139 
L 70.789095 61.114969 
L 70.455154 60.92047 
L 70.121212 60.687902 
L 69.787271 60.406161 
L 69.45333 60.206235 
L 69.119389 59.922301 
L 68.785447 59.651052 
L 68.451506 59.441928 
L 68.117565 59.30296 
L 67.783623 59.10757 
L 67.449682 58.84176 
L 67.115741 58.580885 
L 66.781799 58.268576 
L 66.447858 57.953736 
L 66.113917 57.638895 
L 65.779976 57.324055 
L 65.446034 57.037426 
L 65.112093 56.734677 
L 64.778152 56.415876 
L 64.44421 56.15169 
L 64.110269 55.819571 
L 63.776328 55.499304 
L 63.442387 55.193616 
L 63.108445 54.913677 
L 62.774504 54.527781 
L 62.440563 54.213622 
L 62.106621 53.871349 
L 61.77268 53.545975 
L 61.438739 53.21991 
L 61.104797 52.909087 
L 60.770856 52.571009 
L 60.436915 52.240111 
L 60.102974 51.887035 
L 59.769032 51.531845 
L 59.435091 51.178415 
L 59.10115 50.85445 
L 58.767208 50.525935 
L 58.433267 50.138804 
L 58.099326 49.804154 
L 57.765385 49.469504 
L 57.431443 49.069573 
L 57.097502 48.768443 
L 56.763561 48.340937 
L 56.429619 47.877458 
L 56.095678 47.568619 
L 55.761737 47.134795 
L 55.427795 46.747339 
L 55.093854 46.391916 
L 54.759913 46.010531 
L 54.425972 45.642199 
L 54.09203 45.273866 
L 53.758089 44.905533 
L 53.424148 44.5372 
z
" clip-path="url(#p31f25f78b0)" style="fill: #0b0405; fill-opacity: 0.15"/>
   </g>
   <g id="matplotlib.axis_1">
    <g id="xtick_1">
     <g id="line2d_1">
      <defs>
       <path id="m6b33656b5d" d="M 0 0 
L 0 3.5 
" style="stroke: #000000; stroke-width: 0.8"/>
      </defs>
      <g>
       <use xlink:href="#m6b33656b5d" x="65.668662" y="243.695625" style="stroke: #000000; stroke-width: 0.8"/>
      </g>
     </g>
     <g id="text_1">
      <!-- 0 -->
      <g transform="translate(62.888193 257.853438) scale(0.1 -0.1)">
       <defs>
        <path id="ArialMT-30" d="M 266 2259 
Q 266 3072 433 3567 
Q 600 4063 929 4331 
Q 1259 4600 1759 4600 
Q 2128 4600 2406 4451 
Q 2684 4303 2865 4023 
Q 3047 3744 3150 3342 
Q 3253 2941 3253 2259 
Q 3253 1453 3087 958 
Q 2922 463 2592 192 
Q 2263 -78 1759 -78 
Q 1097 -78 719 397 
Q 266 969 266 2259 
z
M 844 2259 
Q 844 1131 1108 757 
Q 1372 384 1759 384 
Q 2147 384 2411 759 
Q 2675 1134 2675 2259 
Q 2675 3391 2411 3762 
Q 2147 4134 1753 4134 
Q 1366 4134 1134 3806 
Q 844 3388 844 2259 
z
" transform="scale(0.015625)"/>
       </defs>
       <use xlink:href="#ArialMT-30"/>
      </g>
     </g>
    </g>
    <g id="xtick_2">
     <g id="line2d_2">
      <g>
       <use xlink:href="#m6b33656b5d" x="126.891232" y="243.695625" style="stroke: #000000; stroke-width: 0.8"/>
      </g>
     </g>
     <g id="text_2">
      <!-- 1 -->
      <g transform="translate(124.110764 257.853438) scale(0.1 -0.1)">
       <defs>
        <path id="ArialMT-31" d="M 2384 0 
L 1822 0 
L 1822 3584 
Q 1619 3391 1289 3197 
Q 959 3003 697 2906 
L 697 3450 
Q 1169 3672 1522 3987 
Q 1875 4303 2022 4600 
L 2384 4600 
L 2384 0 
z
" transform="scale(0.015625)"/>
       </defs>
       <use xlink:href="#ArialMT-31"/>
      </g>
     </g>
    </g>
    <g id="xtick_3">
     <g id="line2d_3">
      <g>
       <use xlink:href="#m6b33656b5d" x="188.113803" y="243.695625" style="stroke: #000000; stroke-width: 0.8"/>
      </g>
     </g>
     <g id="text_3">
      <!-- 2 -->
      <g transform="translate(185.333334 257.853438) scale(0.1 -0.1)">
       <defs>
        <path id="ArialMT-32" d="M 3222 541 
L 3222 0 
L 194 0 
Q 188 203 259 391 
Q 375 700 629 1000 
Q 884 1300 1366 1694 
Q 2113 2306 2375 2664 
Q 2638 3022 2638 3341 
Q 2638 3675 2398 3904 
Q 2159 4134 1775 4134 
Q 1369 4134 1125 3890 
Q 881 3647 878 3216 
L 300 3275 
Q 359 3922 746 4261 
Q 1134 4600 1788 4600 
Q 2447 4600 2831 4234 
Q 3216 3869 3216 3328 
Q 3216 3053 3103 2787 
Q 2991 2522 2730 2228 
Q 2469 1934 1863 1422 
Q 1356 997 1212 845 
Q 1069 694 975 541 
L 3222 541 
z
" transform="scale(0.015625)"/>
       </defs>
       <use xlink:href="#ArialMT-32"/>
      </g>
     </g>
    </g>
    <g id="text_4">
     <!-- Visual Acuity (logMAR) -->
     <g transform="translate(91.435156 271.120625) scale(0.1 -0.1)">
      <defs>
       <path id="ArialMT-56" d="M 1803 0 
L 28 4581 
L 684 4581 
L 1875 1253 
Q 2019 853 2116 503 
Q 2222 878 2363 1253 
L 3600 4581 
L 4219 4581 
L 2425 0 
L 1803 0 
z
" transform="scale(0.015625)"/>
       <path id="ArialMT-69" d="M 425 3934 
L 425 4581 
L 988 4581 
L 988 3934 
L 425 3934 
z
M 425 0 
L 425 3319 
L 988 3319 
L 988 0 
L 425 0 
z
" transform="scale(0.015625)"/>
       <path id="ArialMT-73" d="M 197 991 
L 753 1078 
Q 800 744 1014 566 
Q 1228 388 1613 388 
Q 2000 388 2187 545 
Q 2375 703 2375 916 
Q 2375 1106 2209 1216 
Q 2094 1291 1634 1406 
Q 1016 1563 777 1677 
Q 538 1791 414 1992 
Q 291 2194 291 2438 
Q 291 2659 392 2848 
Q 494 3038 669 3163 
Q 800 3259 1026 3326 
Q 1253 3394 1513 3394 
Q 1903 3394 2198 3281 
Q 2494 3169 2634 2976 
Q 2775 2784 2828 2463 
L 2278 2388 
Q 2241 2644 2061 2787 
Q 1881 2931 1553 2931 
Q 1166 2931 1000 2803 
Q 834 2675 834 2503 
Q 834 2394 903 2306 
Q 972 2216 1119 2156 
Q 1203 2125 1616 2013 
Q 2213 1853 2448 1751 
Q 2684 1650 2818 1456 
Q 2953 1263 2953 975 
Q 2953 694 2789 445 
Q 2625 197 2315 61 
Q 2006 -75 1616 -75 
Q 969 -75 630 194 
Q 291 463 197 991 
z
" transform="scale(0.015625)"/>
       <path id="ArialMT-75" d="M 2597 0 
L 2597 488 
Q 2209 -75 1544 -75 
Q 1250 -75 995 37 
Q 741 150 617 320 
Q 494 491 444 738 
Q 409 903 409 1263 
L 409 3319 
L 972 3319 
L 972 1478 
Q 972 1038 1006 884 
Q 1059 663 1231 536 
Q 1403 409 1656 409 
Q 1909 409 2131 539 
Q 2353 669 2445 892 
Q 2538 1116 2538 1541 
L 2538 3319 
L 3100 3319 
L 3100 0 
L 2597 0 
z
" transform="scale(0.015625)"/>
       <path id="ArialMT-61" d="M 2588 409 
Q 2275 144 1986 34 
Q 1697 -75 1366 -75 
Q 819 -75 525 192 
Q 231 459 231 875 
Q 231 1119 342 1320 
Q 453 1522 633 1644 
Q 813 1766 1038 1828 
Q 1203 1872 1538 1913 
Q 2219 1994 2541 2106 
Q 2544 2222 2544 2253 
Q 2544 2597 2384 2738 
Q 2169 2928 1744 2928 
Q 1347 2928 1158 2789 
Q 969 2650 878 2297 
L 328 2372 
Q 403 2725 575 2942 
Q 747 3159 1072 3276 
Q 1397 3394 1825 3394 
Q 2250 3394 2515 3294 
Q 2781 3194 2906 3042 
Q 3031 2891 3081 2659 
Q 3109 2516 3109 2141 
L 3109 1391 
Q 3109 606 3145 398 
Q 3181 191 3288 0 
L 2700 0 
Q 2613 175 2588 409 
z
M 2541 1666 
Q 2234 1541 1622 1453 
Q 1275 1403 1131 1340 
Q 988 1278 909 1158 
Q 831 1038 831 891 
Q 831 666 1001 516 
Q 1172 366 1500 366 
Q 1825 366 2078 508 
Q 2331 650 2450 897 
Q 2541 1088 2541 1459 
L 2541 1666 
z
" transform="scale(0.015625)"/>
       <path id="ArialMT-6c" d="M 409 0 
L 409 4581 
L 972 4581 
L 972 0 
L 409 0 
z
" transform="scale(0.015625)"/>
       <path id="ArialMT-20" transform="scale(0.015625)"/>
       <path id="ArialMT-41" d="M -9 0 
L 1750 4581 
L 2403 4581 
L 4278 0 
L 3588 0 
L 3053 1388 
L 1138 1388 
L 634 0 
L -9 0 
z
M 1313 1881 
L 2866 1881 
L 2388 3150 
Q 2169 3728 2063 4100 
Q 1975 3659 1816 3225 
L 1313 1881 
z
" transform="scale(0.015625)"/>
       <path id="ArialMT-63" d="M 2588 1216 
L 3141 1144 
Q 3050 572 2676 248 
Q 2303 -75 1759 -75 
Q 1078 -75 664 370 
Q 250 816 250 1647 
Q 250 2184 428 2587 
Q 606 2991 970 3192 
Q 1334 3394 1763 3394 
Q 2303 3394 2647 3120 
Q 2991 2847 3088 2344 
L 2541 2259 
Q 2463 2594 2264 2762 
Q 2066 2931 1784 2931 
Q 1359 2931 1093 2626 
Q 828 2322 828 1663 
Q 828 994 1084 691 
Q 1341 388 1753 388 
Q 2084 388 2306 591 
Q 2528 794 2588 1216 
z
" transform="scale(0.015625)"/>
       <path id="ArialMT-74" d="M 1650 503 
L 1731 6 
Q 1494 -44 1306 -44 
Q 1000 -44 831 53 
Q 663 150 594 308 
Q 525 466 525 972 
L 525 2881 
L 113 2881 
L 113 3319 
L 525 3319 
L 525 4141 
L 1084 4478 
L 1084 3319 
L 1650 3319 
L 1650 2881 
L 1084 2881 
L 1084 941 
Q 1084 700 1114 631 
Q 1144 563 1211 522 
Q 1278 481 1403 481 
Q 1497 481 1650 503 
z
" transform="scale(0.015625)"/>
       <path id="ArialMT-79" d="M 397 -1278 
L 334 -750 
Q 519 -800 656 -800 
Q 844 -800 956 -737 
Q 1069 -675 1141 -563 
Q 1194 -478 1313 -144 
Q 1328 -97 1363 -6 
L 103 3319 
L 709 3319 
L 1400 1397 
Q 1534 1031 1641 628 
Q 1738 1016 1872 1384 
L 2581 3319 
L 3144 3319 
L 1881 -56 
Q 1678 -603 1566 -809 
Q 1416 -1088 1222 -1217 
Q 1028 -1347 759 -1347 
Q 597 -1347 397 -1278 
z
" transform="scale(0.015625)"/>
       <path id="ArialMT-28" d="M 1497 -1347 
Q 1031 -759 709 28 
Q 388 816 388 1659 
Q 388 2403 628 3084 
Q 909 3875 1497 4659 
L 1900 4659 
Q 1522 4009 1400 3731 
Q 1209 3300 1100 2831 
Q 966 2247 966 1656 
Q 966 153 1900 -1347 
L 1497 -1347 
z
" transform="scale(0.015625)"/>
       <path id="ArialMT-6f" d="M 213 1659 
Q 213 2581 725 3025 
Q 1153 3394 1769 3394 
Q 2453 3394 2887 2945 
Q 3322 2497 3322 1706 
Q 3322 1066 3130 698 
Q 2938 331 2570 128 
Q 2203 -75 1769 -75 
Q 1072 -75 642 372 
Q 213 819 213 1659 
z
M 791 1659 
Q 791 1022 1069 705 
Q 1347 388 1769 388 
Q 2188 388 2466 706 
Q 2744 1025 2744 1678 
Q 2744 2294 2464 2611 
Q 2184 2928 1769 2928 
Q 1347 2928 1069 2612 
Q 791 2297 791 1659 
z
" transform="scale(0.015625)"/>
       <path id="ArialMT-67" d="M 319 -275 
L 866 -356 
Q 900 -609 1056 -725 
Q 1266 -881 1628 -881 
Q 2019 -881 2231 -725 
Q 2444 -569 2519 -288 
Q 2563 -116 2559 434 
Q 2191 0 1641 0 
Q 956 0 581 494 
Q 206 988 206 1678 
Q 206 2153 378 2554 
Q 550 2956 876 3175 
Q 1203 3394 1644 3394 
Q 2231 3394 2613 2919 
L 2613 3319 
L 3131 3319 
L 3131 450 
Q 3131 -325 2973 -648 
Q 2816 -972 2473 -1159 
Q 2131 -1347 1631 -1347 
Q 1038 -1347 672 -1080 
Q 306 -813 319 -275 
z
M 784 1719 
Q 784 1066 1043 766 
Q 1303 466 1694 466 
Q 2081 466 2343 764 
Q 2606 1063 2606 1700 
Q 2606 2309 2336 2618 
Q 2066 2928 1684 2928 
Q 1309 2928 1046 2623 
Q 784 2319 784 1719 
z
" transform="scale(0.015625)"/>
       <path id="ArialMT-4d" d="M 475 0 
L 475 4581 
L 1388 4581 
L 2472 1338 
Q 2622 884 2691 659 
Q 2769 909 2934 1394 
L 4031 4581 
L 4847 4581 
L 4847 0 
L 4263 0 
L 4263 3834 
L 2931 0 
L 2384 0 
L 1059 3900 
L 1059 0 
L 475 0 
z
" transform="scale(0.015625)"/>
       <path id="ArialMT-52" d="M 503 0 
L 503 4581 
L 2534 4581 
Q 3147 4581 3465 4457 
Q 3784 4334 3975 4021 
Q 4166 3709 4166 3331 
Q 4166 2844 3850 2509 
Q 3534 2175 2875 2084 
Q 3116 1969 3241 1856 
Q 3506 1613 3744 1247 
L 4541 0 
L 3778 0 
L 3172 953 
Q 2906 1366 2734 1584 
Q 2563 1803 2427 1890 
Q 2291 1978 2150 2013 
Q 2047 2034 1813 2034 
L 1109 2034 
L 1109 0 
L 503 0 
z
M 1109 2559 
L 2413 2559 
Q 2828 2559 3062 2645 
Q 3297 2731 3419 2920 
Q 3541 3109 3541 3331 
Q 3541 3656 3305 3865 
Q 3069 4075 2559 4075 
L 1109 4075 
L 1109 2559 
z
" transform="scale(0.015625)"/>
       <path id="ArialMT-29" d="M 791 -1347 
L 388 -1347 
Q 1322 153 1322 1656 
Q 1322 2244 1188 2822 
Q 1081 3291 891 3722 
Q 769 4003 388 4659 
L 791 4659 
Q 1378 3875 1659 3084 
Q 1900 2403 1900 1659 
Q 1900 816 1576 28 
Q 1253 -759 791 -1347 
z
" transform="scale(0.015625)"/>
      </defs>
      <use xlink:href="#ArialMT-56"/>
      <use xlink:href="#ArialMT-69" x="64.949219"/>
      <use xlink:href="#ArialMT-73" x="87.166016"/>
      <use xlink:href="#ArialMT-75" x="137.166016"/>
      <use xlink:href="#ArialMT-61" x="192.78125"/>
      <use xlink:href="#ArialMT-6c" x="248.396484"/>
      <use xlink:href="#ArialMT-20" x="270.613281"/>
      <use xlink:href="#ArialMT-41" x="292.896484"/>
      <use xlink:href="#ArialMT-63" x="359.595703"/>
      <use xlink:href="#ArialMT-75" x="409.595703"/>
      <use xlink:href="#ArialMT-69" x="465.210938"/>
      <use xlink:href="#ArialMT-74" x="487.427734"/>
      <use xlink:href="#ArialMT-79" x="515.210938"/>
      <use xlink:href="#ArialMT-20" x="565.210938"/>
      <use xlink:href="#ArialMT-28" x="592.994141"/>
      <use xlink:href="#ArialMT-6c" x="626.294922"/>
      <use xlink:href="#ArialMT-6f" x="648.511719"/>
      <use xlink:href="#ArialMT-67" x="704.126953"/>
      <use xlink:href="#ArialMT-4d" x="759.742188"/>
      <use xlink:href="#ArialMT-41" x="843.042969"/>
      <use xlink:href="#ArialMT-52" x="909.742188"/>
      <use xlink:href="#ArialMT-29" x="981.958984"/>
     </g>
    </g>
   </g>
   <g id="matplotlib.axis_2">
    <g id="ytick_1">
     <g id="line2d_4">
      <defs>
       <path id="mb4ba4a717b" d="M 0 0 
L -3.5 0 
" style="stroke: #000000; stroke-width: 0.8"/>
      </defs>
      <g>
       <use xlink:href="#mb4ba4a717b" x="44.546875" y="228.911625" style="stroke: #000000; stroke-width: 0.8"/>
      </g>
     </g>
     <g id="text_5">
      <!-- −40 -->
      <g transform="translate(20.584375 232.490531) scale(0.1 -0.1)">
       <defs>
        <path id="ArialMT-2212" d="M 3381 1997 
L 356 1997 
L 356 2522 
L 3381 2522 
L 3381 1997 
z
" transform="scale(0.015625)"/>
        <path id="ArialMT-34" d="M 2069 0 
L 2069 1097 
L 81 1097 
L 81 1613 
L 2172 4581 
L 2631 4581 
L 2631 1613 
L 3250 1613 
L 3250 1097 
L 2631 1097 
L 2631 0 
L 2069 0 
z
M 2069 1613 
L 2069 3678 
L 634 1613 
L 2069 1613 
z
" transform="scale(0.015625)"/>
       </defs>
       <use xlink:href="#ArialMT-2212"/>
       <use xlink:href="#ArialMT-34" x="58.398438"/>
       <use xlink:href="#ArialMT-30" x="114.013672"/>
      </g>
     </g>
    </g>
    <g id="ytick_2">
     <g id="line2d_5">
      <g>
       <use xlink:href="#mb4ba4a717b" x="44.546875" y="199.343625" style="stroke: #000000; stroke-width: 0.8"/>
      </g>
     </g>
     <g id="text_6">
      <!-- −30 -->
      <g transform="translate(20.584375 202.922531) scale(0.1 -0.1)">
       <defs>
        <path id="ArialMT-33" d="M 269 1209 
L 831 1284 
Q 928 806 1161 595 
Q 1394 384 1728 384 
Q 2125 384 2398 659 
Q 2672 934 2672 1341 
Q 2672 1728 2419 1979 
Q 2166 2231 1775 2231 
Q 1616 2231 1378 2169 
L 1441 2663 
Q 1497 2656 1531 2656 
Q 1891 2656 2178 2843 
Q 2466 3031 2466 3422 
Q 2466 3731 2256 3934 
Q 2047 4138 1716 4138 
Q 1388 4138 1169 3931 
Q 950 3725 888 3313 
L 325 3413 
Q 428 3978 793 4289 
Q 1159 4600 1703 4600 
Q 2078 4600 2393 4439 
Q 2709 4278 2876 4000 
Q 3044 3722 3044 3409 
Q 3044 3113 2884 2869 
Q 2725 2625 2413 2481 
Q 2819 2388 3044 2092 
Q 3269 1797 3269 1353 
Q 3269 753 2831 336 
Q 2394 -81 1725 -81 
Q 1122 -81 723 278 
Q 325 638 269 1209 
z
" transform="scale(0.015625)"/>
       </defs>
       <use xlink:href="#ArialMT-2212"/>
       <use xlink:href="#ArialMT-33" x="58.398438"/>
       <use xlink:href="#ArialMT-30" x="114.013672"/>
      </g>
     </g>
    </g>
    <g id="ytick_3">
     <g id="line2d_6">
      <g>
       <use xlink:href="#mb4ba4a717b" x="44.546875" y="169.775625" style="stroke: #000000; stroke-width: 0.8"/>
      </g>
     </g>
     <g id="text_7">
      <!-- −20 -->
      <g transform="translate(20.584375 173.354531) scale(0.1 -0.1)">
       <use xlink:href="#ArialMT-2212"/>
       <use xlink:href="#ArialMT-32" x="58.398438"/>
       <use xlink:href="#ArialMT-30" x="114.013672"/>
      </g>
     </g>
    </g>
    <g id="ytick_4">
     <g id="line2d_7">
      <g>
       <use xlink:href="#mb4ba4a717b" x="44.546875" y="140.207625" style="stroke: #000000; stroke-width: 0.8"/>
      </g>
     </g>
     <g id="text_8">
      <!-- −10 -->
      <g transform="translate(20.584375 143.786531) scale(0.1 -0.1)">
       <use xlink:href="#ArialMT-2212"/>
       <use xlink:href="#ArialMT-31" x="58.398438"/>
       <use xlink:href="#ArialMT-30" x="114.013672"/>
      </g>
     </g>
    </g>
    <g id="ytick_5">
     <g id="line2d_8">
      <g>
       <use xlink:href="#mb4ba4a717b" x="44.546875" y="110.639625" style="stroke: #000000; stroke-width: 0.8"/>
      </g>
     </g>
     <g id="text_9">
      <!-- 0 -->
      <g transform="translate(31.985937 114.218531) scale(0.1 -0.1)">
       <use xlink:href="#ArialMT-30"/>
      </g>
     </g>
    </g>
    <g id="ytick_6">
     <g id="line2d_9">
      <g>
       <use xlink:href="#mb4ba4a717b" x="44.546875" y="81.071625" style="stroke: #000000; stroke-width: 0.8"/>
      </g>
     </g>
     <g id="text_10">
      <!-- 10 -->
      <g transform="translate(26.425 84.650531) scale(0.1 -0.1)">
       <use xlink:href="#ArialMT-31"/>
       <use xlink:href="#ArialMT-30" x="55.615234"/>
      </g>
     </g>
    </g>
    <g id="ytick_7">
     <g id="line2d_10">
      <g>
       <use xlink:href="#mb4ba4a717b" x="44.546875" y="51.503625" style="stroke: #000000; stroke-width: 0.8"/>
      </g>
     </g>
     <g id="text_11">
      <!-- 20 -->
      <g transform="translate(26.425 55.082531) scale(0.1 -0.1)">
       <use xlink:href="#ArialMT-32"/>
       <use xlink:href="#ArialMT-30" x="55.615234"/>
      </g>
     </g>
    </g>
    <g id="ytick_8">
     <g id="line2d_11">
      <g>
       <use xlink:href="#mb4ba4a717b" x="44.546875" y="21.935625" style="stroke: #000000; stroke-width: 0.8"/>
      </g>
     </g>
     <g id="text_12">
      <!-- 30 -->
      <g transform="translate(26.425 25.514531) scale(0.1 -0.1)">
       <use xlink:href="#ArialMT-33"/>
       <use xlink:href="#ArialMT-30" x="55.615234"/>
      </g>
     </g>
    </g>
    <g id="text_13">
     <!-- SNR (db) -->
     <g transform="translate(14.479687 153.652344) rotate(-90) scale(0.1 -0.1)">
      <defs>
       <path id="ArialMT-53" d="M 288 1472 
L 859 1522 
Q 900 1178 1048 958 
Q 1197 738 1509 602 
Q 1822 466 2213 466 
Q 2559 466 2825 569 
Q 3091 672 3220 851 
Q 3350 1031 3350 1244 
Q 3350 1459 3225 1620 
Q 3100 1781 2813 1891 
Q 2628 1963 1997 2114 
Q 1366 2266 1113 2400 
Q 784 2572 623 2826 
Q 463 3081 463 3397 
Q 463 3744 659 4045 
Q 856 4347 1234 4503 
Q 1613 4659 2075 4659 
Q 2584 4659 2973 4495 
Q 3363 4331 3572 4012 
Q 3781 3694 3797 3291 
L 3216 3247 
Q 3169 3681 2898 3903 
Q 2628 4125 2100 4125 
Q 1550 4125 1298 3923 
Q 1047 3722 1047 3438 
Q 1047 3191 1225 3031 
Q 1400 2872 2139 2705 
Q 2878 2538 3153 2413 
Q 3553 2228 3743 1945 
Q 3934 1663 3934 1294 
Q 3934 928 3725 604 
Q 3516 281 3123 101 
Q 2731 -78 2241 -78 
Q 1619 -78 1198 103 
Q 778 284 539 648 
Q 300 1013 288 1472 
z
" transform="scale(0.015625)"/>
       <path id="ArialMT-4e" d="M 488 0 
L 488 4581 
L 1109 4581 
L 3516 984 
L 3516 4581 
L 4097 4581 
L 4097 0 
L 3475 0 
L 1069 3600 
L 1069 0 
L 488 0 
z
" transform="scale(0.015625)"/>
       <path id="ArialMT-64" d="M 2575 0 
L 2575 419 
Q 2259 -75 1647 -75 
Q 1250 -75 917 144 
Q 584 363 401 755 
Q 219 1147 219 1656 
Q 219 2153 384 2558 
Q 550 2963 881 3178 
Q 1213 3394 1622 3394 
Q 1922 3394 2156 3267 
Q 2391 3141 2538 2938 
L 2538 4581 
L 3097 4581 
L 3097 0 
L 2575 0 
z
M 797 1656 
Q 797 1019 1065 703 
Q 1334 388 1700 388 
Q 2069 388 2326 689 
Q 2584 991 2584 1609 
Q 2584 2291 2321 2609 
Q 2059 2928 1675 2928 
Q 1300 2928 1048 2622 
Q 797 2316 797 1656 
z
" transform="scale(0.015625)"/>
       <path id="ArialMT-62" d="M 941 0 
L 419 0 
L 419 4581 
L 981 4581 
L 981 2947 
Q 1338 3394 1891 3394 
Q 2197 3394 2470 3270 
Q 2744 3147 2920 2923 
Q 3097 2700 3197 2384 
Q 3297 2069 3297 1709 
Q 3297 856 2875 390 
Q 2453 -75 1863 -75 
Q 1275 -75 941 416 
L 941 0 
z
M 934 1684 
Q 934 1088 1097 822 
Q 1363 388 1816 388 
Q 2184 388 2453 708 
Q 2722 1028 2722 1663 
Q 2722 2313 2464 2622 
Q 2206 2931 1841 2931 
Q 1472 2931 1203 2611 
Q 934 2291 934 1684 
z
" transform="scale(0.015625)"/>
      </defs>
      <use xlink:href="#ArialMT-53"/>
      <use xlink:href="#ArialMT-4e" x="66.699219"/>
      <use xlink:href="#ArialMT-52" x="138.916016"/>
      <use xlink:href="#ArialMT-20" x="211.132812"/>
      <use xlink:href="#ArialMT-28" x="238.916016"/>
      <use xlink:href="#ArialMT-64" x="272.216797"/>
      <use xlink:href="#ArialMT-62" x="327.832031"/>
      <use xlink:href="#ArialMT-29" x="383.447266"/>
     </g>
    </g>
   </g>
   <g id="line2d_12">
    <path d="M 65.668662 86.649554 
L 67.338368 87.025601 
L 69.008075 87.401648 
L 70.677781 87.777695 
L 72.347488 88.153743 
L 74.017194 88.52979 
L 75.686901 88.905837 
L 77.356607 89.281884 
L 79.026314 89.657932 
L 80.69602 90.033979 
L 82.365727 90.410026 
L 84.035433 90.786073 
L 85.705139 91.16212 
L 87.374846 91.538168 
L 89.044552 91.914215 
L 90.714259 92.290262 
L 92.383965 92.666309 
L 94.053672 93.042357 
L 95.723378 93.418404 
L 97.393085 93.794451 
L 99.062791 94.170498 
L 100.732498 94.546546 
L 102.402204 94.922593 
L 104.071911 95.29864 
L 105.741617 95.674687 
L 107.411324 96.050734 
L 109.08103 96.426782 
L 110.750736 96.802829 
L 112.420443 97.178876 
L 114.090149 97.554923 
L 115.759856 97.930971 
L 117.429562 98.307018 
L 119.099269 98.683065 
L 120.768975 99.059112 
L 122.438682 99.43516 
L 124.108388 99.811207 
L 125.778095 100.187254 
L 127.447801 100.563301 
L 129.117508 100.939349 
L 130.787214 101.315396 
L 132.456921 101.691443 
L 134.126627 102.06749 
L 135.796334 102.443537 
L 137.46604 102.819585 
L 139.135746 103.195632 
L 140.805453 103.571679 
L 142.475159 103.947726 
L 144.144866 104.323774 
L 145.814572 104.699821 
L 147.484279 105.075868 
L 149.153985 105.451915 
L 150.823692 105.827963 
L 152.493398 106.20401 
L 154.163105 106.580057 
L 155.832811 106.956104 
L 157.502518 107.332151 
L 159.172224 107.708199 
L 160.841931 108.084246 
L 162.511637 108.460293 
L 164.181344 108.83634 
L 165.85105 109.212388 
L 167.520756 109.588435 
L 169.190463 109.964482 
L 170.860169 110.340529 
L 172.529876 110.716577 
L 174.199582 111.092624 
L 175.869289 111.468671 
L 177.538995 111.844718 
L 179.208702 112.220765 
L 180.878408 112.596813 
L 182.548115 112.97286 
L 184.217821 113.348907 
L 185.887528 113.724954 
L 187.557234 114.101002 
L 189.226941 114.477049 
L 190.896647 114.853096 
L 192.566353 115.229143 
L 194.23606 115.605191 
L 195.905766 115.981238 
L 197.575473 116.357285 
L 199.245179 116.733332 
L 200.914886 117.109379 
L 202.584592 117.485427 
L 204.254299 117.861474 
L 205.924005 118.237521 
L 207.593712 118.613568 
L 209.263418 118.989616 
L 210.933125 119.365663 
L 212.602831 119.74171 
L 214.272538 120.117757 
L 215.942244 120.493805 
L 217.611951 120.869852 
L 219.281657 121.245899 
L 220.951363 121.621946 
L 222.62107 121.997993 
L 224.290776 122.374041 
L 225.960483 122.750088 
L 227.630189 123.126135 
L 229.299896 123.502182 
L 230.969602 123.87823 
" clip-path="url(#p31f25f78b0)" style="fill: none; stroke: #40498e; stroke-width: 2.25; stroke-linecap: square"/>
   </g>
   <g id="line2d_13">
    <path d="M 53.424148 53.618484 
L 53.758089 53.86311 
L 54.09203 54.107735 
L 54.425972 54.352361 
L 54.759913 54.596987 
L 55.093854 54.841613 
L 55.427795 55.086238 
L 55.761737 55.330864 
L 56.095678 55.57549 
L 56.429619 55.820115 
L 56.763561 56.064741 
L 57.097502 56.309367 
L 57.431443 56.553993 
L 57.765385 56.798618 
L 58.099326 57.043244 
L 58.433267 57.28787 
L 58.767208 57.532495 
L 59.10115 57.777121 
L 59.435091 58.021747 
L 59.769032 58.266373 
L 60.102974 58.510998 
L 60.436915 58.755624 
L 60.770856 59.00025 
L 61.104797 59.244876 
L 61.438739 59.489501 
L 61.77268 59.734127 
L 62.106621 59.978753 
L 62.440563 60.223378 
L 62.774504 60.468004 
L 63.108445 60.71263 
L 63.442387 60.957256 
L 63.776328 61.201881 
L 64.110269 61.446507 
L 64.44421 61.691133 
L 64.778152 61.935758 
L 65.112093 62.180384 
L 65.446034 62.42501 
L 65.779976 62.669636 
L 66.113917 62.914261 
L 66.447858 63.158887 
L 66.781799 63.403513 
L 67.115741 63.648138 
L 67.449682 63.892764 
L 67.783623 64.13739 
L 68.117565 64.382016 
L 68.451506 64.626641 
L 68.785447 64.871267 
L 69.119389 65.115893 
L 69.45333 65.360518 
L 69.787271 65.605144 
L 70.121212 65.84977 
L 70.455154 66.094396 
L 70.789095 66.339021 
L 71.123036 66.583647 
L 71.456978 66.828273 
L 71.790919 67.072898 
L 72.12486 67.317524 
L 72.458801 67.56215 
L 72.792743 67.806776 
L 73.126684 68.051401 
L 73.460625 68.296027 
L 73.794567 68.540653 
L 74.128508 68.785278 
L 74.462449 69.029904 
L 74.796391 69.27453 
L 75.130332 69.519156 
L 75.464273 69.763781 
L 75.798214 70.008407 
L 76.132156 70.253033 
L 76.466097 70.497658 
L 76.800038 70.742284 
L 77.13398 70.98691 
L 77.467921 71.231536 
L 77.801862 71.476161 
L 78.135803 71.720787 
L 78.469745 71.965413 
L 78.803686 72.210038 
L 79.137627 72.454664 
L 79.471569 72.69929 
L 79.80551 72.943916 
L 80.139451 73.188541 
L 80.473393 73.433167 
L 80.807334 73.677793 
L 81.141275 73.922419 
L 81.475216 74.167044 
L 81.809158 74.41167 
L 82.143099 74.656296 
L 82.47704 74.900921 
L 82.810982 75.145547 
L 83.144923 75.390173 
L 83.478864 75.634799 
L 83.812805 75.879424 
L 84.146747 76.12405 
L 84.480688 76.368676 
L 84.814629 76.613301 
L 85.148571 76.857927 
L 85.482512 77.102553 
L 85.816453 77.347179 
L 86.150395 77.591804 
L 86.484336 77.83643 
" clip-path="url(#p31f25f78b0)" style="fill: none; stroke: #0b0405; stroke-width: 2.25; stroke-linecap: square"/>
   </g>
   <g id="patch_3">
    <path d="M 44.546875 243.695625 
L 44.546875 21.935625 
" style="fill: none; stroke: #000000; stroke-width: 0.8; stroke-linejoin: miter; stroke-linecap: square"/>
   </g>
   <g id="patch_4">
    <path d="M 239.846875 243.695625 
L 239.846875 21.935625 
" style="fill: none; stroke: #000000; stroke-width: 0.8; stroke-linejoin: miter; stroke-linecap: square"/>
   </g>
   <g id="patch_5">
    <path d="M 44.546875 243.695625 
L 239.846875 243.695625 
" style="fill: none; stroke: #000000; stroke-width: 0.8; stroke-linejoin: miter; stroke-linecap: square"/>
   </g>
   <g id="patch_6">
    <path d="M 44.546875 21.935625 
L 239.846875 21.935625 
" style="fill: none; stroke: #000000; stroke-width: 0.8; stroke-linejoin: miter; stroke-linecap: square"/>
   </g>
   <g id="text_14">
    <!-- Spatial Frequency = 5.0 cpd -->
    <g transform="translate(67.321563 15.935625) scale(0.12 -0.12)">
     <defs>
      <path id="ArialMT-70" d="M 422 -1272 
L 422 3319 
L 934 3319 
L 934 2888 
Q 1116 3141 1344 3267 
Q 1572 3394 1897 3394 
Q 2322 3394 2647 3175 
Q 2972 2956 3137 2557 
Q 3303 2159 3303 1684 
Q 3303 1175 3120 767 
Q 2938 359 2589 142 
Q 2241 -75 1856 -75 
Q 1575 -75 1351 44 
Q 1128 163 984 344 
L 984 -1272 
L 422 -1272 
z
M 931 1641 
Q 931 1000 1190 694 
Q 1450 388 1819 388 
Q 2194 388 2461 705 
Q 2728 1022 2728 1688 
Q 2728 2322 2467 2637 
Q 2206 2953 1844 2953 
Q 1484 2953 1207 2617 
Q 931 2281 931 1641 
z
" transform="scale(0.015625)"/>
      <path id="ArialMT-46" d="M 525 0 
L 525 4581 
L 3616 4581 
L 3616 4041 
L 1131 4041 
L 1131 2622 
L 3281 2622 
L 3281 2081 
L 1131 2081 
L 1131 0 
L 525 0 
z
" transform="scale(0.015625)"/>
      <path id="ArialMT-72" d="M 416 0 
L 416 3319 
L 922 3319 
L 922 2816 
Q 1116 3169 1280 3281 
Q 1444 3394 1641 3394 
Q 1925 3394 2219 3213 
L 2025 2691 
Q 1819 2813 1613 2813 
Q 1428 2813 1281 2702 
Q 1134 2591 1072 2394 
Q 978 2094 978 1738 
L 978 0 
L 416 0 
z
" transform="scale(0.015625)"/>
      <path id="ArialMT-65" d="M 2694 1069 
L 3275 997 
Q 3138 488 2766 206 
Q 2394 -75 1816 -75 
Q 1088 -75 661 373 
Q 234 822 234 1631 
Q 234 2469 665 2931 
Q 1097 3394 1784 3394 
Q 2450 3394 2872 2941 
Q 3294 2488 3294 1666 
Q 3294 1616 3291 1516 
L 816 1516 
Q 847 969 1125 678 
Q 1403 388 1819 388 
Q 2128 388 2347 550 
Q 2566 713 2694 1069 
z
M 847 1978 
L 2700 1978 
Q 2663 2397 2488 2606 
Q 2219 2931 1791 2931 
Q 1403 2931 1139 2672 
Q 875 2413 847 1978 
z
" transform="scale(0.015625)"/>
      <path id="ArialMT-71" d="M 2538 -1272 
L 2538 353 
Q 2406 169 2170 47 
Q 1934 -75 1669 -75 
Q 1078 -75 651 397 
Q 225 869 225 1691 
Q 225 2191 398 2587 
Q 572 2984 901 3189 
Q 1231 3394 1625 3394 
Q 2241 3394 2594 2875 
L 2594 3319 
L 3100 3319 
L 3100 -1272 
L 2538 -1272 
z
M 803 1669 
Q 803 1028 1072 708 
Q 1341 388 1716 388 
Q 2075 388 2334 692 
Q 2594 997 2594 1619 
Q 2594 2281 2320 2615 
Q 2047 2950 1678 2950 
Q 1313 2950 1058 2639 
Q 803 2328 803 1669 
z
" transform="scale(0.015625)"/>
      <path id="ArialMT-6e" d="M 422 0 
L 422 3319 
L 928 3319 
L 928 2847 
Q 1294 3394 1984 3394 
Q 2284 3394 2536 3286 
Q 2788 3178 2913 3003 
Q 3038 2828 3088 2588 
Q 3119 2431 3119 2041 
L 3119 0 
L 2556 0 
L 2556 2019 
Q 2556 2363 2490 2533 
Q 2425 2703 2258 2804 
Q 2091 2906 1866 2906 
Q 1506 2906 1245 2678 
Q 984 2450 984 1813 
L 984 0 
L 422 0 
z
" transform="scale(0.015625)"/>
      <path id="ArialMT-3d" d="M 3381 2694 
L 356 2694 
L 356 3219 
L 3381 3219 
L 3381 2694 
z
M 3381 1303 
L 356 1303 
L 356 1828 
L 3381 1828 
L 3381 1303 
z
" transform="scale(0.015625)"/>
      <path id="ArialMT-35" d="M 266 1200 
L 856 1250 
Q 922 819 1161 601 
Q 1400 384 1738 384 
Q 2144 384 2425 690 
Q 2706 997 2706 1503 
Q 2706 1984 2436 2262 
Q 2166 2541 1728 2541 
Q 1456 2541 1237 2417 
Q 1019 2294 894 2097 
L 366 2166 
L 809 4519 
L 3088 4519 
L 3088 3981 
L 1259 3981 
L 1013 2750 
Q 1425 3038 1878 3038 
Q 2478 3038 2890 2622 
Q 3303 2206 3303 1553 
Q 3303 931 2941 478 
Q 2500 -78 1738 -78 
Q 1113 -78 717 272 
Q 322 622 266 1200 
z
" transform="scale(0.015625)"/>
      <path id="ArialMT-2e" d="M 581 0 
L 581 641 
L 1222 641 
L 1222 0 
L 581 0 
z
" transform="scale(0.015625)"/>
     </defs>
     <use xlink:href="#ArialMT-53"/>
     <use xlink:href="#ArialMT-70" x="66.699219"/>
     <use xlink:href="#ArialMT-61" x="122.314453"/>
     <use xlink:href="#ArialMT-74" x="177.929688"/>
     <use xlink:href="#ArialMT-69" x="205.712891"/>
     <use xlink:href="#ArialMT-61" x="227.929688"/>
     <use xlink:href="#ArialMT-6c" x="283.544922"/>
     <use xlink:href="#ArialMT-20" x="305.761719"/>
     <use xlink:href="#ArialMT-46" x="333.544922"/>
     <use xlink:href="#ArialMT-72" x="394.628906"/>
     <use xlink:href="#ArialMT-65" x="427.929688"/>
     <use xlink:href="#ArialMT-71" x="483.544922"/>
     <use xlink:href="#ArialMT-75" x="539.160156"/>
     <use xlink:href="#ArialMT-65" x="594.775391"/>
     <use xlink:href="#ArialMT-6e" x="650.390625"/>
     <use xlink:href="#ArialMT-63" x="706.005859"/>
     <use xlink:href="#ArialMT-79" x="756.005859"/>
     <use xlink:href="#ArialMT-20" x="806.005859"/>
     <use xlink:href="#ArialMT-3d" x="833.789062"/>
     <use xlink:href="#ArialMT-20" x="892.1875"/>
     <use xlink:href="#ArialMT-35" x="919.970703"/>
     <use xlink:href="#ArialMT-2e" x="975.585938"/>
     <use xlink:href="#ArialMT-30" x="1003.369141"/>
     <use xlink:href="#ArialMT-20" x="1058.984375"/>
     <use xlink:href="#ArialMT-63" x="1086.767578"/>
     <use xlink:href="#ArialMT-70" x="1136.767578"/>
     <use xlink:href="#ArialMT-64" x="1192.382812"/>
    </g>
   </g>
   <g id="legend_1">
    <g id="patch_7">
     <path d="M 51.546875 238.695625 
L 160.265625 238.695625 
Q 162.265625 238.695625 162.265625 236.695625 
L 162.265625 188.18 
Q 162.265625 186.18 160.265625 186.18 
L 51.546875 186.18 
Q 49.546875 186.18 49.546875 188.18 
L 49.546875 236.695625 
Q 49.546875 238.695625 51.546875 238.695625 
z
" style="fill: #ffffff; opacity: 0.8; stroke: #cccccc; stroke-linejoin: miter"/>
    </g>
    <g id="PathCollection_3">
     <g>
      <use xlink:href="#m4de3c42b9a" x="63.546875" y="201.012812" style="fill: #40498e; stroke: #ffffff; stroke-width: 0.48"/>
     </g>
    </g>
    <g id="text_15">
     <!-- CRB1: -->
     <g transform="translate(81.546875 197.337813) scale(0.1 -0.1)">
      <defs>
       <path id="ArialMT-43" d="M 3763 1606 
L 4369 1453 
Q 4178 706 3683 314 
Q 3188 -78 2472 -78 
Q 1731 -78 1267 223 
Q 803 525 561 1097 
Q 319 1669 319 2325 
Q 319 3041 592 3573 
Q 866 4106 1370 4382 
Q 1875 4659 2481 4659 
Q 3169 4659 3637 4309 
Q 4106 3959 4291 3325 
L 3694 3184 
Q 3534 3684 3231 3912 
Q 2928 4141 2469 4141 
Q 1941 4141 1586 3887 
Q 1231 3634 1087 3207 
Q 944 2781 944 2328 
Q 944 1744 1114 1308 
Q 1284 872 1643 656 
Q 2003 441 2422 441 
Q 2931 441 3284 734 
Q 3638 1028 3763 1606 
z
" transform="scale(0.015625)"/>
       <path id="ArialMT-42" d="M 469 0 
L 469 4581 
L 2188 4581 
Q 2713 4581 3030 4442 
Q 3347 4303 3526 4014 
Q 3706 3725 3706 3409 
Q 3706 3116 3547 2856 
Q 3388 2597 3066 2438 
Q 3481 2316 3704 2022 
Q 3928 1728 3928 1328 
Q 3928 1006 3792 729 
Q 3656 453 3456 303 
Q 3256 153 2954 76 
Q 2653 0 2216 0 
L 469 0 
z
M 1075 2656 
L 2066 2656 
Q 2469 2656 2644 2709 
Q 2875 2778 2992 2937 
Q 3109 3097 3109 3338 
Q 3109 3566 3000 3739 
Q 2891 3913 2687 3977 
Q 2484 4041 1991 4041 
L 1075 4041 
L 1075 2656 
z
M 1075 541 
L 2216 541 
Q 2509 541 2628 563 
Q 2838 600 2978 687 
Q 3119 775 3209 942 
Q 3300 1109 3300 1328 
Q 3300 1584 3169 1773 
Q 3038 1963 2805 2039 
Q 2572 2116 2134 2116 
L 1075 2116 
L 1075 541 
z
" transform="scale(0.015625)"/>
       <path id="ArialMT-3a" d="M 578 2678 
L 578 3319 
L 1219 3319 
L 1219 2678 
L 578 2678 
z
M 578 0 
L 578 641 
L 1219 641 
L 1219 0 
L 578 0 
z
" transform="scale(0.015625)"/>
      </defs>
      <use xlink:href="#ArialMT-43"/>
      <use xlink:href="#ArialMT-52" x="72.216797"/>
      <use xlink:href="#ArialMT-42" x="144.433594"/>
      <use xlink:href="#ArialMT-31" x="211.132812"/>
      <use xlink:href="#ArialMT-3a" x="266.748047"/>
     </g>
     <!--  r=-0.53, p=0.002 -->
     <g transform="translate(81.546875 207.950312) scale(0.1 -0.1)">
      <defs>
       <path id="ArialMT-2d" d="M 203 1375 
L 203 1941 
L 1931 1941 
L 1931 1375 
L 203 1375 
z
" transform="scale(0.015625)"/>
       <path id="ArialMT-2c" d="M 569 0 
L 569 641 
L 1209 641 
L 1209 0 
Q 1209 -353 1084 -570 
Q 959 -788 688 -906 
L 531 -666 
Q 709 -588 793 -436 
Q 878 -284 888 0 
L 569 0 
z
" transform="scale(0.015625)"/>
      </defs>
      <use xlink:href="#ArialMT-20"/>
      <use xlink:href="#ArialMT-72" x="27.783203"/>
      <use xlink:href="#ArialMT-3d" x="61.083984"/>
      <use xlink:href="#ArialMT-2d" x="119.482422"/>
      <use xlink:href="#ArialMT-30" x="152.783203"/>
      <use xlink:href="#ArialMT-2e" x="208.398438"/>
      <use xlink:href="#ArialMT-35" x="236.181641"/>
      <use xlink:href="#ArialMT-33" x="291.796875"/>
      <use xlink:href="#ArialMT-2c" x="347.412109"/>
      <use xlink:href="#ArialMT-20" x="375.195312"/>
      <use xlink:href="#ArialMT-70" x="402.978516"/>
      <use xlink:href="#ArialMT-3d" x="458.59375"/>
      <use xlink:href="#ArialMT-30" x="516.992188"/>
      <use xlink:href="#ArialMT-2e" x="572.607422"/>
      <use xlink:href="#ArialMT-30" x="600.390625"/>
      <use xlink:href="#ArialMT-30" x="656.005859"/>
      <use xlink:href="#ArialMT-32" x="711.621094"/>
     </g>
    </g>
    <g id="PathCollection_4">
     <g>
      <use xlink:href="#m5c9c417e4f" x="63.546875" y="225.770625" style="fill: #0b0405; stroke: #ffffff; stroke-width: 0.48"/>
     </g>
    </g>
    <g id="text_16">
     <!-- Controls: -->
     <g transform="translate(81.546875 222.095625) scale(0.1 -0.1)">
      <use xlink:href="#ArialMT-43"/>
      <use xlink:href="#ArialMT-6f" x="72.216797"/>
      <use xlink:href="#ArialMT-6e" x="127.832031"/>
      <use xlink:href="#ArialMT-74" x="183.447266"/>
      <use xlink:href="#ArialMT-72" x="211.230469"/>
      <use xlink:href="#ArialMT-6f" x="244.53125"/>
      <use xlink:href="#ArialMT-6c" x="300.146484"/>
      <use xlink:href="#ArialMT-73" x="322.363281"/>
      <use xlink:href="#ArialMT-3a" x="372.363281"/>
     </g>
     <!--  r=-0.33, p=0.075 -->
     <g transform="translate(81.546875 232.708125) scale(0.1 -0.1)">
      <defs>
       <path id="ArialMT-37" d="M 303 3981 
L 303 4522 
L 3269 4522 
L 3269 4084 
Q 2831 3619 2401 2847 
Q 1972 2075 1738 1259 
Q 1569 684 1522 0 
L 944 0 
Q 953 541 1156 1306 
Q 1359 2072 1739 2783 
Q 2119 3494 2547 3981 
L 303 3981 
z
" transform="scale(0.015625)"/>
      </defs>
      <use xlink:href="#ArialMT-20"/>
      <use xlink:href="#ArialMT-72" x="27.783203"/>
      <use xlink:href="#ArialMT-3d" x="61.083984"/>
      <use xlink:href="#ArialMT-2d" x="119.482422"/>
      <use xlink:href="#ArialMT-30" x="152.783203"/>
      <use xlink:href="#ArialMT-2e" x="208.398438"/>
      <use xlink:href="#ArialMT-33" x="236.181641"/>
      <use xlink:href="#ArialMT-33" x="291.796875"/>
      <use xlink:href="#ArialMT-2c" x="347.412109"/>
      <use xlink:href="#ArialMT-20" x="375.195312"/>
      <use xlink:href="#ArialMT-70" x="402.978516"/>
      <use xlink:href="#ArialMT-3d" x="458.59375"/>
      <use xlink:href="#ArialMT-30" x="516.992188"/>
      <use xlink:href="#ArialMT-2e" x="572.607422"/>
      <use xlink:href="#ArialMT-30" x="600.390625"/>
      <use xlink:href="#ArialMT-37" x="656.005859"/>
      <use xlink:href="#ArialMT-35" x="711.621094"/>
     </g>
    </g>
   </g>
  </g>
 </g>
 <defs>
  <clipPath id="p31f25f78b0">
   <rect x="44.546875" y="21.935625" width="195.3" height="221.76"/>
  </clipPath>
 </defs>
</svg>
