<?xml version="1.0" encoding="utf-8" standalone="no"?>
<!DOCTYPE svg PUBLIC "-//W3C//DTD SVG 1.1//EN"
  "http://www.w3.org/Graphics/SVG/1.1/DTD/svg11.dtd">
<svg xmlns:xlink="http://www.w3.org/1999/xlink" width="247.046875pt" height="280.425313pt" viewBox="0 0 247.046875 280.425313" xmlns="http://www.w3.org/2000/svg" version="1.1">
 <metadata>
  <rdf:RDF xmlns:dc="http://purl.org/dc/elements/1.1/" xmlns:cc="http://creativecommons.org/ns#" xmlns:rdf="http://www.w3.org/1999/02/22-rdf-syntax-ns#">
   <cc:Work>
    <dc:type rdf:resource="http://purl.org/dc/dcmitype/StillImage"/>
    <dc:date>2024-08-15T21:24:32.855766</dc:date>
    <dc:format>image/svg+xml</dc:format>
    <dc:creator>
     <cc:Agent>
      <dc:title>Matplotlib v3.8.2, https://matplotlib.org/</dc:title>
     </cc:Agent>
    </dc:creator>
   </cc:Work>
  </rdf:RDF>
 </metadata>
 <defs>
  <style type="text/css">*{stroke-linejoin: round; stroke-linecap: butt}</style>
 </defs>
 <g id="figure_1">
  <g id="patch_1">
   <path d="M 0 280.425313 
L 247.046875 280.425313 
L 247.046875 0 
L 0 0 
z
" style="fill: #ffffff"/>
  </g>
  <g id="axes_1">
   <g id="patch_2">
    <path d="M 44.546875 243.695625 
L 239.846875 243.695625 
L 239.846875 21.935625 
L 44.546875 21.935625 
z
" style="fill: #ffffff"/>
   </g>
   <g id="PathCollection_1">
    <defs>
     <path id="m3fbf82cc14" d="M 0 3 
C 0.795609 3 1.55874 2.683901 2.12132 2.12132 
C 2.683901 1.55874 3 0.795609 3 0 
C 3 -0.795609 2.683901 -1.55874 2.12132 -2.12132 
C 1.55874 -2.683901 0.795609 -3 0 -3 
C -0.795609 -3 -1.55874 -2.683901 -2.12132 -2.12132 
C -2.683901 -1.55874 -3 -0.795609 -3 0 
C -3 0.795609 -2.683901 1.55874 -2.12132 2.12132 
C -1.55874 2.683901 -0.795609 3 0 3 
z
" style="stroke: #ffffff; stroke-width: 0.48"/>
    </defs>
    <g clip-path="url(#p7a355b467a)">
     <use xlink:href="#m3fbf82cc14" x="95.055496" y="53.427014" style="fill: #40498e; stroke: #ffffff; stroke-width: 0.48"/>
     <use xlink:href="#m3fbf82cc14" x="85.259884" y="61.923246" style="fill: #40498e; stroke: #ffffff; stroke-width: 0.48"/>
     <use xlink:href="#m3fbf82cc14" x="108.524461" y="59.666591" style="fill: #40498e; stroke: #ffffff; stroke-width: 0.48"/>
     <use xlink:href="#m3fbf82cc14" x="96.279947" y="38.637106" style="fill: #40498e; stroke: #ffffff; stroke-width: 0.48"/>
     <use xlink:href="#m3fbf82cc14" x="206.480574" y="204.687178" style="fill: #40498e; stroke: #ffffff; stroke-width: 0.48"/>
     <use xlink:href="#m3fbf82cc14" x="206.480574" y="120.017944" style="fill: #40498e; stroke: #ffffff; stroke-width: 0.48"/>
     <use xlink:href="#m3fbf82cc14" x="119.544524" y="154.821486" style="fill: #40498e; stroke: #ffffff; stroke-width: 0.48"/>
     <use xlink:href="#m3fbf82cc14" x="118.320072" y="84.260248" style="fill: #40498e; stroke: #ffffff; stroke-width: 0.48"/>
     <use xlink:href="#m3fbf82cc14" x="85.259884" y="86.449032" style="fill: #40498e; stroke: #ffffff; stroke-width: 0.48"/>
     <use xlink:href="#m3fbf82cc14" x="151.380261" y="142.76512" style="fill: #40498e; stroke: #ffffff; stroke-width: 0.48"/>
     <use xlink:href="#m3fbf82cc14" x="124.44233" y="106.081495" style="fill: #40498e; stroke: #ffffff; stroke-width: 0.48"/>
     <use xlink:href="#m3fbf82cc14" x="119.544524" y="77.934598" style="fill: #40498e; stroke: #ffffff; stroke-width: 0.48"/>
     <use xlink:href="#m3fbf82cc14" x="145.258004" y="126.103121" style="fill: #40498e; stroke: #ffffff; stroke-width: 0.48"/>
     <use xlink:href="#m3fbf82cc14" x="145.258004" y="100.98203" style="fill: #40498e; stroke: #ffffff; stroke-width: 0.48"/>
     <use xlink:href="#m3fbf82cc14" x="162.400323" y="122.634738" style="fill: #40498e; stroke: #ffffff; stroke-width: 0.48"/>
     <use xlink:href="#m3fbf82cc14" x="186.889351" y="119.121694" style="fill: #40498e; stroke: #ffffff; stroke-width: 0.48"/>
     <use xlink:href="#m3fbf82cc14" x="96.279947" y="69.002016" style="fill: #40498e; stroke: #ffffff; stroke-width: 0.48"/>
     <use xlink:href="#m3fbf82cc14" x="96.279947" y="69.356976" style="fill: #40498e; stroke: #ffffff; stroke-width: 0.48"/>
     <use xlink:href="#m3fbf82cc14" x="80.362079" y="58.257694" style="fill: #40498e; stroke: #ffffff; stroke-width: 0.48"/>
     <use xlink:href="#m3fbf82cc14" x="85.259884" y="52.509459" style="fill: #40498e; stroke: #ffffff; stroke-width: 0.48"/>
     <use xlink:href="#m3fbf82cc14" x="75.464273" y="54.912228" style="fill: #40498e; stroke: #ffffff; stroke-width: 0.48"/>
     <use xlink:href="#m3fbf82cc14" x="85.259884" y="70.750419" style="fill: #40498e; stroke: #ffffff; stroke-width: 0.48"/>
     <use xlink:href="#m3fbf82cc14" x="65.668662" y="73.841245" style="fill: #40498e; stroke: #ffffff; stroke-width: 0.48"/>
     <use xlink:href="#m3fbf82cc14" x="104.851107" y="109.174982" style="fill: #40498e; stroke: #ffffff; stroke-width: 0.48"/>
     <use xlink:href="#m3fbf82cc14" x="68.117565" y="74.711276" style="fill: #40498e; stroke: #ffffff; stroke-width: 0.48"/>
     <use xlink:href="#m3fbf82cc14" x="66.893113" y="135.106624" style="fill: #40498e; stroke: #ffffff; stroke-width: 0.48"/>
     <use xlink:href="#m3fbf82cc14" x="79.137627" y="94.284641" style="fill: #40498e; stroke: #ffffff; stroke-width: 0.48"/>
     <use xlink:href="#m3fbf82cc14" x="75.464273" y="83.015763" style="fill: #40498e; stroke: #ffffff; stroke-width: 0.48"/>
     <use xlink:href="#m3fbf82cc14" x="230.969602" y="117.359323" style="fill: #40498e; stroke: #ffffff; stroke-width: 0.48"/>
     <use xlink:href="#m3fbf82cc14" x="206.480574" y="105.218654" style="fill: #40498e; stroke: #ffffff; stroke-width: 0.48"/>
     <use xlink:href="#m3fbf82cc14" x="206.480574" y="102.97455" style="fill: #40498e; stroke: #ffffff; stroke-width: 0.48"/>
     <use xlink:href="#m3fbf82cc14" x="230.969602" y="108.746456" style="fill: #40498e; stroke: #ffffff; stroke-width: 0.48"/>
    </g>
   </g>
   <g id="PathCollection_2">
    <defs>
     <path id="mc209ff6706" d="M 0 3 
C 0.795609 3 1.55874 2.683901 2.12132 2.12132 
C 2.683901 1.55874 3 0.795609 3 0 
C 3 -0.795609 2.683901 -1.55874 2.12132 -2.12132 
C 1.55874 -2.683901 0.795609 -3 0 -3 
C -0.795609 -3 -1.55874 -2.683901 -2.12132 -2.12132 
C -2.683901 -1.55874 -3 -0.795609 -3 0 
C -3 0.795609 -2.683901 1.55874 -2.12132 2.12132 
C -1.55874 2.683901 -0.795609 3 0 3 
z
" style="stroke: #ffffff; stroke-width: 0.48"/>
    </defs>
    <g clip-path="url(#p7a355b467a)">
     <use xlink:href="#mc209ff6706" x="60.770856" y="78.782647" style="fill: #0b0405; stroke: #ffffff; stroke-width: 0.48"/>
     <use xlink:href="#mc209ff6706" x="64.44421" y="50.918722" style="fill: #0b0405; stroke: #ffffff; stroke-width: 0.48"/>
     <use xlink:href="#mc209ff6706" x="66.893113" y="62.84059" style="fill: #0b0405; stroke: #ffffff; stroke-width: 0.48"/>
     <use xlink:href="#mc209ff6706" x="66.893113" y="54.796014" style="fill: #0b0405; stroke: #ffffff; stroke-width: 0.48"/>
     <use xlink:href="#mc209ff6706" x="60.770856" y="52.399587" style="fill: #0b0405; stroke: #ffffff; stroke-width: 0.48"/>
     <use xlink:href="#mc209ff6706" x="69.342016" y="56.582599" style="fill: #0b0405; stroke: #ffffff; stroke-width: 0.48"/>
     <use xlink:href="#mc209ff6706" x="68.117565" y="73.787223" style="fill: #0b0405; stroke: #ffffff; stroke-width: 0.48"/>
     <use xlink:href="#mc209ff6706" x="73.01537" y="70.974685" style="fill: #0b0405; stroke: #ffffff; stroke-width: 0.48"/>
     <use xlink:href="#mc209ff6706" x="71.790919" y="67.526813" style="fill: #0b0405; stroke: #ffffff; stroke-width: 0.48"/>
     <use xlink:href="#mc209ff6706" x="73.01537" y="64.95742" style="fill: #0b0405; stroke: #ffffff; stroke-width: 0.48"/>
     <use xlink:href="#mc209ff6706" x="58.321953" y="56.997434" style="fill: #0b0405; stroke: #ffffff; stroke-width: 0.48"/>
     <use xlink:href="#mc209ff6706" x="63.219759" y="65.316822" style="fill: #0b0405; stroke: #ffffff; stroke-width: 0.48"/>
     <use xlink:href="#mc209ff6706" x="64.44421" y="49.09901" style="fill: #0b0405; stroke: #ffffff; stroke-width: 0.48"/>
     <use xlink:href="#mc209ff6706" x="61.995308" y="49.511385" style="fill: #0b0405; stroke: #ffffff; stroke-width: 0.48"/>
     <use xlink:href="#mc209ff6706" x="69.342016" y="52.590679" style="fill: #0b0405; stroke: #ffffff; stroke-width: 0.48"/>
     <use xlink:href="#mc209ff6706" x="58.321953" y="67.616272" style="fill: #0b0405; stroke: #ffffff; stroke-width: 0.48"/>
     <use xlink:href="#mc209ff6706" x="64.44421" y="52.129631" style="fill: #0b0405; stroke: #ffffff; stroke-width: 0.48"/>
     <use xlink:href="#mc209ff6706" x="63.219759" y="52.126072" style="fill: #0b0405; stroke: #ffffff; stroke-width: 0.48"/>
     <use xlink:href="#mc209ff6706" x="80.362079" y="53.378975" style="fill: #0b0405; stroke: #ffffff; stroke-width: 0.48"/>
     <use xlink:href="#mc209ff6706" x="86.484336" y="54.94285" style="fill: #0b0405; stroke: #ffffff; stroke-width: 0.48"/>
     <use xlink:href="#mc209ff6706" x="65.668662" y="74.404307" style="fill: #0b0405; stroke: #ffffff; stroke-width: 0.48"/>
     <use xlink:href="#mc209ff6706" x="69.342016" y="90.738061" style="fill: #0b0405; stroke: #ffffff; stroke-width: 0.48"/>
     <use xlink:href="#mc209ff6706" x="64.44421" y="71.501909" style="fill: #0b0405; stroke: #ffffff; stroke-width: 0.48"/>
     <use xlink:href="#mc209ff6706" x="60.770856" y="60.228575" style="fill: #0b0405; stroke: #ffffff; stroke-width: 0.48"/>
     <use xlink:href="#mc209ff6706" x="80.362079" y="104.89041" style="fill: #0b0405; stroke: #ffffff; stroke-width: 0.48"/>
     <use xlink:href="#mc209ff6706" x="64.44421" y="77.715599" style="fill: #0b0405; stroke: #ffffff; stroke-width: 0.48"/>
     <use xlink:href="#mc209ff6706" x="64.44421" y="62.924901" style="fill: #0b0405; stroke: #ffffff; stroke-width: 0.48"/>
     <use xlink:href="#mc209ff6706" x="64.44421" y="56.312941" style="fill: #0b0405; stroke: #ffffff; stroke-width: 0.48"/>
     <use xlink:href="#mc209ff6706" x="53.424148" y="51.917918" style="fill: #0b0405; stroke: #ffffff; stroke-width: 0.48"/>
     <use xlink:href="#mc209ff6706" x="53.424148" y="57.939977" style="fill: #0b0405; stroke: #ffffff; stroke-width: 0.48"/>
    </g>
   </g>
   <g id="PolyCollection_1">
    <path d="M 65.668662 56.170549 
L 65.668662 84.960968 
L 67.338368 85.391133 
L 69.008075 85.785687 
L 70.677781 86.184656 
L 72.347488 86.589937 
L 74.017194 87.014443 
L 75.686901 87.556527 
L 77.356607 88.015247 
L 79.026314 88.640285 
L 80.69602 89.071996 
L 82.365727 89.536406 
L 84.035433 90.12352 
L 85.705139 90.533524 
L 87.374846 91.069013 
L 89.044552 91.529321 
L 90.714259 91.899456 
L 92.383965 92.365035 
L 94.053672 92.938035 
L 95.723378 93.511036 
L 97.393085 94.257206 
L 99.062791 94.802544 
L 100.732498 95.301712 
L 102.402204 95.803036 
L 104.071911 96.453736 
L 105.741617 96.99698 
L 107.411324 97.609869 
L 109.08103 98.375723 
L 110.750736 98.950187 
L 112.420443 99.730261 
L 114.090149 100.382874 
L 115.759856 101.245581 
L 117.429562 102.062672 
L 119.099269 102.80989 
L 120.768975 103.483315 
L 122.438682 103.94797 
L 124.108388 104.535799 
L 125.778095 105.481071 
L 127.447801 106.446994 
L 129.117508 107.339575 
L 130.787214 108.15321 
L 132.456921 109.237733 
L 134.126627 110.146236 
L 135.796334 110.922007 
L 137.46604 111.879568 
L 139.135746 113.082996 
L 140.805453 114.232739 
L 142.475159 115.400003 
L 144.144866 116.261472 
L 145.814572 117.214199 
L 147.484279 118.197193 
L 149.153985 119.180187 
L 150.823692 120.162119 
L 152.493398 121.221158 
L 154.163105 122.372892 
L 155.832811 123.524627 
L 157.502518 124.578207 
L 159.172224 125.584959 
L 160.841931 126.735644 
L 162.511637 127.885787 
L 164.181344 128.909339 
L 165.85105 130.024059 
L 167.520756 131.145962 
L 169.190463 132.253268 
L 170.860169 133.369864 
L 172.529876 134.485035 
L 174.199582 135.598433 
L 175.869289 136.711831 
L 177.538995 137.825229 
L 179.208702 138.938627 
L 180.878408 140.052026 
L 182.548115 141.142973 
L 184.217821 142.211448 
L 185.887528 143.243228 
L 187.557234 144.353208 
L 189.226941 145.423286 
L 190.896647 146.493365 
L 192.566353 147.560242 
L 194.23606 148.626565 
L 195.905766 149.654879 
L 197.575473 150.621836 
L 199.245179 151.588793 
L 200.914886 152.55575 
L 202.584592 153.519262 
L 204.254299 154.607426 
L 205.924005 155.677776 
L 207.593712 156.811881 
L 209.263418 157.939598 
L 210.933125 159.051445 
L 212.602831 160.163292 
L 214.272538 161.275139 
L 215.942244 162.386985 
L 217.611951 163.498094 
L 219.281657 164.608297 
L 220.951363 165.728695 
L 222.62107 166.8329 
L 224.290776 167.946219 
L 225.960483 169.058066 
L 227.630189 170.169913 
L 229.299896 171.28176 
L 230.969602 172.393606 
L 230.969602 117.407963 
L 230.969602 117.407963 
L 229.299896 116.961546 
L 227.630189 116.51513 
L 225.960483 116.068714 
L 224.290776 115.605208 
L 222.62107 115.097537 
L 220.951363 114.589866 
L 219.281657 114.082195 
L 217.611951 113.715914 
L 215.942244 113.21096 
L 214.272538 112.776533 
L 212.602831 112.42787 
L 210.933125 112.050966 
L 209.263418 111.60455 
L 207.593712 111.158133 
L 205.924005 110.713134 
L 204.254299 110.285439 
L 202.584592 109.836841 
L 200.914886 109.540185 
L 199.245179 109.217226 
L 197.575473 108.775658 
L 195.905766 108.367787 
L 194.23606 107.955178 
L 192.566353 107.468072 
L 190.896647 107.04296 
L 189.226941 106.537802 
L 187.557234 106.081386 
L 185.887528 105.550632 
L 184.217821 105.020353 
L 182.548115 104.535367 
L 180.878408 104.100542 
L 179.208702 103.666472 
L 177.538995 103.195176 
L 175.869289 102.672576 
L 174.199582 102.11205 
L 172.529876 101.570755 
L 170.860169 101.044873 
L 169.190463 100.570067 
L 167.520756 99.948535 
L 165.85105 99.424417 
L 164.181344 98.967414 
L 162.511637 98.419389 
L 160.841931 97.901835 
L 159.172224 97.320212 
L 157.502518 96.770428 
L 155.832811 96.22188 
L 154.163105 95.673782 
L 152.493398 95.281442 
L 150.823692 94.761778 
L 149.153985 94.274437 
L 147.484279 93.626452 
L 145.814572 92.980784 
L 144.144866 92.378644 
L 142.475159 91.847842 
L 140.805453 91.28595 
L 139.135746 90.67118 
L 137.46604 89.94215 
L 135.796334 89.301974 
L 134.126627 88.666407 
L 132.456921 87.921574 
L 130.787214 87.307784 
L 129.117508 86.765986 
L 127.447801 86.153286 
L 125.778095 85.570278 
L 124.108388 85.11095 
L 122.438682 84.52389 
L 120.768975 83.922325 
L 119.099269 83.254806 
L 117.429562 82.499431 
L 115.759856 81.720533 
L 114.090149 81.076519 
L 112.420443 80.393238 
L 110.750736 79.53258 
L 109.08103 78.722844 
L 107.411324 78.074195 
L 105.741617 77.363208 
L 104.071911 76.647929 
L 102.402204 75.820554 
L 100.732498 75.03827 
L 99.062791 74.201476 
L 97.393085 73.381444 
L 95.723378 72.49429 
L 94.053672 71.577345 
L 92.383965 70.637829 
L 90.714259 69.929476 
L 89.044552 68.913548 
L 87.374846 67.923618 
L 85.705139 67.12409 
L 84.035433 66.329111 
L 82.365727 65.479769 
L 80.69602 64.582227 
L 79.026314 63.546015 
L 77.356607 62.625705 
L 75.686901 61.64145 
L 74.017194 60.43832 
L 72.347488 59.651236 
L 70.677781 58.735354 
L 69.008075 57.899226 
L 67.338368 57.072157 
L 65.668662 56.170549 
z
" clip-path="url(#p7a355b467a)" style="fill: #40498e; fill-opacity: 0.15"/>
   </g>
   <g id="PolyCollection_2">
    <path d="M 53.424148 46.266136 
L 53.424148 65.796562 
L 53.758089 65.758803 
L 54.09203 65.714279 
L 54.425972 65.663166 
L 54.759913 65.678631 
L 55.093854 65.658593 
L 55.427795 65.601731 
L 55.761737 65.528624 
L 56.095678 65.455517 
L 56.429619 65.382411 
L 56.763561 65.309074 
L 57.097502 65.25274 
L 57.431443 65.214212 
L 57.765385 65.233986 
L 58.099326 65.205883 
L 58.433267 65.154637 
L 58.767208 65.037634 
L 59.10115 65.105746 
L 59.435091 65.199129 
L 59.769032 65.213834 
L 60.102974 65.148053 
L 60.436915 65.065208 
L 60.770856 65.080123 
L 61.104797 65.024252 
L 61.438739 65.095951 
L 61.77268 65.168502 
L 62.106621 65.28491 
L 62.440563 65.408965 
L 62.774504 65.360139 
L 63.108445 65.430495 
L 63.442387 65.72758 
L 63.776328 66.053749 
L 64.110269 66.232812 
L 64.44421 66.47252 
L 64.778152 66.727131 
L 65.112093 66.954414 
L 65.446034 67.218484 
L 65.779976 67.483566 
L 66.113917 67.807994 
L 66.447858 68.061046 
L 66.781799 68.46459 
L 67.115741 68.779732 
L 67.449682 69.217636 
L 67.783623 69.792772 
L 68.117565 70.224346 
L 68.451506 70.583584 
L 68.785447 71.016249 
L 69.119389 71.413403 
L 69.45333 71.859673 
L 69.787271 72.322475 
L 70.121212 72.822087 
L 70.455154 73.227608 
L 70.789095 73.70792 
L 71.123036 74.113377 
L 71.456978 74.496844 
L 71.790919 74.919186 
L 72.12486 75.343021 
L 72.458801 75.763088 
L 72.792743 76.236201 
L 73.126684 76.72805 
L 73.460625 77.173351 
L 73.794567 77.585639 
L 74.128508 78.022751 
L 74.462449 78.437976 
L 74.796391 78.900267 
L 75.130332 79.425496 
L 75.464273 79.950726 
L 75.798214 80.475955 
L 76.132156 80.974032 
L 76.466097 81.366835 
L 76.800038 81.846419 
L 77.13398 82.344679 
L 77.467921 82.84294 
L 77.801862 83.301114 
L 78.135803 83.757683 
L 78.469745 84.243992 
L 78.803686 84.777837 
L 79.137627 85.259303 
L 79.471569 85.769406 
L 79.80551 86.315604 
L 80.139451 86.838373 
L 80.473393 87.337255 
L 80.807334 87.809406 
L 81.141275 88.276197 
L 81.475216 88.742988 
L 81.809158 89.209779 
L 82.143099 89.676569 
L 82.47704 90.14336 
L 82.810982 90.610151 
L 83.144923 91.076942 
L 83.478864 91.543732 
L 83.812805 92.010523 
L 84.146747 92.477314 
L 84.480688 92.944105 
L 84.814629 93.410895 
L 85.148571 93.877686 
L 85.482512 94.344477 
L 85.816453 94.811268 
L 86.150395 95.278058 
L 86.484336 95.744849 
L 86.484336 57.558489 
L 86.484336 57.558489 
L 86.150395 57.587128 
L 85.816453 57.626687 
L 85.482512 57.70898 
L 85.148571 57.728758 
L 84.814629 57.766185 
L 84.480688 57.786791 
L 84.146747 57.871073 
L 83.812805 57.929484 
L 83.478864 57.983914 
L 83.144923 57.984436 
L 82.810982 58.017108 
L 82.47704 58.03421 
L 82.143099 58.066047 
L 81.809158 58.117251 
L 81.475216 58.172783 
L 81.141275 58.201965 
L 80.807334 58.226047 
L 80.473393 58.265561 
L 80.139451 58.305074 
L 79.80551 58.344588 
L 79.471569 58.384101 
L 79.137627 58.423615 
L 78.803686 58.463129 
L 78.469745 58.502642 
L 78.135803 58.544589 
L 77.801862 58.585122 
L 77.467921 58.616341 
L 77.13398 58.648091 
L 76.800038 58.650388 
L 76.466097 58.668098 
L 76.132156 58.685119 
L 75.798214 58.712735 
L 75.464273 58.728896 
L 75.130332 58.74517 
L 74.796391 58.836812 
L 74.462449 58.900094 
L 74.128508 58.875629 
L 73.794567 58.851164 
L 73.460625 58.83243 
L 73.126684 58.895631 
L 72.792743 58.972168 
L 72.458801 59.067085 
L 72.12486 59.127253 
L 71.790919 59.167218 
L 71.456978 59.174333 
L 71.123036 59.181447 
L 70.789095 59.168768 
L 70.455154 59.153103 
L 70.121212 59.137804 
L 69.787271 59.120654 
L 69.45333 59.104637 
L 69.119389 59.089337 
L 68.785447 59.076117 
L 68.451506 59.099334 
L 68.117565 59.103832 
L 67.783623 59.099367 
L 67.449682 59.054706 
L 67.115741 59.018811 
L 66.781799 58.978834 
L 66.447858 58.919167 
L 66.113917 58.925968 
L 65.779976 58.86077 
L 65.446034 58.814265 
L 65.112093 58.727743 
L 64.778152 58.662957 
L 64.44421 58.632284 
L 64.110269 58.524406 
L 63.776328 58.404373 
L 63.442387 58.22106 
L 63.108445 58.009673 
L 62.774504 57.915906 
L 62.440563 57.729169 
L 62.106621 57.435421 
L 61.77268 57.027119 
L 61.438739 56.737262 
L 61.104797 56.458233 
L 60.770856 56.13395 
L 60.436915 55.842035 
L 60.102974 55.569919 
L 59.769032 55.098842 
L 59.435091 54.649612 
L 59.10115 54.213944 
L 58.767208 53.767098 
L 58.433267 53.356488 
L 58.099326 52.925509 
L 57.765385 52.49453 
L 57.431443 52.043805 
L 57.097502 51.499223 
L 56.763561 51.126404 
L 56.429619 50.782361 
L 56.095678 50.354533 
L 55.761737 49.90604 
L 55.427795 49.347202 
L 55.093854 48.785414 
L 54.759913 48.221616 
L 54.425972 47.660023 
L 54.09203 47.097634 
L 53.758089 46.636038 
L 53.424148 46.266136 
z
" clip-path="url(#p7a355b467a)" style="fill: #0b0405; fill-opacity: 0.15"/>
   </g>
   <g id="matplotlib.axis_1">
    <g id="xtick_1">
     <g id="line2d_1">
      <defs>
       <path id="m122065f563" d="M 0 0 
L 0 3.5 
" style="stroke: #000000; stroke-width: 0.8"/>
      </defs>
      <g>
       <use xlink:href="#m122065f563" x="65.668662" y="243.695625" style="stroke: #000000; stroke-width: 0.8"/>
      </g>
     </g>
     <g id="text_1">
      <!-- 0 -->
      <g transform="translate(62.888193 257.853438) scale(0.1 -0.1)">
       <defs>
        <path id="ArialMT-30" d="M 266 2259 
Q 266 3072 433 3567 
Q 600 4063 929 4331 
Q 1259 4600 1759 4600 
Q 2128 4600 2406 4451 
Q 2684 4303 2865 4023 
Q 3047 3744 3150 3342 
Q 3253 2941 3253 2259 
Q 3253 1453 3087 958 
Q 2922 463 2592 192 
Q 2263 -78 1759 -78 
Q 1097 -78 719 397 
Q 266 969 266 2259 
z
M 844 2259 
Q 844 1131 1108 757 
Q 1372 384 1759 384 
Q 2147 384 2411 759 
Q 2675 1134 2675 2259 
Q 2675 3391 2411 3762 
Q 2147 4134 1753 4134 
Q 1366 4134 1134 3806 
Q 844 3388 844 2259 
z
" transform="scale(0.015625)"/>
       </defs>
       <use xlink:href="#ArialMT-30"/>
      </g>
     </g>
    </g>
    <g id="xtick_2">
     <g id="line2d_2">
      <g>
       <use xlink:href="#m122065f563" x="126.891232" y="243.695625" style="stroke: #000000; stroke-width: 0.8"/>
      </g>
     </g>
     <g id="text_2">
      <!-- 1 -->
      <g transform="translate(124.110764 257.853438) scale(0.1 -0.1)">
       <defs>
        <path id="ArialMT-31" d="M 2384 0 
L 1822 0 
L 1822 3584 
Q 1619 3391 1289 3197 
Q 959 3003 697 2906 
L 697 3450 
Q 1169 3672 1522 3987 
Q 1875 4303 2022 4600 
L 2384 4600 
L 2384 0 
z
" transform="scale(0.015625)"/>
       </defs>
       <use xlink:href="#ArialMT-31"/>
      </g>
     </g>
    </g>
    <g id="xtick_3">
     <g id="line2d_3">
      <g>
       <use xlink:href="#m122065f563" x="188.113803" y="243.695625" style="stroke: #000000; stroke-width: 0.8"/>
      </g>
     </g>
     <g id="text_3">
      <!-- 2 -->
      <g transform="translate(185.333334 257.853438) scale(0.1 -0.1)">
       <defs>
        <path id="ArialMT-32" d="M 3222 541 
L 3222 0 
L 194 0 
Q 188 203 259 391 
Q 375 700 629 1000 
Q 884 1300 1366 1694 
Q 2113 2306 2375 2664 
Q 2638 3022 2638 3341 
Q 2638 3675 2398 3904 
Q 2159 4134 1775 4134 
Q 1369 4134 1125 3890 
Q 881 3647 878 3216 
L 300 3275 
Q 359 3922 746 4261 
Q 1134 4600 1788 4600 
Q 2447 4600 2831 4234 
Q 3216 3869 3216 3328 
Q 3216 3053 3103 2787 
Q 2991 2522 2730 2228 
Q 2469 1934 1863 1422 
Q 1356 997 1212 845 
Q 1069 694 975 541 
L 3222 541 
z
" transform="scale(0.015625)"/>
       </defs>
       <use xlink:href="#ArialMT-32"/>
      </g>
     </g>
    </g>
    <g id="text_4">
     <!-- Visual Acuity (logMAR) -->
     <g transform="translate(91.435156 271.120625) scale(0.1 -0.1)">
      <defs>
       <path id="ArialMT-56" d="M 1803 0 
L 28 4581 
L 684 4581 
L 1875 1253 
Q 2019 853 2116 503 
Q 2222 878 2363 1253 
L 3600 4581 
L 4219 4581 
L 2425 0 
L 1803 0 
z
" transform="scale(0.015625)"/>
       <path id="ArialMT-69" d="M 425 3934 
L 425 4581 
L 988 4581 
L 988 3934 
L 425 3934 
z
M 425 0 
L 425 3319 
L 988 3319 
L 988 0 
L 425 0 
z
" transform="scale(0.015625)"/>
       <path id="ArialMT-73" d="M 197 991 
L 753 1078 
Q 800 744 1014 566 
Q 1228 388 1613 388 
Q 2000 388 2187 545 
Q 2375 703 2375 916 
Q 2375 1106 2209 1216 
Q 2094 1291 1634 1406 
Q 1016 1563 777 1677 
Q 538 1791 414 1992 
Q 291 2194 291 2438 
Q 291 2659 392 2848 
Q 494 3038 669 3163 
Q 800 3259 1026 3326 
Q 1253 3394 1513 3394 
Q 1903 3394 2198 3281 
Q 2494 3169 2634 2976 
Q 2775 2784 2828 2463 
L 2278 2388 
Q 2241 2644 2061 2787 
Q 1881 2931 1553 2931 
Q 1166 2931 1000 2803 
Q 834 2675 834 2503 
Q 834 2394 903 2306 
Q 972 2216 1119 2156 
Q 1203 2125 1616 2013 
Q 2213 1853 2448 1751 
Q 2684 1650 2818 1456 
Q 2953 1263 2953 975 
Q 2953 694 2789 445 
Q 2625 197 2315 61 
Q 2006 -75 1616 -75 
Q 969 -75 630 194 
Q 291 463 197 991 
z
" transform="scale(0.015625)"/>
       <path id="ArialMT-75" d="M 2597 0 
L 2597 488 
Q 2209 -75 1544 -75 
Q 1250 -75 995 37 
Q 741 150 617 320 
Q 494 491 444 738 
Q 409 903 409 1263 
L 409 3319 
L 972 3319 
L 972 1478 
Q 972 1038 1006 884 
Q 1059 663 1231 536 
Q 1403 409 1656 409 
Q 1909 409 2131 539 
Q 2353 669 2445 892 
Q 2538 1116 2538 1541 
L 2538 3319 
L 3100 3319 
L 3100 0 
L 2597 0 
z
" transform="scale(0.015625)"/>
       <path id="ArialMT-61" d="M 2588 409 
Q 2275 144 1986 34 
Q 1697 -75 1366 -75 
Q 819 -75 525 192 
Q 231 459 231 875 
Q 231 1119 342 1320 
Q 453 1522 633 1644 
Q 813 1766 1038 1828 
Q 1203 1872 1538 1913 
Q 2219 1994 2541 2106 
Q 2544 2222 2544 2253 
Q 2544 2597 2384 2738 
Q 2169 2928 1744 2928 
Q 1347 2928 1158 2789 
Q 969 2650 878 2297 
L 328 2372 
Q 403 2725 575 2942 
Q 747 3159 1072 3276 
Q 1397 3394 1825 3394 
Q 2250 3394 2515 3294 
Q 2781 3194 2906 3042 
Q 3031 2891 3081 2659 
Q 3109 2516 3109 2141 
L 3109 1391 
Q 3109 606 3145 398 
Q 3181 191 3288 0 
L 2700 0 
Q 2613 175 2588 409 
z
M 2541 1666 
Q 2234 1541 1622 1453 
Q 1275 1403 1131 1340 
Q 988 1278 909 1158 
Q 831 1038 831 891 
Q 831 666 1001 516 
Q 1172 366 1500 366 
Q 1825 366 2078 508 
Q 2331 650 2450 897 
Q 2541 1088 2541 1459 
L 2541 1666 
z
" transform="scale(0.015625)"/>
       <path id="ArialMT-6c" d="M 409 0 
L 409 4581 
L 972 4581 
L 972 0 
L 409 0 
z
" transform="scale(0.015625)"/>
       <path id="ArialMT-20" transform="scale(0.015625)"/>
       <path id="ArialMT-41" d="M -9 0 
L 1750 4581 
L 2403 4581 
L 4278 0 
L 3588 0 
L 3053 1388 
L 1138 1388 
L 634 0 
L -9 0 
z
M 1313 1881 
L 2866 1881 
L 2388 3150 
Q 2169 3728 2063 4100 
Q 1975 3659 1816 3225 
L 1313 1881 
z
" transform="scale(0.015625)"/>
       <path id="ArialMT-63" d="M 2588 1216 
L 3141 1144 
Q 3050 572 2676 248 
Q 2303 -75 1759 -75 
Q 1078 -75 664 370 
Q 250 816 250 1647 
Q 250 2184 428 2587 
Q 606 2991 970 3192 
Q 1334 3394 1763 3394 
Q 2303 3394 2647 3120 
Q 2991 2847 3088 2344 
L 2541 2259 
Q 2463 2594 2264 2762 
Q 2066 2931 1784 2931 
Q 1359 2931 1093 2626 
Q 828 2322 828 1663 
Q 828 994 1084 691 
Q 1341 388 1753 388 
Q 2084 388 2306 591 
Q 2528 794 2588 1216 
z
" transform="scale(0.015625)"/>
       <path id="ArialMT-74" d="M 1650 503 
L 1731 6 
Q 1494 -44 1306 -44 
Q 1000 -44 831 53 
Q 663 150 594 308 
Q 525 466 525 972 
L 525 2881 
L 113 2881 
L 113 3319 
L 525 3319 
L 525 4141 
L 1084 4478 
L 1084 3319 
L 1650 3319 
L 1650 2881 
L 1084 2881 
L 1084 941 
Q 1084 700 1114 631 
Q 1144 563 1211 522 
Q 1278 481 1403 481 
Q 1497 481 1650 503 
z
" transform="scale(0.015625)"/>
       <path id="ArialMT-79" d="M 397 -1278 
L 334 -750 
Q 519 -800 656 -800 
Q 844 -800 956 -737 
Q 1069 -675 1141 -563 
Q 1194 -478 1313 -144 
Q 1328 -97 1363 -6 
L 103 3319 
L 709 3319 
L 1400 1397 
Q 1534 1031 1641 628 
Q 1738 1016 1872 1384 
L 2581 3319 
L 3144 3319 
L 1881 -56 
Q 1678 -603 1566 -809 
Q 1416 -1088 1222 -1217 
Q 1028 -1347 759 -1347 
Q 597 -1347 397 -1278 
z
" transform="scale(0.015625)"/>
       <path id="ArialMT-28" d="M 1497 -1347 
Q 1031 -759 709 28 
Q 388 816 388 1659 
Q 388 2403 628 3084 
Q 909 3875 1497 4659 
L 1900 4659 
Q 1522 4009 1400 3731 
Q 1209 3300 1100 2831 
Q 966 2247 966 1656 
Q 966 153 1900 -1347 
L 1497 -1347 
z
" transform="scale(0.015625)"/>
       <path id="ArialMT-6f" d="M 213 1659 
Q 213 2581 725 3025 
Q 1153 3394 1769 3394 
Q 2453 3394 2887 2945 
Q 3322 2497 3322 1706 
Q 3322 1066 3130 698 
Q 2938 331 2570 128 
Q 2203 -75 1769 -75 
Q 1072 -75 642 372 
Q 213 819 213 1659 
z
M 791 1659 
Q 791 1022 1069 705 
Q 1347 388 1769 388 
Q 2188 388 2466 706 
Q 2744 1025 2744 1678 
Q 2744 2294 2464 2611 
Q 2184 2928 1769 2928 
Q 1347 2928 1069 2612 
Q 791 2297 791 1659 
z
" transform="scale(0.015625)"/>
       <path id="ArialMT-67" d="M 319 -275 
L 866 -356 
Q 900 -609 1056 -725 
Q 1266 -881 1628 -881 
Q 2019 -881 2231 -725 
Q 2444 -569 2519 -288 
Q 2563 -116 2559 434 
Q 2191 0 1641 0 
Q 956 0 581 494 
Q 206 988 206 1678 
Q 206 2153 378 2554 
Q 550 2956 876 3175 
Q 1203 3394 1644 3394 
Q 2231 3394 2613 2919 
L 2613 3319 
L 3131 3319 
L 3131 450 
Q 3131 -325 2973 -648 
Q 2816 -972 2473 -1159 
Q 2131 -1347 1631 -1347 
Q 1038 -1347 672 -1080 
Q 306 -813 319 -275 
z
M 784 1719 
Q 784 1066 1043 766 
Q 1303 466 1694 466 
Q 2081 466 2343 764 
Q 2606 1063 2606 1700 
Q 2606 2309 2336 2618 
Q 2066 2928 1684 2928 
Q 1309 2928 1046 2623 
Q 784 2319 784 1719 
z
" transform="scale(0.015625)"/>
       <path id="ArialMT-4d" d="M 475 0 
L 475 4581 
L 1388 4581 
L 2472 1338 
Q 2622 884 2691 659 
Q 2769 909 2934 1394 
L 4031 4581 
L 4847 4581 
L 4847 0 
L 4263 0 
L 4263 3834 
L 2931 0 
L 2384 0 
L 1059 3900 
L 1059 0 
L 475 0 
z
" transform="scale(0.015625)"/>
       <path id="ArialMT-52" d="M 503 0 
L 503 4581 
L 2534 4581 
Q 3147 4581 3465 4457 
Q 3784 4334 3975 4021 
Q 4166 3709 4166 3331 
Q 4166 2844 3850 2509 
Q 3534 2175 2875 2084 
Q 3116 1969 3241 1856 
Q 3506 1613 3744 1247 
L 4541 0 
L 3778 0 
L 3172 953 
Q 2906 1366 2734 1584 
Q 2563 1803 2427 1890 
Q 2291 1978 2150 2013 
Q 2047 2034 1813 2034 
L 1109 2034 
L 1109 0 
L 503 0 
z
M 1109 2559 
L 2413 2559 
Q 2828 2559 3062 2645 
Q 3297 2731 3419 2920 
Q 3541 3109 3541 3331 
Q 3541 3656 3305 3865 
Q 3069 4075 2559 4075 
L 1109 4075 
L 1109 2559 
z
" transform="scale(0.015625)"/>
       <path id="ArialMT-29" d="M 791 -1347 
L 388 -1347 
Q 1322 153 1322 1656 
Q 1322 2244 1188 2822 
Q 1081 3291 891 3722 
Q 769 4003 388 4659 
L 791 4659 
Q 1378 3875 1659 3084 
Q 1900 2403 1900 1659 
Q 1900 816 1576 28 
Q 1253 -759 791 -1347 
z
" transform="scale(0.015625)"/>
      </defs>
      <use xlink:href="#ArialMT-56"/>
      <use xlink:href="#ArialMT-69" x="64.949219"/>
      <use xlink:href="#ArialMT-73" x="87.166016"/>
      <use xlink:href="#ArialMT-75" x="137.166016"/>
      <use xlink:href="#ArialMT-61" x="192.78125"/>
      <use xlink:href="#ArialMT-6c" x="248.396484"/>
      <use xlink:href="#ArialMT-20" x="270.613281"/>
      <use xlink:href="#ArialMT-41" x="292.896484"/>
      <use xlink:href="#ArialMT-63" x="359.595703"/>
      <use xlink:href="#ArialMT-75" x="409.595703"/>
      <use xlink:href="#ArialMT-69" x="465.210938"/>
      <use xlink:href="#ArialMT-74" x="487.427734"/>
      <use xlink:href="#ArialMT-79" x="515.210938"/>
      <use xlink:href="#ArialMT-20" x="565.210938"/>
      <use xlink:href="#ArialMT-28" x="592.994141"/>
      <use xlink:href="#ArialMT-6c" x="626.294922"/>
      <use xlink:href="#ArialMT-6f" x="648.511719"/>
      <use xlink:href="#ArialMT-67" x="704.126953"/>
      <use xlink:href="#ArialMT-4d" x="759.742188"/>
      <use xlink:href="#ArialMT-41" x="843.042969"/>
      <use xlink:href="#ArialMT-52" x="909.742188"/>
      <use xlink:href="#ArialMT-29" x="981.958984"/>
     </g>
    </g>
   </g>
   <g id="matplotlib.axis_2">
    <g id="ytick_1">
     <g id="line2d_4">
      <defs>
       <path id="m7a46545734" d="M 0 0 
L -3.5 0 
" style="stroke: #000000; stroke-width: 0.8"/>
      </defs>
      <g>
       <use xlink:href="#m7a46545734" x="44.546875" y="228.911625" style="stroke: #000000; stroke-width: 0.8"/>
      </g>
     </g>
     <g id="text_5">
      <!-- −40 -->
      <g transform="translate(20.584375 232.490531) scale(0.1 -0.1)">
       <defs>
        <path id="ArialMT-2212" d="M 3381 1997 
L 356 1997 
L 356 2522 
L 3381 2522 
L 3381 1997 
z
" transform="scale(0.015625)"/>
        <path id="ArialMT-34" d="M 2069 0 
L 2069 1097 
L 81 1097 
L 81 1613 
L 2172 4581 
L 2631 4581 
L 2631 1613 
L 3250 1613 
L 3250 1097 
L 2631 1097 
L 2631 0 
L 2069 0 
z
M 2069 1613 
L 2069 3678 
L 634 1613 
L 2069 1613 
z
" transform="scale(0.015625)"/>
       </defs>
       <use xlink:href="#ArialMT-2212"/>
       <use xlink:href="#ArialMT-34" x="58.398438"/>
       <use xlink:href="#ArialMT-30" x="114.013672"/>
      </g>
     </g>
    </g>
    <g id="ytick_2">
     <g id="line2d_5">
      <g>
       <use xlink:href="#m7a46545734" x="44.546875" y="199.343625" style="stroke: #000000; stroke-width: 0.8"/>
      </g>
     </g>
     <g id="text_6">
      <!-- −30 -->
      <g transform="translate(20.584375 202.922531) scale(0.1 -0.1)">
       <defs>
        <path id="ArialMT-33" d="M 269 1209 
L 831 1284 
Q 928 806 1161 595 
Q 1394 384 1728 384 
Q 2125 384 2398 659 
Q 2672 934 2672 1341 
Q 2672 1728 2419 1979 
Q 2166 2231 1775 2231 
Q 1616 2231 1378 2169 
L 1441 2663 
Q 1497 2656 1531 2656 
Q 1891 2656 2178 2843 
Q 2466 3031 2466 3422 
Q 2466 3731 2256 3934 
Q 2047 4138 1716 4138 
Q 1388 4138 1169 3931 
Q 950 3725 888 3313 
L 325 3413 
Q 428 3978 793 4289 
Q 1159 4600 1703 4600 
Q 2078 4600 2393 4439 
Q 2709 4278 2876 4000 
Q 3044 3722 3044 3409 
Q 3044 3113 2884 2869 
Q 2725 2625 2413 2481 
Q 2819 2388 3044 2092 
Q 3269 1797 3269 1353 
Q 3269 753 2831 336 
Q 2394 -81 1725 -81 
Q 1122 -81 723 278 
Q 325 638 269 1209 
z
" transform="scale(0.015625)"/>
       </defs>
       <use xlink:href="#ArialMT-2212"/>
       <use xlink:href="#ArialMT-33" x="58.398438"/>
       <use xlink:href="#ArialMT-30" x="114.013672"/>
      </g>
     </g>
    </g>
    <g id="ytick_3">
     <g id="line2d_6">
      <g>
       <use xlink:href="#m7a46545734" x="44.546875" y="169.775625" style="stroke: #000000; stroke-width: 0.8"/>
      </g>
     </g>
     <g id="text_7">
      <!-- −20 -->
      <g transform="translate(20.584375 173.354531) scale(0.1 -0.1)">
       <use xlink:href="#ArialMT-2212"/>
       <use xlink:href="#ArialMT-32" x="58.398438"/>
       <use xlink:href="#ArialMT-30" x="114.013672"/>
      </g>
     </g>
    </g>
    <g id="ytick_4">
     <g id="line2d_7">
      <g>
       <use xlink:href="#m7a46545734" x="44.546875" y="140.207625" style="stroke: #000000; stroke-width: 0.8"/>
      </g>
     </g>
     <g id="text_8">
      <!-- −10 -->
      <g transform="translate(20.584375 143.786531) scale(0.1 -0.1)">
       <use xlink:href="#ArialMT-2212"/>
       <use xlink:href="#ArialMT-31" x="58.398438"/>
       <use xlink:href="#ArialMT-30" x="114.013672"/>
      </g>
     </g>
    </g>
    <g id="ytick_5">
     <g id="line2d_8">
      <g>
       <use xlink:href="#m7a46545734" x="44.546875" y="110.639625" style="stroke: #000000; stroke-width: 0.8"/>
      </g>
     </g>
     <g id="text_9">
      <!-- 0 -->
      <g transform="translate(31.985937 114.218531) scale(0.1 -0.1)">
       <use xlink:href="#ArialMT-30"/>
      </g>
     </g>
    </g>
    <g id="ytick_6">
     <g id="line2d_9">
      <g>
       <use xlink:href="#m7a46545734" x="44.546875" y="81.071625" style="stroke: #000000; stroke-width: 0.8"/>
      </g>
     </g>
     <g id="text_10">
      <!-- 10 -->
      <g transform="translate(26.425 84.650531) scale(0.1 -0.1)">
       <use xlink:href="#ArialMT-31"/>
       <use xlink:href="#ArialMT-30" x="55.615234"/>
      </g>
     </g>
    </g>
    <g id="ytick_7">
     <g id="line2d_10">
      <g>
       <use xlink:href="#m7a46545734" x="44.546875" y="51.503625" style="stroke: #000000; stroke-width: 0.8"/>
      </g>
     </g>
     <g id="text_11">
      <!-- 20 -->
      <g transform="translate(26.425 55.082531) scale(0.1 -0.1)">
       <use xlink:href="#ArialMT-32"/>
       <use xlink:href="#ArialMT-30" x="55.615234"/>
      </g>
     </g>
    </g>
    <g id="ytick_8">
     <g id="line2d_11">
      <g>
       <use xlink:href="#m7a46545734" x="44.546875" y="21.935625" style="stroke: #000000; stroke-width: 0.8"/>
      </g>
     </g>
     <g id="text_12">
      <!-- 30 -->
      <g transform="translate(26.425 25.514531) scale(0.1 -0.1)">
       <use xlink:href="#ArialMT-33"/>
       <use xlink:href="#ArialMT-30" x="55.615234"/>
      </g>
     </g>
    </g>
    <g id="text_13">
     <!-- SNR (db) -->
     <g transform="translate(14.479687 153.652344) rotate(-90) scale(0.1 -0.1)">
      <defs>
       <path id="ArialMT-53" d="M 288 1472 
L 859 1522 
Q 900 1178 1048 958 
Q 1197 738 1509 602 
Q 1822 466 2213 466 
Q 2559 466 2825 569 
Q 3091 672 3220 851 
Q 3350 1031 3350 1244 
Q 3350 1459 3225 1620 
Q 3100 1781 2813 1891 
Q 2628 1963 1997 2114 
Q 1366 2266 1113 2400 
Q 784 2572 623 2826 
Q 463 3081 463 3397 
Q 463 3744 659 4045 
Q 856 4347 1234 4503 
Q 1613 4659 2075 4659 
Q 2584 4659 2973 4495 
Q 3363 4331 3572 4012 
Q 3781 3694 3797 3291 
L 3216 3247 
Q 3169 3681 2898 3903 
Q 2628 4125 2100 4125 
Q 1550 4125 1298 3923 
Q 1047 3722 1047 3438 
Q 1047 3191 1225 3031 
Q 1400 2872 2139 2705 
Q 2878 2538 3153 2413 
Q 3553 2228 3743 1945 
Q 3934 1663 3934 1294 
Q 3934 928 3725 604 
Q 3516 281 3123 101 
Q 2731 -78 2241 -78 
Q 1619 -78 1198 103 
Q 778 284 539 648 
Q 300 1013 288 1472 
z
" transform="scale(0.015625)"/>
       <path id="ArialMT-4e" d="M 488 0 
L 488 4581 
L 1109 4581 
L 3516 984 
L 3516 4581 
L 4097 4581 
L 4097 0 
L 3475 0 
L 1069 3600 
L 1069 0 
L 488 0 
z
" transform="scale(0.015625)"/>
       <path id="ArialMT-64" d="M 2575 0 
L 2575 419 
Q 2259 -75 1647 -75 
Q 1250 -75 917 144 
Q 584 363 401 755 
Q 219 1147 219 1656 
Q 219 2153 384 2558 
Q 550 2963 881 3178 
Q 1213 3394 1622 3394 
Q 1922 3394 2156 3267 
Q 2391 3141 2538 2938 
L 2538 4581 
L 3097 4581 
L 3097 0 
L 2575 0 
z
M 797 1656 
Q 797 1019 1065 703 
Q 1334 388 1700 388 
Q 2069 388 2326 689 
Q 2584 991 2584 1609 
Q 2584 2291 2321 2609 
Q 2059 2928 1675 2928 
Q 1300 2928 1048 2622 
Q 797 2316 797 1656 
z
" transform="scale(0.015625)"/>
       <path id="ArialMT-62" d="M 941 0 
L 419 0 
L 419 4581 
L 981 4581 
L 981 2947 
Q 1338 3394 1891 3394 
Q 2197 3394 2470 3270 
Q 2744 3147 2920 2923 
Q 3097 2700 3197 2384 
Q 3297 2069 3297 1709 
Q 3297 856 2875 390 
Q 2453 -75 1863 -75 
Q 1275 -75 941 416 
L 941 0 
z
M 934 1684 
Q 934 1088 1097 822 
Q 1363 388 1816 388 
Q 2184 388 2453 708 
Q 2722 1028 2722 1663 
Q 2722 2313 2464 2622 
Q 2206 2931 1841 2931 
Q 1472 2931 1203 2611 
Q 934 2291 934 1684 
z
" transform="scale(0.015625)"/>
      </defs>
      <use xlink:href="#ArialMT-53"/>
      <use xlink:href="#ArialMT-4e" x="66.699219"/>
      <use xlink:href="#ArialMT-52" x="138.916016"/>
      <use xlink:href="#ArialMT-20" x="211.132812"/>
      <use xlink:href="#ArialMT-28" x="238.916016"/>
      <use xlink:href="#ArialMT-64" x="272.216797"/>
      <use xlink:href="#ArialMT-62" x="327.832031"/>
      <use xlink:href="#ArialMT-29" x="383.447266"/>
     </g>
    </g>
   </g>
   <g id="line2d_12">
    <path d="M 65.668662 71.2454 
L 67.338368 71.909184 
L 69.008075 72.572968 
L 70.677781 73.236752 
L 72.347488 73.900536 
L 74.017194 74.56432 
L 75.686901 75.228104 
L 77.356607 75.891888 
L 79.026314 76.555672 
L 80.69602 77.219456 
L 82.365727 77.88324 
L 84.035433 78.547024 
L 85.705139 79.210808 
L 87.374846 79.874592 
L 89.044552 80.538376 
L 90.714259 81.20216 
L 92.383965 81.865944 
L 94.053672 82.529728 
L 95.723378 83.193512 
L 97.393085 83.857296 
L 99.062791 84.52108 
L 100.732498 85.184865 
L 102.402204 85.848649 
L 104.071911 86.512433 
L 105.741617 87.176217 
L 107.411324 87.840001 
L 109.08103 88.503785 
L 110.750736 89.167569 
L 112.420443 89.831353 
L 114.090149 90.495137 
L 115.759856 91.158921 
L 117.429562 91.822705 
L 119.099269 92.486489 
L 120.768975 93.150273 
L 122.438682 93.814057 
L 124.108388 94.477841 
L 125.778095 95.141625 
L 127.447801 95.805409 
L 129.117508 96.469193 
L 130.787214 97.132977 
L 132.456921 97.796761 
L 134.126627 98.460545 
L 135.796334 99.124329 
L 137.46604 99.788113 
L 139.135746 100.451897 
L 140.805453 101.115681 
L 142.475159 101.779465 
L 144.144866 102.443249 
L 145.814572 103.107033 
L 147.484279 103.770817 
L 149.153985 104.434601 
L 150.823692 105.098385 
L 152.493398 105.762169 
L 154.163105 106.425953 
L 155.832811 107.089737 
L 157.502518 107.753521 
L 159.172224 108.417305 
L 160.841931 109.081089 
L 162.511637 109.744873 
L 164.181344 110.408657 
L 165.85105 111.072441 
L 167.520756 111.736225 
L 169.190463 112.400009 
L 170.860169 113.063793 
L 172.529876 113.727577 
L 174.199582 114.391361 
L 175.869289 115.055145 
L 177.538995 115.718929 
L 179.208702 116.382713 
L 180.878408 117.046497 
L 182.548115 117.710282 
L 184.217821 118.374066 
L 185.887528 119.03785 
L 187.557234 119.701634 
L 189.226941 120.365418 
L 190.896647 121.029202 
L 192.566353 121.692986 
L 194.23606 122.35677 
L 195.905766 123.020554 
L 197.575473 123.684338 
L 199.245179 124.348122 
L 200.914886 125.011906 
L 202.584592 125.67569 
L 204.254299 126.339474 
L 205.924005 127.003258 
L 207.593712 127.667042 
L 209.263418 128.330826 
L 210.933125 128.99461 
L 212.602831 129.658394 
L 214.272538 130.322178 
L 215.942244 130.985962 
L 217.611951 131.649746 
L 219.281657 132.31353 
L 220.951363 132.977314 
L 222.62107 133.641098 
L 224.290776 134.304882 
L 225.960483 134.968666 
L 227.630189 135.63245 
L 229.299896 136.296234 
L 230.969602 136.960018 
" clip-path="url(#p7a355b467a)" style="fill: none; stroke: #40498e; stroke-width: 2.25; stroke-linecap: square"/>
   </g>
   <g id="line2d_13">
    <path d="M 53.424148 57.067236 
L 53.758089 57.227415 
L 54.09203 57.387595 
L 54.425972 57.547775 
L 54.759913 57.707955 
L 55.093854 57.868134 
L 55.427795 58.028314 
L 55.761737 58.188494 
L 56.095678 58.348674 
L 56.429619 58.508853 
L 56.763561 58.669033 
L 57.097502 58.829213 
L 57.431443 58.989393 
L 57.765385 59.149572 
L 58.099326 59.309752 
L 58.433267 59.469932 
L 58.767208 59.630112 
L 59.10115 59.790291 
L 59.435091 59.950471 
L 59.769032 60.110651 
L 60.102974 60.270831 
L 60.436915 60.43101 
L 60.770856 60.59119 
L 61.104797 60.75137 
L 61.438739 60.91155 
L 61.77268 61.071729 
L 62.106621 61.231909 
L 62.440563 61.392089 
L 62.774504 61.552269 
L 63.108445 61.712448 
L 63.442387 61.872628 
L 63.776328 62.032808 
L 64.110269 62.192988 
L 64.44421 62.353167 
L 64.778152 62.513347 
L 65.112093 62.673527 
L 65.446034 62.833707 
L 65.779976 62.993886 
L 66.113917 63.154066 
L 66.447858 63.314246 
L 66.781799 63.474426 
L 67.115741 63.634605 
L 67.449682 63.794785 
L 67.783623 63.954965 
L 68.117565 64.115145 
L 68.451506 64.275324 
L 68.785447 64.435504 
L 69.119389 64.595684 
L 69.45333 64.755864 
L 69.787271 64.916043 
L 70.121212 65.076223 
L 70.455154 65.236403 
L 70.789095 65.396583 
L 71.123036 65.556762 
L 71.456978 65.716942 
L 71.790919 65.877122 
L 72.12486 66.037302 
L 72.458801 66.197481 
L 72.792743 66.357661 
L 73.126684 66.517841 
L 73.460625 66.678021 
L 73.794567 66.8382 
L 74.128508 66.99838 
L 74.462449 67.15856 
L 74.796391 67.31874 
L 75.130332 67.478919 
L 75.464273 67.639099 
L 75.798214 67.799279 
L 76.132156 67.959458 
L 76.466097 68.119638 
L 76.800038 68.279818 
L 77.13398 68.439998 
L 77.467921 68.600177 
L 77.801862 68.760357 
L 78.135803 68.920537 
L 78.469745 69.080717 
L 78.803686 69.240896 
L 79.137627 69.401076 
L 79.471569 69.561256 
L 79.80551 69.721436 
L 80.139451 69.881615 
L 80.473393 70.041795 
L 80.807334 70.201975 
L 81.141275 70.362155 
L 81.475216 70.522334 
L 81.809158 70.682514 
L 82.143099 70.842694 
L 82.47704 71.002874 
L 82.810982 71.163053 
L 83.144923 71.323233 
L 83.478864 71.483413 
L 83.812805 71.643593 
L 84.146747 71.803772 
L 84.480688 71.963952 
L 84.814629 72.124132 
L 85.148571 72.284312 
L 85.482512 72.444491 
L 85.816453 72.604671 
L 86.150395 72.764851 
L 86.484336 72.925031 
" clip-path="url(#p7a355b467a)" style="fill: none; stroke: #0b0405; stroke-width: 2.25; stroke-linecap: square"/>
   </g>
   <g id="patch_3">
    <path d="M 44.546875 243.695625 
L 44.546875 21.935625 
" style="fill: none; stroke: #000000; stroke-width: 0.8; stroke-linejoin: miter; stroke-linecap: square"/>
   </g>
   <g id="patch_4">
    <path d="M 239.846875 243.695625 
L 239.846875 21.935625 
" style="fill: none; stroke: #000000; stroke-width: 0.8; stroke-linejoin: miter; stroke-linecap: square"/>
   </g>
   <g id="patch_5">
    <path d="M 44.546875 243.695625 
L 239.846875 243.695625 
" style="fill: none; stroke: #000000; stroke-width: 0.8; stroke-linejoin: miter; stroke-linecap: square"/>
   </g>
   <g id="patch_6">
    <path d="M 44.546875 21.935625 
L 239.846875 21.935625 
" style="fill: none; stroke: #000000; stroke-width: 0.8; stroke-linejoin: miter; stroke-linecap: square"/>
   </g>
   <g id="text_14">
    <!-- Spatial Frequency = 0.5 cpd -->
    <g transform="translate(67.321563 15.935625) scale(0.12 -0.12)">
     <defs>
      <path id="ArialMT-70" d="M 422 -1272 
L 422 3319 
L 934 3319 
L 934 2888 
Q 1116 3141 1344 3267 
Q 1572 3394 1897 3394 
Q 2322 3394 2647 3175 
Q 2972 2956 3137 2557 
Q 3303 2159 3303 1684 
Q 3303 1175 3120 767 
Q 2938 359 2589 142 
Q 2241 -75 1856 -75 
Q 1575 -75 1351 44 
Q 1128 163 984 344 
L 984 -1272 
L 422 -1272 
z
M 931 1641 
Q 931 1000 1190 694 
Q 1450 388 1819 388 
Q 2194 388 2461 705 
Q 2728 1022 2728 1688 
Q 2728 2322 2467 2637 
Q 2206 2953 1844 2953 
Q 1484 2953 1207 2617 
Q 931 2281 931 1641 
z
" transform="scale(0.015625)"/>
      <path id="ArialMT-46" d="M 525 0 
L 525 4581 
L 3616 4581 
L 3616 4041 
L 1131 4041 
L 1131 2622 
L 3281 2622 
L 3281 2081 
L 1131 2081 
L 1131 0 
L 525 0 
z
" transform="scale(0.015625)"/>
      <path id="ArialMT-72" d="M 416 0 
L 416 3319 
L 922 3319 
L 922 2816 
Q 1116 3169 1280 3281 
Q 1444 3394 1641 3394 
Q 1925 3394 2219 3213 
L 2025 2691 
Q 1819 2813 1613 2813 
Q 1428 2813 1281 2702 
Q 1134 2591 1072 2394 
Q 978 2094 978 1738 
L 978 0 
L 416 0 
z
" transform="scale(0.015625)"/>
      <path id="ArialMT-65" d="M 2694 1069 
L 3275 997 
Q 3138 488 2766 206 
Q 2394 -75 1816 -75 
Q 1088 -75 661 373 
Q 234 822 234 1631 
Q 234 2469 665 2931 
Q 1097 3394 1784 3394 
Q 2450 3394 2872 2941 
Q 3294 2488 3294 1666 
Q 3294 1616 3291 1516 
L 816 1516 
Q 847 969 1125 678 
Q 1403 388 1819 388 
Q 2128 388 2347 550 
Q 2566 713 2694 1069 
z
M 847 1978 
L 2700 1978 
Q 2663 2397 2488 2606 
Q 2219 2931 1791 2931 
Q 1403 2931 1139 2672 
Q 875 2413 847 1978 
z
" transform="scale(0.015625)"/>
      <path id="ArialMT-71" d="M 2538 -1272 
L 2538 353 
Q 2406 169 2170 47 
Q 1934 -75 1669 -75 
Q 1078 -75 651 397 
Q 225 869 225 1691 
Q 225 2191 398 2587 
Q 572 2984 901 3189 
Q 1231 3394 1625 3394 
Q 2241 3394 2594 2875 
L 2594 3319 
L 3100 3319 
L 3100 -1272 
L 2538 -1272 
z
M 803 1669 
Q 803 1028 1072 708 
Q 1341 388 1716 388 
Q 2075 388 2334 692 
Q 2594 997 2594 1619 
Q 2594 2281 2320 2615 
Q 2047 2950 1678 2950 
Q 1313 2950 1058 2639 
Q 803 2328 803 1669 
z
" transform="scale(0.015625)"/>
      <path id="ArialMT-6e" d="M 422 0 
L 422 3319 
L 928 3319 
L 928 2847 
Q 1294 3394 1984 3394 
Q 2284 3394 2536 3286 
Q 2788 3178 2913 3003 
Q 3038 2828 3088 2588 
Q 3119 2431 3119 2041 
L 3119 0 
L 2556 0 
L 2556 2019 
Q 2556 2363 2490 2533 
Q 2425 2703 2258 2804 
Q 2091 2906 1866 2906 
Q 1506 2906 1245 2678 
Q 984 2450 984 1813 
L 984 0 
L 422 0 
z
" transform="scale(0.015625)"/>
      <path id="ArialMT-3d" d="M 3381 2694 
L 356 2694 
L 356 3219 
L 3381 3219 
L 3381 2694 
z
M 3381 1303 
L 356 1303 
L 356 1828 
L 3381 1828 
L 3381 1303 
z
" transform="scale(0.015625)"/>
      <path id="ArialMT-2e" d="M 581 0 
L 581 641 
L 1222 641 
L 1222 0 
L 581 0 
z
" transform="scale(0.015625)"/>
      <path id="ArialMT-35" d="M 266 1200 
L 856 1250 
Q 922 819 1161 601 
Q 1400 384 1738 384 
Q 2144 384 2425 690 
Q 2706 997 2706 1503 
Q 2706 1984 2436 2262 
Q 2166 2541 1728 2541 
Q 1456 2541 1237 2417 
Q 1019 2294 894 2097 
L 366 2166 
L 809 4519 
L 3088 4519 
L 3088 3981 
L 1259 3981 
L 1013 2750 
Q 1425 3038 1878 3038 
Q 2478 3038 2890 2622 
Q 3303 2206 3303 1553 
Q 3303 931 2941 478 
Q 2500 -78 1738 -78 
Q 1113 -78 717 272 
Q 322 622 266 1200 
z
" transform="scale(0.015625)"/>
     </defs>
     <use xlink:href="#ArialMT-53"/>
     <use xlink:href="#ArialMT-70" x="66.699219"/>
     <use xlink:href="#ArialMT-61" x="122.314453"/>
     <use xlink:href="#ArialMT-74" x="177.929688"/>
     <use xlink:href="#ArialMT-69" x="205.712891"/>
     <use xlink:href="#ArialMT-61" x="227.929688"/>
     <use xlink:href="#ArialMT-6c" x="283.544922"/>
     <use xlink:href="#ArialMT-20" x="305.761719"/>
     <use xlink:href="#ArialMT-46" x="333.544922"/>
     <use xlink:href="#ArialMT-72" x="394.628906"/>
     <use xlink:href="#ArialMT-65" x="427.929688"/>
     <use xlink:href="#ArialMT-71" x="483.544922"/>
     <use xlink:href="#ArialMT-75" x="539.160156"/>
     <use xlink:href="#ArialMT-65" x="594.775391"/>
     <use xlink:href="#ArialMT-6e" x="650.390625"/>
     <use xlink:href="#ArialMT-63" x="706.005859"/>
     <use xlink:href="#ArialMT-79" x="756.005859"/>
     <use xlink:href="#ArialMT-20" x="806.005859"/>
     <use xlink:href="#ArialMT-3d" x="833.789062"/>
     <use xlink:href="#ArialMT-20" x="892.1875"/>
     <use xlink:href="#ArialMT-30" x="919.970703"/>
     <use xlink:href="#ArialMT-2e" x="975.585938"/>
     <use xlink:href="#ArialMT-35" x="1003.369141"/>
     <use xlink:href="#ArialMT-20" x="1058.984375"/>
     <use xlink:href="#ArialMT-63" x="1086.767578"/>
     <use xlink:href="#ArialMT-70" x="1136.767578"/>
     <use xlink:href="#ArialMT-64" x="1192.382812"/>
    </g>
   </g>
   <g id="legend_1">
    <g id="patch_7">
     <path d="M 51.546875 238.695625 
L 160.265625 238.695625 
Q 162.265625 238.695625 162.265625 236.695625 
L 162.265625 188.18 
Q 162.265625 186.18 160.265625 186.18 
L 51.546875 186.18 
Q 49.546875 186.18 49.546875 188.18 
L 49.546875 236.695625 
Q 49.546875 238.695625 51.546875 238.695625 
z
" style="fill: #ffffff; opacity: 0.8; stroke: #cccccc; stroke-linejoin: miter"/>
    </g>
    <g id="PathCollection_3">
     <g>
      <use xlink:href="#m3fbf82cc14" x="63.546875" y="201.012812" style="fill: #40498e; stroke: #ffffff; stroke-width: 0.48"/>
     </g>
    </g>
    <g id="text_15">
     <!-- CRB1: -->
     <g transform="translate(81.546875 197.337813) scale(0.1 -0.1)">
      <defs>
       <path id="ArialMT-43" d="M 3763 1606 
L 4369 1453 
Q 4178 706 3683 314 
Q 3188 -78 2472 -78 
Q 1731 -78 1267 223 
Q 803 525 561 1097 
Q 319 1669 319 2325 
Q 319 3041 592 3573 
Q 866 4106 1370 4382 
Q 1875 4659 2481 4659 
Q 3169 4659 3637 4309 
Q 4106 3959 4291 3325 
L 3694 3184 
Q 3534 3684 3231 3912 
Q 2928 4141 2469 4141 
Q 1941 4141 1586 3887 
Q 1231 3634 1087 3207 
Q 944 2781 944 2328 
Q 944 1744 1114 1308 
Q 1284 872 1643 656 
Q 2003 441 2422 441 
Q 2931 441 3284 734 
Q 3638 1028 3763 1606 
z
" transform="scale(0.015625)"/>
       <path id="ArialMT-42" d="M 469 0 
L 469 4581 
L 2188 4581 
Q 2713 4581 3030 4442 
Q 3347 4303 3526 4014 
Q 3706 3725 3706 3409 
Q 3706 3116 3547 2856 
Q 3388 2597 3066 2438 
Q 3481 2316 3704 2022 
Q 3928 1728 3928 1328 
Q 3928 1006 3792 729 
Q 3656 453 3456 303 
Q 3256 153 2954 76 
Q 2653 0 2216 0 
L 469 0 
z
M 1075 2656 
L 2066 2656 
Q 2469 2656 2644 2709 
Q 2875 2778 2992 2937 
Q 3109 3097 3109 3338 
Q 3109 3566 3000 3739 
Q 2891 3913 2687 3977 
Q 2484 4041 1991 4041 
L 1075 4041 
L 1075 2656 
z
M 1075 541 
L 2216 541 
Q 2509 541 2628 563 
Q 2838 600 2978 687 
Q 3119 775 3209 942 
Q 3300 1109 3300 1328 
Q 3300 1584 3169 1773 
Q 3038 1963 2805 2039 
Q 2572 2116 2134 2116 
L 1075 2116 
L 1075 541 
z
" transform="scale(0.015625)"/>
       <path id="ArialMT-3a" d="M 578 2678 
L 578 3319 
L 1219 3319 
L 1219 2678 
L 578 2678 
z
M 578 0 
L 578 641 
L 1219 641 
L 1219 0 
L 578 0 
z
" transform="scale(0.015625)"/>
      </defs>
      <use xlink:href="#ArialMT-43"/>
      <use xlink:href="#ArialMT-52" x="72.216797"/>
      <use xlink:href="#ArialMT-42" x="144.433594"/>
      <use xlink:href="#ArialMT-31" x="211.132812"/>
      <use xlink:href="#ArialMT-3a" x="266.748047"/>
     </g>
     <!--  r=-0.59, p&lt;0.001 -->
     <g transform="translate(81.546875 207.950312) scale(0.1 -0.1)">
      <defs>
       <path id="ArialMT-2d" d="M 203 1375 
L 203 1941 
L 1931 1941 
L 1931 1375 
L 203 1375 
z
" transform="scale(0.015625)"/>
       <path id="ArialMT-39" d="M 350 1059 
L 891 1109 
Q 959 728 1153 556 
Q 1347 384 1650 384 
Q 1909 384 2104 503 
Q 2300 622 2425 820 
Q 2550 1019 2634 1356 
Q 2719 1694 2719 2044 
Q 2719 2081 2716 2156 
Q 2547 1888 2255 1720 
Q 1963 1553 1622 1553 
Q 1053 1553 659 1965 
Q 266 2378 266 3053 
Q 266 3750 677 4175 
Q 1088 4600 1706 4600 
Q 2153 4600 2523 4359 
Q 2894 4119 3086 3673 
Q 3278 3228 3278 2384 
Q 3278 1506 3087 986 
Q 2897 466 2520 194 
Q 2144 -78 1638 -78 
Q 1100 -78 759 220 
Q 419 519 350 1059 
z
M 2653 3081 
Q 2653 3566 2395 3850 
Q 2138 4134 1775 4134 
Q 1400 4134 1122 3828 
Q 844 3522 844 3034 
Q 844 2597 1108 2323 
Q 1372 2050 1759 2050 
Q 2150 2050 2401 2323 
Q 2653 2597 2653 3081 
z
" transform="scale(0.015625)"/>
       <path id="ArialMT-2c" d="M 569 0 
L 569 641 
L 1209 641 
L 1209 0 
Q 1209 -353 1084 -570 
Q 959 -788 688 -906 
L 531 -666 
Q 709 -588 793 -436 
Q 878 -284 888 0 
L 569 0 
z
" transform="scale(0.015625)"/>
       <path id="ArialMT-3c" d="M 350 2003 
L 350 2528 
L 3384 3809 
L 3384 3250 
L 978 2263 
L 3384 1266 
L 3384 706 
L 350 2003 
z
" transform="scale(0.015625)"/>
      </defs>
      <use xlink:href="#ArialMT-20"/>
      <use xlink:href="#ArialMT-72" x="27.783203"/>
      <use xlink:href="#ArialMT-3d" x="61.083984"/>
      <use xlink:href="#ArialMT-2d" x="119.482422"/>
      <use xlink:href="#ArialMT-30" x="152.783203"/>
      <use xlink:href="#ArialMT-2e" x="208.398438"/>
      <use xlink:href="#ArialMT-35" x="236.181641"/>
      <use xlink:href="#ArialMT-39" x="291.796875"/>
      <use xlink:href="#ArialMT-2c" x="347.412109"/>
      <use xlink:href="#ArialMT-20" x="375.195312"/>
      <use xlink:href="#ArialMT-70" x="402.978516"/>
      <use xlink:href="#ArialMT-3c" x="458.59375"/>
      <use xlink:href="#ArialMT-30" x="516.992188"/>
      <use xlink:href="#ArialMT-2e" x="572.607422"/>
      <use xlink:href="#ArialMT-30" x="600.390625"/>
      <use xlink:href="#ArialMT-30" x="656.005859"/>
      <use xlink:href="#ArialMT-31" x="711.621094"/>
     </g>
    </g>
    <g id="PathCollection_4">
     <g>
      <use xlink:href="#mc209ff6706" x="63.546875" y="225.770625" style="fill: #0b0405; stroke: #ffffff; stroke-width: 0.48"/>
     </g>
    </g>
    <g id="text_16">
     <!-- Controls: -->
     <g transform="translate(81.546875 222.095625) scale(0.1 -0.1)">
      <use xlink:href="#ArialMT-43"/>
      <use xlink:href="#ArialMT-6f" x="72.216797"/>
      <use xlink:href="#ArialMT-6e" x="127.832031"/>
      <use xlink:href="#ArialMT-74" x="183.447266"/>
      <use xlink:href="#ArialMT-72" x="211.230469"/>
      <use xlink:href="#ArialMT-6f" x="244.53125"/>
      <use xlink:href="#ArialMT-6c" x="300.146484"/>
      <use xlink:href="#ArialMT-73" x="322.363281"/>
      <use xlink:href="#ArialMT-3a" x="372.363281"/>
     </g>
     <!--  r=-0.27, p=0.147 -->
     <g transform="translate(81.546875 232.708125) scale(0.1 -0.1)">
      <defs>
       <path id="ArialMT-37" d="M 303 3981 
L 303 4522 
L 3269 4522 
L 3269 4084 
Q 2831 3619 2401 2847 
Q 1972 2075 1738 1259 
Q 1569 684 1522 0 
L 944 0 
Q 953 541 1156 1306 
Q 1359 2072 1739 2783 
Q 2119 3494 2547 3981 
L 303 3981 
z
" transform="scale(0.015625)"/>
      </defs>
      <use xlink:href="#ArialMT-20"/>
      <use xlink:href="#ArialMT-72" x="27.783203"/>
      <use xlink:href="#ArialMT-3d" x="61.083984"/>
      <use xlink:href="#ArialMT-2d" x="119.482422"/>
      <use xlink:href="#ArialMT-30" x="152.783203"/>
      <use xlink:href="#ArialMT-2e" x="208.398438"/>
      <use xlink:href="#ArialMT-32" x="236.181641"/>
      <use xlink:href="#ArialMT-37" x="291.796875"/>
      <use xlink:href="#ArialMT-2c" x="347.412109"/>
      <use xlink:href="#ArialMT-20" x="375.195312"/>
      <use xlink:href="#ArialMT-70" x="402.978516"/>
      <use xlink:href="#ArialMT-3d" x="458.59375"/>
      <use xlink:href="#ArialMT-30" x="516.992188"/>
      <use xlink:href="#ArialMT-2e" x="572.607422"/>
      <use xlink:href="#ArialMT-31" x="600.390625"/>
      <use xlink:href="#ArialMT-34" x="656.005859"/>
      <use xlink:href="#ArialMT-37" x="711.621094"/>
     </g>
    </g>
   </g>
  </g>
 </g>
 <defs>
  <clipPath id="p7a355b467a">
   <rect x="44.546875" y="21.935625" width="195.3" height="221.76"/>
  </clipPath>
 </defs>
</svg>
