<?xml version="1.0" encoding="utf-8" standalone="no"?>
<!DOCTYPE svg PUBLIC "-//W3C//DTD SVG 1.1//EN"
  "http://www.w3.org/Graphics/SVG/1.1/DTD/svg11.dtd">
<svg xmlns:xlink="http://www.w3.org/1999/xlink" width="247.046875pt" height="280.425313pt" viewBox="0 0 247.046875 280.425313" xmlns="http://www.w3.org/2000/svg" version="1.1">
 <metadata>
  <rdf:RDF xmlns:dc="http://purl.org/dc/elements/1.1/" xmlns:cc="http://creativecommons.org/ns#" xmlns:rdf="http://www.w3.org/1999/02/22-rdf-syntax-ns#">
   <cc:Work>
    <dc:type rdf:resource="http://purl.org/dc/dcmitype/StillImage"/>
    <dc:date>2024-08-15T21:24:35.760738</dc:date>
    <dc:format>image/svg+xml</dc:format>
    <dc:creator>
     <cc:Agent>
      <dc:title>Matplotlib v3.8.2, https://matplotlib.org/</dc:title>
     </cc:Agent>
    </dc:creator>
   </cc:Work>
  </rdf:RDF>
 </metadata>
 <defs>
  <style type="text/css">*{stroke-linejoin: round; stroke-linecap: butt}</style>
 </defs>
 <g id="figure_1">
  <g id="patch_1">
   <path d="M 0 280.425313 
L 247.046875 280.425313 
L 247.046875 0 
L 0 0 
z
" style="fill: #ffffff"/>
  </g>
  <g id="axes_1">
   <g id="patch_2">
    <path d="M 44.546875 243.695625 
L 239.846875 243.695625 
L 239.846875 21.935625 
L 44.546875 21.935625 
z
" style="fill: #ffffff"/>
   </g>
   <g id="PathCollection_1">
    <defs>
     <path id="mc739d81a59" d="M 0 3 
C 0.795609 3 1.55874 2.683901 2.12132 2.12132 
C 2.683901 1.55874 3 0.795609 3 0 
C 3 -0.795609 2.683901 -1.55874 2.12132 -2.12132 
C 1.55874 -2.683901 0.795609 -3 0 -3 
C -0.795609 -3 -1.55874 -2.683901 -2.12132 -2.12132 
C -2.683901 -1.55874 -3 -0.795609 -3 0 
C -3 0.795609 -2.683901 1.55874 -2.12132 2.12132 
C -1.55874 2.683901 -0.795609 3 0 3 
z
" style="stroke: #ffffff; stroke-width: 0.48"/>
    </defs>
    <g clip-path="url(#pb2d96eee87)">
     <use xlink:href="#mc739d81a59" x="95.055496" y="118.034265" style="fill: #40498e; stroke: #ffffff; stroke-width: 0.48"/>
     <use xlink:href="#mc739d81a59" x="85.259884" y="106.660294" style="fill: #40498e; stroke: #ffffff; stroke-width: 0.48"/>
     <use xlink:href="#mc739d81a59" x="108.524461" y="115.050054" style="fill: #40498e; stroke: #ffffff; stroke-width: 0.48"/>
     <use xlink:href="#mc739d81a59" x="96.279947" y="101.429842" style="fill: #40498e; stroke: #ffffff; stroke-width: 0.48"/>
     <use xlink:href="#mc739d81a59" x="206.480574" y="105.837832" style="fill: #40498e; stroke: #ffffff; stroke-width: 0.48"/>
     <use xlink:href="#mc739d81a59" x="206.480574" y="158.902509" style="fill: #40498e; stroke: #ffffff; stroke-width: 0.48"/>
     <use xlink:href="#mc739d81a59" x="119.544524" y="106.077784" style="fill: #40498e; stroke: #ffffff; stroke-width: 0.48"/>
     <use xlink:href="#mc739d81a59" x="118.320072" y="176.553171" style="fill: #40498e; stroke: #ffffff; stroke-width: 0.48"/>
     <use xlink:href="#mc739d81a59" x="85.259884" y="99.184289" style="fill: #40498e; stroke: #ffffff; stroke-width: 0.48"/>
     <use xlink:href="#mc739d81a59" x="151.380261" y="113.574194" style="fill: #40498e; stroke: #ffffff; stroke-width: 0.48"/>
     <use xlink:href="#mc739d81a59" x="124.44233" y="117.197537" style="fill: #40498e; stroke: #ffffff; stroke-width: 0.48"/>
     <use xlink:href="#mc739d81a59" x="119.544524" y="175.150374" style="fill: #40498e; stroke: #ffffff; stroke-width: 0.48"/>
     <use xlink:href="#mc739d81a59" x="145.258004" y="69.919596" style="fill: #40498e; stroke: #ffffff; stroke-width: 0.48"/>
     <use xlink:href="#mc739d81a59" x="145.258004" y="108.888644" style="fill: #40498e; stroke: #ffffff; stroke-width: 0.48"/>
     <use xlink:href="#mc739d81a59" x="162.400323" y="103.986559" style="fill: #40498e; stroke: #ffffff; stroke-width: 0.48"/>
     <use xlink:href="#mc739d81a59" x="186.889351" y="124.490295" style="fill: #40498e; stroke: #ffffff; stroke-width: 0.48"/>
     <use xlink:href="#mc739d81a59" x="96.279947" y="111.063274" style="fill: #40498e; stroke: #ffffff; stroke-width: 0.48"/>
     <use xlink:href="#mc739d81a59" x="96.279947" y="125.439788" style="fill: #40498e; stroke: #ffffff; stroke-width: 0.48"/>
     <use xlink:href="#mc739d81a59" x="80.362079" y="81.179642" style="fill: #40498e; stroke: #ffffff; stroke-width: 0.48"/>
     <use xlink:href="#mc739d81a59" x="85.259884" y="91.68508" style="fill: #40498e; stroke: #ffffff; stroke-width: 0.48"/>
     <use xlink:href="#mc739d81a59" x="75.464273" y="80.281636" style="fill: #40498e; stroke: #ffffff; stroke-width: 0.48"/>
     <use xlink:href="#mc739d81a59" x="85.259884" y="85.900851" style="fill: #40498e; stroke: #ffffff; stroke-width: 0.48"/>
     <use xlink:href="#mc739d81a59" x="65.668662" y="118.565067" style="fill: #40498e; stroke: #ffffff; stroke-width: 0.48"/>
     <use xlink:href="#mc739d81a59" x="104.851107" y="109.797491" style="fill: #40498e; stroke: #ffffff; stroke-width: 0.48"/>
     <use xlink:href="#mc739d81a59" x="68.117565" y="62.22855" style="fill: #40498e; stroke: #ffffff; stroke-width: 0.48"/>
     <use xlink:href="#mc739d81a59" x="66.893113" y="62.143279" style="fill: #40498e; stroke: #ffffff; stroke-width: 0.48"/>
     <use xlink:href="#mc739d81a59" x="79.137627" y="109.756774" style="fill: #40498e; stroke: #ffffff; stroke-width: 0.48"/>
     <use xlink:href="#mc739d81a59" x="75.464273" y="116.19319" style="fill: #40498e; stroke: #ffffff; stroke-width: 0.48"/>
     <use xlink:href="#mc739d81a59" x="230.969602" y="158.632611" style="fill: #40498e; stroke: #ffffff; stroke-width: 0.48"/>
     <use xlink:href="#mc739d81a59" x="206.480574" y="114.406944" style="fill: #40498e; stroke: #ffffff; stroke-width: 0.48"/>
     <use xlink:href="#mc739d81a59" x="206.480574" y="116.996037" style="fill: #40498e; stroke: #ffffff; stroke-width: 0.48"/>
     <use xlink:href="#mc739d81a59" x="230.969602" y="113.838782" style="fill: #40498e; stroke: #ffffff; stroke-width: 0.48"/>
    </g>
   </g>
   <g id="PathCollection_2">
    <defs>
     <path id="md332d9af17" d="M 0 3 
C 0.795609 3 1.55874 2.683901 2.12132 2.12132 
C 2.683901 1.55874 3 0.795609 3 0 
C 3 -0.795609 2.683901 -1.55874 2.12132 -2.12132 
C 1.55874 -2.683901 0.795609 -3 0 -3 
C -0.795609 -3 -1.55874 -2.683901 -2.12132 -2.12132 
C -2.683901 -1.55874 -3 -0.795609 -3 0 
C -3 0.795609 -2.683901 1.55874 -2.12132 2.12132 
C -1.55874 2.683901 -0.795609 3 0 3 
z
" style="stroke: #ffffff; stroke-width: 0.48"/>
    </defs>
    <g clip-path="url(#pb2d96eee87)">
     <use xlink:href="#md332d9af17" x="60.770856" y="91.796982" style="fill: #0b0405; stroke: #ffffff; stroke-width: 0.48"/>
     <use xlink:href="#md332d9af17" x="64.44421" y="61.586983" style="fill: #0b0405; stroke: #ffffff; stroke-width: 0.48"/>
     <use xlink:href="#md332d9af17" x="66.893113" y="79.853557" style="fill: #0b0405; stroke: #ffffff; stroke-width: 0.48"/>
     <use xlink:href="#md332d9af17" x="66.893113" y="138.351506" style="fill: #0b0405; stroke: #ffffff; stroke-width: 0.48"/>
     <use xlink:href="#md332d9af17" x="60.770856" y="66.393139" style="fill: #0b0405; stroke: #ffffff; stroke-width: 0.48"/>
     <use xlink:href="#md332d9af17" x="69.342016" y="58.244786" style="fill: #0b0405; stroke: #ffffff; stroke-width: 0.48"/>
     <use xlink:href="#md332d9af17" x="68.117565" y="138.42986" style="fill: #0b0405; stroke: #ffffff; stroke-width: 0.48"/>
     <use xlink:href="#md332d9af17" x="73.01537" y="70.5496" style="fill: #0b0405; stroke: #ffffff; stroke-width: 0.48"/>
     <use xlink:href="#md332d9af17" x="71.790919" y="68.87261" style="fill: #0b0405; stroke: #ffffff; stroke-width: 0.48"/>
     <use xlink:href="#md332d9af17" x="73.01537" y="98.13059" style="fill: #0b0405; stroke: #ffffff; stroke-width: 0.48"/>
     <use xlink:href="#md332d9af17" x="58.321953" y="73.068022" style="fill: #0b0405; stroke: #ffffff; stroke-width: 0.48"/>
     <use xlink:href="#md332d9af17" x="63.219759" y="72.772" style="fill: #0b0405; stroke: #ffffff; stroke-width: 0.48"/>
     <use xlink:href="#md332d9af17" x="64.44421" y="60.525063" style="fill: #0b0405; stroke: #ffffff; stroke-width: 0.48"/>
     <use xlink:href="#md332d9af17" x="61.995308" y="74.344061" style="fill: #0b0405; stroke: #ffffff; stroke-width: 0.48"/>
     <use xlink:href="#md332d9af17" x="69.342016" y="71.630808" style="fill: #0b0405; stroke: #ffffff; stroke-width: 0.48"/>
     <use xlink:href="#md332d9af17" x="58.321953" y="63.223064" style="fill: #0b0405; stroke: #ffffff; stroke-width: 0.48"/>
     <use xlink:href="#md332d9af17" x="64.44421" y="70.294797" style="fill: #0b0405; stroke: #ffffff; stroke-width: 0.48"/>
     <use xlink:href="#md332d9af17" x="63.219759" y="70.784206" style="fill: #0b0405; stroke: #ffffff; stroke-width: 0.48"/>
     <use xlink:href="#md332d9af17" x="80.362079" y="54.882574" style="fill: #0b0405; stroke: #ffffff; stroke-width: 0.48"/>
     <use xlink:href="#md332d9af17" x="86.484336" y="77.412991" style="fill: #0b0405; stroke: #ffffff; stroke-width: 0.48"/>
     <use xlink:href="#md332d9af17" x="65.668662" y="80.155643" style="fill: #0b0405; stroke: #ffffff; stroke-width: 0.48"/>
     <use xlink:href="#md332d9af17" x="69.342016" y="70.881452" style="fill: #0b0405; stroke: #ffffff; stroke-width: 0.48"/>
     <use xlink:href="#md332d9af17" x="64.44421" y="87.784336" style="fill: #0b0405; stroke: #ffffff; stroke-width: 0.48"/>
     <use xlink:href="#md332d9af17" x="60.770856" y="70.63602" style="fill: #0b0405; stroke: #ffffff; stroke-width: 0.48"/>
     <use xlink:href="#md332d9af17" x="80.362079" y="75.738397" style="fill: #0b0405; stroke: #ffffff; stroke-width: 0.48"/>
     <use xlink:href="#md332d9af17" x="64.44421" y="128.89145" style="fill: #0b0405; stroke: #ffffff; stroke-width: 0.48"/>
     <use xlink:href="#md332d9af17" x="64.44421" y="82.832489" style="fill: #0b0405; stroke: #ffffff; stroke-width: 0.48"/>
     <use xlink:href="#md332d9af17" x="64.44421" y="57.714433" style="fill: #0b0405; stroke: #ffffff; stroke-width: 0.48"/>
     <use xlink:href="#md332d9af17" x="53.424148" y="63.423964" style="fill: #0b0405; stroke: #ffffff; stroke-width: 0.48"/>
     <use xlink:href="#md332d9af17" x="53.424148" y="72.277091" style="fill: #0b0405; stroke: #ffffff; stroke-width: 0.48"/>
    </g>
   </g>
   <g id="PolyCollection_1">
    <path d="M 65.668662 86.26294 
L 65.668662 110.689957 
L 67.338368 110.863664 
L 69.008075 111.036594 
L 70.677781 111.235253 
L 72.347488 111.432276 
L 74.017194 111.636528 
L 75.686901 111.828896 
L 77.356607 111.965172 
L 79.026314 112.239036 
L 80.69602 112.439667 
L 82.365727 112.601412 
L 84.035433 112.756934 
L 85.705139 112.975892 
L 87.374846 113.243218 
L 89.044552 113.462364 
L 90.714259 113.64489 
L 92.383965 113.886055 
L 94.053672 114.190026 
L 95.723378 114.396639 
L 97.393085 114.696418 
L 99.062791 115.022619 
L 100.732498 115.18984 
L 102.402204 115.35746 
L 104.071911 115.459029 
L 105.741617 115.928436 
L 107.411324 116.066582 
L 109.08103 116.254521 
L 110.750736 116.69427 
L 112.420443 116.964265 
L 114.090149 117.409852 
L 115.759856 117.663208 
L 117.429562 117.826637 
L 119.099269 118.194599 
L 120.768975 118.619777 
L 122.438682 119.082165 
L 124.108388 119.645774 
L 125.778095 120.174316 
L 127.447801 120.517604 
L 129.117508 120.87415 
L 130.787214 121.1853 
L 132.456921 121.541312 
L 134.126627 121.96255 
L 135.796334 122.349837 
L 137.46604 122.643248 
L 139.135746 123.060504 
L 140.805453 123.600562 
L 142.475159 124.01263 
L 144.144866 124.433305 
L 145.814572 124.968238 
L 147.484279 125.552038 
L 149.153985 126.031554 
L 150.823692 126.450272 
L 152.493398 126.879225 
L 154.163105 127.337655 
L 155.832811 127.845405 
L 157.502518 128.391924 
L 159.172224 128.922834 
L 160.841931 129.410489 
L 162.511637 129.916152 
L 164.181344 130.421816 
L 165.85105 130.987067 
L 167.520756 131.544774 
L 169.190463 132.007181 
L 170.860169 132.563063 
L 172.529876 133.185937 
L 174.199582 133.808226 
L 175.869289 134.415662 
L 177.538995 134.985784 
L 179.208702 135.625524 
L 180.878408 136.119965 
L 182.548115 136.613244 
L 184.217821 137.134675 
L 185.887528 137.702679 
L 187.557234 138.249173 
L 189.226941 138.797027 
L 190.896647 139.312598 
L 192.566353 139.799257 
L 194.23606 140.2734 
L 195.905766 140.75563 
L 197.575473 141.380494 
L 199.245179 142.005358 
L 200.914886 142.629212 
L 202.584592 143.178788 
L 204.254299 143.769652 
L 205.924005 144.381788 
L 207.593712 144.993923 
L 209.263418 145.609851 
L 210.933125 146.242202 
L 212.602831 146.874552 
L 214.272538 147.506903 
L 215.942244 148.139254 
L 217.611951 148.771604 
L 219.281657 149.403955 
L 220.951363 150.035718 
L 222.62107 150.666364 
L 224.290776 151.24746 
L 225.960483 151.807938 
L 227.630189 152.368416 
L 229.299896 153.015765 
L 230.969602 153.677008 
L 230.969602 117.638329 
L 230.969602 117.638329 
L 229.299896 117.534465 
L 227.630189 117.430602 
L 225.960483 117.326738 
L 224.290776 117.200064 
L 222.62107 117.066042 
L 220.951363 116.932931 
L 219.281657 116.799821 
L 217.611951 116.66671 
L 215.942244 116.522312 
L 214.272538 116.271969 
L 212.602831 116.021627 
L 210.933125 115.771284 
L 209.263418 115.520942 
L 207.593712 115.270599 
L 205.924005 115.028497 
L 204.254299 114.91464 
L 202.584592 114.710356 
L 200.914886 114.560425 
L 199.245179 114.456727 
L 197.575473 114.148563 
L 195.905766 113.837979 
L 194.23606 113.739725 
L 192.566353 113.660857 
L 190.896647 113.545097 
L 189.226941 113.342262 
L 187.557234 113.021417 
L 185.887528 112.677065 
L 184.217821 112.360263 
L 182.548115 112.22066 
L 180.878408 112.082054 
L 179.208702 111.943448 
L 177.538995 111.737755 
L 175.869289 111.456092 
L 174.199582 111.282797 
L 172.529876 111.124239 
L 170.860169 111.026425 
L 169.190463 110.780794 
L 167.520756 110.500908 
L 165.85105 110.209357 
L 164.181344 109.989031 
L 162.511637 109.811064 
L 160.841931 109.592344 
L 159.172224 109.405992 
L 157.502518 109.212459 
L 155.832811 108.859548 
L 154.163105 108.604367 
L 152.493398 108.200389 
L 150.823692 107.809641 
L 149.153985 107.521773 
L 147.484279 107.189847 
L 145.814572 106.939856 
L 144.144866 106.55331 
L 142.475159 106.16707 
L 140.805453 105.78083 
L 139.135746 105.44556 
L 137.46604 105.163038 
L 135.796334 104.775829 
L 134.126627 104.401216 
L 132.456921 104.055619 
L 130.787214 103.61199 
L 129.117508 103.296949 
L 127.447801 102.863171 
L 125.778095 102.447368 
L 124.108388 102.103268 
L 122.438682 101.719898 
L 120.768975 101.407829 
L 119.099269 100.988787 
L 117.429562 100.659606 
L 115.759856 100.238287 
L 114.090149 99.762532 
L 112.420443 99.398537 
L 110.750736 98.954126 
L 109.08103 98.564055 
L 107.411324 98.175411 
L 105.741617 97.787327 
L 104.071911 97.307189 
L 102.402204 96.898699 
L 100.732498 96.513424 
L 99.062791 96.072297 
L 97.393085 95.635065 
L 95.723378 95.179392 
L 94.053672 94.767272 
L 92.383965 94.375061 
L 90.714259 93.920669 
L 89.044552 93.384688 
L 87.374846 92.894522 
L 85.705139 92.352761 
L 84.035433 91.79083 
L 82.365727 91.316412 
L 80.69602 90.779133 
L 79.026314 90.313909 
L 77.356607 89.824728 
L 75.686901 89.377939 
L 74.017194 88.94329 
L 72.347488 88.375556 
L 70.677781 87.850119 
L 69.008075 87.293515 
L 67.338368 86.725871 
L 65.668662 86.26294 
z
" clip-path="url(#pb2d96eee87)" style="fill: #40498e; fill-opacity: 0.15"/>
   </g>
   <g id="PolyCollection_2">
    <path d="M 53.424148 67.077108 
L 53.424148 87.979107 
L 53.758089 87.888297 
L 54.09203 87.737932 
L 54.425972 87.704969 
L 54.759913 87.61452 
L 55.093854 87.468648 
L 55.427795 87.26415 
L 55.761737 87.205434 
L 56.095678 86.995566 
L 56.429619 86.916761 
L 56.763561 86.792325 
L 57.097502 86.942293 
L 57.431443 86.627501 
L 57.765385 86.503082 
L 58.099326 86.305752 
L 58.433267 86.155643 
L 58.767208 86.042359 
L 59.10115 86.005057 
L 59.435091 85.946451 
L 59.769032 85.961264 
L 60.102974 85.939193 
L 60.436915 85.970251 
L 60.770856 85.891707 
L 61.104797 85.808129 
L 61.438739 85.796033 
L 61.77268 85.70504 
L 62.106621 85.614352 
L 62.440563 85.52236 
L 62.774504 85.54949 
L 63.108445 85.552863 
L 63.442387 85.595531 
L 63.776328 85.698154 
L 64.110269 85.91993 
L 64.44421 86.030203 
L 64.778152 86.317612 
L 65.112093 86.317664 
L 65.446034 86.273053 
L 65.779976 86.480584 
L 66.113917 86.810777 
L 66.447858 87.04386 
L 66.781799 87.137713 
L 67.115741 87.148787 
L 67.449682 87.261567 
L 67.783623 87.433825 
L 68.117565 87.71579 
L 68.451506 87.867189 
L 68.785447 88.221461 
L 69.119389 88.395775 
L 69.45333 88.892996 
L 69.787271 88.993921 
L 70.121212 89.172518 
L 70.455154 89.473785 
L 70.789095 89.792539 
L 71.123036 90.111293 
L 71.456978 90.430047 
L 71.790919 90.748801 
L 72.12486 91.049551 
L 72.458801 91.250603 
L 72.792743 91.55021 
L 73.126684 91.849818 
L 73.460625 92.149425 
L 73.794567 92.454636 
L 74.128508 93.00518 
L 74.462449 93.333902 
L 74.796391 93.662624 
L 75.130332 93.991345 
L 75.464273 94.334201 
L 75.798214 94.721596 
L 76.132156 95.108992 
L 76.466097 95.496387 
L 76.800038 95.883783 
L 77.13398 96.269947 
L 77.467921 96.498828 
L 77.801862 96.904363 
L 78.135803 97.164529 
L 78.469745 97.419833 
L 78.803686 97.528919 
L 79.137627 97.935918 
L 79.471569 98.19627 
L 79.80551 98.519511 
L 80.139451 98.817685 
L 80.473393 99.129016 
L 80.807334 99.395845 
L 81.141275 99.702651 
L 81.475216 100.051578 
L 81.809158 100.422084 
L 82.143099 100.753878 
L 82.47704 101.077049 
L 82.810982 101.400572 
L 83.144923 101.724094 
L 83.478864 102.047616 
L 83.812805 102.371138 
L 84.146747 102.69466 
L 84.480688 103.018182 
L 84.814629 103.341704 
L 85.148571 103.665226 
L 85.482512 103.988748 
L 85.816453 104.31227 
L 86.150395 104.63564 
L 86.484336 104.95806 
L 86.484336 65.564063 
L 86.484336 65.564063 
L 86.150395 65.622486 
L 85.816453 65.741174 
L 85.482512 65.862728 
L 85.148571 66.088656 
L 84.814629 66.376635 
L 84.480688 66.51934 
L 84.146747 66.58782 
L 83.812805 66.777172 
L 83.478864 66.941517 
L 83.144923 66.956938 
L 82.810982 67.046568 
L 82.47704 67.282404 
L 82.143099 67.541215 
L 81.809158 67.800053 
L 81.475216 68.058891 
L 81.141275 68.185274 
L 80.807334 68.288369 
L 80.473393 68.391464 
L 80.139451 68.579009 
L 79.80551 68.648117 
L 79.471569 68.823256 
L 79.137627 68.955997 
L 78.803686 69.041465 
L 78.469745 69.227125 
L 78.135803 69.47624 
L 77.801862 69.592004 
L 77.467921 69.746671 
L 77.13398 69.84316 
L 76.800038 69.895163 
L 76.466097 69.868678 
L 76.132156 69.842193 
L 75.798214 69.892641 
L 75.464273 70.08582 
L 75.130332 70.279776 
L 74.796391 70.473733 
L 74.462449 70.628695 
L 74.128508 70.728507 
L 73.794567 70.828319 
L 73.460625 70.923796 
L 73.126684 70.976815 
L 72.792743 71.080029 
L 72.458801 71.146531 
L 72.12486 71.130417 
L 71.790919 71.114987 
L 71.456978 71.095295 
L 71.123036 71.075029 
L 70.789095 71.073616 
L 70.455154 71.034496 
L 70.121212 71.01423 
L 69.787271 70.993964 
L 69.45333 71.064426 
L 69.119389 71.05882 
L 68.785447 71.15625 
L 68.451506 71.075902 
L 68.117565 71.109447 
L 67.783623 71.058953 
L 67.449682 71.17765 
L 67.115741 71.175637 
L 66.781799 71.173939 
L 66.447858 71.165168 
L 66.113917 71.091145 
L 65.779976 71.006669 
L 65.446034 70.99632 
L 65.112093 70.919408 
L 64.778152 70.875488 
L 64.44421 70.833484 
L 64.110269 70.777695 
L 63.776328 70.663853 
L 63.442387 70.608904 
L 63.108445 70.622059 
L 62.774504 70.617576 
L 62.440563 70.575019 
L 62.106621 70.532462 
L 61.77268 70.515368 
L 61.438739 70.487306 
L 61.104797 70.45224 
L 60.770856 70.358003 
L 60.436915 70.285949 
L 60.102974 70.176417 
L 59.769032 70.069668 
L 59.435091 69.974051 
L 59.10115 69.880725 
L 58.767208 69.715748 
L 58.433267 69.550771 
L 58.099326 69.385794 
L 57.765385 69.220817 
L 57.431443 69.140992 
L 57.097502 68.938548 
L 56.763561 68.725887 
L 56.429619 68.526603 
L 56.095678 68.350011 
L 55.761737 68.171519 
L 55.427795 68.001009 
L 55.093854 67.901212 
L 54.759913 67.73759 
L 54.425972 67.572869 
L 54.09203 67.411273 
L 53.758089 67.246891 
L 53.424148 67.077108 
z
" clip-path="url(#pb2d96eee87)" style="fill: #0b0405; fill-opacity: 0.15"/>
   </g>
   <g id="matplotlib.axis_1">
    <g id="xtick_1">
     <g id="line2d_1">
      <defs>
       <path id="m0be3d97b25" d="M 0 0 
L 0 3.5 
" style="stroke: #000000; stroke-width: 0.8"/>
      </defs>
      <g>
       <use xlink:href="#m0be3d97b25" x="65.668662" y="243.695625" style="stroke: #000000; stroke-width: 0.8"/>
      </g>
     </g>
     <g id="text_1">
      <!-- 0 -->
      <g transform="translate(62.888193 257.853438) scale(0.1 -0.1)">
       <defs>
        <path id="ArialMT-30" d="M 266 2259 
Q 266 3072 433 3567 
Q 600 4063 929 4331 
Q 1259 4600 1759 4600 
Q 2128 4600 2406 4451 
Q 2684 4303 2865 4023 
Q 3047 3744 3150 3342 
Q 3253 2941 3253 2259 
Q 3253 1453 3087 958 
Q 2922 463 2592 192 
Q 2263 -78 1759 -78 
Q 1097 -78 719 397 
Q 266 969 266 2259 
z
M 844 2259 
Q 844 1131 1108 757 
Q 1372 384 1759 384 
Q 2147 384 2411 759 
Q 2675 1134 2675 2259 
Q 2675 3391 2411 3762 
Q 2147 4134 1753 4134 
Q 1366 4134 1134 3806 
Q 844 3388 844 2259 
z
" transform="scale(0.015625)"/>
       </defs>
       <use xlink:href="#ArialMT-30"/>
      </g>
     </g>
    </g>
    <g id="xtick_2">
     <g id="line2d_2">
      <g>
       <use xlink:href="#m0be3d97b25" x="126.891232" y="243.695625" style="stroke: #000000; stroke-width: 0.8"/>
      </g>
     </g>
     <g id="text_2">
      <!-- 1 -->
      <g transform="translate(124.110764 257.853438) scale(0.1 -0.1)">
       <defs>
        <path id="ArialMT-31" d="M 2384 0 
L 1822 0 
L 1822 3584 
Q 1619 3391 1289 3197 
Q 959 3003 697 2906 
L 697 3450 
Q 1169 3672 1522 3987 
Q 1875 4303 2022 4600 
L 2384 4600 
L 2384 0 
z
" transform="scale(0.015625)"/>
       </defs>
       <use xlink:href="#ArialMT-31"/>
      </g>
     </g>
    </g>
    <g id="xtick_3">
     <g id="line2d_3">
      <g>
       <use xlink:href="#m0be3d97b25" x="188.113803" y="243.695625" style="stroke: #000000; stroke-width: 0.8"/>
      </g>
     </g>
     <g id="text_3">
      <!-- 2 -->
      <g transform="translate(185.333334 257.853438) scale(0.1 -0.1)">
       <defs>
        <path id="ArialMT-32" d="M 3222 541 
L 3222 0 
L 194 0 
Q 188 203 259 391 
Q 375 700 629 1000 
Q 884 1300 1366 1694 
Q 2113 2306 2375 2664 
Q 2638 3022 2638 3341 
Q 2638 3675 2398 3904 
Q 2159 4134 1775 4134 
Q 1369 4134 1125 3890 
Q 881 3647 878 3216 
L 300 3275 
Q 359 3922 746 4261 
Q 1134 4600 1788 4600 
Q 2447 4600 2831 4234 
Q 3216 3869 3216 3328 
Q 3216 3053 3103 2787 
Q 2991 2522 2730 2228 
Q 2469 1934 1863 1422 
Q 1356 997 1212 845 
Q 1069 694 975 541 
L 3222 541 
z
" transform="scale(0.015625)"/>
       </defs>
       <use xlink:href="#ArialMT-32"/>
      </g>
     </g>
    </g>
    <g id="text_4">
     <!-- Visual Acuity (logMAR) -->
     <g transform="translate(91.435156 271.120625) scale(0.1 -0.1)">
      <defs>
       <path id="ArialMT-56" d="M 1803 0 
L 28 4581 
L 684 4581 
L 1875 1253 
Q 2019 853 2116 503 
Q 2222 878 2363 1253 
L 3600 4581 
L 4219 4581 
L 2425 0 
L 1803 0 
z
" transform="scale(0.015625)"/>
       <path id="ArialMT-69" d="M 425 3934 
L 425 4581 
L 988 4581 
L 988 3934 
L 425 3934 
z
M 425 0 
L 425 3319 
L 988 3319 
L 988 0 
L 425 0 
z
" transform="scale(0.015625)"/>
       <path id="ArialMT-73" d="M 197 991 
L 753 1078 
Q 800 744 1014 566 
Q 1228 388 1613 388 
Q 2000 388 2187 545 
Q 2375 703 2375 916 
Q 2375 1106 2209 1216 
Q 2094 1291 1634 1406 
Q 1016 1563 777 1677 
Q 538 1791 414 1992 
Q 291 2194 291 2438 
Q 291 2659 392 2848 
Q 494 3038 669 3163 
Q 800 3259 1026 3326 
Q 1253 3394 1513 3394 
Q 1903 3394 2198 3281 
Q 2494 3169 2634 2976 
Q 2775 2784 2828 2463 
L 2278 2388 
Q 2241 2644 2061 2787 
Q 1881 2931 1553 2931 
Q 1166 2931 1000 2803 
Q 834 2675 834 2503 
Q 834 2394 903 2306 
Q 972 2216 1119 2156 
Q 1203 2125 1616 2013 
Q 2213 1853 2448 1751 
Q 2684 1650 2818 1456 
Q 2953 1263 2953 975 
Q 2953 694 2789 445 
Q 2625 197 2315 61 
Q 2006 -75 1616 -75 
Q 969 -75 630 194 
Q 291 463 197 991 
z
" transform="scale(0.015625)"/>
       <path id="ArialMT-75" d="M 2597 0 
L 2597 488 
Q 2209 -75 1544 -75 
Q 1250 -75 995 37 
Q 741 150 617 320 
Q 494 491 444 738 
Q 409 903 409 1263 
L 409 3319 
L 972 3319 
L 972 1478 
Q 972 1038 1006 884 
Q 1059 663 1231 536 
Q 1403 409 1656 409 
Q 1909 409 2131 539 
Q 2353 669 2445 892 
Q 2538 1116 2538 1541 
L 2538 3319 
L 3100 3319 
L 3100 0 
L 2597 0 
z
" transform="scale(0.015625)"/>
       <path id="ArialMT-61" d="M 2588 409 
Q 2275 144 1986 34 
Q 1697 -75 1366 -75 
Q 819 -75 525 192 
Q 231 459 231 875 
Q 231 1119 342 1320 
Q 453 1522 633 1644 
Q 813 1766 1038 1828 
Q 1203 1872 1538 1913 
Q 2219 1994 2541 2106 
Q 2544 2222 2544 2253 
Q 2544 2597 2384 2738 
Q 2169 2928 1744 2928 
Q 1347 2928 1158 2789 
Q 969 2650 878 2297 
L 328 2372 
Q 403 2725 575 2942 
Q 747 3159 1072 3276 
Q 1397 3394 1825 3394 
Q 2250 3394 2515 3294 
Q 2781 3194 2906 3042 
Q 3031 2891 3081 2659 
Q 3109 2516 3109 2141 
L 3109 1391 
Q 3109 606 3145 398 
Q 3181 191 3288 0 
L 2700 0 
Q 2613 175 2588 409 
z
M 2541 1666 
Q 2234 1541 1622 1453 
Q 1275 1403 1131 1340 
Q 988 1278 909 1158 
Q 831 1038 831 891 
Q 831 666 1001 516 
Q 1172 366 1500 366 
Q 1825 366 2078 508 
Q 2331 650 2450 897 
Q 2541 1088 2541 1459 
L 2541 1666 
z
" transform="scale(0.015625)"/>
       <path id="ArialMT-6c" d="M 409 0 
L 409 4581 
L 972 4581 
L 972 0 
L 409 0 
z
" transform="scale(0.015625)"/>
       <path id="ArialMT-20" transform="scale(0.015625)"/>
       <path id="ArialMT-41" d="M -9 0 
L 1750 4581 
L 2403 4581 
L 4278 0 
L 3588 0 
L 3053 1388 
L 1138 1388 
L 634 0 
L -9 0 
z
M 1313 1881 
L 2866 1881 
L 2388 3150 
Q 2169 3728 2063 4100 
Q 1975 3659 1816 3225 
L 1313 1881 
z
" transform="scale(0.015625)"/>
       <path id="ArialMT-63" d="M 2588 1216 
L 3141 1144 
Q 3050 572 2676 248 
Q 2303 -75 1759 -75 
Q 1078 -75 664 370 
Q 250 816 250 1647 
Q 250 2184 428 2587 
Q 606 2991 970 3192 
Q 1334 3394 1763 3394 
Q 2303 3394 2647 3120 
Q 2991 2847 3088 2344 
L 2541 2259 
Q 2463 2594 2264 2762 
Q 2066 2931 1784 2931 
Q 1359 2931 1093 2626 
Q 828 2322 828 1663 
Q 828 994 1084 691 
Q 1341 388 1753 388 
Q 2084 388 2306 591 
Q 2528 794 2588 1216 
z
" transform="scale(0.015625)"/>
       <path id="ArialMT-74" d="M 1650 503 
L 1731 6 
Q 1494 -44 1306 -44 
Q 1000 -44 831 53 
Q 663 150 594 308 
Q 525 466 525 972 
L 525 2881 
L 113 2881 
L 113 3319 
L 525 3319 
L 525 4141 
L 1084 4478 
L 1084 3319 
L 1650 3319 
L 1650 2881 
L 1084 2881 
L 1084 941 
Q 1084 700 1114 631 
Q 1144 563 1211 522 
Q 1278 481 1403 481 
Q 1497 481 1650 503 
z
" transform="scale(0.015625)"/>
       <path id="ArialMT-79" d="M 397 -1278 
L 334 -750 
Q 519 -800 656 -800 
Q 844 -800 956 -737 
Q 1069 -675 1141 -563 
Q 1194 -478 1313 -144 
Q 1328 -97 1363 -6 
L 103 3319 
L 709 3319 
L 1400 1397 
Q 1534 1031 1641 628 
Q 1738 1016 1872 1384 
L 2581 3319 
L 3144 3319 
L 1881 -56 
Q 1678 -603 1566 -809 
Q 1416 -1088 1222 -1217 
Q 1028 -1347 759 -1347 
Q 597 -1347 397 -1278 
z
" transform="scale(0.015625)"/>
       <path id="ArialMT-28" d="M 1497 -1347 
Q 1031 -759 709 28 
Q 388 816 388 1659 
Q 388 2403 628 3084 
Q 909 3875 1497 4659 
L 1900 4659 
Q 1522 4009 1400 3731 
Q 1209 3300 1100 2831 
Q 966 2247 966 1656 
Q 966 153 1900 -1347 
L 1497 -1347 
z
" transform="scale(0.015625)"/>
       <path id="ArialMT-6f" d="M 213 1659 
Q 213 2581 725 3025 
Q 1153 3394 1769 3394 
Q 2453 3394 2887 2945 
Q 3322 2497 3322 1706 
Q 3322 1066 3130 698 
Q 2938 331 2570 128 
Q 2203 -75 1769 -75 
Q 1072 -75 642 372 
Q 213 819 213 1659 
z
M 791 1659 
Q 791 1022 1069 705 
Q 1347 388 1769 388 
Q 2188 388 2466 706 
Q 2744 1025 2744 1678 
Q 2744 2294 2464 2611 
Q 2184 2928 1769 2928 
Q 1347 2928 1069 2612 
Q 791 2297 791 1659 
z
" transform="scale(0.015625)"/>
       <path id="ArialMT-67" d="M 319 -275 
L 866 -356 
Q 900 -609 1056 -725 
Q 1266 -881 1628 -881 
Q 2019 -881 2231 -725 
Q 2444 -569 2519 -288 
Q 2563 -116 2559 434 
Q 2191 0 1641 0 
Q 956 0 581 494 
Q 206 988 206 1678 
Q 206 2153 378 2554 
Q 550 2956 876 3175 
Q 1203 3394 1644 3394 
Q 2231 3394 2613 2919 
L 2613 3319 
L 3131 3319 
L 3131 450 
Q 3131 -325 2973 -648 
Q 2816 -972 2473 -1159 
Q 2131 -1347 1631 -1347 
Q 1038 -1347 672 -1080 
Q 306 -813 319 -275 
z
M 784 1719 
Q 784 1066 1043 766 
Q 1303 466 1694 466 
Q 2081 466 2343 764 
Q 2606 1063 2606 1700 
Q 2606 2309 2336 2618 
Q 2066 2928 1684 2928 
Q 1309 2928 1046 2623 
Q 784 2319 784 1719 
z
" transform="scale(0.015625)"/>
       <path id="ArialMT-4d" d="M 475 0 
L 475 4581 
L 1388 4581 
L 2472 1338 
Q 2622 884 2691 659 
Q 2769 909 2934 1394 
L 4031 4581 
L 4847 4581 
L 4847 0 
L 4263 0 
L 4263 3834 
L 2931 0 
L 2384 0 
L 1059 3900 
L 1059 0 
L 475 0 
z
" transform="scale(0.015625)"/>
       <path id="ArialMT-52" d="M 503 0 
L 503 4581 
L 2534 4581 
Q 3147 4581 3465 4457 
Q 3784 4334 3975 4021 
Q 4166 3709 4166 3331 
Q 4166 2844 3850 2509 
Q 3534 2175 2875 2084 
Q 3116 1969 3241 1856 
Q 3506 1613 3744 1247 
L 4541 0 
L 3778 0 
L 3172 953 
Q 2906 1366 2734 1584 
Q 2563 1803 2427 1890 
Q 2291 1978 2150 2013 
Q 2047 2034 1813 2034 
L 1109 2034 
L 1109 0 
L 503 0 
z
M 1109 2559 
L 2413 2559 
Q 2828 2559 3062 2645 
Q 3297 2731 3419 2920 
Q 3541 3109 3541 3331 
Q 3541 3656 3305 3865 
Q 3069 4075 2559 4075 
L 1109 4075 
L 1109 2559 
z
" transform="scale(0.015625)"/>
       <path id="ArialMT-29" d="M 791 -1347 
L 388 -1347 
Q 1322 153 1322 1656 
Q 1322 2244 1188 2822 
Q 1081 3291 891 3722 
Q 769 4003 388 4659 
L 791 4659 
Q 1378 3875 1659 3084 
Q 1900 2403 1900 1659 
Q 1900 816 1576 28 
Q 1253 -759 791 -1347 
z
" transform="scale(0.015625)"/>
      </defs>
      <use xlink:href="#ArialMT-56"/>
      <use xlink:href="#ArialMT-69" x="64.949219"/>
      <use xlink:href="#ArialMT-73" x="87.166016"/>
      <use xlink:href="#ArialMT-75" x="137.166016"/>
      <use xlink:href="#ArialMT-61" x="192.78125"/>
      <use xlink:href="#ArialMT-6c" x="248.396484"/>
      <use xlink:href="#ArialMT-20" x="270.613281"/>
      <use xlink:href="#ArialMT-41" x="292.896484"/>
      <use xlink:href="#ArialMT-63" x="359.595703"/>
      <use xlink:href="#ArialMT-75" x="409.595703"/>
      <use xlink:href="#ArialMT-69" x="465.210938"/>
      <use xlink:href="#ArialMT-74" x="487.427734"/>
      <use xlink:href="#ArialMT-79" x="515.210938"/>
      <use xlink:href="#ArialMT-20" x="565.210938"/>
      <use xlink:href="#ArialMT-28" x="592.994141"/>
      <use xlink:href="#ArialMT-6c" x="626.294922"/>
      <use xlink:href="#ArialMT-6f" x="648.511719"/>
      <use xlink:href="#ArialMT-67" x="704.126953"/>
      <use xlink:href="#ArialMT-4d" x="759.742188"/>
      <use xlink:href="#ArialMT-41" x="843.042969"/>
      <use xlink:href="#ArialMT-52" x="909.742188"/>
      <use xlink:href="#ArialMT-29" x="981.958984"/>
     </g>
    </g>
   </g>
   <g id="matplotlib.axis_2">
    <g id="ytick_1">
     <g id="line2d_4">
      <defs>
       <path id="m435aee8002" d="M 0 0 
L -3.5 0 
" style="stroke: #000000; stroke-width: 0.8"/>
      </defs>
      <g>
       <use xlink:href="#m435aee8002" x="44.546875" y="228.911625" style="stroke: #000000; stroke-width: 0.8"/>
      </g>
     </g>
     <g id="text_5">
      <!-- −40 -->
      <g transform="translate(20.584375 232.490531) scale(0.1 -0.1)">
       <defs>
        <path id="ArialMT-2212" d="M 3381 1997 
L 356 1997 
L 356 2522 
L 3381 2522 
L 3381 1997 
z
" transform="scale(0.015625)"/>
        <path id="ArialMT-34" d="M 2069 0 
L 2069 1097 
L 81 1097 
L 81 1613 
L 2172 4581 
L 2631 4581 
L 2631 1613 
L 3250 1613 
L 3250 1097 
L 2631 1097 
L 2631 0 
L 2069 0 
z
M 2069 1613 
L 2069 3678 
L 634 1613 
L 2069 1613 
z
" transform="scale(0.015625)"/>
       </defs>
       <use xlink:href="#ArialMT-2212"/>
       <use xlink:href="#ArialMT-34" x="58.398438"/>
       <use xlink:href="#ArialMT-30" x="114.013672"/>
      </g>
     </g>
    </g>
    <g id="ytick_2">
     <g id="line2d_5">
      <g>
       <use xlink:href="#m435aee8002" x="44.546875" y="199.343625" style="stroke: #000000; stroke-width: 0.8"/>
      </g>
     </g>
     <g id="text_6">
      <!-- −30 -->
      <g transform="translate(20.584375 202.922531) scale(0.1 -0.1)">
       <defs>
        <path id="ArialMT-33" d="M 269 1209 
L 831 1284 
Q 928 806 1161 595 
Q 1394 384 1728 384 
Q 2125 384 2398 659 
Q 2672 934 2672 1341 
Q 2672 1728 2419 1979 
Q 2166 2231 1775 2231 
Q 1616 2231 1378 2169 
L 1441 2663 
Q 1497 2656 1531 2656 
Q 1891 2656 2178 2843 
Q 2466 3031 2466 3422 
Q 2466 3731 2256 3934 
Q 2047 4138 1716 4138 
Q 1388 4138 1169 3931 
Q 950 3725 888 3313 
L 325 3413 
Q 428 3978 793 4289 
Q 1159 4600 1703 4600 
Q 2078 4600 2393 4439 
Q 2709 4278 2876 4000 
Q 3044 3722 3044 3409 
Q 3044 3113 2884 2869 
Q 2725 2625 2413 2481 
Q 2819 2388 3044 2092 
Q 3269 1797 3269 1353 
Q 3269 753 2831 336 
Q 2394 -81 1725 -81 
Q 1122 -81 723 278 
Q 325 638 269 1209 
z
" transform="scale(0.015625)"/>
       </defs>
       <use xlink:href="#ArialMT-2212"/>
       <use xlink:href="#ArialMT-33" x="58.398438"/>
       <use xlink:href="#ArialMT-30" x="114.013672"/>
      </g>
     </g>
    </g>
    <g id="ytick_3">
     <g id="line2d_6">
      <g>
       <use xlink:href="#m435aee8002" x="44.546875" y="169.775625" style="stroke: #000000; stroke-width: 0.8"/>
      </g>
     </g>
     <g id="text_7">
      <!-- −20 -->
      <g transform="translate(20.584375 173.354531) scale(0.1 -0.1)">
       <use xlink:href="#ArialMT-2212"/>
       <use xlink:href="#ArialMT-32" x="58.398438"/>
       <use xlink:href="#ArialMT-30" x="114.013672"/>
      </g>
     </g>
    </g>
    <g id="ytick_4">
     <g id="line2d_7">
      <g>
       <use xlink:href="#m435aee8002" x="44.546875" y="140.207625" style="stroke: #000000; stroke-width: 0.8"/>
      </g>
     </g>
     <g id="text_8">
      <!-- −10 -->
      <g transform="translate(20.584375 143.786531) scale(0.1 -0.1)">
       <use xlink:href="#ArialMT-2212"/>
       <use xlink:href="#ArialMT-31" x="58.398438"/>
       <use xlink:href="#ArialMT-30" x="114.013672"/>
      </g>
     </g>
    </g>
    <g id="ytick_5">
     <g id="line2d_8">
      <g>
       <use xlink:href="#m435aee8002" x="44.546875" y="110.639625" style="stroke: #000000; stroke-width: 0.8"/>
      </g>
     </g>
     <g id="text_9">
      <!-- 0 -->
      <g transform="translate(31.985937 114.218531) scale(0.1 -0.1)">
       <use xlink:href="#ArialMT-30"/>
      </g>
     </g>
    </g>
    <g id="ytick_6">
     <g id="line2d_9">
      <g>
       <use xlink:href="#m435aee8002" x="44.546875" y="81.071625" style="stroke: #000000; stroke-width: 0.8"/>
      </g>
     </g>
     <g id="text_10">
      <!-- 10 -->
      <g transform="translate(26.425 84.650531) scale(0.1 -0.1)">
       <use xlink:href="#ArialMT-31"/>
       <use xlink:href="#ArialMT-30" x="55.615234"/>
      </g>
     </g>
    </g>
    <g id="ytick_7">
     <g id="line2d_10">
      <g>
       <use xlink:href="#m435aee8002" x="44.546875" y="51.503625" style="stroke: #000000; stroke-width: 0.8"/>
      </g>
     </g>
     <g id="text_11">
      <!-- 20 -->
      <g transform="translate(26.425 55.082531) scale(0.1 -0.1)">
       <use xlink:href="#ArialMT-32"/>
       <use xlink:href="#ArialMT-30" x="55.615234"/>
      </g>
     </g>
    </g>
    <g id="ytick_8">
     <g id="line2d_11">
      <g>
       <use xlink:href="#m435aee8002" x="44.546875" y="21.935625" style="stroke: #000000; stroke-width: 0.8"/>
      </g>
     </g>
     <g id="text_12">
      <!-- 30 -->
      <g transform="translate(26.425 25.514531) scale(0.1 -0.1)">
       <use xlink:href="#ArialMT-33"/>
       <use xlink:href="#ArialMT-30" x="55.615234"/>
      </g>
     </g>
    </g>
    <g id="text_13">
     <!-- SNR (db) -->
     <g transform="translate(14.479687 153.652344) rotate(-90) scale(0.1 -0.1)">
      <defs>
       <path id="ArialMT-53" d="M 288 1472 
L 859 1522 
Q 900 1178 1048 958 
Q 1197 738 1509 602 
Q 1822 466 2213 466 
Q 2559 466 2825 569 
Q 3091 672 3220 851 
Q 3350 1031 3350 1244 
Q 3350 1459 3225 1620 
Q 3100 1781 2813 1891 
Q 2628 1963 1997 2114 
Q 1366 2266 1113 2400 
Q 784 2572 623 2826 
Q 463 3081 463 3397 
Q 463 3744 659 4045 
Q 856 4347 1234 4503 
Q 1613 4659 2075 4659 
Q 2584 4659 2973 4495 
Q 3363 4331 3572 4012 
Q 3781 3694 3797 3291 
L 3216 3247 
Q 3169 3681 2898 3903 
Q 2628 4125 2100 4125 
Q 1550 4125 1298 3923 
Q 1047 3722 1047 3438 
Q 1047 3191 1225 3031 
Q 1400 2872 2139 2705 
Q 2878 2538 3153 2413 
Q 3553 2228 3743 1945 
Q 3934 1663 3934 1294 
Q 3934 928 3725 604 
Q 3516 281 3123 101 
Q 2731 -78 2241 -78 
Q 1619 -78 1198 103 
Q 778 284 539 648 
Q 300 1013 288 1472 
z
" transform="scale(0.015625)"/>
       <path id="ArialMT-4e" d="M 488 0 
L 488 4581 
L 1109 4581 
L 3516 984 
L 3516 4581 
L 4097 4581 
L 4097 0 
L 3475 0 
L 1069 3600 
L 1069 0 
L 488 0 
z
" transform="scale(0.015625)"/>
       <path id="ArialMT-64" d="M 2575 0 
L 2575 419 
Q 2259 -75 1647 -75 
Q 1250 -75 917 144 
Q 584 363 401 755 
Q 219 1147 219 1656 
Q 219 2153 384 2558 
Q 550 2963 881 3178 
Q 1213 3394 1622 3394 
Q 1922 3394 2156 3267 
Q 2391 3141 2538 2938 
L 2538 4581 
L 3097 4581 
L 3097 0 
L 2575 0 
z
M 797 1656 
Q 797 1019 1065 703 
Q 1334 388 1700 388 
Q 2069 388 2326 689 
Q 2584 991 2584 1609 
Q 2584 2291 2321 2609 
Q 2059 2928 1675 2928 
Q 1300 2928 1048 2622 
Q 797 2316 797 1656 
z
" transform="scale(0.015625)"/>
       <path id="ArialMT-62" d="M 941 0 
L 419 0 
L 419 4581 
L 981 4581 
L 981 2947 
Q 1338 3394 1891 3394 
Q 2197 3394 2470 3270 
Q 2744 3147 2920 2923 
Q 3097 2700 3197 2384 
Q 3297 2069 3297 1709 
Q 3297 856 2875 390 
Q 2453 -75 1863 -75 
Q 1275 -75 941 416 
L 941 0 
z
M 934 1684 
Q 934 1088 1097 822 
Q 1363 388 1816 388 
Q 2184 388 2453 708 
Q 2722 1028 2722 1663 
Q 2722 2313 2464 2622 
Q 2206 2931 1841 2931 
Q 1472 2931 1203 2611 
Q 934 2291 934 1684 
z
" transform="scale(0.015625)"/>
      </defs>
      <use xlink:href="#ArialMT-53"/>
      <use xlink:href="#ArialMT-4e" x="66.699219"/>
      <use xlink:href="#ArialMT-52" x="138.916016"/>
      <use xlink:href="#ArialMT-20" x="211.132812"/>
      <use xlink:href="#ArialMT-28" x="238.916016"/>
      <use xlink:href="#ArialMT-64" x="272.216797"/>
      <use xlink:href="#ArialMT-62" x="327.832031"/>
      <use xlink:href="#ArialMT-29" x="383.447266"/>
     </g>
    </g>
   </g>
   <g id="line2d_12">
    <path d="M 65.668662 98.344492 
L 67.338368 98.704883 
L 69.008075 99.065273 
L 70.677781 99.425664 
L 72.347488 99.786054 
L 74.017194 100.146445 
L 75.686901 100.506835 
L 77.356607 100.867226 
L 79.026314 101.227617 
L 80.69602 101.588007 
L 82.365727 101.948398 
L 84.035433 102.308788 
L 85.705139 102.669179 
L 87.374846 103.029569 
L 89.044552 103.38996 
L 90.714259 103.75035 
L 92.383965 104.110741 
L 94.053672 104.471131 
L 95.723378 104.831522 
L 97.393085 105.191912 
L 99.062791 105.552303 
L 100.732498 105.912694 
L 102.402204 106.273084 
L 104.071911 106.633475 
L 105.741617 106.993865 
L 107.411324 107.354256 
L 109.08103 107.714646 
L 110.750736 108.075037 
L 112.420443 108.435427 
L 114.090149 108.795818 
L 115.759856 109.156208 
L 117.429562 109.516599 
L 119.099269 109.876989 
L 120.768975 110.23738 
L 122.438682 110.59777 
L 124.108388 110.958161 
L 125.778095 111.318552 
L 127.447801 111.678942 
L 129.117508 112.039333 
L 130.787214 112.399723 
L 132.456921 112.760114 
L 134.126627 113.120504 
L 135.796334 113.480895 
L 137.46604 113.841285 
L 139.135746 114.201676 
L 140.805453 114.562066 
L 142.475159 114.922457 
L 144.144866 115.282847 
L 145.814572 115.643238 
L 147.484279 116.003628 
L 149.153985 116.364019 
L 150.823692 116.72441 
L 152.493398 117.0848 
L 154.163105 117.445191 
L 155.832811 117.805581 
L 157.502518 118.165972 
L 159.172224 118.526362 
L 160.841931 118.886753 
L 162.511637 119.247143 
L 164.181344 119.607534 
L 165.85105 119.967924 
L 167.520756 120.328315 
L 169.190463 120.688705 
L 170.860169 121.049096 
L 172.529876 121.409486 
L 174.199582 121.769877 
L 175.869289 122.130268 
L 177.538995 122.490658 
L 179.208702 122.851049 
L 180.878408 123.211439 
L 182.548115 123.57183 
L 184.217821 123.93222 
L 185.887528 124.292611 
L 187.557234 124.653001 
L 189.226941 125.013392 
L 190.896647 125.373782 
L 192.566353 125.734173 
L 194.23606 126.094563 
L 195.905766 126.454954 
L 197.575473 126.815345 
L 199.245179 127.175735 
L 200.914886 127.536126 
L 202.584592 127.896516 
L 204.254299 128.256907 
L 205.924005 128.617297 
L 207.593712 128.977688 
L 209.263418 129.338078 
L 210.933125 129.698469 
L 212.602831 130.058859 
L 214.272538 130.41925 
L 215.942244 130.77964 
L 217.611951 131.140031 
L 219.281657 131.500421 
L 220.951363 131.860812 
L 222.62107 132.221203 
L 224.290776 132.581593 
L 225.960483 132.941984 
L 227.630189 133.302374 
L 229.299896 133.662765 
L 230.969602 134.023155 
" clip-path="url(#pb2d96eee87)" style="fill: none; stroke: #40498e; stroke-width: 2.25; stroke-linecap: square"/>
   </g>
   <g id="line2d_13">
    <path d="M 53.424148 76.701615 
L 53.758089 76.74556 
L 54.09203 76.789504 
L 54.425972 76.833449 
L 54.759913 76.877394 
L 55.093854 76.921339 
L 55.427795 76.965284 
L 55.761737 77.009229 
L 56.095678 77.053173 
L 56.429619 77.097118 
L 56.763561 77.141063 
L 57.097502 77.185008 
L 57.431443 77.228953 
L 57.765385 77.272898 
L 58.099326 77.316843 
L 58.433267 77.360787 
L 58.767208 77.404732 
L 59.10115 77.448677 
L 59.435091 77.492622 
L 59.769032 77.536567 
L 60.102974 77.580512 
L 60.436915 77.624456 
L 60.770856 77.668401 
L 61.104797 77.712346 
L 61.438739 77.756291 
L 61.77268 77.800236 
L 62.106621 77.844181 
L 62.440563 77.888126 
L 62.774504 77.93207 
L 63.108445 77.976015 
L 63.442387 78.01996 
L 63.776328 78.063905 
L 64.110269 78.10785 
L 64.44421 78.151795 
L 64.778152 78.195739 
L 65.112093 78.239684 
L 65.446034 78.283629 
L 65.779976 78.327574 
L 66.113917 78.371519 
L 66.447858 78.415464 
L 66.781799 78.459409 
L 67.115741 78.503353 
L 67.449682 78.547298 
L 67.783623 78.591243 
L 68.117565 78.635188 
L 68.451506 78.679133 
L 68.785447 78.723078 
L 69.119389 78.767022 
L 69.45333 78.810967 
L 69.787271 78.854912 
L 70.121212 78.898857 
L 70.455154 78.942802 
L 70.789095 78.986747 
L 71.123036 79.030692 
L 71.456978 79.074636 
L 71.790919 79.118581 
L 72.12486 79.162526 
L 72.458801 79.206471 
L 72.792743 79.250416 
L 73.126684 79.294361 
L 73.460625 79.338305 
L 73.794567 79.38225 
L 74.128508 79.426195 
L 74.462449 79.47014 
L 74.796391 79.514085 
L 75.130332 79.55803 
L 75.464273 79.601975 
L 75.798214 79.645919 
L 76.132156 79.689864 
L 76.466097 79.733809 
L 76.800038 79.777754 
L 77.13398 79.821699 
L 77.467921 79.865644 
L 77.801862 79.909588 
L 78.135803 79.953533 
L 78.469745 79.997478 
L 78.803686 80.041423 
L 79.137627 80.085368 
L 79.471569 80.129313 
L 79.80551 80.173258 
L 80.139451 80.217202 
L 80.473393 80.261147 
L 80.807334 80.305092 
L 81.141275 80.349037 
L 81.475216 80.392982 
L 81.809158 80.436927 
L 82.143099 80.480871 
L 82.47704 80.524816 
L 82.810982 80.568761 
L 83.144923 80.612706 
L 83.478864 80.656651 
L 83.812805 80.700596 
L 84.146747 80.744541 
L 84.480688 80.788485 
L 84.814629 80.83243 
L 85.148571 80.876375 
L 85.482512 80.92032 
L 85.816453 80.964265 
L 86.150395 81.00821 
L 86.484336 81.052154 
" clip-path="url(#pb2d96eee87)" style="fill: none; stroke: #0b0405; stroke-width: 2.25; stroke-linecap: square"/>
   </g>
   <g id="patch_3">
    <path d="M 44.546875 243.695625 
L 44.546875 21.935625 
" style="fill: none; stroke: #000000; stroke-width: 0.8; stroke-linejoin: miter; stroke-linecap: square"/>
   </g>
   <g id="patch_4">
    <path d="M 239.846875 243.695625 
L 239.846875 21.935625 
" style="fill: none; stroke: #000000; stroke-width: 0.8; stroke-linejoin: miter; stroke-linecap: square"/>
   </g>
   <g id="patch_5">
    <path d="M 44.546875 243.695625 
L 239.846875 243.695625 
" style="fill: none; stroke: #000000; stroke-width: 0.8; stroke-linejoin: miter; stroke-linecap: square"/>
   </g>
   <g id="patch_6">
    <path d="M 44.546875 21.935625 
L 239.846875 21.935625 
" style="fill: none; stroke: #000000; stroke-width: 0.8; stroke-linejoin: miter; stroke-linecap: square"/>
   </g>
   <g id="text_14">
    <!-- Spatial Frequency = 10.0 cpd -->
    <g transform="translate(63.985 15.935625) scale(0.12 -0.12)">
     <defs>
      <path id="ArialMT-70" d="M 422 -1272 
L 422 3319 
L 934 3319 
L 934 2888 
Q 1116 3141 1344 3267 
Q 1572 3394 1897 3394 
Q 2322 3394 2647 3175 
Q 2972 2956 3137 2557 
Q 3303 2159 3303 1684 
Q 3303 1175 3120 767 
Q 2938 359 2589 142 
Q 2241 -75 1856 -75 
Q 1575 -75 1351 44 
Q 1128 163 984 344 
L 984 -1272 
L 422 -1272 
z
M 931 1641 
Q 931 1000 1190 694 
Q 1450 388 1819 388 
Q 2194 388 2461 705 
Q 2728 1022 2728 1688 
Q 2728 2322 2467 2637 
Q 2206 2953 1844 2953 
Q 1484 2953 1207 2617 
Q 931 2281 931 1641 
z
" transform="scale(0.015625)"/>
      <path id="ArialMT-46" d="M 525 0 
L 525 4581 
L 3616 4581 
L 3616 4041 
L 1131 4041 
L 1131 2622 
L 3281 2622 
L 3281 2081 
L 1131 2081 
L 1131 0 
L 525 0 
z
" transform="scale(0.015625)"/>
      <path id="ArialMT-72" d="M 416 0 
L 416 3319 
L 922 3319 
L 922 2816 
Q 1116 3169 1280 3281 
Q 1444 3394 1641 3394 
Q 1925 3394 2219 3213 
L 2025 2691 
Q 1819 2813 1613 2813 
Q 1428 2813 1281 2702 
Q 1134 2591 1072 2394 
Q 978 2094 978 1738 
L 978 0 
L 416 0 
z
" transform="scale(0.015625)"/>
      <path id="ArialMT-65" d="M 2694 1069 
L 3275 997 
Q 3138 488 2766 206 
Q 2394 -75 1816 -75 
Q 1088 -75 661 373 
Q 234 822 234 1631 
Q 234 2469 665 2931 
Q 1097 3394 1784 3394 
Q 2450 3394 2872 2941 
Q 3294 2488 3294 1666 
Q 3294 1616 3291 1516 
L 816 1516 
Q 847 969 1125 678 
Q 1403 388 1819 388 
Q 2128 388 2347 550 
Q 2566 713 2694 1069 
z
M 847 1978 
L 2700 1978 
Q 2663 2397 2488 2606 
Q 2219 2931 1791 2931 
Q 1403 2931 1139 2672 
Q 875 2413 847 1978 
z
" transform="scale(0.015625)"/>
      <path id="ArialMT-71" d="M 2538 -1272 
L 2538 353 
Q 2406 169 2170 47 
Q 1934 -75 1669 -75 
Q 1078 -75 651 397 
Q 225 869 225 1691 
Q 225 2191 398 2587 
Q 572 2984 901 3189 
Q 1231 3394 1625 3394 
Q 2241 3394 2594 2875 
L 2594 3319 
L 3100 3319 
L 3100 -1272 
L 2538 -1272 
z
M 803 1669 
Q 803 1028 1072 708 
Q 1341 388 1716 388 
Q 2075 388 2334 692 
Q 2594 997 2594 1619 
Q 2594 2281 2320 2615 
Q 2047 2950 1678 2950 
Q 1313 2950 1058 2639 
Q 803 2328 803 1669 
z
" transform="scale(0.015625)"/>
      <path id="ArialMT-6e" d="M 422 0 
L 422 3319 
L 928 3319 
L 928 2847 
Q 1294 3394 1984 3394 
Q 2284 3394 2536 3286 
Q 2788 3178 2913 3003 
Q 3038 2828 3088 2588 
Q 3119 2431 3119 2041 
L 3119 0 
L 2556 0 
L 2556 2019 
Q 2556 2363 2490 2533 
Q 2425 2703 2258 2804 
Q 2091 2906 1866 2906 
Q 1506 2906 1245 2678 
Q 984 2450 984 1813 
L 984 0 
L 422 0 
z
" transform="scale(0.015625)"/>
      <path id="ArialMT-3d" d="M 3381 2694 
L 356 2694 
L 356 3219 
L 3381 3219 
L 3381 2694 
z
M 3381 1303 
L 356 1303 
L 356 1828 
L 3381 1828 
L 3381 1303 
z
" transform="scale(0.015625)"/>
      <path id="ArialMT-2e" d="M 581 0 
L 581 641 
L 1222 641 
L 1222 0 
L 581 0 
z
" transform="scale(0.015625)"/>
     </defs>
     <use xlink:href="#ArialMT-53"/>
     <use xlink:href="#ArialMT-70" x="66.699219"/>
     <use xlink:href="#ArialMT-61" x="122.314453"/>
     <use xlink:href="#ArialMT-74" x="177.929688"/>
     <use xlink:href="#ArialMT-69" x="205.712891"/>
     <use xlink:href="#ArialMT-61" x="227.929688"/>
     <use xlink:href="#ArialMT-6c" x="283.544922"/>
     <use xlink:href="#ArialMT-20" x="305.761719"/>
     <use xlink:href="#ArialMT-46" x="333.544922"/>
     <use xlink:href="#ArialMT-72" x="394.628906"/>
     <use xlink:href="#ArialMT-65" x="427.929688"/>
     <use xlink:href="#ArialMT-71" x="483.544922"/>
     <use xlink:href="#ArialMT-75" x="539.160156"/>
     <use xlink:href="#ArialMT-65" x="594.775391"/>
     <use xlink:href="#ArialMT-6e" x="650.390625"/>
     <use xlink:href="#ArialMT-63" x="706.005859"/>
     <use xlink:href="#ArialMT-79" x="756.005859"/>
     <use xlink:href="#ArialMT-20" x="806.005859"/>
     <use xlink:href="#ArialMT-3d" x="833.789062"/>
     <use xlink:href="#ArialMT-20" x="892.1875"/>
     <use xlink:href="#ArialMT-31" x="919.970703"/>
     <use xlink:href="#ArialMT-30" x="975.585938"/>
     <use xlink:href="#ArialMT-2e" x="1031.201172"/>
     <use xlink:href="#ArialMT-30" x="1058.984375"/>
     <use xlink:href="#ArialMT-20" x="1114.599609"/>
     <use xlink:href="#ArialMT-63" x="1142.382812"/>
     <use xlink:href="#ArialMT-70" x="1192.382812"/>
     <use xlink:href="#ArialMT-64" x="1247.998047"/>
    </g>
   </g>
   <g id="legend_1">
    <g id="patch_7">
     <path d="M 51.546875 238.695625 
L 160.265625 238.695625 
Q 162.265625 238.695625 162.265625 236.695625 
L 162.265625 188.18 
Q 162.265625 186.18 160.265625 186.18 
L 51.546875 186.18 
Q 49.546875 186.18 49.546875 188.18 
L 49.546875 236.695625 
Q 49.546875 238.695625 51.546875 238.695625 
z
" style="fill: #ffffff; opacity: 0.8; stroke: #cccccc; stroke-linejoin: miter"/>
    </g>
    <g id="PathCollection_3">
     <g>
      <use xlink:href="#mc739d81a59" x="63.546875" y="201.012812" style="fill: #40498e; stroke: #ffffff; stroke-width: 0.48"/>
     </g>
    </g>
    <g id="text_15">
     <!-- CRB1: -->
     <g transform="translate(81.546875 197.337813) scale(0.1 -0.1)">
      <defs>
       <path id="ArialMT-43" d="M 3763 1606 
L 4369 1453 
Q 4178 706 3683 314 
Q 3188 -78 2472 -78 
Q 1731 -78 1267 223 
Q 803 525 561 1097 
Q 319 1669 319 2325 
Q 319 3041 592 3573 
Q 866 4106 1370 4382 
Q 1875 4659 2481 4659 
Q 3169 4659 3637 4309 
Q 4106 3959 4291 3325 
L 3694 3184 
Q 3534 3684 3231 3912 
Q 2928 4141 2469 4141 
Q 1941 4141 1586 3887 
Q 1231 3634 1087 3207 
Q 944 2781 944 2328 
Q 944 1744 1114 1308 
Q 1284 872 1643 656 
Q 2003 441 2422 441 
Q 2931 441 3284 734 
Q 3638 1028 3763 1606 
z
" transform="scale(0.015625)"/>
       <path id="ArialMT-42" d="M 469 0 
L 469 4581 
L 2188 4581 
Q 2713 4581 3030 4442 
Q 3347 4303 3526 4014 
Q 3706 3725 3706 3409 
Q 3706 3116 3547 2856 
Q 3388 2597 3066 2438 
Q 3481 2316 3704 2022 
Q 3928 1728 3928 1328 
Q 3928 1006 3792 729 
Q 3656 453 3456 303 
Q 3256 153 2954 76 
Q 2653 0 2216 0 
L 469 0 
z
M 1075 2656 
L 2066 2656 
Q 2469 2656 2644 2709 
Q 2875 2778 2992 2937 
Q 3109 3097 3109 3338 
Q 3109 3566 3000 3739 
Q 2891 3913 2687 3977 
Q 2484 4041 1991 4041 
L 1075 4041 
L 1075 2656 
z
M 1075 541 
L 2216 541 
Q 2509 541 2628 563 
Q 2838 600 2978 687 
Q 3119 775 3209 942 
Q 3300 1109 3300 1328 
Q 3300 1584 3169 1773 
Q 3038 1963 2805 2039 
Q 2572 2116 2134 2116 
L 1075 2116 
L 1075 541 
z
" transform="scale(0.015625)"/>
       <path id="ArialMT-3a" d="M 578 2678 
L 578 3319 
L 1219 3319 
L 1219 2678 
L 578 2678 
z
M 578 0 
L 578 641 
L 1219 641 
L 1219 0 
L 578 0 
z
" transform="scale(0.015625)"/>
      </defs>
      <use xlink:href="#ArialMT-43"/>
      <use xlink:href="#ArialMT-52" x="72.216797"/>
      <use xlink:href="#ArialMT-42" x="144.433594"/>
      <use xlink:href="#ArialMT-31" x="211.132812"/>
      <use xlink:href="#ArialMT-3a" x="266.748047"/>
     </g>
     <!--  r=-0.41, p=0.019 -->
     <g transform="translate(81.546875 207.950312) scale(0.1 -0.1)">
      <defs>
       <path id="ArialMT-2d" d="M 203 1375 
L 203 1941 
L 1931 1941 
L 1931 1375 
L 203 1375 
z
" transform="scale(0.015625)"/>
       <path id="ArialMT-2c" d="M 569 0 
L 569 641 
L 1209 641 
L 1209 0 
Q 1209 -353 1084 -570 
Q 959 -788 688 -906 
L 531 -666 
Q 709 -588 793 -436 
Q 878 -284 888 0 
L 569 0 
z
" transform="scale(0.015625)"/>
       <path id="ArialMT-39" d="M 350 1059 
L 891 1109 
Q 959 728 1153 556 
Q 1347 384 1650 384 
Q 1909 384 2104 503 
Q 2300 622 2425 820 
Q 2550 1019 2634 1356 
Q 2719 1694 2719 2044 
Q 2719 2081 2716 2156 
Q 2547 1888 2255 1720 
Q 1963 1553 1622 1553 
Q 1053 1553 659 1965 
Q 266 2378 266 3053 
Q 266 3750 677 4175 
Q 1088 4600 1706 4600 
Q 2153 4600 2523 4359 
Q 2894 4119 3086 3673 
Q 3278 3228 3278 2384 
Q 3278 1506 3087 986 
Q 2897 466 2520 194 
Q 2144 -78 1638 -78 
Q 1100 -78 759 220 
Q 419 519 350 1059 
z
M 2653 3081 
Q 2653 3566 2395 3850 
Q 2138 4134 1775 4134 
Q 1400 4134 1122 3828 
Q 844 3522 844 3034 
Q 844 2597 1108 2323 
Q 1372 2050 1759 2050 
Q 2150 2050 2401 2323 
Q 2653 2597 2653 3081 
z
" transform="scale(0.015625)"/>
      </defs>
      <use xlink:href="#ArialMT-20"/>
      <use xlink:href="#ArialMT-72" x="27.783203"/>
      <use xlink:href="#ArialMT-3d" x="61.083984"/>
      <use xlink:href="#ArialMT-2d" x="119.482422"/>
      <use xlink:href="#ArialMT-30" x="152.783203"/>
      <use xlink:href="#ArialMT-2e" x="208.398438"/>
      <use xlink:href="#ArialMT-34" x="236.181641"/>
      <use xlink:href="#ArialMT-31" x="291.796875"/>
      <use xlink:href="#ArialMT-2c" x="347.412109"/>
      <use xlink:href="#ArialMT-20" x="375.195312"/>
      <use xlink:href="#ArialMT-70" x="402.978516"/>
      <use xlink:href="#ArialMT-3d" x="458.59375"/>
      <use xlink:href="#ArialMT-30" x="516.992188"/>
      <use xlink:href="#ArialMT-2e" x="572.607422"/>
      <use xlink:href="#ArialMT-30" x="600.390625"/>
      <use xlink:href="#ArialMT-31" x="656.005859"/>
      <use xlink:href="#ArialMT-39" x="711.621094"/>
     </g>
    </g>
    <g id="PathCollection_4">
     <g>
      <use xlink:href="#md332d9af17" x="63.546875" y="225.770625" style="fill: #0b0405; stroke: #ffffff; stroke-width: 0.48"/>
     </g>
    </g>
    <g id="text_16">
     <!-- Controls: -->
     <g transform="translate(81.546875 222.095625) scale(0.1 -0.1)">
      <use xlink:href="#ArialMT-43"/>
      <use xlink:href="#ArialMT-6f" x="72.216797"/>
      <use xlink:href="#ArialMT-6e" x="127.832031"/>
      <use xlink:href="#ArialMT-74" x="183.447266"/>
      <use xlink:href="#ArialMT-72" x="211.230469"/>
      <use xlink:href="#ArialMT-6f" x="244.53125"/>
      <use xlink:href="#ArialMT-6c" x="300.146484"/>
      <use xlink:href="#ArialMT-73" x="322.363281"/>
      <use xlink:href="#ArialMT-3a" x="372.363281"/>
     </g>
     <!--  r=-0.04, p=0.815 -->
     <g transform="translate(81.546875 232.708125) scale(0.1 -0.1)">
      <defs>
       <path id="ArialMT-38" d="M 1131 2484 
Q 781 2613 612 2850 
Q 444 3088 444 3419 
Q 444 3919 803 4259 
Q 1163 4600 1759 4600 
Q 2359 4600 2725 4251 
Q 3091 3903 3091 3403 
Q 3091 3084 2923 2848 
Q 2756 2613 2416 2484 
Q 2838 2347 3058 2040 
Q 3278 1734 3278 1309 
Q 3278 722 2862 322 
Q 2447 -78 1769 -78 
Q 1091 -78 675 323 
Q 259 725 259 1325 
Q 259 1772 486 2073 
Q 713 2375 1131 2484 
z
M 1019 3438 
Q 1019 3113 1228 2906 
Q 1438 2700 1772 2700 
Q 2097 2700 2305 2904 
Q 2513 3109 2513 3406 
Q 2513 3716 2298 3927 
Q 2084 4138 1766 4138 
Q 1444 4138 1231 3931 
Q 1019 3725 1019 3438 
z
M 838 1322 
Q 838 1081 952 856 
Q 1066 631 1291 507 
Q 1516 384 1775 384 
Q 2178 384 2440 643 
Q 2703 903 2703 1303 
Q 2703 1709 2433 1975 
Q 2163 2241 1756 2241 
Q 1359 2241 1098 1978 
Q 838 1716 838 1322 
z
" transform="scale(0.015625)"/>
       <path id="ArialMT-35" d="M 266 1200 
L 856 1250 
Q 922 819 1161 601 
Q 1400 384 1738 384 
Q 2144 384 2425 690 
Q 2706 997 2706 1503 
Q 2706 1984 2436 2262 
Q 2166 2541 1728 2541 
Q 1456 2541 1237 2417 
Q 1019 2294 894 2097 
L 366 2166 
L 809 4519 
L 3088 4519 
L 3088 3981 
L 1259 3981 
L 1013 2750 
Q 1425 3038 1878 3038 
Q 2478 3038 2890 2622 
Q 3303 2206 3303 1553 
Q 3303 931 2941 478 
Q 2500 -78 1738 -78 
Q 1113 -78 717 272 
Q 322 622 266 1200 
z
" transform="scale(0.015625)"/>
      </defs>
      <use xlink:href="#ArialMT-20"/>
      <use xlink:href="#ArialMT-72" x="27.783203"/>
      <use xlink:href="#ArialMT-3d" x="61.083984"/>
      <use xlink:href="#ArialMT-2d" x="119.482422"/>
      <use xlink:href="#ArialMT-30" x="152.783203"/>
      <use xlink:href="#ArialMT-2e" x="208.398438"/>
      <use xlink:href="#ArialMT-30" x="236.181641"/>
      <use xlink:href="#ArialMT-34" x="291.796875"/>
      <use xlink:href="#ArialMT-2c" x="347.412109"/>
      <use xlink:href="#ArialMT-20" x="375.195312"/>
      <use xlink:href="#ArialMT-70" x="402.978516"/>
      <use xlink:href="#ArialMT-3d" x="458.59375"/>
      <use xlink:href="#ArialMT-30" x="516.992188"/>
      <use xlink:href="#ArialMT-2e" x="572.607422"/>
      <use xlink:href="#ArialMT-38" x="600.390625"/>
      <use xlink:href="#ArialMT-31" x="656.005859"/>
      <use xlink:href="#ArialMT-35" x="711.621094"/>
     </g>
    </g>
   </g>
  </g>
 </g>
 <defs>
  <clipPath id="pb2d96eee87">
   <rect x="44.546875" y="21.935625" width="195.3" height="221.76"/>
  </clipPath>
 </defs>
</svg>
