<?xml version="1.0" encoding="utf-8" standalone="no"?>
<!DOCTYPE svg PUBLIC "-//W3C//DTD SVG 1.1//EN"
  "http://www.w3.org/Graphics/SVG/1.1/DTD/svg11.dtd">
<svg xmlns:xlink="http://www.w3.org/1999/xlink" width="247.046875pt" height="280.425313pt" viewBox="0 0 247.046875 280.425313" xmlns="http://www.w3.org/2000/svg" version="1.1">
 <metadata>
  <rdf:RDF xmlns:dc="http://purl.org/dc/elements/1.1/" xmlns:cc="http://creativecommons.org/ns#" xmlns:rdf="http://www.w3.org/1999/02/22-rdf-syntax-ns#">
   <cc:Work>
    <dc:type rdf:resource="http://purl.org/dc/dcmitype/StillImage"/>
    <dc:date>2024-08-15T21:24:37.164974</dc:date>
    <dc:format>image/svg+xml</dc:format>
    <dc:creator>
     <cc:Agent>
      <dc:title>Matplotlib v3.8.2, https://matplotlib.org/</dc:title>
     </cc:Agent>
    </dc:creator>
   </cc:Work>
  </rdf:RDF>
 </metadata>
 <defs>
  <style type="text/css">*{stroke-linejoin: round; stroke-linecap: butt}</style>
 </defs>
 <g id="figure_1">
  <g id="patch_1">
   <path d="M 0 280.425313 
L 247.046875 280.425313 
L 247.046875 0 
L 0 0 
z
" style="fill: #ffffff"/>
  </g>
  <g id="axes_1">
   <g id="patch_2">
    <path d="M 44.546875 243.695625 
L 239.846875 243.695625 
L 239.846875 21.935625 
L 44.546875 21.935625 
z
" style="fill: #ffffff"/>
   </g>
   <g id="PathCollection_1">
    <defs>
     <path id="mc848cf2ad8" d="M 0 3 
C 0.795609 3 1.55874 2.683901 2.12132 2.12132 
C 2.683901 1.55874 3 0.795609 3 0 
C 3 -0.795609 2.683901 -1.55874 2.12132 -2.12132 
C 1.55874 -2.683901 0.795609 -3 0 -3 
C -0.795609 -3 -1.55874 -2.683901 -2.12132 -2.12132 
C -2.683901 -1.55874 -3 -0.795609 -3 0 
C -3 0.795609 -2.683901 1.55874 -2.12132 2.12132 
C -1.55874 2.683901 -0.795609 3 0 3 
z
" style="stroke: #ffffff; stroke-width: 0.48"/>
    </defs>
    <g clip-path="url(#p985cd59096)">
     <use xlink:href="#mc848cf2ad8" x="95.055496" y="109.582283" style="fill: #40498e; stroke: #ffffff; stroke-width: 0.48"/>
     <use xlink:href="#mc848cf2ad8" x="85.259884" y="117.75673" style="fill: #40498e; stroke: #ffffff; stroke-width: 0.48"/>
     <use xlink:href="#mc848cf2ad8" x="108.524461" y="115.534343" style="fill: #40498e; stroke: #ffffff; stroke-width: 0.48"/>
     <use xlink:href="#mc848cf2ad8" x="96.279947" y="114.637234" style="fill: #40498e; stroke: #ffffff; stroke-width: 0.48"/>
     <use xlink:href="#mc848cf2ad8" x="206.480574" y="101.1394" style="fill: #40498e; stroke: #ffffff; stroke-width: 0.48"/>
     <use xlink:href="#mc848cf2ad8" x="206.480574" y="159.983655" style="fill: #40498e; stroke: #ffffff; stroke-width: 0.48"/>
     <use xlink:href="#mc848cf2ad8" x="119.544524" y="107.407692" style="fill: #40498e; stroke: #ffffff; stroke-width: 0.48"/>
     <use xlink:href="#mc848cf2ad8" x="118.320072" y="117.351317" style="fill: #40498e; stroke: #ffffff; stroke-width: 0.48"/>
     <use xlink:href="#mc848cf2ad8" x="85.259884" y="86.742212" style="fill: #40498e; stroke: #ffffff; stroke-width: 0.48"/>
     <use xlink:href="#mc848cf2ad8" x="151.380261" y="126.468644" style="fill: #40498e; stroke: #ffffff; stroke-width: 0.48"/>
     <use xlink:href="#mc848cf2ad8" x="124.44233" y="100.36978" style="fill: #40498e; stroke: #ffffff; stroke-width: 0.48"/>
     <use xlink:href="#mc848cf2ad8" x="119.544524" y="143.573496" style="fill: #40498e; stroke: #ffffff; stroke-width: 0.48"/>
     <use xlink:href="#mc848cf2ad8" x="145.258004" y="89.916013" style="fill: #40498e; stroke: #ffffff; stroke-width: 0.48"/>
     <use xlink:href="#mc848cf2ad8" x="145.258004" y="122.826751" style="fill: #40498e; stroke: #ffffff; stroke-width: 0.48"/>
     <use xlink:href="#mc848cf2ad8" x="162.400323" y="115.751021" style="fill: #40498e; stroke: #ffffff; stroke-width: 0.48"/>
     <use xlink:href="#mc848cf2ad8" x="186.889351" y="114.700846" style="fill: #40498e; stroke: #ffffff; stroke-width: 0.48"/>
     <use xlink:href="#mc848cf2ad8" x="96.279947" y="102.04609" style="fill: #40498e; stroke: #ffffff; stroke-width: 0.48"/>
     <use xlink:href="#mc848cf2ad8" x="96.279947" y="95.326475" style="fill: #40498e; stroke: #ffffff; stroke-width: 0.48"/>
     <use xlink:href="#mc848cf2ad8" x="80.362079" y="94.168369" style="fill: #40498e; stroke: #ffffff; stroke-width: 0.48"/>
     <use xlink:href="#mc848cf2ad8" x="85.259884" y="115.089427" style="fill: #40498e; stroke: #ffffff; stroke-width: 0.48"/>
     <use xlink:href="#mc848cf2ad8" x="75.464273" y="98.735611" style="fill: #40498e; stroke: #ffffff; stroke-width: 0.48"/>
     <use xlink:href="#mc848cf2ad8" x="85.259884" y="91.665901" style="fill: #40498e; stroke: #ffffff; stroke-width: 0.48"/>
     <use xlink:href="#mc848cf2ad8" x="65.668662" y="116.126124" style="fill: #40498e; stroke: #ffffff; stroke-width: 0.48"/>
     <use xlink:href="#mc848cf2ad8" x="104.851107" y="106.017589" style="fill: #40498e; stroke: #ffffff; stroke-width: 0.48"/>
     <use xlink:href="#mc848cf2ad8" x="68.117565" y="49.933871" style="fill: #40498e; stroke: #ffffff; stroke-width: 0.48"/>
     <use xlink:href="#mc848cf2ad8" x="66.893113" y="57.695443" style="fill: #40498e; stroke: #ffffff; stroke-width: 0.48"/>
     <use xlink:href="#mc848cf2ad8" x="79.137627" y="199.898629" style="fill: #40498e; stroke: #ffffff; stroke-width: 0.48"/>
     <use xlink:href="#mc848cf2ad8" x="75.464273" y="94.945977" style="fill: #40498e; stroke: #ffffff; stroke-width: 0.48"/>
     <use xlink:href="#mc848cf2ad8" x="230.969602" y="122.417244" style="fill: #40498e; stroke: #ffffff; stroke-width: 0.48"/>
     <use xlink:href="#mc848cf2ad8" x="206.480574" y="121.761189" style="fill: #40498e; stroke: #ffffff; stroke-width: 0.48"/>
     <use xlink:href="#mc848cf2ad8" x="206.480574" y="142.804771" style="fill: #40498e; stroke: #ffffff; stroke-width: 0.48"/>
     <use xlink:href="#mc848cf2ad8" x="230.969602" y="99.890984" style="fill: #40498e; stroke: #ffffff; stroke-width: 0.48"/>
    </g>
   </g>
   <g id="PathCollection_2">
    <defs>
     <path id="m9e9a26c88e" d="M 0 3 
C 0.795609 3 1.55874 2.683901 2.12132 2.12132 
C 2.683901 1.55874 3 0.795609 3 0 
C 3 -0.795609 2.683901 -1.55874 2.12132 -2.12132 
C 1.55874 -2.683901 0.795609 -3 0 -3 
C -0.795609 -3 -1.55874 -2.683901 -2.12132 -2.12132 
C -2.683901 -1.55874 -3 -0.795609 -3 0 
C -3 0.795609 -2.683901 1.55874 -2.12132 2.12132 
C -1.55874 2.683901 -0.795609 3 0 3 
z
" style="stroke: #ffffff; stroke-width: 0.48"/>
    </defs>
    <g clip-path="url(#p985cd59096)">
     <use xlink:href="#m9e9a26c88e" x="60.770856" y="80.624657" style="fill: #0b0405; stroke: #ffffff; stroke-width: 0.48"/>
     <use xlink:href="#m9e9a26c88e" x="64.44421" y="76.574179" style="fill: #0b0405; stroke: #ffffff; stroke-width: 0.48"/>
     <use xlink:href="#m9e9a26c88e" x="66.893113" y="130.938794" style="fill: #0b0405; stroke: #ffffff; stroke-width: 0.48"/>
     <use xlink:href="#m9e9a26c88e" x="66.893113" y="81.786488" style="fill: #0b0405; stroke: #ffffff; stroke-width: 0.48"/>
     <use xlink:href="#m9e9a26c88e" x="60.770856" y="61.249329" style="fill: #0b0405; stroke: #ffffff; stroke-width: 0.48"/>
     <use xlink:href="#m9e9a26c88e" x="69.342016" y="65.965868" style="fill: #0b0405; stroke: #ffffff; stroke-width: 0.48"/>
     <use xlink:href="#m9e9a26c88e" x="68.117565" y="104.975991" style="fill: #0b0405; stroke: #ffffff; stroke-width: 0.48"/>
     <use xlink:href="#m9e9a26c88e" x="73.01537" y="75.542467" style="fill: #0b0405; stroke: #ffffff; stroke-width: 0.48"/>
     <use xlink:href="#m9e9a26c88e" x="71.790919" y="91.628667" style="fill: #0b0405; stroke: #ffffff; stroke-width: 0.48"/>
     <use xlink:href="#m9e9a26c88e" x="73.01537" y="133.051799" style="fill: #0b0405; stroke: #ffffff; stroke-width: 0.48"/>
     <use xlink:href="#m9e9a26c88e" x="58.321953" y="77.030499" style="fill: #0b0405; stroke: #ffffff; stroke-width: 0.48"/>
     <use xlink:href="#m9e9a26c88e" x="63.219759" y="77.193862" style="fill: #0b0405; stroke: #ffffff; stroke-width: 0.48"/>
     <use xlink:href="#m9e9a26c88e" x="64.44421" y="73.414694" style="fill: #0b0405; stroke: #ffffff; stroke-width: 0.48"/>
     <use xlink:href="#m9e9a26c88e" x="61.995308" y="91.056301" style="fill: #0b0405; stroke: #ffffff; stroke-width: 0.48"/>
     <use xlink:href="#m9e9a26c88e" x="69.342016" y="81.87473" style="fill: #0b0405; stroke: #ffffff; stroke-width: 0.48"/>
     <use xlink:href="#m9e9a26c88e" x="58.321953" y="73.251103" style="fill: #0b0405; stroke: #ffffff; stroke-width: 0.48"/>
     <use xlink:href="#m9e9a26c88e" x="64.44421" y="74.659984" style="fill: #0b0405; stroke: #ffffff; stroke-width: 0.48"/>
     <use xlink:href="#m9e9a26c88e" x="63.219759" y="81.512549" style="fill: #0b0405; stroke: #ffffff; stroke-width: 0.48"/>
     <use xlink:href="#m9e9a26c88e" x="80.362079" y="80.360548" style="fill: #0b0405; stroke: #ffffff; stroke-width: 0.48"/>
     <use xlink:href="#m9e9a26c88e" x="86.484336" y="79.873768" style="fill: #0b0405; stroke: #ffffff; stroke-width: 0.48"/>
     <use xlink:href="#m9e9a26c88e" x="65.668662" y="116.191787" style="fill: #0b0405; stroke: #ffffff; stroke-width: 0.48"/>
     <use xlink:href="#m9e9a26c88e" x="69.342016" y="93.006441" style="fill: #0b0405; stroke: #ffffff; stroke-width: 0.48"/>
     <use xlink:href="#m9e9a26c88e" x="64.44421" y="92.963624" style="fill: #0b0405; stroke: #ffffff; stroke-width: 0.48"/>
     <use xlink:href="#m9e9a26c88e" x="60.770856" y="84.560053" style="fill: #0b0405; stroke: #ffffff; stroke-width: 0.48"/>
     <use xlink:href="#m9e9a26c88e" x="80.362079" y="93.502101" style="fill: #0b0405; stroke: #ffffff; stroke-width: 0.48"/>
     <use xlink:href="#m9e9a26c88e" x="64.44421" y="93.740069" style="fill: #0b0405; stroke: #ffffff; stroke-width: 0.48"/>
     <use xlink:href="#m9e9a26c88e" x="64.44421" y="56.138685" style="fill: #0b0405; stroke: #ffffff; stroke-width: 0.48"/>
     <use xlink:href="#m9e9a26c88e" x="64.44421" y="77.2049" style="fill: #0b0405; stroke: #ffffff; stroke-width: 0.48"/>
     <use xlink:href="#m9e9a26c88e" x="53.424148" y="85.309975" style="fill: #0b0405; stroke: #ffffff; stroke-width: 0.48"/>
     <use xlink:href="#m9e9a26c88e" x="53.424148" y="90.414073" style="fill: #0b0405; stroke: #ffffff; stroke-width: 0.48"/>
    </g>
   </g>
   <g id="PolyCollection_1">
    <path d="M 65.668662 86.437726 
L 65.668662 120.134395 
L 67.338368 120.136482 
L 69.008075 120.133202 
L 70.677781 120.129921 
L 72.347488 120.056836 
L 74.017194 119.953302 
L 75.686901 119.849768 
L 77.356607 119.746235 
L 79.026314 119.642701 
L 80.69602 119.65955 
L 82.365727 119.728456 
L 84.035433 119.797362 
L 85.705139 119.866268 
L 87.374846 119.935174 
L 89.044552 120.003969 
L 90.714259 120.072122 
L 92.383965 120.056913 
L 94.053672 120.026018 
L 95.723378 119.996247 
L 97.393085 119.965296 
L 99.062791 119.934344 
L 100.732498 120.023793 
L 102.402204 120.009743 
L 104.071911 119.988262 
L 105.741617 120.104018 
L 107.411324 120.117694 
L 109.08103 120.12884 
L 110.750736 120.303695 
L 112.420443 120.372779 
L 114.090149 120.517842 
L 115.759856 120.555015 
L 117.429562 120.552122 
L 119.099269 120.553944 
L 120.768975 120.637098 
L 122.438682 120.733868 
L 124.108388 120.796295 
L 125.778095 120.934083 
L 127.447801 121.070639 
L 129.117508 121.155563 
L 130.787214 121.165099 
L 132.456921 121.210168 
L 134.126627 121.288382 
L 135.796334 121.299332 
L 137.46604 121.495397 
L 139.135746 121.739256 
L 140.805453 121.994851 
L 142.475159 122.340686 
L 144.144866 122.801147 
L 145.814572 122.959074 
L 147.484279 123.096938 
L 149.153985 123.464859 
L 150.823692 123.79929 
L 152.493398 124.171622 
L 154.163105 124.522145 
L 155.832811 124.799749 
L 157.502518 125.239187 
L 159.172224 125.64483 
L 160.841931 125.996521 
L 162.511637 126.543183 
L 164.181344 126.950357 
L 165.85105 127.372313 
L 167.520756 127.703178 
L 169.190463 128.133237 
L 170.860169 128.631835 
L 172.529876 129.155859 
L 174.199582 129.50018 
L 175.869289 129.999043 
L 177.538995 130.478263 
L 179.208702 131.039427 
L 180.878408 131.353443 
L 182.548115 131.786771 
L 184.217821 132.279734 
L 185.887528 132.746051 
L 187.557234 133.214789 
L 189.226941 133.678995 
L 190.896647 134.1432 
L 192.566353 134.655925 
L 194.23606 135.189042 
L 195.905766 135.722159 
L 197.575473 136.255275 
L 199.245179 136.788392 
L 200.914886 137.370537 
L 202.584592 137.878205 
L 204.254299 138.393228 
L 205.924005 138.929354 
L 207.593712 139.46548 
L 209.263418 140.001605 
L 210.933125 140.533979 
L 212.602831 141.064809 
L 214.272538 141.595639 
L 215.942244 142.068377 
L 217.611951 142.663678 
L 219.281657 143.199908 
L 220.951363 143.736137 
L 222.62107 144.272367 
L 224.290776 144.808596 
L 225.960483 145.344826 
L 227.630189 145.881055 
L 229.299896 146.417285 
L 230.969602 146.952211 
L 230.969602 112.550269 
L 230.969602 112.550269 
L 229.299896 112.599632 
L 227.630189 112.600366 
L 225.960483 112.548118 
L 224.290776 112.49587 
L 222.62107 112.444906 
L 220.951363 112.394045 
L 219.281657 112.312393 
L 217.611951 112.100283 
L 215.942244 112.126979 
L 214.272538 112.115117 
L 212.602831 112.134107 
L 210.933125 112.079117 
L 209.263418 112.02583 
L 207.593712 111.971634 
L 205.924005 111.898493 
L 204.254299 111.872997 
L 202.584592 111.820208 
L 200.914886 111.876973 
L 199.245179 111.869685 
L 197.575473 111.723079 
L 195.905766 111.691757 
L 194.23606 111.794467 
L 192.566353 111.729987 
L 190.896647 111.51635 
L 189.226941 111.515238 
L 187.557234 111.378266 
L 185.887528 111.348858 
L 184.217821 111.321019 
L 182.548115 111.267313 
L 180.878408 111.133113 
L 179.208702 110.929127 
L 177.538995 110.773305 
L 175.869289 110.848243 
L 174.199582 110.71679 
L 172.529876 110.558161 
L 170.860169 110.425928 
L 169.190463 110.29408 
L 167.520756 110.090992 
L 165.85105 109.93264 
L 164.181344 109.75273 
L 162.511637 109.550952 
L 160.841931 109.352852 
L 159.172224 109.109415 
L 157.502518 108.804188 
L 155.832811 108.613353 
L 154.163105 108.482593 
L 152.493398 108.169037 
L 150.823692 107.847933 
L 149.153985 107.690661 
L 147.484279 107.431848 
L 145.814572 107.241852 
L 144.144866 106.919466 
L 142.475159 106.507447 
L 140.805453 106.121264 
L 139.135746 105.859599 
L 137.46604 105.429371 
L 135.796334 105.170982 
L 134.126627 104.836521 
L 132.456921 104.411371 
L 130.787214 103.986899 
L 129.117508 103.598478 
L 127.447801 103.288738 
L 125.778095 102.919188 
L 124.108388 102.570073 
L 122.438682 102.240993 
L 120.768975 101.900942 
L 119.099269 101.520136 
L 117.429562 101.038147 
L 115.759856 100.636767 
L 114.090149 100.237478 
L 112.420443 99.698372 
L 110.750736 99.270844 
L 109.08103 98.931897 
L 107.411324 98.594521 
L 105.741617 98.247332 
L 104.071911 97.858037 
L 102.402204 97.461528 
L 100.732498 97.065019 
L 99.062791 96.584058 
L 97.393085 96.069142 
L 95.723378 95.677826 
L 94.053672 95.288244 
L 92.383965 94.737449 
L 90.714259 94.183196 
L 89.044552 93.651582 
L 87.374846 93.18582 
L 85.705139 92.802385 
L 84.035433 92.302545 
L 82.365727 91.820521 
L 80.69602 91.269773 
L 79.026314 90.734985 
L 77.356607 90.307891 
L 75.686901 89.87883 
L 74.017194 89.447994 
L 72.347488 88.761908 
L 70.677781 88.165399 
L 69.008075 87.654216 
L 67.338368 86.95262 
L 65.668662 86.437726 
z
" clip-path="url(#p985cd59096)" style="fill: #40498e; fill-opacity: 0.15"/>
   </g>
   <g id="PolyCollection_2">
    <path d="M 53.424148 69.115765 
L 53.424148 88.62071 
L 53.758089 88.69841 
L 54.09203 88.690453 
L 54.425972 88.739923 
L 54.759913 88.798826 
L 55.093854 88.856904 
L 55.427795 88.94793 
L 55.761737 89.02545 
L 56.095678 89.035612 
L 56.429619 89.094552 
L 56.763561 89.152598 
L 57.097502 89.215869 
L 57.431443 89.308759 
L 57.765385 89.350243 
L 58.099326 89.383072 
L 58.433267 89.424439 
L 58.767208 89.452341 
L 59.10115 89.486363 
L 59.435091 89.571256 
L 59.769032 89.631483 
L 60.102974 89.667177 
L 60.436915 89.81255 
L 60.770856 89.902129 
L 61.104797 90.088587 
L 61.438739 90.135836 
L 61.77268 90.241819 
L 62.106621 90.368043 
L 62.440563 90.489493 
L 62.774504 90.577776 
L 63.108445 90.683119 
L 63.442387 90.929063 
L 63.776328 91.115705 
L 64.110269 91.351042 
L 64.44421 91.657976 
L 64.778152 91.847423 
L 65.112093 92.189521 
L 65.446034 92.463658 
L 65.779976 92.803746 
L 66.113917 92.833578 
L 66.447858 93.294606 
L 66.781799 93.961071 
L 67.115741 94.341929 
L 67.449682 94.822587 
L 67.783623 95.023665 
L 68.117565 95.27705 
L 68.451506 95.665769 
L 68.785447 96.202005 
L 69.119389 96.646796 
L 69.45333 97.142231 
L 69.787271 97.661685 
L 70.121212 98.127334 
L 70.455154 98.579329 
L 70.789095 99.05667 
L 71.123036 99.437008 
L 71.456978 99.985766 
L 71.790919 100.42352 
L 72.12486 100.721278 
L 72.458801 101.019036 
L 72.792743 101.394239 
L 73.126684 101.785417 
L 73.460625 102.175282 
L 73.794567 102.565146 
L 74.128508 103.096405 
L 74.462449 103.641269 
L 74.796391 104.2205 
L 75.130332 104.871745 
L 75.464273 105.522989 
L 75.798214 106.007354 
L 76.132156 106.436767 
L 76.466097 106.912528 
L 76.800038 107.462335 
L 77.13398 107.955122 
L 77.467921 108.381572 
L 77.801862 108.863929 
L 78.135803 109.396312 
L 78.469745 109.92841 
L 78.803686 110.460509 
L 79.137627 110.992607 
L 79.471569 111.524706 
L 79.80551 112.056804 
L 80.139451 112.588027 
L 80.473393 113.118746 
L 80.807334 113.649466 
L 81.141275 114.180185 
L 81.475216 114.710904 
L 81.809158 115.241623 
L 82.143099 115.772342 
L 82.47704 116.303061 
L 82.810982 116.83378 
L 83.144923 117.336019 
L 83.478864 117.829584 
L 83.812805 118.32315 
L 84.146747 118.816715 
L 84.480688 119.310281 
L 84.814629 119.803846 
L 85.148571 120.344412 
L 85.482512 120.92962 
L 85.816453 121.514828 
L 86.150395 122.100037 
L 86.484336 122.682295 
L 86.484336 81.173542 
L 86.484336 81.173542 
L 86.150395 81.149924 
L 85.816453 81.144682 
L 85.482512 81.145987 
L 85.148571 81.148862 
L 84.814629 81.191549 
L 84.480688 81.242823 
L 84.146747 81.20604 
L 83.812805 81.156878 
L 83.478864 81.15826 
L 83.144923 81.143365 
L 82.810982 81.152786 
L 82.47704 81.164746 
L 82.143099 81.173246 
L 81.809158 81.183037 
L 81.475216 81.192827 
L 81.141275 81.202617 
L 80.807334 81.212407 
L 80.473393 81.222198 
L 80.139451 81.223756 
L 79.80551 81.24274 
L 79.471569 81.213054 
L 79.137627 81.188785 
L 78.803686 81.184646 
L 78.469745 81.184784 
L 78.135803 81.184922 
L 77.801862 81.181658 
L 77.467921 81.176579 
L 77.13398 81.1715 
L 76.800038 81.109982 
L 76.466097 81.028885 
L 76.132156 80.929304 
L 75.798214 80.863057 
L 75.464273 80.777942 
L 75.130332 80.694113 
L 74.796391 80.613275 
L 74.462449 80.532437 
L 74.128508 80.510378 
L 73.794567 80.515455 
L 73.460625 80.517061 
L 73.126684 80.456795 
L 72.792743 80.397982 
L 72.458801 80.509965 
L 72.12486 80.551253 
L 71.790919 80.558766 
L 71.456978 80.534798 
L 71.123036 80.435953 
L 70.789095 80.423001 
L 70.455154 80.368122 
L 70.121212 80.38919 
L 69.787271 80.36181 
L 69.45333 80.415588 
L 69.119389 80.377741 
L 68.785447 80.407237 
L 68.451506 80.436734 
L 68.117565 80.336502 
L 67.783623 80.310049 
L 67.449682 80.28349 
L 67.115741 80.17732 
L 66.781799 80.074069 
L 66.447858 80.016354 
L 66.113917 79.885561 
L 65.779976 79.751126 
L 65.446034 79.728718 
L 65.112093 79.668855 
L 64.778152 79.595706 
L 64.44421 79.57222 
L 64.110269 79.425607 
L 63.776328 79.24882 
L 63.442387 79.021516 
L 63.108445 78.937161 
L 62.774504 78.74324 
L 62.440563 78.470355 
L 62.106621 78.353345 
L 61.77268 78.157588 
L 61.438739 77.934659 
L 61.104797 77.596858 
L 60.770856 77.462239 
L 60.436915 77.261681 
L 60.102974 77.189872 
L 59.769032 76.976517 
L 59.435091 76.677227 
L 59.10115 76.287705 
L 58.767208 75.916247 
L 58.433267 75.441933 
L 58.099326 75.020767 
L 57.765385 74.656819 
L 57.431443 74.271663 
L 57.097502 74.062117 
L 56.763561 73.694156 
L 56.429619 73.351415 
L 56.095678 73.010524 
L 55.761737 72.396623 
L 55.427795 71.850263 
L 55.093854 71.38866 
L 54.759913 70.80415 
L 54.425972 70.356281 
L 54.09203 70.008181 
L 53.758089 69.548546 
L 53.424148 69.115765 
z
" clip-path="url(#p985cd59096)" style="fill: #0b0405; fill-opacity: 0.15"/>
   </g>
   <g id="matplotlib.axis_1">
    <g id="xtick_1">
     <g id="line2d_1">
      <defs>
       <path id="mdff2f0976c" d="M 0 0 
L 0 3.5 
" style="stroke: #000000; stroke-width: 0.8"/>
      </defs>
      <g>
       <use xlink:href="#mdff2f0976c" x="65.668662" y="243.695625" style="stroke: #000000; stroke-width: 0.8"/>
      </g>
     </g>
     <g id="text_1">
      <!-- 0 -->
      <g transform="translate(62.888193 257.853438) scale(0.1 -0.1)">
       <defs>
        <path id="ArialMT-30" d="M 266 2259 
Q 266 3072 433 3567 
Q 600 4063 929 4331 
Q 1259 4600 1759 4600 
Q 2128 4600 2406 4451 
Q 2684 4303 2865 4023 
Q 3047 3744 3150 3342 
Q 3253 2941 3253 2259 
Q 3253 1453 3087 958 
Q 2922 463 2592 192 
Q 2263 -78 1759 -78 
Q 1097 -78 719 397 
Q 266 969 266 2259 
z
M 844 2259 
Q 844 1131 1108 757 
Q 1372 384 1759 384 
Q 2147 384 2411 759 
Q 2675 1134 2675 2259 
Q 2675 3391 2411 3762 
Q 2147 4134 1753 4134 
Q 1366 4134 1134 3806 
Q 844 3388 844 2259 
z
" transform="scale(0.015625)"/>
       </defs>
       <use xlink:href="#ArialMT-30"/>
      </g>
     </g>
    </g>
    <g id="xtick_2">
     <g id="line2d_2">
      <g>
       <use xlink:href="#mdff2f0976c" x="126.891232" y="243.695625" style="stroke: #000000; stroke-width: 0.8"/>
      </g>
     </g>
     <g id="text_2">
      <!-- 1 -->
      <g transform="translate(124.110764 257.853438) scale(0.1 -0.1)">
       <defs>
        <path id="ArialMT-31" d="M 2384 0 
L 1822 0 
L 1822 3584 
Q 1619 3391 1289 3197 
Q 959 3003 697 2906 
L 697 3450 
Q 1169 3672 1522 3987 
Q 1875 4303 2022 4600 
L 2384 4600 
L 2384 0 
z
" transform="scale(0.015625)"/>
       </defs>
       <use xlink:href="#ArialMT-31"/>
      </g>
     </g>
    </g>
    <g id="xtick_3">
     <g id="line2d_3">
      <g>
       <use xlink:href="#mdff2f0976c" x="188.113803" y="243.695625" style="stroke: #000000; stroke-width: 0.8"/>
      </g>
     </g>
     <g id="text_3">
      <!-- 2 -->
      <g transform="translate(185.333334 257.853438) scale(0.1 -0.1)">
       <defs>
        <path id="ArialMT-32" d="M 3222 541 
L 3222 0 
L 194 0 
Q 188 203 259 391 
Q 375 700 629 1000 
Q 884 1300 1366 1694 
Q 2113 2306 2375 2664 
Q 2638 3022 2638 3341 
Q 2638 3675 2398 3904 
Q 2159 4134 1775 4134 
Q 1369 4134 1125 3890 
Q 881 3647 878 3216 
L 300 3275 
Q 359 3922 746 4261 
Q 1134 4600 1788 4600 
Q 2447 4600 2831 4234 
Q 3216 3869 3216 3328 
Q 3216 3053 3103 2787 
Q 2991 2522 2730 2228 
Q 2469 1934 1863 1422 
Q 1356 997 1212 845 
Q 1069 694 975 541 
L 3222 541 
z
" transform="scale(0.015625)"/>
       </defs>
       <use xlink:href="#ArialMT-32"/>
      </g>
     </g>
    </g>
    <g id="text_4">
     <!-- Visual Acuity (logMAR) -->
     <g transform="translate(91.435156 271.120625) scale(0.1 -0.1)">
      <defs>
       <path id="ArialMT-56" d="M 1803 0 
L 28 4581 
L 684 4581 
L 1875 1253 
Q 2019 853 2116 503 
Q 2222 878 2363 1253 
L 3600 4581 
L 4219 4581 
L 2425 0 
L 1803 0 
z
" transform="scale(0.015625)"/>
       <path id="ArialMT-69" d="M 425 3934 
L 425 4581 
L 988 4581 
L 988 3934 
L 425 3934 
z
M 425 0 
L 425 3319 
L 988 3319 
L 988 0 
L 425 0 
z
" transform="scale(0.015625)"/>
       <path id="ArialMT-73" d="M 197 991 
L 753 1078 
Q 800 744 1014 566 
Q 1228 388 1613 388 
Q 2000 388 2187 545 
Q 2375 703 2375 916 
Q 2375 1106 2209 1216 
Q 2094 1291 1634 1406 
Q 1016 1563 777 1677 
Q 538 1791 414 1992 
Q 291 2194 291 2438 
Q 291 2659 392 2848 
Q 494 3038 669 3163 
Q 800 3259 1026 3326 
Q 1253 3394 1513 3394 
Q 1903 3394 2198 3281 
Q 2494 3169 2634 2976 
Q 2775 2784 2828 2463 
L 2278 2388 
Q 2241 2644 2061 2787 
Q 1881 2931 1553 2931 
Q 1166 2931 1000 2803 
Q 834 2675 834 2503 
Q 834 2394 903 2306 
Q 972 2216 1119 2156 
Q 1203 2125 1616 2013 
Q 2213 1853 2448 1751 
Q 2684 1650 2818 1456 
Q 2953 1263 2953 975 
Q 2953 694 2789 445 
Q 2625 197 2315 61 
Q 2006 -75 1616 -75 
Q 969 -75 630 194 
Q 291 463 197 991 
z
" transform="scale(0.015625)"/>
       <path id="ArialMT-75" d="M 2597 0 
L 2597 488 
Q 2209 -75 1544 -75 
Q 1250 -75 995 37 
Q 741 150 617 320 
Q 494 491 444 738 
Q 409 903 409 1263 
L 409 3319 
L 972 3319 
L 972 1478 
Q 972 1038 1006 884 
Q 1059 663 1231 536 
Q 1403 409 1656 409 
Q 1909 409 2131 539 
Q 2353 669 2445 892 
Q 2538 1116 2538 1541 
L 2538 3319 
L 3100 3319 
L 3100 0 
L 2597 0 
z
" transform="scale(0.015625)"/>
       <path id="ArialMT-61" d="M 2588 409 
Q 2275 144 1986 34 
Q 1697 -75 1366 -75 
Q 819 -75 525 192 
Q 231 459 231 875 
Q 231 1119 342 1320 
Q 453 1522 633 1644 
Q 813 1766 1038 1828 
Q 1203 1872 1538 1913 
Q 2219 1994 2541 2106 
Q 2544 2222 2544 2253 
Q 2544 2597 2384 2738 
Q 2169 2928 1744 2928 
Q 1347 2928 1158 2789 
Q 969 2650 878 2297 
L 328 2372 
Q 403 2725 575 2942 
Q 747 3159 1072 3276 
Q 1397 3394 1825 3394 
Q 2250 3394 2515 3294 
Q 2781 3194 2906 3042 
Q 3031 2891 3081 2659 
Q 3109 2516 3109 2141 
L 3109 1391 
Q 3109 606 3145 398 
Q 3181 191 3288 0 
L 2700 0 
Q 2613 175 2588 409 
z
M 2541 1666 
Q 2234 1541 1622 1453 
Q 1275 1403 1131 1340 
Q 988 1278 909 1158 
Q 831 1038 831 891 
Q 831 666 1001 516 
Q 1172 366 1500 366 
Q 1825 366 2078 508 
Q 2331 650 2450 897 
Q 2541 1088 2541 1459 
L 2541 1666 
z
" transform="scale(0.015625)"/>
       <path id="ArialMT-6c" d="M 409 0 
L 409 4581 
L 972 4581 
L 972 0 
L 409 0 
z
" transform="scale(0.015625)"/>
       <path id="ArialMT-20" transform="scale(0.015625)"/>
       <path id="ArialMT-41" d="M -9 0 
L 1750 4581 
L 2403 4581 
L 4278 0 
L 3588 0 
L 3053 1388 
L 1138 1388 
L 634 0 
L -9 0 
z
M 1313 1881 
L 2866 1881 
L 2388 3150 
Q 2169 3728 2063 4100 
Q 1975 3659 1816 3225 
L 1313 1881 
z
" transform="scale(0.015625)"/>
       <path id="ArialMT-63" d="M 2588 1216 
L 3141 1144 
Q 3050 572 2676 248 
Q 2303 -75 1759 -75 
Q 1078 -75 664 370 
Q 250 816 250 1647 
Q 250 2184 428 2587 
Q 606 2991 970 3192 
Q 1334 3394 1763 3394 
Q 2303 3394 2647 3120 
Q 2991 2847 3088 2344 
L 2541 2259 
Q 2463 2594 2264 2762 
Q 2066 2931 1784 2931 
Q 1359 2931 1093 2626 
Q 828 2322 828 1663 
Q 828 994 1084 691 
Q 1341 388 1753 388 
Q 2084 388 2306 591 
Q 2528 794 2588 1216 
z
" transform="scale(0.015625)"/>
       <path id="ArialMT-74" d="M 1650 503 
L 1731 6 
Q 1494 -44 1306 -44 
Q 1000 -44 831 53 
Q 663 150 594 308 
Q 525 466 525 972 
L 525 2881 
L 113 2881 
L 113 3319 
L 525 3319 
L 525 4141 
L 1084 4478 
L 1084 3319 
L 1650 3319 
L 1650 2881 
L 1084 2881 
L 1084 941 
Q 1084 700 1114 631 
Q 1144 563 1211 522 
Q 1278 481 1403 481 
Q 1497 481 1650 503 
z
" transform="scale(0.015625)"/>
       <path id="ArialMT-79" d="M 397 -1278 
L 334 -750 
Q 519 -800 656 -800 
Q 844 -800 956 -737 
Q 1069 -675 1141 -563 
Q 1194 -478 1313 -144 
Q 1328 -97 1363 -6 
L 103 3319 
L 709 3319 
L 1400 1397 
Q 1534 1031 1641 628 
Q 1738 1016 1872 1384 
L 2581 3319 
L 3144 3319 
L 1881 -56 
Q 1678 -603 1566 -809 
Q 1416 -1088 1222 -1217 
Q 1028 -1347 759 -1347 
Q 597 -1347 397 -1278 
z
" transform="scale(0.015625)"/>
       <path id="ArialMT-28" d="M 1497 -1347 
Q 1031 -759 709 28 
Q 388 816 388 1659 
Q 388 2403 628 3084 
Q 909 3875 1497 4659 
L 1900 4659 
Q 1522 4009 1400 3731 
Q 1209 3300 1100 2831 
Q 966 2247 966 1656 
Q 966 153 1900 -1347 
L 1497 -1347 
z
" transform="scale(0.015625)"/>
       <path id="ArialMT-6f" d="M 213 1659 
Q 213 2581 725 3025 
Q 1153 3394 1769 3394 
Q 2453 3394 2887 2945 
Q 3322 2497 3322 1706 
Q 3322 1066 3130 698 
Q 2938 331 2570 128 
Q 2203 -75 1769 -75 
Q 1072 -75 642 372 
Q 213 819 213 1659 
z
M 791 1659 
Q 791 1022 1069 705 
Q 1347 388 1769 388 
Q 2188 388 2466 706 
Q 2744 1025 2744 1678 
Q 2744 2294 2464 2611 
Q 2184 2928 1769 2928 
Q 1347 2928 1069 2612 
Q 791 2297 791 1659 
z
" transform="scale(0.015625)"/>
       <path id="ArialMT-67" d="M 319 -275 
L 866 -356 
Q 900 -609 1056 -725 
Q 1266 -881 1628 -881 
Q 2019 -881 2231 -725 
Q 2444 -569 2519 -288 
Q 2563 -116 2559 434 
Q 2191 0 1641 0 
Q 956 0 581 494 
Q 206 988 206 1678 
Q 206 2153 378 2554 
Q 550 2956 876 3175 
Q 1203 3394 1644 3394 
Q 2231 3394 2613 2919 
L 2613 3319 
L 3131 3319 
L 3131 450 
Q 3131 -325 2973 -648 
Q 2816 -972 2473 -1159 
Q 2131 -1347 1631 -1347 
Q 1038 -1347 672 -1080 
Q 306 -813 319 -275 
z
M 784 1719 
Q 784 1066 1043 766 
Q 1303 466 1694 466 
Q 2081 466 2343 764 
Q 2606 1063 2606 1700 
Q 2606 2309 2336 2618 
Q 2066 2928 1684 2928 
Q 1309 2928 1046 2623 
Q 784 2319 784 1719 
z
" transform="scale(0.015625)"/>
       <path id="ArialMT-4d" d="M 475 0 
L 475 4581 
L 1388 4581 
L 2472 1338 
Q 2622 884 2691 659 
Q 2769 909 2934 1394 
L 4031 4581 
L 4847 4581 
L 4847 0 
L 4263 0 
L 4263 3834 
L 2931 0 
L 2384 0 
L 1059 3900 
L 1059 0 
L 475 0 
z
" transform="scale(0.015625)"/>
       <path id="ArialMT-52" d="M 503 0 
L 503 4581 
L 2534 4581 
Q 3147 4581 3465 4457 
Q 3784 4334 3975 4021 
Q 4166 3709 4166 3331 
Q 4166 2844 3850 2509 
Q 3534 2175 2875 2084 
Q 3116 1969 3241 1856 
Q 3506 1613 3744 1247 
L 4541 0 
L 3778 0 
L 3172 953 
Q 2906 1366 2734 1584 
Q 2563 1803 2427 1890 
Q 2291 1978 2150 2013 
Q 2047 2034 1813 2034 
L 1109 2034 
L 1109 0 
L 503 0 
z
M 1109 2559 
L 2413 2559 
Q 2828 2559 3062 2645 
Q 3297 2731 3419 2920 
Q 3541 3109 3541 3331 
Q 3541 3656 3305 3865 
Q 3069 4075 2559 4075 
L 1109 4075 
L 1109 2559 
z
" transform="scale(0.015625)"/>
       <path id="ArialMT-29" d="M 791 -1347 
L 388 -1347 
Q 1322 153 1322 1656 
Q 1322 2244 1188 2822 
Q 1081 3291 891 3722 
Q 769 4003 388 4659 
L 791 4659 
Q 1378 3875 1659 3084 
Q 1900 2403 1900 1659 
Q 1900 816 1576 28 
Q 1253 -759 791 -1347 
z
" transform="scale(0.015625)"/>
      </defs>
      <use xlink:href="#ArialMT-56"/>
      <use xlink:href="#ArialMT-69" x="64.949219"/>
      <use xlink:href="#ArialMT-73" x="87.166016"/>
      <use xlink:href="#ArialMT-75" x="137.166016"/>
      <use xlink:href="#ArialMT-61" x="192.78125"/>
      <use xlink:href="#ArialMT-6c" x="248.396484"/>
      <use xlink:href="#ArialMT-20" x="270.613281"/>
      <use xlink:href="#ArialMT-41" x="292.896484"/>
      <use xlink:href="#ArialMT-63" x="359.595703"/>
      <use xlink:href="#ArialMT-75" x="409.595703"/>
      <use xlink:href="#ArialMT-69" x="465.210938"/>
      <use xlink:href="#ArialMT-74" x="487.427734"/>
      <use xlink:href="#ArialMT-79" x="515.210938"/>
      <use xlink:href="#ArialMT-20" x="565.210938"/>
      <use xlink:href="#ArialMT-28" x="592.994141"/>
      <use xlink:href="#ArialMT-6c" x="626.294922"/>
      <use xlink:href="#ArialMT-6f" x="648.511719"/>
      <use xlink:href="#ArialMT-67" x="704.126953"/>
      <use xlink:href="#ArialMT-4d" x="759.742188"/>
      <use xlink:href="#ArialMT-41" x="843.042969"/>
      <use xlink:href="#ArialMT-52" x="909.742188"/>
      <use xlink:href="#ArialMT-29" x="981.958984"/>
     </g>
    </g>
   </g>
   <g id="matplotlib.axis_2">
    <g id="ytick_1">
     <g id="line2d_4">
      <defs>
       <path id="m12228503f1" d="M 0 0 
L -3.5 0 
" style="stroke: #000000; stroke-width: 0.8"/>
      </defs>
      <g>
       <use xlink:href="#m12228503f1" x="44.546875" y="228.911625" style="stroke: #000000; stroke-width: 0.8"/>
      </g>
     </g>
     <g id="text_5">
      <!-- −40 -->
      <g transform="translate(20.584375 232.490531) scale(0.1 -0.1)">
       <defs>
        <path id="ArialMT-2212" d="M 3381 1997 
L 356 1997 
L 356 2522 
L 3381 2522 
L 3381 1997 
z
" transform="scale(0.015625)"/>
        <path id="ArialMT-34" d="M 2069 0 
L 2069 1097 
L 81 1097 
L 81 1613 
L 2172 4581 
L 2631 4581 
L 2631 1613 
L 3250 1613 
L 3250 1097 
L 2631 1097 
L 2631 0 
L 2069 0 
z
M 2069 1613 
L 2069 3678 
L 634 1613 
L 2069 1613 
z
" transform="scale(0.015625)"/>
       </defs>
       <use xlink:href="#ArialMT-2212"/>
       <use xlink:href="#ArialMT-34" x="58.398438"/>
       <use xlink:href="#ArialMT-30" x="114.013672"/>
      </g>
     </g>
    </g>
    <g id="ytick_2">
     <g id="line2d_5">
      <g>
       <use xlink:href="#m12228503f1" x="44.546875" y="199.343625" style="stroke: #000000; stroke-width: 0.8"/>
      </g>
     </g>
     <g id="text_6">
      <!-- −30 -->
      <g transform="translate(20.584375 202.922531) scale(0.1 -0.1)">
       <defs>
        <path id="ArialMT-33" d="M 269 1209 
L 831 1284 
Q 928 806 1161 595 
Q 1394 384 1728 384 
Q 2125 384 2398 659 
Q 2672 934 2672 1341 
Q 2672 1728 2419 1979 
Q 2166 2231 1775 2231 
Q 1616 2231 1378 2169 
L 1441 2663 
Q 1497 2656 1531 2656 
Q 1891 2656 2178 2843 
Q 2466 3031 2466 3422 
Q 2466 3731 2256 3934 
Q 2047 4138 1716 4138 
Q 1388 4138 1169 3931 
Q 950 3725 888 3313 
L 325 3413 
Q 428 3978 793 4289 
Q 1159 4600 1703 4600 
Q 2078 4600 2393 4439 
Q 2709 4278 2876 4000 
Q 3044 3722 3044 3409 
Q 3044 3113 2884 2869 
Q 2725 2625 2413 2481 
Q 2819 2388 3044 2092 
Q 3269 1797 3269 1353 
Q 3269 753 2831 336 
Q 2394 -81 1725 -81 
Q 1122 -81 723 278 
Q 325 638 269 1209 
z
" transform="scale(0.015625)"/>
       </defs>
       <use xlink:href="#ArialMT-2212"/>
       <use xlink:href="#ArialMT-33" x="58.398438"/>
       <use xlink:href="#ArialMT-30" x="114.013672"/>
      </g>
     </g>
    </g>
    <g id="ytick_3">
     <g id="line2d_6">
      <g>
       <use xlink:href="#m12228503f1" x="44.546875" y="169.775625" style="stroke: #000000; stroke-width: 0.8"/>
      </g>
     </g>
     <g id="text_7">
      <!-- −20 -->
      <g transform="translate(20.584375 173.354531) scale(0.1 -0.1)">
       <use xlink:href="#ArialMT-2212"/>
       <use xlink:href="#ArialMT-32" x="58.398438"/>
       <use xlink:href="#ArialMT-30" x="114.013672"/>
      </g>
     </g>
    </g>
    <g id="ytick_4">
     <g id="line2d_7">
      <g>
       <use xlink:href="#m12228503f1" x="44.546875" y="140.207625" style="stroke: #000000; stroke-width: 0.8"/>
      </g>
     </g>
     <g id="text_8">
      <!-- −10 -->
      <g transform="translate(20.584375 143.786531) scale(0.1 -0.1)">
       <use xlink:href="#ArialMT-2212"/>
       <use xlink:href="#ArialMT-31" x="58.398438"/>
       <use xlink:href="#ArialMT-30" x="114.013672"/>
      </g>
     </g>
    </g>
    <g id="ytick_5">
     <g id="line2d_8">
      <g>
       <use xlink:href="#m12228503f1" x="44.546875" y="110.639625" style="stroke: #000000; stroke-width: 0.8"/>
      </g>
     </g>
     <g id="text_9">
      <!-- 0 -->
      <g transform="translate(31.985937 114.218531) scale(0.1 -0.1)">
       <use xlink:href="#ArialMT-30"/>
      </g>
     </g>
    </g>
    <g id="ytick_6">
     <g id="line2d_9">
      <g>
       <use xlink:href="#m12228503f1" x="44.546875" y="81.071625" style="stroke: #000000; stroke-width: 0.8"/>
      </g>
     </g>
     <g id="text_10">
      <!-- 10 -->
      <g transform="translate(26.425 84.650531) scale(0.1 -0.1)">
       <use xlink:href="#ArialMT-31"/>
       <use xlink:href="#ArialMT-30" x="55.615234"/>
      </g>
     </g>
    </g>
    <g id="ytick_7">
     <g id="line2d_10">
      <g>
       <use xlink:href="#m12228503f1" x="44.546875" y="51.503625" style="stroke: #000000; stroke-width: 0.8"/>
      </g>
     </g>
     <g id="text_11">
      <!-- 20 -->
      <g transform="translate(26.425 55.082531) scale(0.1 -0.1)">
       <use xlink:href="#ArialMT-32"/>
       <use xlink:href="#ArialMT-30" x="55.615234"/>
      </g>
     </g>
    </g>
    <g id="ytick_8">
     <g id="line2d_11">
      <g>
       <use xlink:href="#m12228503f1" x="44.546875" y="21.935625" style="stroke: #000000; stroke-width: 0.8"/>
      </g>
     </g>
     <g id="text_12">
      <!-- 30 -->
      <g transform="translate(26.425 25.514531) scale(0.1 -0.1)">
       <use xlink:href="#ArialMT-33"/>
       <use xlink:href="#ArialMT-30" x="55.615234"/>
      </g>
     </g>
    </g>
    <g id="text_13">
     <!-- SNR (db) -->
     <g transform="translate(14.479687 153.652344) rotate(-90) scale(0.1 -0.1)">
      <defs>
       <path id="ArialMT-53" d="M 288 1472 
L 859 1522 
Q 900 1178 1048 958 
Q 1197 738 1509 602 
Q 1822 466 2213 466 
Q 2559 466 2825 569 
Q 3091 672 3220 851 
Q 3350 1031 3350 1244 
Q 3350 1459 3225 1620 
Q 3100 1781 2813 1891 
Q 2628 1963 1997 2114 
Q 1366 2266 1113 2400 
Q 784 2572 623 2826 
Q 463 3081 463 3397 
Q 463 3744 659 4045 
Q 856 4347 1234 4503 
Q 1613 4659 2075 4659 
Q 2584 4659 2973 4495 
Q 3363 4331 3572 4012 
Q 3781 3694 3797 3291 
L 3216 3247 
Q 3169 3681 2898 3903 
Q 2628 4125 2100 4125 
Q 1550 4125 1298 3923 
Q 1047 3722 1047 3438 
Q 1047 3191 1225 3031 
Q 1400 2872 2139 2705 
Q 2878 2538 3153 2413 
Q 3553 2228 3743 1945 
Q 3934 1663 3934 1294 
Q 3934 928 3725 604 
Q 3516 281 3123 101 
Q 2731 -78 2241 -78 
Q 1619 -78 1198 103 
Q 778 284 539 648 
Q 300 1013 288 1472 
z
" transform="scale(0.015625)"/>
       <path id="ArialMT-4e" d="M 488 0 
L 488 4581 
L 1109 4581 
L 3516 984 
L 3516 4581 
L 4097 4581 
L 4097 0 
L 3475 0 
L 1069 3600 
L 1069 0 
L 488 0 
z
" transform="scale(0.015625)"/>
       <path id="ArialMT-64" d="M 2575 0 
L 2575 419 
Q 2259 -75 1647 -75 
Q 1250 -75 917 144 
Q 584 363 401 755 
Q 219 1147 219 1656 
Q 219 2153 384 2558 
Q 550 2963 881 3178 
Q 1213 3394 1622 3394 
Q 1922 3394 2156 3267 
Q 2391 3141 2538 2938 
L 2538 4581 
L 3097 4581 
L 3097 0 
L 2575 0 
z
M 797 1656 
Q 797 1019 1065 703 
Q 1334 388 1700 388 
Q 2069 388 2326 689 
Q 2584 991 2584 1609 
Q 2584 2291 2321 2609 
Q 2059 2928 1675 2928 
Q 1300 2928 1048 2622 
Q 797 2316 797 1656 
z
" transform="scale(0.015625)"/>
       <path id="ArialMT-62" d="M 941 0 
L 419 0 
L 419 4581 
L 981 4581 
L 981 2947 
Q 1338 3394 1891 3394 
Q 2197 3394 2470 3270 
Q 2744 3147 2920 2923 
Q 3097 2700 3197 2384 
Q 3297 2069 3297 1709 
Q 3297 856 2875 390 
Q 2453 -75 1863 -75 
Q 1275 -75 941 416 
L 941 0 
z
M 934 1684 
Q 934 1088 1097 822 
Q 1363 388 1816 388 
Q 2184 388 2453 708 
Q 2722 1028 2722 1663 
Q 2722 2313 2464 2622 
Q 2206 2931 1841 2931 
Q 1472 2931 1203 2611 
Q 934 2291 934 1684 
z
" transform="scale(0.015625)"/>
      </defs>
      <use xlink:href="#ArialMT-53"/>
      <use xlink:href="#ArialMT-4e" x="66.699219"/>
      <use xlink:href="#ArialMT-52" x="138.916016"/>
      <use xlink:href="#ArialMT-20" x="211.132812"/>
      <use xlink:href="#ArialMT-28" x="238.916016"/>
      <use xlink:href="#ArialMT-64" x="272.216797"/>
      <use xlink:href="#ArialMT-62" x="327.832031"/>
      <use xlink:href="#ArialMT-29" x="383.447266"/>
     </g>
    </g>
   </g>
   <g id="line2d_12">
    <path d="M 65.668662 101.617978 
L 67.338368 101.880812 
L 69.008075 102.143646 
L 70.677781 102.406481 
L 72.347488 102.669315 
L 74.017194 102.93215 
L 75.686901 103.194984 
L 77.356607 103.457818 
L 79.026314 103.720653 
L 80.69602 103.983487 
L 82.365727 104.246322 
L 84.035433 104.509156 
L 85.705139 104.771991 
L 87.374846 105.034825 
L 89.044552 105.297659 
L 90.714259 105.560494 
L 92.383965 105.823328 
L 94.053672 106.086163 
L 95.723378 106.348997 
L 97.393085 106.611831 
L 99.062791 106.874666 
L 100.732498 107.1375 
L 102.402204 107.400335 
L 104.071911 107.663169 
L 105.741617 107.926004 
L 107.411324 108.188838 
L 109.08103 108.451672 
L 110.750736 108.714507 
L 112.420443 108.977341 
L 114.090149 109.240176 
L 115.759856 109.50301 
L 117.429562 109.765844 
L 119.099269 110.028679 
L 120.768975 110.291513 
L 122.438682 110.554348 
L 124.108388 110.817182 
L 125.778095 111.080017 
L 127.447801 111.342851 
L 129.117508 111.605685 
L 130.787214 111.86852 
L 132.456921 112.131354 
L 134.126627 112.394189 
L 135.796334 112.657023 
L 137.46604 112.919858 
L 139.135746 113.182692 
L 140.805453 113.445526 
L 142.475159 113.708361 
L 144.144866 113.971195 
L 145.814572 114.23403 
L 147.484279 114.496864 
L 149.153985 114.759698 
L 150.823692 115.022533 
L 152.493398 115.285367 
L 154.163105 115.548202 
L 155.832811 115.811036 
L 157.502518 116.073871 
L 159.172224 116.336705 
L 160.841931 116.599539 
L 162.511637 116.862374 
L 164.181344 117.125208 
L 165.85105 117.388043 
L 167.520756 117.650877 
L 169.190463 117.913711 
L 170.860169 118.176546 
L 172.529876 118.43938 
L 174.199582 118.702215 
L 175.869289 118.965049 
L 177.538995 119.227884 
L 179.208702 119.490718 
L 180.878408 119.753552 
L 182.548115 120.016387 
L 184.217821 120.279221 
L 185.887528 120.542056 
L 187.557234 120.80489 
L 189.226941 121.067724 
L 190.896647 121.330559 
L 192.566353 121.593393 
L 194.23606 121.856228 
L 195.905766 122.119062 
L 197.575473 122.381897 
L 199.245179 122.644731 
L 200.914886 122.907565 
L 202.584592 123.1704 
L 204.254299 123.433234 
L 205.924005 123.696069 
L 207.593712 123.958903 
L 209.263418 124.221737 
L 210.933125 124.484572 
L 212.602831 124.747406 
L 214.272538 125.010241 
L 215.942244 125.273075 
L 217.611951 125.53591 
L 219.281657 125.798744 
L 220.951363 126.061578 
L 222.62107 126.324413 
L 224.290776 126.587247 
L 225.960483 126.850082 
L 227.630189 127.112916 
L 229.299896 127.37575 
L 230.969602 127.638585 
" clip-path="url(#p985cd59096)" style="fill: none; stroke: #40498e; stroke-width: 2.25; stroke-linecap: square"/>
   </g>
   <g id="line2d_13">
    <path d="M 53.424148 81.031697 
L 53.758089 81.157733 
L 54.09203 81.283769 
L 54.425972 81.409805 
L 54.759913 81.53584 
L 55.093854 81.661876 
L 55.427795 81.787912 
L 55.761737 81.913948 
L 56.095678 82.039983 
L 56.429619 82.166019 
L 56.763561 82.292055 
L 57.097502 82.418091 
L 57.431443 82.544127 
L 57.765385 82.670162 
L 58.099326 82.796198 
L 58.433267 82.922234 
L 58.767208 83.04827 
L 59.10115 83.174306 
L 59.435091 83.300341 
L 59.769032 83.426377 
L 60.102974 83.552413 
L 60.436915 83.678449 
L 60.770856 83.804485 
L 61.104797 83.93052 
L 61.438739 84.056556 
L 61.77268 84.182592 
L 62.106621 84.308628 
L 62.440563 84.434663 
L 62.774504 84.560699 
L 63.108445 84.686735 
L 63.442387 84.812771 
L 63.776328 84.938807 
L 64.110269 85.064842 
L 64.44421 85.190878 
L 64.778152 85.316914 
L 65.112093 85.44295 
L 65.446034 85.568986 
L 65.779976 85.695021 
L 66.113917 85.821057 
L 66.447858 85.947093 
L 66.781799 86.073129 
L 67.115741 86.199164 
L 67.449682 86.3252 
L 67.783623 86.451236 
L 68.117565 86.577272 
L 68.451506 86.703308 
L 68.785447 86.829343 
L 69.119389 86.955379 
L 69.45333 87.081415 
L 69.787271 87.207451 
L 70.121212 87.333487 
L 70.455154 87.459522 
L 70.789095 87.585558 
L 71.123036 87.711594 
L 71.456978 87.83763 
L 71.790919 87.963666 
L 72.12486 88.089701 
L 72.458801 88.215737 
L 72.792743 88.341773 
L 73.126684 88.467809 
L 73.460625 88.593844 
L 73.794567 88.71988 
L 74.128508 88.845916 
L 74.462449 88.971952 
L 74.796391 89.097988 
L 75.130332 89.224023 
L 75.464273 89.350059 
L 75.798214 89.476095 
L 76.132156 89.602131 
L 76.466097 89.728167 
L 76.800038 89.854202 
L 77.13398 89.980238 
L 77.467921 90.106274 
L 77.801862 90.23231 
L 78.135803 90.358345 
L 78.469745 90.484381 
L 78.803686 90.610417 
L 79.137627 90.736453 
L 79.471569 90.862489 
L 79.80551 90.988524 
L 80.139451 91.11456 
L 80.473393 91.240596 
L 80.807334 91.366632 
L 81.141275 91.492668 
L 81.475216 91.618703 
L 81.809158 91.744739 
L 82.143099 91.870775 
L 82.47704 91.996811 
L 82.810982 92.122847 
L 83.144923 92.248882 
L 83.478864 92.374918 
L 83.812805 92.500954 
L 84.146747 92.62699 
L 84.480688 92.753025 
L 84.814629 92.879061 
L 85.148571 93.005097 
L 85.482512 93.131133 
L 85.816453 93.257169 
L 86.150395 93.383204 
L 86.484336 93.50924 
" clip-path="url(#p985cd59096)" style="fill: none; stroke: #0b0405; stroke-width: 2.25; stroke-linecap: square"/>
   </g>
   <g id="patch_3">
    <path d="M 44.546875 243.695625 
L 44.546875 21.935625 
" style="fill: none; stroke: #000000; stroke-width: 0.8; stroke-linejoin: miter; stroke-linecap: square"/>
   </g>
   <g id="patch_4">
    <path d="M 239.846875 243.695625 
L 239.846875 21.935625 
" style="fill: none; stroke: #000000; stroke-width: 0.8; stroke-linejoin: miter; stroke-linecap: square"/>
   </g>
   <g id="patch_5">
    <path d="M 44.546875 243.695625 
L 239.846875 243.695625 
" style="fill: none; stroke: #000000; stroke-width: 0.8; stroke-linejoin: miter; stroke-linecap: square"/>
   </g>
   <g id="patch_6">
    <path d="M 44.546875 21.935625 
L 239.846875 21.935625 
" style="fill: none; stroke: #000000; stroke-width: 0.8; stroke-linejoin: miter; stroke-linecap: square"/>
   </g>
   <g id="text_14">
    <!-- Spatial Frequency = 13.33 cpd -->
    <g transform="translate(60.648438 15.935625) scale(0.12 -0.12)">
     <defs>
      <path id="ArialMT-70" d="M 422 -1272 
L 422 3319 
L 934 3319 
L 934 2888 
Q 1116 3141 1344 3267 
Q 1572 3394 1897 3394 
Q 2322 3394 2647 3175 
Q 2972 2956 3137 2557 
Q 3303 2159 3303 1684 
Q 3303 1175 3120 767 
Q 2938 359 2589 142 
Q 2241 -75 1856 -75 
Q 1575 -75 1351 44 
Q 1128 163 984 344 
L 984 -1272 
L 422 -1272 
z
M 931 1641 
Q 931 1000 1190 694 
Q 1450 388 1819 388 
Q 2194 388 2461 705 
Q 2728 1022 2728 1688 
Q 2728 2322 2467 2637 
Q 2206 2953 1844 2953 
Q 1484 2953 1207 2617 
Q 931 2281 931 1641 
z
" transform="scale(0.015625)"/>
      <path id="ArialMT-46" d="M 525 0 
L 525 4581 
L 3616 4581 
L 3616 4041 
L 1131 4041 
L 1131 2622 
L 3281 2622 
L 3281 2081 
L 1131 2081 
L 1131 0 
L 525 0 
z
" transform="scale(0.015625)"/>
      <path id="ArialMT-72" d="M 416 0 
L 416 3319 
L 922 3319 
L 922 2816 
Q 1116 3169 1280 3281 
Q 1444 3394 1641 3394 
Q 1925 3394 2219 3213 
L 2025 2691 
Q 1819 2813 1613 2813 
Q 1428 2813 1281 2702 
Q 1134 2591 1072 2394 
Q 978 2094 978 1738 
L 978 0 
L 416 0 
z
" transform="scale(0.015625)"/>
      <path id="ArialMT-65" d="M 2694 1069 
L 3275 997 
Q 3138 488 2766 206 
Q 2394 -75 1816 -75 
Q 1088 -75 661 373 
Q 234 822 234 1631 
Q 234 2469 665 2931 
Q 1097 3394 1784 3394 
Q 2450 3394 2872 2941 
Q 3294 2488 3294 1666 
Q 3294 1616 3291 1516 
L 816 1516 
Q 847 969 1125 678 
Q 1403 388 1819 388 
Q 2128 388 2347 550 
Q 2566 713 2694 1069 
z
M 847 1978 
L 2700 1978 
Q 2663 2397 2488 2606 
Q 2219 2931 1791 2931 
Q 1403 2931 1139 2672 
Q 875 2413 847 1978 
z
" transform="scale(0.015625)"/>
      <path id="ArialMT-71" d="M 2538 -1272 
L 2538 353 
Q 2406 169 2170 47 
Q 1934 -75 1669 -75 
Q 1078 -75 651 397 
Q 225 869 225 1691 
Q 225 2191 398 2587 
Q 572 2984 901 3189 
Q 1231 3394 1625 3394 
Q 2241 3394 2594 2875 
L 2594 3319 
L 3100 3319 
L 3100 -1272 
L 2538 -1272 
z
M 803 1669 
Q 803 1028 1072 708 
Q 1341 388 1716 388 
Q 2075 388 2334 692 
Q 2594 997 2594 1619 
Q 2594 2281 2320 2615 
Q 2047 2950 1678 2950 
Q 1313 2950 1058 2639 
Q 803 2328 803 1669 
z
" transform="scale(0.015625)"/>
      <path id="ArialMT-6e" d="M 422 0 
L 422 3319 
L 928 3319 
L 928 2847 
Q 1294 3394 1984 3394 
Q 2284 3394 2536 3286 
Q 2788 3178 2913 3003 
Q 3038 2828 3088 2588 
Q 3119 2431 3119 2041 
L 3119 0 
L 2556 0 
L 2556 2019 
Q 2556 2363 2490 2533 
Q 2425 2703 2258 2804 
Q 2091 2906 1866 2906 
Q 1506 2906 1245 2678 
Q 984 2450 984 1813 
L 984 0 
L 422 0 
z
" transform="scale(0.015625)"/>
      <path id="ArialMT-3d" d="M 3381 2694 
L 356 2694 
L 356 3219 
L 3381 3219 
L 3381 2694 
z
M 3381 1303 
L 356 1303 
L 356 1828 
L 3381 1828 
L 3381 1303 
z
" transform="scale(0.015625)"/>
      <path id="ArialMT-2e" d="M 581 0 
L 581 641 
L 1222 641 
L 1222 0 
L 581 0 
z
" transform="scale(0.015625)"/>
     </defs>
     <use xlink:href="#ArialMT-53"/>
     <use xlink:href="#ArialMT-70" x="66.699219"/>
     <use xlink:href="#ArialMT-61" x="122.314453"/>
     <use xlink:href="#ArialMT-74" x="177.929688"/>
     <use xlink:href="#ArialMT-69" x="205.712891"/>
     <use xlink:href="#ArialMT-61" x="227.929688"/>
     <use xlink:href="#ArialMT-6c" x="283.544922"/>
     <use xlink:href="#ArialMT-20" x="305.761719"/>
     <use xlink:href="#ArialMT-46" x="333.544922"/>
     <use xlink:href="#ArialMT-72" x="394.628906"/>
     <use xlink:href="#ArialMT-65" x="427.929688"/>
     <use xlink:href="#ArialMT-71" x="483.544922"/>
     <use xlink:href="#ArialMT-75" x="539.160156"/>
     <use xlink:href="#ArialMT-65" x="594.775391"/>
     <use xlink:href="#ArialMT-6e" x="650.390625"/>
     <use xlink:href="#ArialMT-63" x="706.005859"/>
     <use xlink:href="#ArialMT-79" x="756.005859"/>
     <use xlink:href="#ArialMT-20" x="806.005859"/>
     <use xlink:href="#ArialMT-3d" x="833.789062"/>
     <use xlink:href="#ArialMT-20" x="892.1875"/>
     <use xlink:href="#ArialMT-31" x="919.970703"/>
     <use xlink:href="#ArialMT-33" x="975.585938"/>
     <use xlink:href="#ArialMT-2e" x="1031.201172"/>
     <use xlink:href="#ArialMT-33" x="1058.984375"/>
     <use xlink:href="#ArialMT-33" x="1114.599609"/>
     <use xlink:href="#ArialMT-20" x="1170.214844"/>
     <use xlink:href="#ArialMT-63" x="1197.998047"/>
     <use xlink:href="#ArialMT-70" x="1247.998047"/>
     <use xlink:href="#ArialMT-64" x="1303.613281"/>
    </g>
   </g>
   <g id="legend_1">
    <g id="patch_7">
     <path d="M 51.546875 238.695625 
L 160.265625 238.695625 
Q 162.265625 238.695625 162.265625 236.695625 
L 162.265625 188.18 
Q 162.265625 186.18 160.265625 186.18 
L 51.546875 186.18 
Q 49.546875 186.18 49.546875 188.18 
L 49.546875 236.695625 
Q 49.546875 238.695625 51.546875 238.695625 
z
" style="fill: #ffffff; opacity: 0.8; stroke: #cccccc; stroke-linejoin: miter"/>
    </g>
    <g id="PathCollection_3">
     <g>
      <use xlink:href="#mc848cf2ad8" x="63.546875" y="201.012812" style="fill: #40498e; stroke: #ffffff; stroke-width: 0.48"/>
     </g>
    </g>
    <g id="text_15">
     <!-- CRB1: -->
     <g transform="translate(81.546875 197.337813) scale(0.1 -0.1)">
      <defs>
       <path id="ArialMT-43" d="M 3763 1606 
L 4369 1453 
Q 4178 706 3683 314 
Q 3188 -78 2472 -78 
Q 1731 -78 1267 223 
Q 803 525 561 1097 
Q 319 1669 319 2325 
Q 319 3041 592 3573 
Q 866 4106 1370 4382 
Q 1875 4659 2481 4659 
Q 3169 4659 3637 4309 
Q 4106 3959 4291 3325 
L 3694 3184 
Q 3534 3684 3231 3912 
Q 2928 4141 2469 4141 
Q 1941 4141 1586 3887 
Q 1231 3634 1087 3207 
Q 944 2781 944 2328 
Q 944 1744 1114 1308 
Q 1284 872 1643 656 
Q 2003 441 2422 441 
Q 2931 441 3284 734 
Q 3638 1028 3763 1606 
z
" transform="scale(0.015625)"/>
       <path id="ArialMT-42" d="M 469 0 
L 469 4581 
L 2188 4581 
Q 2713 4581 3030 4442 
Q 3347 4303 3526 4014 
Q 3706 3725 3706 3409 
Q 3706 3116 3547 2856 
Q 3388 2597 3066 2438 
Q 3481 2316 3704 2022 
Q 3928 1728 3928 1328 
Q 3928 1006 3792 729 
Q 3656 453 3456 303 
Q 3256 153 2954 76 
Q 2653 0 2216 0 
L 469 0 
z
M 1075 2656 
L 2066 2656 
Q 2469 2656 2644 2709 
Q 2875 2778 2992 2937 
Q 3109 3097 3109 3338 
Q 3109 3566 3000 3739 
Q 2891 3913 2687 3977 
Q 2484 4041 1991 4041 
L 1075 4041 
L 1075 2656 
z
M 1075 541 
L 2216 541 
Q 2509 541 2628 563 
Q 2838 600 2978 687 
Q 3119 775 3209 942 
Q 3300 1109 3300 1328 
Q 3300 1584 3169 1773 
Q 3038 1963 2805 2039 
Q 2572 2116 2134 2116 
L 1075 2116 
L 1075 541 
z
" transform="scale(0.015625)"/>
       <path id="ArialMT-3a" d="M 578 2678 
L 578 3319 
L 1219 3319 
L 1219 2678 
L 578 2678 
z
M 578 0 
L 578 641 
L 1219 641 
L 1219 0 
L 578 0 
z
" transform="scale(0.015625)"/>
      </defs>
      <use xlink:href="#ArialMT-43"/>
      <use xlink:href="#ArialMT-52" x="72.216797"/>
      <use xlink:href="#ArialMT-42" x="144.433594"/>
      <use xlink:href="#ArialMT-31" x="211.132812"/>
      <use xlink:href="#ArialMT-3a" x="266.748047"/>
     </g>
     <!--  r=-0.31, p=0.088 -->
     <g transform="translate(81.546875 207.950312) scale(0.1 -0.1)">
      <defs>
       <path id="ArialMT-2d" d="M 203 1375 
L 203 1941 
L 1931 1941 
L 1931 1375 
L 203 1375 
z
" transform="scale(0.015625)"/>
       <path id="ArialMT-2c" d="M 569 0 
L 569 641 
L 1209 641 
L 1209 0 
Q 1209 -353 1084 -570 
Q 959 -788 688 -906 
L 531 -666 
Q 709 -588 793 -436 
Q 878 -284 888 0 
L 569 0 
z
" transform="scale(0.015625)"/>
       <path id="ArialMT-38" d="M 1131 2484 
Q 781 2613 612 2850 
Q 444 3088 444 3419 
Q 444 3919 803 4259 
Q 1163 4600 1759 4600 
Q 2359 4600 2725 4251 
Q 3091 3903 3091 3403 
Q 3091 3084 2923 2848 
Q 2756 2613 2416 2484 
Q 2838 2347 3058 2040 
Q 3278 1734 3278 1309 
Q 3278 722 2862 322 
Q 2447 -78 1769 -78 
Q 1091 -78 675 323 
Q 259 725 259 1325 
Q 259 1772 486 2073 
Q 713 2375 1131 2484 
z
M 1019 3438 
Q 1019 3113 1228 2906 
Q 1438 2700 1772 2700 
Q 2097 2700 2305 2904 
Q 2513 3109 2513 3406 
Q 2513 3716 2298 3927 
Q 2084 4138 1766 4138 
Q 1444 4138 1231 3931 
Q 1019 3725 1019 3438 
z
M 838 1322 
Q 838 1081 952 856 
Q 1066 631 1291 507 
Q 1516 384 1775 384 
Q 2178 384 2440 643 
Q 2703 903 2703 1303 
Q 2703 1709 2433 1975 
Q 2163 2241 1756 2241 
Q 1359 2241 1098 1978 
Q 838 1716 838 1322 
z
" transform="scale(0.015625)"/>
      </defs>
      <use xlink:href="#ArialMT-20"/>
      <use xlink:href="#ArialMT-72" x="27.783203"/>
      <use xlink:href="#ArialMT-3d" x="61.083984"/>
      <use xlink:href="#ArialMT-2d" x="119.482422"/>
      <use xlink:href="#ArialMT-30" x="152.783203"/>
      <use xlink:href="#ArialMT-2e" x="208.398438"/>
      <use xlink:href="#ArialMT-33" x="236.181641"/>
      <use xlink:href="#ArialMT-31" x="291.796875"/>
      <use xlink:href="#ArialMT-2c" x="347.412109"/>
      <use xlink:href="#ArialMT-20" x="375.195312"/>
      <use xlink:href="#ArialMT-70" x="402.978516"/>
      <use xlink:href="#ArialMT-3d" x="458.59375"/>
      <use xlink:href="#ArialMT-30" x="516.992188"/>
      <use xlink:href="#ArialMT-2e" x="572.607422"/>
      <use xlink:href="#ArialMT-30" x="600.390625"/>
      <use xlink:href="#ArialMT-38" x="656.005859"/>
      <use xlink:href="#ArialMT-38" x="711.621094"/>
     </g>
    </g>
    <g id="PathCollection_4">
     <g>
      <use xlink:href="#m9e9a26c88e" x="63.546875" y="225.770625" style="fill: #0b0405; stroke: #ffffff; stroke-width: 0.48"/>
     </g>
    </g>
    <g id="text_16">
     <!-- Controls: -->
     <g transform="translate(81.546875 222.095625) scale(0.1 -0.1)">
      <use xlink:href="#ArialMT-43"/>
      <use xlink:href="#ArialMT-6f" x="72.216797"/>
      <use xlink:href="#ArialMT-6e" x="127.832031"/>
      <use xlink:href="#ArialMT-74" x="183.447266"/>
      <use xlink:href="#ArialMT-72" x="211.230469"/>
      <use xlink:href="#ArialMT-6f" x="244.53125"/>
      <use xlink:href="#ArialMT-6c" x="300.146484"/>
      <use xlink:href="#ArialMT-73" x="322.363281"/>
      <use xlink:href="#ArialMT-3a" x="372.363281"/>
     </g>
     <!--  r=-0.16, p=0.399 -->
     <g transform="translate(81.546875 232.708125) scale(0.1 -0.1)">
      <defs>
       <path id="ArialMT-36" d="M 3184 3459 
L 2625 3416 
Q 2550 3747 2413 3897 
Q 2184 4138 1850 4138 
Q 1581 4138 1378 3988 
Q 1113 3794 959 3422 
Q 806 3050 800 2363 
Q 1003 2672 1297 2822 
Q 1591 2972 1913 2972 
Q 2475 2972 2870 2558 
Q 3266 2144 3266 1488 
Q 3266 1056 3080 686 
Q 2894 316 2569 119 
Q 2244 -78 1831 -78 
Q 1128 -78 684 439 
Q 241 956 241 2144 
Q 241 3472 731 4075 
Q 1159 4600 1884 4600 
Q 2425 4600 2770 4297 
Q 3116 3994 3184 3459 
z
M 888 1484 
Q 888 1194 1011 928 
Q 1134 663 1356 523 
Q 1578 384 1822 384 
Q 2178 384 2434 671 
Q 2691 959 2691 1453 
Q 2691 1928 2437 2201 
Q 2184 2475 1800 2475 
Q 1419 2475 1153 2201 
Q 888 1928 888 1484 
z
" transform="scale(0.015625)"/>
       <path id="ArialMT-39" d="M 350 1059 
L 891 1109 
Q 959 728 1153 556 
Q 1347 384 1650 384 
Q 1909 384 2104 503 
Q 2300 622 2425 820 
Q 2550 1019 2634 1356 
Q 2719 1694 2719 2044 
Q 2719 2081 2716 2156 
Q 2547 1888 2255 1720 
Q 1963 1553 1622 1553 
Q 1053 1553 659 1965 
Q 266 2378 266 3053 
Q 266 3750 677 4175 
Q 1088 4600 1706 4600 
Q 2153 4600 2523 4359 
Q 2894 4119 3086 3673 
Q 3278 3228 3278 2384 
Q 3278 1506 3087 986 
Q 2897 466 2520 194 
Q 2144 -78 1638 -78 
Q 1100 -78 759 220 
Q 419 519 350 1059 
z
M 2653 3081 
Q 2653 3566 2395 3850 
Q 2138 4134 1775 4134 
Q 1400 4134 1122 3828 
Q 844 3522 844 3034 
Q 844 2597 1108 2323 
Q 1372 2050 1759 2050 
Q 2150 2050 2401 2323 
Q 2653 2597 2653 3081 
z
" transform="scale(0.015625)"/>
      </defs>
      <use xlink:href="#ArialMT-20"/>
      <use xlink:href="#ArialMT-72" x="27.783203"/>
      <use xlink:href="#ArialMT-3d" x="61.083984"/>
      <use xlink:href="#ArialMT-2d" x="119.482422"/>
      <use xlink:href="#ArialMT-30" x="152.783203"/>
      <use xlink:href="#ArialMT-2e" x="208.398438"/>
      <use xlink:href="#ArialMT-31" x="236.181641"/>
      <use xlink:href="#ArialMT-36" x="291.796875"/>
      <use xlink:href="#ArialMT-2c" x="347.412109"/>
      <use xlink:href="#ArialMT-20" x="375.195312"/>
      <use xlink:href="#ArialMT-70" x="402.978516"/>
      <use xlink:href="#ArialMT-3d" x="458.59375"/>
      <use xlink:href="#ArialMT-30" x="516.992188"/>
      <use xlink:href="#ArialMT-2e" x="572.607422"/>
      <use xlink:href="#ArialMT-33" x="600.390625"/>
      <use xlink:href="#ArialMT-39" x="656.005859"/>
      <use xlink:href="#ArialMT-39" x="711.621094"/>
     </g>
    </g>
   </g>
  </g>
 </g>
 <defs>
  <clipPath id="p985cd59096">
   <rect x="44.546875" y="21.935625" width="195.3" height="221.76"/>
  </clipPath>
 </defs>
</svg>
