<?xml version="1.0" encoding="utf-8" standalone="no"?>
<!DOCTYPE svg PUBLIC "-//W3C//DTD SVG 1.1//EN"
  "http://www.w3.org/Graphics/SVG/1.1/DTD/svg11.dtd">
<svg xmlns:xlink="http://www.w3.org/1999/xlink" width="247.046875pt" height="280.425313pt" viewBox="0 0 247.046875 280.425313" xmlns="http://www.w3.org/2000/svg" version="1.1">
 <metadata>
  <rdf:RDF xmlns:dc="http://purl.org/dc/elements/1.1/" xmlns:cc="http://creativecommons.org/ns#" xmlns:rdf="http://www.w3.org/1999/02/22-rdf-syntax-ns#">
   <cc:Work>
    <dc:type rdf:resource="http://purl.org/dc/dcmitype/StillImage"/>
    <dc:date>2024-08-15T21:24:34.485010</dc:date>
    <dc:format>image/svg+xml</dc:format>
    <dc:creator>
     <cc:Agent>
      <dc:title>Matplotlib v3.8.2, https://matplotlib.org/</dc:title>
     </cc:Agent>
    </dc:creator>
   </cc:Work>
  </rdf:RDF>
 </metadata>
 <defs>
  <style type="text/css">*{stroke-linejoin: round; stroke-linecap: butt}</style>
 </defs>
 <g id="figure_1">
  <g id="patch_1">
   <path d="M 0 280.425313 
L 247.046875 280.425313 
L 247.046875 0 
L 0 0 
z
" style="fill: #ffffff"/>
  </g>
  <g id="axes_1">
   <g id="patch_2">
    <path d="M 44.546875 243.695625 
L 239.846875 243.695625 
L 239.846875 21.935625 
L 44.546875 21.935625 
z
" style="fill: #ffffff"/>
   </g>
   <g id="PathCollection_1">
    <defs>
     <path id="mde78fa9a2f" d="M 0 3 
C 0.795609 3 1.55874 2.683901 2.12132 2.12132 
C 2.683901 1.55874 3 0.795609 3 0 
C 3 -0.795609 2.683901 -1.55874 2.12132 -2.12132 
C 1.55874 -2.683901 0.795609 -3 0 -3 
C -0.795609 -3 -1.55874 -2.683901 -2.12132 -2.12132 
C -2.683901 -1.55874 -3 -0.795609 -3 0 
C -3 0.795609 -2.683901 1.55874 -2.12132 2.12132 
C -1.55874 2.683901 -0.795609 3 0 3 
z
" style="stroke: #ffffff; stroke-width: 0.48"/>
    </defs>
    <g clip-path="url(#p90b4c00ae9)">
     <use xlink:href="#mde78fa9a2f" x="95.055496" y="60.610185" style="fill: #40498e; stroke: #ffffff; stroke-width: 0.48"/>
     <use xlink:href="#mde78fa9a2f" x="85.259884" y="94.808793" style="fill: #40498e; stroke: #ffffff; stroke-width: 0.48"/>
     <use xlink:href="#mde78fa9a2f" x="108.524461" y="59.898895" style="fill: #40498e; stroke: #ffffff; stroke-width: 0.48"/>
     <use xlink:href="#mde78fa9a2f" x="96.279947" y="50.678415" style="fill: #40498e; stroke: #ffffff; stroke-width: 0.48"/>
     <use xlink:href="#mde78fa9a2f" x="206.480574" y="109.900154" style="fill: #40498e; stroke: #ffffff; stroke-width: 0.48"/>
     <use xlink:href="#mde78fa9a2f" x="206.480574" y="106.695292" style="fill: #40498e; stroke: #ffffff; stroke-width: 0.48"/>
     <use xlink:href="#mde78fa9a2f" x="119.544524" y="61.039192" style="fill: #40498e; stroke: #ffffff; stroke-width: 0.48"/>
     <use xlink:href="#mde78fa9a2f" x="118.320072" y="70.026897" style="fill: #40498e; stroke: #ffffff; stroke-width: 0.48"/>
     <use xlink:href="#mde78fa9a2f" x="85.259884" y="91.675648" style="fill: #40498e; stroke: #ffffff; stroke-width: 0.48"/>
     <use xlink:href="#mde78fa9a2f" x="151.380261" y="111.603707" style="fill: #40498e; stroke: #ffffff; stroke-width: 0.48"/>
     <use xlink:href="#mde78fa9a2f" x="124.44233" y="143.63419" style="fill: #40498e; stroke: #ffffff; stroke-width: 0.48"/>
     <use xlink:href="#mde78fa9a2f" x="119.544524" y="82.298306" style="fill: #40498e; stroke: #ffffff; stroke-width: 0.48"/>
     <use xlink:href="#mde78fa9a2f" x="145.258004" y="118.385557" style="fill: #40498e; stroke: #ffffff; stroke-width: 0.48"/>
     <use xlink:href="#mde78fa9a2f" x="145.258004" y="139.892003" style="fill: #40498e; stroke: #ffffff; stroke-width: 0.48"/>
     <use xlink:href="#mde78fa9a2f" x="162.400323" y="95.248154" style="fill: #40498e; stroke: #ffffff; stroke-width: 0.48"/>
     <use xlink:href="#mde78fa9a2f" x="186.889351" y="124.501601" style="fill: #40498e; stroke: #ffffff; stroke-width: 0.48"/>
     <use xlink:href="#mde78fa9a2f" x="96.279947" y="59.667982" style="fill: #40498e; stroke: #ffffff; stroke-width: 0.48"/>
     <use xlink:href="#mde78fa9a2f" x="96.279947" y="88.42814" style="fill: #40498e; stroke: #ffffff; stroke-width: 0.48"/>
     <use xlink:href="#mde78fa9a2f" x="80.362079" y="60.504485" style="fill: #40498e; stroke: #ffffff; stroke-width: 0.48"/>
     <use xlink:href="#mde78fa9a2f" x="85.259884" y="63.173249" style="fill: #40498e; stroke: #ffffff; stroke-width: 0.48"/>
     <use xlink:href="#mde78fa9a2f" x="75.464273" y="52.091492" style="fill: #40498e; stroke: #ffffff; stroke-width: 0.48"/>
     <use xlink:href="#mde78fa9a2f" x="85.259884" y="58.10514" style="fill: #40498e; stroke: #ffffff; stroke-width: 0.48"/>
     <use xlink:href="#mde78fa9a2f" x="65.668662" y="84.578526" style="fill: #40498e; stroke: #ffffff; stroke-width: 0.48"/>
     <use xlink:href="#mde78fa9a2f" x="104.851107" y="116.193794" style="fill: #40498e; stroke: #ffffff; stroke-width: 0.48"/>
     <use xlink:href="#mde78fa9a2f" x="68.117565" y="76.962934" style="fill: #40498e; stroke: #ffffff; stroke-width: 0.48"/>
     <use xlink:href="#mde78fa9a2f" x="66.893113" y="111.190845" style="fill: #40498e; stroke: #ffffff; stroke-width: 0.48"/>
     <use xlink:href="#mde78fa9a2f" x="79.137627" y="67.696746" style="fill: #40498e; stroke: #ffffff; stroke-width: 0.48"/>
     <use xlink:href="#mde78fa9a2f" x="75.464273" y="72.35971" style="fill: #40498e; stroke: #ffffff; stroke-width: 0.48"/>
     <use xlink:href="#mde78fa9a2f" x="230.969602" y="116.778581" style="fill: #40498e; stroke: #ffffff; stroke-width: 0.48"/>
     <use xlink:href="#mde78fa9a2f" x="206.480574" y="77.378179" style="fill: #40498e; stroke: #ffffff; stroke-width: 0.48"/>
     <use xlink:href="#mde78fa9a2f" x="206.480574" y="108.520057" style="fill: #40498e; stroke: #ffffff; stroke-width: 0.48"/>
     <use xlink:href="#mde78fa9a2f" x="230.969602" y="108.363779" style="fill: #40498e; stroke: #ffffff; stroke-width: 0.48"/>
    </g>
   </g>
   <g id="PathCollection_2">
    <defs>
     <path id="mb01b59bfd1" d="M 0 3 
C 0.795609 3 1.55874 2.683901 2.12132 2.12132 
C 2.683901 1.55874 3 0.795609 3 0 
C 3 -0.795609 2.683901 -1.55874 2.12132 -2.12132 
C 1.55874 -2.683901 0.795609 -3 0 -3 
C -0.795609 -3 -1.55874 -2.683901 -2.12132 -2.12132 
C -2.683901 -1.55874 -3 -0.795609 -3 0 
C -3 0.795609 -2.683901 1.55874 -2.12132 2.12132 
C -1.55874 2.683901 -0.795609 3 0 3 
z
" style="stroke: #ffffff; stroke-width: 0.48"/>
    </defs>
    <g clip-path="url(#p90b4c00ae9)">
     <use xlink:href="#mb01b59bfd1" x="60.770856" y="66.092914" style="fill: #0b0405; stroke: #ffffff; stroke-width: 0.48"/>
     <use xlink:href="#mb01b59bfd1" x="64.44421" y="57.145199" style="fill: #0b0405; stroke: #ffffff; stroke-width: 0.48"/>
     <use xlink:href="#mb01b59bfd1" x="66.893113" y="68.885319" style="fill: #0b0405; stroke: #ffffff; stroke-width: 0.48"/>
     <use xlink:href="#mb01b59bfd1" x="66.893113" y="67.406866" style="fill: #0b0405; stroke: #ffffff; stroke-width: 0.48"/>
     <use xlink:href="#mb01b59bfd1" x="60.770856" y="52.257878" style="fill: #0b0405; stroke: #ffffff; stroke-width: 0.48"/>
     <use xlink:href="#mb01b59bfd1" x="69.342016" y="56.010764" style="fill: #0b0405; stroke: #ffffff; stroke-width: 0.48"/>
     <use xlink:href="#mb01b59bfd1" x="68.117565" y="68.803416" style="fill: #0b0405; stroke: #ffffff; stroke-width: 0.48"/>
     <use xlink:href="#mb01b59bfd1" x="73.01537" y="78.676392" style="fill: #0b0405; stroke: #ffffff; stroke-width: 0.48"/>
     <use xlink:href="#mb01b59bfd1" x="71.790919" y="69.786068" style="fill: #0b0405; stroke: #ffffff; stroke-width: 0.48"/>
     <use xlink:href="#mb01b59bfd1" x="73.01537" y="64.822934" style="fill: #0b0405; stroke: #ffffff; stroke-width: 0.48"/>
     <use xlink:href="#mb01b59bfd1" x="58.321953" y="71.606275" style="fill: #0b0405; stroke: #ffffff; stroke-width: 0.48"/>
     <use xlink:href="#mb01b59bfd1" x="63.219759" y="98.914295" style="fill: #0b0405; stroke: #ffffff; stroke-width: 0.48"/>
     <use xlink:href="#mb01b59bfd1" x="64.44421" y="56.0664" style="fill: #0b0405; stroke: #ffffff; stroke-width: 0.48"/>
     <use xlink:href="#mb01b59bfd1" x="61.995308" y="59.684124" style="fill: #0b0405; stroke: #ffffff; stroke-width: 0.48"/>
     <use xlink:href="#mb01b59bfd1" x="69.342016" y="47.637343" style="fill: #0b0405; stroke: #ffffff; stroke-width: 0.48"/>
     <use xlink:href="#mb01b59bfd1" x="58.321953" y="52.298266" style="fill: #0b0405; stroke: #ffffff; stroke-width: 0.48"/>
     <use xlink:href="#mb01b59bfd1" x="64.44421" y="64.513665" style="fill: #0b0405; stroke: #ffffff; stroke-width: 0.48"/>
     <use xlink:href="#mb01b59bfd1" x="63.219759" y="55.192136" style="fill: #0b0405; stroke: #ffffff; stroke-width: 0.48"/>
     <use xlink:href="#mb01b59bfd1" x="80.362079" y="55.514826" style="fill: #0b0405; stroke: #ffffff; stroke-width: 0.48"/>
     <use xlink:href="#mb01b59bfd1" x="86.484336" y="54.876279" style="fill: #0b0405; stroke: #ffffff; stroke-width: 0.48"/>
     <use xlink:href="#mb01b59bfd1" x="65.668662" y="77.898745" style="fill: #0b0405; stroke: #ffffff; stroke-width: 0.48"/>
     <use xlink:href="#mb01b59bfd1" x="69.342016" y="68.008672" style="fill: #0b0405; stroke: #ffffff; stroke-width: 0.48"/>
     <use xlink:href="#mb01b59bfd1" x="64.44421" y="48.51361" style="fill: #0b0405; stroke: #ffffff; stroke-width: 0.48"/>
     <use xlink:href="#mb01b59bfd1" x="60.770856" y="69.660327" style="fill: #0b0405; stroke: #ffffff; stroke-width: 0.48"/>
     <use xlink:href="#mb01b59bfd1" x="80.362079" y="79.317629" style="fill: #0b0405; stroke: #ffffff; stroke-width: 0.48"/>
     <use xlink:href="#mb01b59bfd1" x="64.44421" y="106.294379" style="fill: #0b0405; stroke: #ffffff; stroke-width: 0.48"/>
     <use xlink:href="#mb01b59bfd1" x="64.44421" y="48.933273" style="fill: #0b0405; stroke: #ffffff; stroke-width: 0.48"/>
     <use xlink:href="#mb01b59bfd1" x="64.44421" y="50.427968" style="fill: #0b0405; stroke: #ffffff; stroke-width: 0.48"/>
     <use xlink:href="#mb01b59bfd1" x="53.424148" y="53.075668" style="fill: #0b0405; stroke: #ffffff; stroke-width: 0.48"/>
     <use xlink:href="#mb01b59bfd1" x="53.424148" y="58.243175" style="fill: #0b0405; stroke: #ffffff; stroke-width: 0.48"/>
    </g>
   </g>
   <g id="PolyCollection_1">
    <path d="M 65.668662 62.36195 
L 65.668662 84.300039 
L 67.338368 84.535725 
L 69.008075 84.94938 
L 70.677781 85.263248 
L 72.347488 85.665811 
L 74.017194 86.118034 
L 75.686901 86.409566 
L 77.356607 86.699087 
L 79.026314 86.988424 
L 80.69602 87.27776 
L 82.365727 87.609055 
L 84.035433 88.037791 
L 85.705139 88.466527 
L 87.374846 88.736342 
L 89.044552 88.985668 
L 90.714259 89.234993 
L 92.383965 89.472497 
L 94.053672 89.869228 
L 95.723378 90.149303 
L 97.393085 90.489338 
L 99.062791 90.824211 
L 100.732498 91.130451 
L 102.402204 91.519175 
L 104.071911 91.966269 
L 105.741617 92.41088 
L 107.411324 92.849943 
L 109.08103 93.264751 
L 110.750736 93.591084 
L 112.420443 94.064536 
L 114.090149 94.461782 
L 115.759856 94.889459 
L 117.429562 95.39718 
L 119.099269 95.891255 
L 120.768975 96.404514 
L 122.438682 96.717955 
L 124.108388 97.180964 
L 125.778095 97.642784 
L 127.447801 98.106983 
L 129.117508 98.628058 
L 130.787214 99.033002 
L 132.456921 99.516468 
L 134.126627 99.980324 
L 135.796334 100.402869 
L 137.46604 100.846996 
L 139.135746 101.30898 
L 140.805453 101.815912 
L 142.475159 102.318027 
L 144.144866 102.798435 
L 145.814572 103.307929 
L 147.484279 103.9589 
L 149.153985 104.521624 
L 150.823692 105.059543 
L 152.493398 105.720076 
L 154.163105 106.233629 
L 155.832811 106.67311 
L 157.502518 107.10991 
L 159.172224 107.685354 
L 160.841931 108.279785 
L 162.511637 108.874216 
L 164.181344 109.468647 
L 165.85105 110.05988 
L 167.520756 110.545618 
L 169.190463 110.977659 
L 170.860169 111.469965 
L 172.529876 111.96227 
L 174.199582 112.454576 
L 175.869289 113.025613 
L 177.538995 113.600752 
L 179.208702 114.109761 
L 180.878408 114.875608 
L 182.548115 115.419533 
L 184.217821 115.761897 
L 185.887528 116.370108 
L 187.557234 116.97832 
L 189.226941 117.586532 
L 190.896647 118.194743 
L 192.566353 118.802955 
L 194.23606 119.411167 
L 195.905766 120.026166 
L 197.575473 120.686306 
L 199.245179 121.346447 
L 200.914886 122.001991 
L 202.584592 122.606564 
L 204.254299 123.052747 
L 205.924005 123.661893 
L 207.593712 124.271039 
L 209.263418 124.880185 
L 210.933125 125.489331 
L 212.602831 126.098477 
L 214.272538 126.705949 
L 215.942244 127.312497 
L 217.611951 127.919045 
L 219.281657 128.525593 
L 220.951363 129.132141 
L 222.62107 129.76553 
L 224.290776 130.46692 
L 225.960483 131.120011 
L 227.630189 131.79019 
L 229.299896 132.473893 
L 230.969602 133.157595 
L 230.969602 105.284099 
L 230.969602 105.284099 
L 229.299896 105.009301 
L 227.630189 104.637394 
L 225.960483 104.336515 
L 224.290776 103.998715 
L 222.62107 103.648003 
L 220.951363 103.284701 
L 219.281657 102.952784 
L 217.611951 102.603388 
L 215.942244 102.253992 
L 214.272538 101.907428 
L 212.602831 101.560043 
L 210.933125 101.190241 
L 209.263418 100.742788 
L 207.593712 100.407277 
L 205.924005 100.090883 
L 204.254299 99.796232 
L 202.584592 99.468548 
L 200.914886 99.118334 
L 199.245179 98.771552 
L 197.575473 98.452971 
L 195.905766 98.10776 
L 194.23606 97.788761 
L 192.566353 97.395513 
L 190.896647 97.042505 
L 189.226941 96.689889 
L 187.557234 96.329691 
L 185.887528 95.962015 
L 184.217821 95.569176 
L 182.548115 95.230514 
L 180.878408 94.865154 
L 179.208702 94.517607 
L 177.538995 94.219672 
L 175.869289 93.868246 
L 174.199582 93.48653 
L 172.529876 93.114439 
L 170.860169 92.738821 
L 169.190463 92.424308 
L 167.520756 92.10401 
L 165.85105 91.744779 
L 164.181344 91.413011 
L 162.511637 91.061167 
L 160.841931 90.754348 
L 159.172224 90.40571 
L 157.502518 90.045871 
L 155.832811 89.633466 
L 154.163105 89.255369 
L 152.493398 88.863262 
L 150.823692 88.375475 
L 149.153985 87.903437 
L 147.484279 87.532752 
L 145.814572 87.164452 
L 144.144866 86.795025 
L 142.475159 86.308135 
L 140.805453 85.821246 
L 139.135746 85.487605 
L 137.46604 84.985814 
L 135.796334 84.590792 
L 134.126627 84.123398 
L 132.456921 83.61819 
L 130.787214 83.113246 
L 129.117508 82.612117 
L 127.447801 82.25283 
L 125.778095 81.829617 
L 124.108388 81.328609 
L 122.438682 80.806474 
L 120.768975 80.326726 
L 119.099269 79.847866 
L 117.429562 79.261922 
L 115.759856 78.781537 
L 114.090149 78.433145 
L 112.420443 77.954224 
L 110.750736 77.460144 
L 109.08103 76.915577 
L 107.411324 76.373122 
L 105.741617 75.833429 
L 104.071911 75.31842 
L 102.402204 74.874023 
L 100.732498 74.335572 
L 99.062791 73.806752 
L 97.393085 73.340938 
L 95.723378 72.805806 
L 94.053672 72.235009 
L 92.383965 71.665849 
L 90.714259 71.124002 
L 89.044552 70.568629 
L 87.374846 70.078651 
L 85.705139 69.480809 
L 84.035433 68.973061 
L 82.365727 68.360362 
L 80.69602 67.737317 
L 79.026314 67.158777 
L 77.356607 66.582869 
L 75.686901 66.023424 
L 74.017194 65.455394 
L 72.347488 64.857411 
L 70.677781 64.26879 
L 69.008075 63.676378 
L 67.338368 63.01871 
L 65.668662 62.36195 
z
" clip-path="url(#p90b4c00ae9)" style="fill: #40498e; fill-opacity: 0.15"/>
   </g>
   <g id="PolyCollection_2">
    <path d="M 53.424148 53.201935 
L 53.424148 71.97939 
L 53.758089 71.925053 
L 54.09203 71.86718 
L 54.425972 71.70654 
L 54.759913 71.526028 
L 55.093854 71.344606 
L 55.427795 71.177584 
L 55.761737 71.061455 
L 56.095678 70.945327 
L 56.429619 70.843158 
L 56.763561 70.769157 
L 57.097502 70.695156 
L 57.431443 70.637869 
L 57.765385 70.549645 
L 58.099326 70.478051 
L 58.433267 70.404954 
L 58.767208 70.283201 
L 59.10115 70.157159 
L 59.435091 70.03215 
L 59.769032 69.909661 
L 60.102974 69.845229 
L 60.436915 69.739387 
L 60.770856 69.592629 
L 61.104797 69.581276 
L 61.438739 69.568341 
L 61.77268 69.374094 
L 62.106621 69.36333 
L 62.440563 69.333656 
L 62.774504 69.206811 
L 63.108445 69.092528 
L 63.442387 69.015952 
L 63.776328 69.017535 
L 64.110269 69.017785 
L 64.44421 69.114135 
L 64.778152 69.016821 
L 65.112093 69.014372 
L 65.446034 68.973871 
L 65.779976 69.051885 
L 66.113917 69.022236 
L 66.447858 69.129051 
L 66.781799 69.24171 
L 67.115741 69.350442 
L 67.449682 69.415917 
L 67.783623 69.473345 
L 68.117565 69.580637 
L 68.451506 69.780723 
L 68.785447 69.917101 
L 69.119389 69.9873 
L 69.45333 70.140277 
L 69.787271 70.331993 
L 70.121212 70.53145 
L 70.455154 70.704972 
L 70.789095 70.841004 
L 71.123036 70.976117 
L 71.456978 71.20075 
L 71.790919 71.352419 
L 72.12486 71.474544 
L 72.458801 71.68642 
L 72.792743 71.89103 
L 73.126684 72.015904 
L 73.460625 72.15667 
L 73.794567 72.348114 
L 74.128508 72.539471 
L 74.462449 72.730829 
L 74.796391 72.922186 
L 75.130332 73.113543 
L 75.464273 73.304901 
L 75.798214 73.616694 
L 76.132156 73.930551 
L 76.466097 74.207543 
L 76.800038 74.40701 
L 77.13398 74.639285 
L 77.467921 74.90354 
L 77.801862 75.111013 
L 78.135803 75.359679 
L 78.469745 75.591251 
L 78.803686 75.850766 
L 79.137627 76.12099 
L 79.471569 76.391214 
L 79.80551 76.661438 
L 80.139451 76.931662 
L 80.473393 77.201886 
L 80.807334 77.47211 
L 81.141275 77.743981 
L 81.475216 78.012086 
L 81.809158 78.281835 
L 82.143099 78.550571 
L 82.47704 78.783843 
L 82.810982 78.998583 
L 83.144923 79.212747 
L 83.478864 79.4772 
L 83.812805 79.724477 
L 84.146747 79.946127 
L 84.480688 80.167778 
L 84.814629 80.389429 
L 85.148571 80.676266 
L 85.482512 80.965757 
L 85.816453 81.293918 
L 86.150395 81.568999 
L 86.484336 81.840033 
L 86.484336 56.676415 
L 86.484336 56.676415 
L 86.150395 56.824879 
L 85.816453 56.973567 
L 85.482512 57.122254 
L 85.148571 57.237591 
L 84.814629 57.342235 
L 84.480688 57.427431 
L 84.146747 57.51313 
L 83.812805 57.609654 
L 83.478864 57.739518 
L 83.144923 57.881826 
L 82.810982 57.999827 
L 82.47704 58.130163 
L 82.143099 58.252759 
L 81.809158 58.373701 
L 81.475216 58.518584 
L 81.141275 58.592379 
L 80.807334 58.680446 
L 80.473393 58.736088 
L 80.139451 58.76381 
L 79.80551 58.801564 
L 79.471569 58.883088 
L 79.137627 58.94549 
L 78.803686 59.048873 
L 78.469745 59.142115 
L 78.135803 59.219502 
L 77.801862 59.295356 
L 77.467921 59.377336 
L 77.13398 59.4388 
L 76.800038 59.542764 
L 76.466097 59.577735 
L 76.132156 59.665812 
L 75.798214 59.667224 
L 75.464273 59.743624 
L 75.130332 59.821549 
L 74.796391 59.910263 
L 74.462449 59.992034 
L 74.128508 60.072281 
L 73.794567 60.122484 
L 73.460625 60.157099 
L 73.126684 60.1393 
L 72.792743 60.129272 
L 72.458801 60.165087 
L 72.12486 60.164238 
L 71.790919 60.183319 
L 71.456978 60.163201 
L 71.123036 60.201107 
L 70.789095 60.178012 
L 70.455154 60.159985 
L 70.121212 60.160008 
L 69.787271 60.148699 
L 69.45333 60.154819 
L 69.119389 60.153439 
L 68.785447 60.078249 
L 68.451506 59.993132 
L 68.117565 60.000629 
L 67.783623 60.031344 
L 67.449682 59.931424 
L 67.115741 59.948255 
L 66.781799 59.963288 
L 66.447858 59.882101 
L 66.113917 59.854321 
L 65.779976 59.777337 
L 65.446034 59.708936 
L 65.112093 59.695613 
L 64.778152 59.621748 
L 64.44421 59.503549 
L 64.110269 59.427086 
L 63.776328 59.307622 
L 63.442387 59.191004 
L 63.108445 59.084984 
L 62.774504 59.002581 
L 62.440563 58.779649 
L 62.106621 58.566511 
L 61.77268 58.463574 
L 61.438739 58.316676 
L 61.104797 58.083149 
L 60.770856 58.014138 
L 60.436915 57.844884 
L 60.102974 57.748424 
L 59.769032 57.61907 
L 59.435091 57.384123 
L 59.10115 57.255091 
L 58.767208 57.038835 
L 58.433267 56.799475 
L 58.099326 56.572621 
L 57.765385 56.42011 
L 57.431443 56.172315 
L 57.097502 55.917512 
L 56.763561 55.676725 
L 56.429619 55.42893 
L 56.095678 55.193302 
L 55.761737 55.038247 
L 55.427795 54.733925 
L 55.093854 54.439787 
L 54.759913 54.192312 
L 54.425972 53.944811 
L 54.09203 53.701246 
L 53.758089 53.462541 
L 53.424148 53.201935 
z
" clip-path="url(#p90b4c00ae9)" style="fill: #0b0405; fill-opacity: 0.15"/>
   </g>
   <g id="matplotlib.axis_1">
    <g id="xtick_1">
     <g id="line2d_1">
      <defs>
       <path id="m09d2572452" d="M 0 0 
L 0 3.5 
" style="stroke: #000000; stroke-width: 0.8"/>
      </defs>
      <g>
       <use xlink:href="#m09d2572452" x="65.668662" y="243.695625" style="stroke: #000000; stroke-width: 0.8"/>
      </g>
     </g>
     <g id="text_1">
      <!-- 0 -->
      <g transform="translate(62.888193 257.853438) scale(0.1 -0.1)">
       <defs>
        <path id="ArialMT-30" d="M 266 2259 
Q 266 3072 433 3567 
Q 600 4063 929 4331 
Q 1259 4600 1759 4600 
Q 2128 4600 2406 4451 
Q 2684 4303 2865 4023 
Q 3047 3744 3150 3342 
Q 3253 2941 3253 2259 
Q 3253 1453 3087 958 
Q 2922 463 2592 192 
Q 2263 -78 1759 -78 
Q 1097 -78 719 397 
Q 266 969 266 2259 
z
M 844 2259 
Q 844 1131 1108 757 
Q 1372 384 1759 384 
Q 2147 384 2411 759 
Q 2675 1134 2675 2259 
Q 2675 3391 2411 3762 
Q 2147 4134 1753 4134 
Q 1366 4134 1134 3806 
Q 844 3388 844 2259 
z
" transform="scale(0.015625)"/>
       </defs>
       <use xlink:href="#ArialMT-30"/>
      </g>
     </g>
    </g>
    <g id="xtick_2">
     <g id="line2d_2">
      <g>
       <use xlink:href="#m09d2572452" x="126.891232" y="243.695625" style="stroke: #000000; stroke-width: 0.8"/>
      </g>
     </g>
     <g id="text_2">
      <!-- 1 -->
      <g transform="translate(124.110764 257.853438) scale(0.1 -0.1)">
       <defs>
        <path id="ArialMT-31" d="M 2384 0 
L 1822 0 
L 1822 3584 
Q 1619 3391 1289 3197 
Q 959 3003 697 2906 
L 697 3450 
Q 1169 3672 1522 3987 
Q 1875 4303 2022 4600 
L 2384 4600 
L 2384 0 
z
" transform="scale(0.015625)"/>
       </defs>
       <use xlink:href="#ArialMT-31"/>
      </g>
     </g>
    </g>
    <g id="xtick_3">
     <g id="line2d_3">
      <g>
       <use xlink:href="#m09d2572452" x="188.113803" y="243.695625" style="stroke: #000000; stroke-width: 0.8"/>
      </g>
     </g>
     <g id="text_3">
      <!-- 2 -->
      <g transform="translate(185.333334 257.853438) scale(0.1 -0.1)">
       <defs>
        <path id="ArialMT-32" d="M 3222 541 
L 3222 0 
L 194 0 
Q 188 203 259 391 
Q 375 700 629 1000 
Q 884 1300 1366 1694 
Q 2113 2306 2375 2664 
Q 2638 3022 2638 3341 
Q 2638 3675 2398 3904 
Q 2159 4134 1775 4134 
Q 1369 4134 1125 3890 
Q 881 3647 878 3216 
L 300 3275 
Q 359 3922 746 4261 
Q 1134 4600 1788 4600 
Q 2447 4600 2831 4234 
Q 3216 3869 3216 3328 
Q 3216 3053 3103 2787 
Q 2991 2522 2730 2228 
Q 2469 1934 1863 1422 
Q 1356 997 1212 845 
Q 1069 694 975 541 
L 3222 541 
z
" transform="scale(0.015625)"/>
       </defs>
       <use xlink:href="#ArialMT-32"/>
      </g>
     </g>
    </g>
    <g id="text_4">
     <!-- Visual Acuity (logMAR) -->
     <g transform="translate(91.435156 271.120625) scale(0.1 -0.1)">
      <defs>
       <path id="ArialMT-56" d="M 1803 0 
L 28 4581 
L 684 4581 
L 1875 1253 
Q 2019 853 2116 503 
Q 2222 878 2363 1253 
L 3600 4581 
L 4219 4581 
L 2425 0 
L 1803 0 
z
" transform="scale(0.015625)"/>
       <path id="ArialMT-69" d="M 425 3934 
L 425 4581 
L 988 4581 
L 988 3934 
L 425 3934 
z
M 425 0 
L 425 3319 
L 988 3319 
L 988 0 
L 425 0 
z
" transform="scale(0.015625)"/>
       <path id="ArialMT-73" d="M 197 991 
L 753 1078 
Q 800 744 1014 566 
Q 1228 388 1613 388 
Q 2000 388 2187 545 
Q 2375 703 2375 916 
Q 2375 1106 2209 1216 
Q 2094 1291 1634 1406 
Q 1016 1563 777 1677 
Q 538 1791 414 1992 
Q 291 2194 291 2438 
Q 291 2659 392 2848 
Q 494 3038 669 3163 
Q 800 3259 1026 3326 
Q 1253 3394 1513 3394 
Q 1903 3394 2198 3281 
Q 2494 3169 2634 2976 
Q 2775 2784 2828 2463 
L 2278 2388 
Q 2241 2644 2061 2787 
Q 1881 2931 1553 2931 
Q 1166 2931 1000 2803 
Q 834 2675 834 2503 
Q 834 2394 903 2306 
Q 972 2216 1119 2156 
Q 1203 2125 1616 2013 
Q 2213 1853 2448 1751 
Q 2684 1650 2818 1456 
Q 2953 1263 2953 975 
Q 2953 694 2789 445 
Q 2625 197 2315 61 
Q 2006 -75 1616 -75 
Q 969 -75 630 194 
Q 291 463 197 991 
z
" transform="scale(0.015625)"/>
       <path id="ArialMT-75" d="M 2597 0 
L 2597 488 
Q 2209 -75 1544 -75 
Q 1250 -75 995 37 
Q 741 150 617 320 
Q 494 491 444 738 
Q 409 903 409 1263 
L 409 3319 
L 972 3319 
L 972 1478 
Q 972 1038 1006 884 
Q 1059 663 1231 536 
Q 1403 409 1656 409 
Q 1909 409 2131 539 
Q 2353 669 2445 892 
Q 2538 1116 2538 1541 
L 2538 3319 
L 3100 3319 
L 3100 0 
L 2597 0 
z
" transform="scale(0.015625)"/>
       <path id="ArialMT-61" d="M 2588 409 
Q 2275 144 1986 34 
Q 1697 -75 1366 -75 
Q 819 -75 525 192 
Q 231 459 231 875 
Q 231 1119 342 1320 
Q 453 1522 633 1644 
Q 813 1766 1038 1828 
Q 1203 1872 1538 1913 
Q 2219 1994 2541 2106 
Q 2544 2222 2544 2253 
Q 2544 2597 2384 2738 
Q 2169 2928 1744 2928 
Q 1347 2928 1158 2789 
Q 969 2650 878 2297 
L 328 2372 
Q 403 2725 575 2942 
Q 747 3159 1072 3276 
Q 1397 3394 1825 3394 
Q 2250 3394 2515 3294 
Q 2781 3194 2906 3042 
Q 3031 2891 3081 2659 
Q 3109 2516 3109 2141 
L 3109 1391 
Q 3109 606 3145 398 
Q 3181 191 3288 0 
L 2700 0 
Q 2613 175 2588 409 
z
M 2541 1666 
Q 2234 1541 1622 1453 
Q 1275 1403 1131 1340 
Q 988 1278 909 1158 
Q 831 1038 831 891 
Q 831 666 1001 516 
Q 1172 366 1500 366 
Q 1825 366 2078 508 
Q 2331 650 2450 897 
Q 2541 1088 2541 1459 
L 2541 1666 
z
" transform="scale(0.015625)"/>
       <path id="ArialMT-6c" d="M 409 0 
L 409 4581 
L 972 4581 
L 972 0 
L 409 0 
z
" transform="scale(0.015625)"/>
       <path id="ArialMT-20" transform="scale(0.015625)"/>
       <path id="ArialMT-41" d="M -9 0 
L 1750 4581 
L 2403 4581 
L 4278 0 
L 3588 0 
L 3053 1388 
L 1138 1388 
L 634 0 
L -9 0 
z
M 1313 1881 
L 2866 1881 
L 2388 3150 
Q 2169 3728 2063 4100 
Q 1975 3659 1816 3225 
L 1313 1881 
z
" transform="scale(0.015625)"/>
       <path id="ArialMT-63" d="M 2588 1216 
L 3141 1144 
Q 3050 572 2676 248 
Q 2303 -75 1759 -75 
Q 1078 -75 664 370 
Q 250 816 250 1647 
Q 250 2184 428 2587 
Q 606 2991 970 3192 
Q 1334 3394 1763 3394 
Q 2303 3394 2647 3120 
Q 2991 2847 3088 2344 
L 2541 2259 
Q 2463 2594 2264 2762 
Q 2066 2931 1784 2931 
Q 1359 2931 1093 2626 
Q 828 2322 828 1663 
Q 828 994 1084 691 
Q 1341 388 1753 388 
Q 2084 388 2306 591 
Q 2528 794 2588 1216 
z
" transform="scale(0.015625)"/>
       <path id="ArialMT-74" d="M 1650 503 
L 1731 6 
Q 1494 -44 1306 -44 
Q 1000 -44 831 53 
Q 663 150 594 308 
Q 525 466 525 972 
L 525 2881 
L 113 2881 
L 113 3319 
L 525 3319 
L 525 4141 
L 1084 4478 
L 1084 3319 
L 1650 3319 
L 1650 2881 
L 1084 2881 
L 1084 941 
Q 1084 700 1114 631 
Q 1144 563 1211 522 
Q 1278 481 1403 481 
Q 1497 481 1650 503 
z
" transform="scale(0.015625)"/>
       <path id="ArialMT-79" d="M 397 -1278 
L 334 -750 
Q 519 -800 656 -800 
Q 844 -800 956 -737 
Q 1069 -675 1141 -563 
Q 1194 -478 1313 -144 
Q 1328 -97 1363 -6 
L 103 3319 
L 709 3319 
L 1400 1397 
Q 1534 1031 1641 628 
Q 1738 1016 1872 1384 
L 2581 3319 
L 3144 3319 
L 1881 -56 
Q 1678 -603 1566 -809 
Q 1416 -1088 1222 -1217 
Q 1028 -1347 759 -1347 
Q 597 -1347 397 -1278 
z
" transform="scale(0.015625)"/>
       <path id="ArialMT-28" d="M 1497 -1347 
Q 1031 -759 709 28 
Q 388 816 388 1659 
Q 388 2403 628 3084 
Q 909 3875 1497 4659 
L 1900 4659 
Q 1522 4009 1400 3731 
Q 1209 3300 1100 2831 
Q 966 2247 966 1656 
Q 966 153 1900 -1347 
L 1497 -1347 
z
" transform="scale(0.015625)"/>
       <path id="ArialMT-6f" d="M 213 1659 
Q 213 2581 725 3025 
Q 1153 3394 1769 3394 
Q 2453 3394 2887 2945 
Q 3322 2497 3322 1706 
Q 3322 1066 3130 698 
Q 2938 331 2570 128 
Q 2203 -75 1769 -75 
Q 1072 -75 642 372 
Q 213 819 213 1659 
z
M 791 1659 
Q 791 1022 1069 705 
Q 1347 388 1769 388 
Q 2188 388 2466 706 
Q 2744 1025 2744 1678 
Q 2744 2294 2464 2611 
Q 2184 2928 1769 2928 
Q 1347 2928 1069 2612 
Q 791 2297 791 1659 
z
" transform="scale(0.015625)"/>
       <path id="ArialMT-67" d="M 319 -275 
L 866 -356 
Q 900 -609 1056 -725 
Q 1266 -881 1628 -881 
Q 2019 -881 2231 -725 
Q 2444 -569 2519 -288 
Q 2563 -116 2559 434 
Q 2191 0 1641 0 
Q 956 0 581 494 
Q 206 988 206 1678 
Q 206 2153 378 2554 
Q 550 2956 876 3175 
Q 1203 3394 1644 3394 
Q 2231 3394 2613 2919 
L 2613 3319 
L 3131 3319 
L 3131 450 
Q 3131 -325 2973 -648 
Q 2816 -972 2473 -1159 
Q 2131 -1347 1631 -1347 
Q 1038 -1347 672 -1080 
Q 306 -813 319 -275 
z
M 784 1719 
Q 784 1066 1043 766 
Q 1303 466 1694 466 
Q 2081 466 2343 764 
Q 2606 1063 2606 1700 
Q 2606 2309 2336 2618 
Q 2066 2928 1684 2928 
Q 1309 2928 1046 2623 
Q 784 2319 784 1719 
z
" transform="scale(0.015625)"/>
       <path id="ArialMT-4d" d="M 475 0 
L 475 4581 
L 1388 4581 
L 2472 1338 
Q 2622 884 2691 659 
Q 2769 909 2934 1394 
L 4031 4581 
L 4847 4581 
L 4847 0 
L 4263 0 
L 4263 3834 
L 2931 0 
L 2384 0 
L 1059 3900 
L 1059 0 
L 475 0 
z
" transform="scale(0.015625)"/>
       <path id="ArialMT-52" d="M 503 0 
L 503 4581 
L 2534 4581 
Q 3147 4581 3465 4457 
Q 3784 4334 3975 4021 
Q 4166 3709 4166 3331 
Q 4166 2844 3850 2509 
Q 3534 2175 2875 2084 
Q 3116 1969 3241 1856 
Q 3506 1613 3744 1247 
L 4541 0 
L 3778 0 
L 3172 953 
Q 2906 1366 2734 1584 
Q 2563 1803 2427 1890 
Q 2291 1978 2150 2013 
Q 2047 2034 1813 2034 
L 1109 2034 
L 1109 0 
L 503 0 
z
M 1109 2559 
L 2413 2559 
Q 2828 2559 3062 2645 
Q 3297 2731 3419 2920 
Q 3541 3109 3541 3331 
Q 3541 3656 3305 3865 
Q 3069 4075 2559 4075 
L 1109 4075 
L 1109 2559 
z
" transform="scale(0.015625)"/>
       <path id="ArialMT-29" d="M 791 -1347 
L 388 -1347 
Q 1322 153 1322 1656 
Q 1322 2244 1188 2822 
Q 1081 3291 891 3722 
Q 769 4003 388 4659 
L 791 4659 
Q 1378 3875 1659 3084 
Q 1900 2403 1900 1659 
Q 1900 816 1576 28 
Q 1253 -759 791 -1347 
z
" transform="scale(0.015625)"/>
      </defs>
      <use xlink:href="#ArialMT-56"/>
      <use xlink:href="#ArialMT-69" x="64.949219"/>
      <use xlink:href="#ArialMT-73" x="87.166016"/>
      <use xlink:href="#ArialMT-75" x="137.166016"/>
      <use xlink:href="#ArialMT-61" x="192.78125"/>
      <use xlink:href="#ArialMT-6c" x="248.396484"/>
      <use xlink:href="#ArialMT-20" x="270.613281"/>
      <use xlink:href="#ArialMT-41" x="292.896484"/>
      <use xlink:href="#ArialMT-63" x="359.595703"/>
      <use xlink:href="#ArialMT-75" x="409.595703"/>
      <use xlink:href="#ArialMT-69" x="465.210938"/>
      <use xlink:href="#ArialMT-74" x="487.427734"/>
      <use xlink:href="#ArialMT-79" x="515.210938"/>
      <use xlink:href="#ArialMT-20" x="565.210938"/>
      <use xlink:href="#ArialMT-28" x="592.994141"/>
      <use xlink:href="#ArialMT-6c" x="626.294922"/>
      <use xlink:href="#ArialMT-6f" x="648.511719"/>
      <use xlink:href="#ArialMT-67" x="704.126953"/>
      <use xlink:href="#ArialMT-4d" x="759.742188"/>
      <use xlink:href="#ArialMT-41" x="843.042969"/>
      <use xlink:href="#ArialMT-52" x="909.742188"/>
      <use xlink:href="#ArialMT-29" x="981.958984"/>
     </g>
    </g>
   </g>
   <g id="matplotlib.axis_2">
    <g id="ytick_1">
     <g id="line2d_4">
      <defs>
       <path id="m35d8e8e99a" d="M 0 0 
L -3.5 0 
" style="stroke: #000000; stroke-width: 0.8"/>
      </defs>
      <g>
       <use xlink:href="#m35d8e8e99a" x="44.546875" y="228.911625" style="stroke: #000000; stroke-width: 0.8"/>
      </g>
     </g>
     <g id="text_5">
      <!-- −40 -->
      <g transform="translate(20.584375 232.490531) scale(0.1 -0.1)">
       <defs>
        <path id="ArialMT-2212" d="M 3381 1997 
L 356 1997 
L 356 2522 
L 3381 2522 
L 3381 1997 
z
" transform="scale(0.015625)"/>
        <path id="ArialMT-34" d="M 2069 0 
L 2069 1097 
L 81 1097 
L 81 1613 
L 2172 4581 
L 2631 4581 
L 2631 1613 
L 3250 1613 
L 3250 1097 
L 2631 1097 
L 2631 0 
L 2069 0 
z
M 2069 1613 
L 2069 3678 
L 634 1613 
L 2069 1613 
z
" transform="scale(0.015625)"/>
       </defs>
       <use xlink:href="#ArialMT-2212"/>
       <use xlink:href="#ArialMT-34" x="58.398438"/>
       <use xlink:href="#ArialMT-30" x="114.013672"/>
      </g>
     </g>
    </g>
    <g id="ytick_2">
     <g id="line2d_5">
      <g>
       <use xlink:href="#m35d8e8e99a" x="44.546875" y="199.343625" style="stroke: #000000; stroke-width: 0.8"/>
      </g>
     </g>
     <g id="text_6">
      <!-- −30 -->
      <g transform="translate(20.584375 202.922531) scale(0.1 -0.1)">
       <defs>
        <path id="ArialMT-33" d="M 269 1209 
L 831 1284 
Q 928 806 1161 595 
Q 1394 384 1728 384 
Q 2125 384 2398 659 
Q 2672 934 2672 1341 
Q 2672 1728 2419 1979 
Q 2166 2231 1775 2231 
Q 1616 2231 1378 2169 
L 1441 2663 
Q 1497 2656 1531 2656 
Q 1891 2656 2178 2843 
Q 2466 3031 2466 3422 
Q 2466 3731 2256 3934 
Q 2047 4138 1716 4138 
Q 1388 4138 1169 3931 
Q 950 3725 888 3313 
L 325 3413 
Q 428 3978 793 4289 
Q 1159 4600 1703 4600 
Q 2078 4600 2393 4439 
Q 2709 4278 2876 4000 
Q 3044 3722 3044 3409 
Q 3044 3113 2884 2869 
Q 2725 2625 2413 2481 
Q 2819 2388 3044 2092 
Q 3269 1797 3269 1353 
Q 3269 753 2831 336 
Q 2394 -81 1725 -81 
Q 1122 -81 723 278 
Q 325 638 269 1209 
z
" transform="scale(0.015625)"/>
       </defs>
       <use xlink:href="#ArialMT-2212"/>
       <use xlink:href="#ArialMT-33" x="58.398438"/>
       <use xlink:href="#ArialMT-30" x="114.013672"/>
      </g>
     </g>
    </g>
    <g id="ytick_3">
     <g id="line2d_6">
      <g>
       <use xlink:href="#m35d8e8e99a" x="44.546875" y="169.775625" style="stroke: #000000; stroke-width: 0.8"/>
      </g>
     </g>
     <g id="text_7">
      <!-- −20 -->
      <g transform="translate(20.584375 173.354531) scale(0.1 -0.1)">
       <use xlink:href="#ArialMT-2212"/>
       <use xlink:href="#ArialMT-32" x="58.398438"/>
       <use xlink:href="#ArialMT-30" x="114.013672"/>
      </g>
     </g>
    </g>
    <g id="ytick_4">
     <g id="line2d_7">
      <g>
       <use xlink:href="#m35d8e8e99a" x="44.546875" y="140.207625" style="stroke: #000000; stroke-width: 0.8"/>
      </g>
     </g>
     <g id="text_8">
      <!-- −10 -->
      <g transform="translate(20.584375 143.786531) scale(0.1 -0.1)">
       <use xlink:href="#ArialMT-2212"/>
       <use xlink:href="#ArialMT-31" x="58.398438"/>
       <use xlink:href="#ArialMT-30" x="114.013672"/>
      </g>
     </g>
    </g>
    <g id="ytick_5">
     <g id="line2d_8">
      <g>
       <use xlink:href="#m35d8e8e99a" x="44.546875" y="110.639625" style="stroke: #000000; stroke-width: 0.8"/>
      </g>
     </g>
     <g id="text_9">
      <!-- 0 -->
      <g transform="translate(31.985937 114.218531) scale(0.1 -0.1)">
       <use xlink:href="#ArialMT-30"/>
      </g>
     </g>
    </g>
    <g id="ytick_6">
     <g id="line2d_9">
      <g>
       <use xlink:href="#m35d8e8e99a" x="44.546875" y="81.071625" style="stroke: #000000; stroke-width: 0.8"/>
      </g>
     </g>
     <g id="text_10">
      <!-- 10 -->
      <g transform="translate(26.425 84.650531) scale(0.1 -0.1)">
       <use xlink:href="#ArialMT-31"/>
       <use xlink:href="#ArialMT-30" x="55.615234"/>
      </g>
     </g>
    </g>
    <g id="ytick_7">
     <g id="line2d_10">
      <g>
       <use xlink:href="#m35d8e8e99a" x="44.546875" y="51.503625" style="stroke: #000000; stroke-width: 0.8"/>
      </g>
     </g>
     <g id="text_11">
      <!-- 20 -->
      <g transform="translate(26.425 55.082531) scale(0.1 -0.1)">
       <use xlink:href="#ArialMT-32"/>
       <use xlink:href="#ArialMT-30" x="55.615234"/>
      </g>
     </g>
    </g>
    <g id="ytick_8">
     <g id="line2d_11">
      <g>
       <use xlink:href="#m35d8e8e99a" x="44.546875" y="21.935625" style="stroke: #000000; stroke-width: 0.8"/>
      </g>
     </g>
     <g id="text_12">
      <!-- 30 -->
      <g transform="translate(26.425 25.514531) scale(0.1 -0.1)">
       <use xlink:href="#ArialMT-33"/>
       <use xlink:href="#ArialMT-30" x="55.615234"/>
      </g>
     </g>
    </g>
    <g id="text_13">
     <!-- SNR (db) -->
     <g transform="translate(14.479687 153.652344) rotate(-90) scale(0.1 -0.1)">
      <defs>
       <path id="ArialMT-53" d="M 288 1472 
L 859 1522 
Q 900 1178 1048 958 
Q 1197 738 1509 602 
Q 1822 466 2213 466 
Q 2559 466 2825 569 
Q 3091 672 3220 851 
Q 3350 1031 3350 1244 
Q 3350 1459 3225 1620 
Q 3100 1781 2813 1891 
Q 2628 1963 1997 2114 
Q 1366 2266 1113 2400 
Q 784 2572 623 2826 
Q 463 3081 463 3397 
Q 463 3744 659 4045 
Q 856 4347 1234 4503 
Q 1613 4659 2075 4659 
Q 2584 4659 2973 4495 
Q 3363 4331 3572 4012 
Q 3781 3694 3797 3291 
L 3216 3247 
Q 3169 3681 2898 3903 
Q 2628 4125 2100 4125 
Q 1550 4125 1298 3923 
Q 1047 3722 1047 3438 
Q 1047 3191 1225 3031 
Q 1400 2872 2139 2705 
Q 2878 2538 3153 2413 
Q 3553 2228 3743 1945 
Q 3934 1663 3934 1294 
Q 3934 928 3725 604 
Q 3516 281 3123 101 
Q 2731 -78 2241 -78 
Q 1619 -78 1198 103 
Q 778 284 539 648 
Q 300 1013 288 1472 
z
" transform="scale(0.015625)"/>
       <path id="ArialMT-4e" d="M 488 0 
L 488 4581 
L 1109 4581 
L 3516 984 
L 3516 4581 
L 4097 4581 
L 4097 0 
L 3475 0 
L 1069 3600 
L 1069 0 
L 488 0 
z
" transform="scale(0.015625)"/>
       <path id="ArialMT-64" d="M 2575 0 
L 2575 419 
Q 2259 -75 1647 -75 
Q 1250 -75 917 144 
Q 584 363 401 755 
Q 219 1147 219 1656 
Q 219 2153 384 2558 
Q 550 2963 881 3178 
Q 1213 3394 1622 3394 
Q 1922 3394 2156 3267 
Q 2391 3141 2538 2938 
L 2538 4581 
L 3097 4581 
L 3097 0 
L 2575 0 
z
M 797 1656 
Q 797 1019 1065 703 
Q 1334 388 1700 388 
Q 2069 388 2326 689 
Q 2584 991 2584 1609 
Q 2584 2291 2321 2609 
Q 2059 2928 1675 2928 
Q 1300 2928 1048 2622 
Q 797 2316 797 1656 
z
" transform="scale(0.015625)"/>
       <path id="ArialMT-62" d="M 941 0 
L 419 0 
L 419 4581 
L 981 4581 
L 981 2947 
Q 1338 3394 1891 3394 
Q 2197 3394 2470 3270 
Q 2744 3147 2920 2923 
Q 3097 2700 3197 2384 
Q 3297 2069 3297 1709 
Q 3297 856 2875 390 
Q 2453 -75 1863 -75 
Q 1275 -75 941 416 
L 941 0 
z
M 934 1684 
Q 934 1088 1097 822 
Q 1363 388 1816 388 
Q 2184 388 2453 708 
Q 2722 1028 2722 1663 
Q 2722 2313 2464 2622 
Q 2206 2931 1841 2931 
Q 1472 2931 1203 2611 
Q 934 2291 934 1684 
z
" transform="scale(0.015625)"/>
      </defs>
      <use xlink:href="#ArialMT-53"/>
      <use xlink:href="#ArialMT-4e" x="66.699219"/>
      <use xlink:href="#ArialMT-52" x="138.916016"/>
      <use xlink:href="#ArialMT-20" x="211.132812"/>
      <use xlink:href="#ArialMT-28" x="238.916016"/>
      <use xlink:href="#ArialMT-64" x="272.216797"/>
      <use xlink:href="#ArialMT-62" x="327.832031"/>
      <use xlink:href="#ArialMT-29" x="383.447266"/>
     </g>
    </g>
   </g>
   <g id="line2d_12">
    <path d="M 65.668662 72.808315 
L 67.338368 73.25705 
L 69.008075 73.705786 
L 70.677781 74.154522 
L 72.347488 74.603257 
L 74.017194 75.051993 
L 75.686901 75.500729 
L 77.356607 75.949464 
L 79.026314 76.3982 
L 80.69602 76.846936 
L 82.365727 77.295671 
L 84.035433 77.744407 
L 85.705139 78.193143 
L 87.374846 78.641879 
L 89.044552 79.090614 
L 90.714259 79.53935 
L 92.383965 79.988086 
L 94.053672 80.436821 
L 95.723378 80.885557 
L 97.393085 81.334293 
L 99.062791 81.783028 
L 100.732498 82.231764 
L 102.402204 82.6805 
L 104.071911 83.129236 
L 105.741617 83.577971 
L 107.411324 84.026707 
L 109.08103 84.475443 
L 110.750736 84.924178 
L 112.420443 85.372914 
L 114.090149 85.82165 
L 115.759856 86.270385 
L 117.429562 86.719121 
L 119.099269 87.167857 
L 120.768975 87.616592 
L 122.438682 88.065328 
L 124.108388 88.514064 
L 125.778095 88.9628 
L 127.447801 89.411535 
L 129.117508 89.860271 
L 130.787214 90.309007 
L 132.456921 90.757742 
L 134.126627 91.206478 
L 135.796334 91.655214 
L 137.46604 92.103949 
L 139.135746 92.552685 
L 140.805453 93.001421 
L 142.475159 93.450157 
L 144.144866 93.898892 
L 145.814572 94.347628 
L 147.484279 94.796364 
L 149.153985 95.245099 
L 150.823692 95.693835 
L 152.493398 96.142571 
L 154.163105 96.591306 
L 155.832811 97.040042 
L 157.502518 97.488778 
L 159.172224 97.937513 
L 160.841931 98.386249 
L 162.511637 98.834985 
L 164.181344 99.283721 
L 165.85105 99.732456 
L 167.520756 100.181192 
L 169.190463 100.629928 
L 170.860169 101.078663 
L 172.529876 101.527399 
L 174.199582 101.976135 
L 175.869289 102.42487 
L 177.538995 102.873606 
L 179.208702 103.322342 
L 180.878408 103.771078 
L 182.548115 104.219813 
L 184.217821 104.668549 
L 185.887528 105.117285 
L 187.557234 105.56602 
L 189.226941 106.014756 
L 190.896647 106.463492 
L 192.566353 106.912227 
L 194.23606 107.360963 
L 195.905766 107.809699 
L 197.575473 108.258435 
L 199.245179 108.70717 
L 200.914886 109.155906 
L 202.584592 109.604642 
L 204.254299 110.053377 
L 205.924005 110.502113 
L 207.593712 110.950849 
L 209.263418 111.399584 
L 210.933125 111.84832 
L 212.602831 112.297056 
L 214.272538 112.745791 
L 215.942244 113.194527 
L 217.611951 113.643263 
L 219.281657 114.091999 
L 220.951363 114.540734 
L 222.62107 114.98947 
L 224.290776 115.438206 
L 225.960483 115.886941 
L 227.630189 116.335677 
L 229.299896 116.784413 
L 230.969602 117.233148 
" clip-path="url(#p90b4c00ae9)" style="fill: none; stroke: #40498e; stroke-width: 2.25; stroke-linecap: square"/>
   </g>
   <g id="line2d_13">
    <path d="M 53.424148 62.352292 
L 53.758089 62.401083 
L 54.09203 62.449875 
L 54.425972 62.498666 
L 54.759913 62.547457 
L 55.093854 62.596248 
L 55.427795 62.645039 
L 55.761737 62.693831 
L 56.095678 62.742622 
L 56.429619 62.791413 
L 56.763561 62.840204 
L 57.097502 62.888995 
L 57.431443 62.937787 
L 57.765385 62.986578 
L 58.099326 63.035369 
L 58.433267 63.08416 
L 58.767208 63.132951 
L 59.10115 63.181743 
L 59.435091 63.230534 
L 59.769032 63.279325 
L 60.102974 63.328116 
L 60.436915 63.376907 
L 60.770856 63.425699 
L 61.104797 63.47449 
L 61.438739 63.523281 
L 61.77268 63.572072 
L 62.106621 63.620864 
L 62.440563 63.669655 
L 62.774504 63.718446 
L 63.108445 63.767237 
L 63.442387 63.816028 
L 63.776328 63.86482 
L 64.110269 63.913611 
L 64.44421 63.962402 
L 64.778152 64.011193 
L 65.112093 64.059984 
L 65.446034 64.108776 
L 65.779976 64.157567 
L 66.113917 64.206358 
L 66.447858 64.255149 
L 66.781799 64.30394 
L 67.115741 64.352732 
L 67.449682 64.401523 
L 67.783623 64.450314 
L 68.117565 64.499105 
L 68.451506 64.547896 
L 68.785447 64.596688 
L 69.119389 64.645479 
L 69.45333 64.69427 
L 69.787271 64.743061 
L 70.121212 64.791852 
L 70.455154 64.840644 
L 70.789095 64.889435 
L 71.123036 64.938226 
L 71.456978 64.987017 
L 71.790919 65.035808 
L 72.12486 65.0846 
L 72.458801 65.133391 
L 72.792743 65.182182 
L 73.126684 65.230973 
L 73.460625 65.279764 
L 73.794567 65.328556 
L 74.128508 65.377347 
L 74.462449 65.426138 
L 74.796391 65.474929 
L 75.130332 65.52372 
L 75.464273 65.572512 
L 75.798214 65.621303 
L 76.132156 65.670094 
L 76.466097 65.718885 
L 76.800038 65.767676 
L 77.13398 65.816468 
L 77.467921 65.865259 
L 77.801862 65.91405 
L 78.135803 65.962841 
L 78.469745 66.011632 
L 78.803686 66.060424 
L 79.137627 66.109215 
L 79.471569 66.158006 
L 79.80551 66.206797 
L 80.139451 66.255589 
L 80.473393 66.30438 
L 80.807334 66.353171 
L 81.141275 66.401962 
L 81.475216 66.450753 
L 81.809158 66.499545 
L 82.143099 66.548336 
L 82.47704 66.597127 
L 82.810982 66.645918 
L 83.144923 66.694709 
L 83.478864 66.743501 
L 83.812805 66.792292 
L 84.146747 66.841083 
L 84.480688 66.889874 
L 84.814629 66.938665 
L 85.148571 66.987457 
L 85.482512 67.036248 
L 85.816453 67.085039 
L 86.150395 67.13383 
L 86.484336 67.182621 
" clip-path="url(#p90b4c00ae9)" style="fill: none; stroke: #0b0405; stroke-width: 2.25; stroke-linecap: square"/>
   </g>
   <g id="patch_3">
    <path d="M 44.546875 243.695625 
L 44.546875 21.935625 
" style="fill: none; stroke: #000000; stroke-width: 0.8; stroke-linejoin: miter; stroke-linecap: square"/>
   </g>
   <g id="patch_4">
    <path d="M 239.846875 243.695625 
L 239.846875 21.935625 
" style="fill: none; stroke: #000000; stroke-width: 0.8; stroke-linejoin: miter; stroke-linecap: square"/>
   </g>
   <g id="patch_5">
    <path d="M 44.546875 243.695625 
L 239.846875 243.695625 
" style="fill: none; stroke: #000000; stroke-width: 0.8; stroke-linejoin: miter; stroke-linecap: square"/>
   </g>
   <g id="patch_6">
    <path d="M 44.546875 21.935625 
L 239.846875 21.935625 
" style="fill: none; stroke: #000000; stroke-width: 0.8; stroke-linejoin: miter; stroke-linecap: square"/>
   </g>
   <g id="text_14">
    <!-- Spatial Frequency = 1.0 cpd -->
    <g transform="translate(67.321563 15.935625) scale(0.12 -0.12)">
     <defs>
      <path id="ArialMT-70" d="M 422 -1272 
L 422 3319 
L 934 3319 
L 934 2888 
Q 1116 3141 1344 3267 
Q 1572 3394 1897 3394 
Q 2322 3394 2647 3175 
Q 2972 2956 3137 2557 
Q 3303 2159 3303 1684 
Q 3303 1175 3120 767 
Q 2938 359 2589 142 
Q 2241 -75 1856 -75 
Q 1575 -75 1351 44 
Q 1128 163 984 344 
L 984 -1272 
L 422 -1272 
z
M 931 1641 
Q 931 1000 1190 694 
Q 1450 388 1819 388 
Q 2194 388 2461 705 
Q 2728 1022 2728 1688 
Q 2728 2322 2467 2637 
Q 2206 2953 1844 2953 
Q 1484 2953 1207 2617 
Q 931 2281 931 1641 
z
" transform="scale(0.015625)"/>
      <path id="ArialMT-46" d="M 525 0 
L 525 4581 
L 3616 4581 
L 3616 4041 
L 1131 4041 
L 1131 2622 
L 3281 2622 
L 3281 2081 
L 1131 2081 
L 1131 0 
L 525 0 
z
" transform="scale(0.015625)"/>
      <path id="ArialMT-72" d="M 416 0 
L 416 3319 
L 922 3319 
L 922 2816 
Q 1116 3169 1280 3281 
Q 1444 3394 1641 3394 
Q 1925 3394 2219 3213 
L 2025 2691 
Q 1819 2813 1613 2813 
Q 1428 2813 1281 2702 
Q 1134 2591 1072 2394 
Q 978 2094 978 1738 
L 978 0 
L 416 0 
z
" transform="scale(0.015625)"/>
      <path id="ArialMT-65" d="M 2694 1069 
L 3275 997 
Q 3138 488 2766 206 
Q 2394 -75 1816 -75 
Q 1088 -75 661 373 
Q 234 822 234 1631 
Q 234 2469 665 2931 
Q 1097 3394 1784 3394 
Q 2450 3394 2872 2941 
Q 3294 2488 3294 1666 
Q 3294 1616 3291 1516 
L 816 1516 
Q 847 969 1125 678 
Q 1403 388 1819 388 
Q 2128 388 2347 550 
Q 2566 713 2694 1069 
z
M 847 1978 
L 2700 1978 
Q 2663 2397 2488 2606 
Q 2219 2931 1791 2931 
Q 1403 2931 1139 2672 
Q 875 2413 847 1978 
z
" transform="scale(0.015625)"/>
      <path id="ArialMT-71" d="M 2538 -1272 
L 2538 353 
Q 2406 169 2170 47 
Q 1934 -75 1669 -75 
Q 1078 -75 651 397 
Q 225 869 225 1691 
Q 225 2191 398 2587 
Q 572 2984 901 3189 
Q 1231 3394 1625 3394 
Q 2241 3394 2594 2875 
L 2594 3319 
L 3100 3319 
L 3100 -1272 
L 2538 -1272 
z
M 803 1669 
Q 803 1028 1072 708 
Q 1341 388 1716 388 
Q 2075 388 2334 692 
Q 2594 997 2594 1619 
Q 2594 2281 2320 2615 
Q 2047 2950 1678 2950 
Q 1313 2950 1058 2639 
Q 803 2328 803 1669 
z
" transform="scale(0.015625)"/>
      <path id="ArialMT-6e" d="M 422 0 
L 422 3319 
L 928 3319 
L 928 2847 
Q 1294 3394 1984 3394 
Q 2284 3394 2536 3286 
Q 2788 3178 2913 3003 
Q 3038 2828 3088 2588 
Q 3119 2431 3119 2041 
L 3119 0 
L 2556 0 
L 2556 2019 
Q 2556 2363 2490 2533 
Q 2425 2703 2258 2804 
Q 2091 2906 1866 2906 
Q 1506 2906 1245 2678 
Q 984 2450 984 1813 
L 984 0 
L 422 0 
z
" transform="scale(0.015625)"/>
      <path id="ArialMT-3d" d="M 3381 2694 
L 356 2694 
L 356 3219 
L 3381 3219 
L 3381 2694 
z
M 3381 1303 
L 356 1303 
L 356 1828 
L 3381 1828 
L 3381 1303 
z
" transform="scale(0.015625)"/>
      <path id="ArialMT-2e" d="M 581 0 
L 581 641 
L 1222 641 
L 1222 0 
L 581 0 
z
" transform="scale(0.015625)"/>
     </defs>
     <use xlink:href="#ArialMT-53"/>
     <use xlink:href="#ArialMT-70" x="66.699219"/>
     <use xlink:href="#ArialMT-61" x="122.314453"/>
     <use xlink:href="#ArialMT-74" x="177.929688"/>
     <use xlink:href="#ArialMT-69" x="205.712891"/>
     <use xlink:href="#ArialMT-61" x="227.929688"/>
     <use xlink:href="#ArialMT-6c" x="283.544922"/>
     <use xlink:href="#ArialMT-20" x="305.761719"/>
     <use xlink:href="#ArialMT-46" x="333.544922"/>
     <use xlink:href="#ArialMT-72" x="394.628906"/>
     <use xlink:href="#ArialMT-65" x="427.929688"/>
     <use xlink:href="#ArialMT-71" x="483.544922"/>
     <use xlink:href="#ArialMT-75" x="539.160156"/>
     <use xlink:href="#ArialMT-65" x="594.775391"/>
     <use xlink:href="#ArialMT-6e" x="650.390625"/>
     <use xlink:href="#ArialMT-63" x="706.005859"/>
     <use xlink:href="#ArialMT-79" x="756.005859"/>
     <use xlink:href="#ArialMT-20" x="806.005859"/>
     <use xlink:href="#ArialMT-3d" x="833.789062"/>
     <use xlink:href="#ArialMT-20" x="892.1875"/>
     <use xlink:href="#ArialMT-31" x="919.970703"/>
     <use xlink:href="#ArialMT-2e" x="975.585938"/>
     <use xlink:href="#ArialMT-30" x="1003.369141"/>
     <use xlink:href="#ArialMT-20" x="1058.984375"/>
     <use xlink:href="#ArialMT-63" x="1086.767578"/>
     <use xlink:href="#ArialMT-70" x="1136.767578"/>
     <use xlink:href="#ArialMT-64" x="1192.382812"/>
    </g>
   </g>
   <g id="legend_1">
    <g id="patch_7">
     <path d="M 51.546875 238.695625 
L 160.265625 238.695625 
Q 162.265625 238.695625 162.265625 236.695625 
L 162.265625 188.18 
Q 162.265625 186.18 160.265625 186.18 
L 51.546875 186.18 
Q 49.546875 186.18 49.546875 188.18 
L 49.546875 236.695625 
Q 49.546875 238.695625 51.546875 238.695625 
z
" style="fill: #ffffff; opacity: 0.8; stroke: #cccccc; stroke-linejoin: miter"/>
    </g>
    <g id="PathCollection_3">
     <g>
      <use xlink:href="#mde78fa9a2f" x="63.546875" y="201.012812" style="fill: #40498e; stroke: #ffffff; stroke-width: 0.48"/>
     </g>
    </g>
    <g id="text_15">
     <!-- CRB1: -->
     <g transform="translate(81.546875 197.337813) scale(0.1 -0.1)">
      <defs>
       <path id="ArialMT-43" d="M 3763 1606 
L 4369 1453 
Q 4178 706 3683 314 
Q 3188 -78 2472 -78 
Q 1731 -78 1267 223 
Q 803 525 561 1097 
Q 319 1669 319 2325 
Q 319 3041 592 3573 
Q 866 4106 1370 4382 
Q 1875 4659 2481 4659 
Q 3169 4659 3637 4309 
Q 4106 3959 4291 3325 
L 3694 3184 
Q 3534 3684 3231 3912 
Q 2928 4141 2469 4141 
Q 1941 4141 1586 3887 
Q 1231 3634 1087 3207 
Q 944 2781 944 2328 
Q 944 1744 1114 1308 
Q 1284 872 1643 656 
Q 2003 441 2422 441 
Q 2931 441 3284 734 
Q 3638 1028 3763 1606 
z
" transform="scale(0.015625)"/>
       <path id="ArialMT-42" d="M 469 0 
L 469 4581 
L 2188 4581 
Q 2713 4581 3030 4442 
Q 3347 4303 3526 4014 
Q 3706 3725 3706 3409 
Q 3706 3116 3547 2856 
Q 3388 2597 3066 2438 
Q 3481 2316 3704 2022 
Q 3928 1728 3928 1328 
Q 3928 1006 3792 729 
Q 3656 453 3456 303 
Q 3256 153 2954 76 
Q 2653 0 2216 0 
L 469 0 
z
M 1075 2656 
L 2066 2656 
Q 2469 2656 2644 2709 
Q 2875 2778 2992 2937 
Q 3109 3097 3109 3338 
Q 3109 3566 3000 3739 
Q 2891 3913 2687 3977 
Q 2484 4041 1991 4041 
L 1075 4041 
L 1075 2656 
z
M 1075 541 
L 2216 541 
Q 2509 541 2628 563 
Q 2838 600 2978 687 
Q 3119 775 3209 942 
Q 3300 1109 3300 1328 
Q 3300 1584 3169 1773 
Q 3038 1963 2805 2039 
Q 2572 2116 2134 2116 
L 1075 2116 
L 1075 541 
z
" transform="scale(0.015625)"/>
       <path id="ArialMT-3a" d="M 578 2678 
L 578 3319 
L 1219 3319 
L 1219 2678 
L 578 2678 
z
M 578 0 
L 578 641 
L 1219 641 
L 1219 0 
L 578 0 
z
" transform="scale(0.015625)"/>
      </defs>
      <use xlink:href="#ArialMT-43"/>
      <use xlink:href="#ArialMT-52" x="72.216797"/>
      <use xlink:href="#ArialMT-42" x="144.433594"/>
      <use xlink:href="#ArialMT-31" x="211.132812"/>
      <use xlink:href="#ArialMT-3a" x="266.748047"/>
     </g>
     <!--  r=-0.53, p=0.002 -->
     <g transform="translate(81.546875 207.950312) scale(0.1 -0.1)">
      <defs>
       <path id="ArialMT-2d" d="M 203 1375 
L 203 1941 
L 1931 1941 
L 1931 1375 
L 203 1375 
z
" transform="scale(0.015625)"/>
       <path id="ArialMT-35" d="M 266 1200 
L 856 1250 
Q 922 819 1161 601 
Q 1400 384 1738 384 
Q 2144 384 2425 690 
Q 2706 997 2706 1503 
Q 2706 1984 2436 2262 
Q 2166 2541 1728 2541 
Q 1456 2541 1237 2417 
Q 1019 2294 894 2097 
L 366 2166 
L 809 4519 
L 3088 4519 
L 3088 3981 
L 1259 3981 
L 1013 2750 
Q 1425 3038 1878 3038 
Q 2478 3038 2890 2622 
Q 3303 2206 3303 1553 
Q 3303 931 2941 478 
Q 2500 -78 1738 -78 
Q 1113 -78 717 272 
Q 322 622 266 1200 
z
" transform="scale(0.015625)"/>
       <path id="ArialMT-2c" d="M 569 0 
L 569 641 
L 1209 641 
L 1209 0 
Q 1209 -353 1084 -570 
Q 959 -788 688 -906 
L 531 -666 
Q 709 -588 793 -436 
Q 878 -284 888 0 
L 569 0 
z
" transform="scale(0.015625)"/>
      </defs>
      <use xlink:href="#ArialMT-20"/>
      <use xlink:href="#ArialMT-72" x="27.783203"/>
      <use xlink:href="#ArialMT-3d" x="61.083984"/>
      <use xlink:href="#ArialMT-2d" x="119.482422"/>
      <use xlink:href="#ArialMT-30" x="152.783203"/>
      <use xlink:href="#ArialMT-2e" x="208.398438"/>
      <use xlink:href="#ArialMT-35" x="236.181641"/>
      <use xlink:href="#ArialMT-33" x="291.796875"/>
      <use xlink:href="#ArialMT-2c" x="347.412109"/>
      <use xlink:href="#ArialMT-20" x="375.195312"/>
      <use xlink:href="#ArialMT-70" x="402.978516"/>
      <use xlink:href="#ArialMT-3d" x="458.59375"/>
      <use xlink:href="#ArialMT-30" x="516.992188"/>
      <use xlink:href="#ArialMT-2e" x="572.607422"/>
      <use xlink:href="#ArialMT-30" x="600.390625"/>
      <use xlink:href="#ArialMT-30" x="656.005859"/>
      <use xlink:href="#ArialMT-32" x="711.621094"/>
     </g>
    </g>
    <g id="PathCollection_4">
     <g>
      <use xlink:href="#mb01b59bfd1" x="63.546875" y="225.770625" style="fill: #0b0405; stroke: #ffffff; stroke-width: 0.48"/>
     </g>
    </g>
    <g id="text_16">
     <!-- Controls: -->
     <g transform="translate(81.546875 222.095625) scale(0.1 -0.1)">
      <use xlink:href="#ArialMT-43"/>
      <use xlink:href="#ArialMT-6f" x="72.216797"/>
      <use xlink:href="#ArialMT-6e" x="127.832031"/>
      <use xlink:href="#ArialMT-74" x="183.447266"/>
      <use xlink:href="#ArialMT-72" x="211.230469"/>
      <use xlink:href="#ArialMT-6f" x="244.53125"/>
      <use xlink:href="#ArialMT-6c" x="300.146484"/>
      <use xlink:href="#ArialMT-73" x="322.363281"/>
      <use xlink:href="#ArialMT-3a" x="372.363281"/>
     </g>
     <!--  r=-0.08, p=0.685 -->
     <g transform="translate(81.546875 232.708125) scale(0.1 -0.1)">
      <defs>
       <path id="ArialMT-38" d="M 1131 2484 
Q 781 2613 612 2850 
Q 444 3088 444 3419 
Q 444 3919 803 4259 
Q 1163 4600 1759 4600 
Q 2359 4600 2725 4251 
Q 3091 3903 3091 3403 
Q 3091 3084 2923 2848 
Q 2756 2613 2416 2484 
Q 2838 2347 3058 2040 
Q 3278 1734 3278 1309 
Q 3278 722 2862 322 
Q 2447 -78 1769 -78 
Q 1091 -78 675 323 
Q 259 725 259 1325 
Q 259 1772 486 2073 
Q 713 2375 1131 2484 
z
M 1019 3438 
Q 1019 3113 1228 2906 
Q 1438 2700 1772 2700 
Q 2097 2700 2305 2904 
Q 2513 3109 2513 3406 
Q 2513 3716 2298 3927 
Q 2084 4138 1766 4138 
Q 1444 4138 1231 3931 
Q 1019 3725 1019 3438 
z
M 838 1322 
Q 838 1081 952 856 
Q 1066 631 1291 507 
Q 1516 384 1775 384 
Q 2178 384 2440 643 
Q 2703 903 2703 1303 
Q 2703 1709 2433 1975 
Q 2163 2241 1756 2241 
Q 1359 2241 1098 1978 
Q 838 1716 838 1322 
z
" transform="scale(0.015625)"/>
       <path id="ArialMT-36" d="M 3184 3459 
L 2625 3416 
Q 2550 3747 2413 3897 
Q 2184 4138 1850 4138 
Q 1581 4138 1378 3988 
Q 1113 3794 959 3422 
Q 806 3050 800 2363 
Q 1003 2672 1297 2822 
Q 1591 2972 1913 2972 
Q 2475 2972 2870 2558 
Q 3266 2144 3266 1488 
Q 3266 1056 3080 686 
Q 2894 316 2569 119 
Q 2244 -78 1831 -78 
Q 1128 -78 684 439 
Q 241 956 241 2144 
Q 241 3472 731 4075 
Q 1159 4600 1884 4600 
Q 2425 4600 2770 4297 
Q 3116 3994 3184 3459 
z
M 888 1484 
Q 888 1194 1011 928 
Q 1134 663 1356 523 
Q 1578 384 1822 384 
Q 2178 384 2434 671 
Q 2691 959 2691 1453 
Q 2691 1928 2437 2201 
Q 2184 2475 1800 2475 
Q 1419 2475 1153 2201 
Q 888 1928 888 1484 
z
" transform="scale(0.015625)"/>
      </defs>
      <use xlink:href="#ArialMT-20"/>
      <use xlink:href="#ArialMT-72" x="27.783203"/>
      <use xlink:href="#ArialMT-3d" x="61.083984"/>
      <use xlink:href="#ArialMT-2d" x="119.482422"/>
      <use xlink:href="#ArialMT-30" x="152.783203"/>
      <use xlink:href="#ArialMT-2e" x="208.398438"/>
      <use xlink:href="#ArialMT-30" x="236.181641"/>
      <use xlink:href="#ArialMT-38" x="291.796875"/>
      <use xlink:href="#ArialMT-2c" x="347.412109"/>
      <use xlink:href="#ArialMT-20" x="375.195312"/>
      <use xlink:href="#ArialMT-70" x="402.978516"/>
      <use xlink:href="#ArialMT-3d" x="458.59375"/>
      <use xlink:href="#ArialMT-30" x="516.992188"/>
      <use xlink:href="#ArialMT-2e" x="572.607422"/>
      <use xlink:href="#ArialMT-36" x="600.390625"/>
      <use xlink:href="#ArialMT-38" x="656.005859"/>
      <use xlink:href="#ArialMT-35" x="711.621094"/>
     </g>
    </g>
   </g>
  </g>
 </g>
 <defs>
  <clipPath id="p90b4c00ae9">
   <rect x="44.546875" y="21.935625" width="195.3" height="221.76"/>
  </clipPath>
 </defs>
</svg>
