<svg width="1297" height="1031" xmlns="http://www.w3.org/2000/svg" xmlns:xlink="http://www.w3.org/1999/xlink" xml:space="preserve" overflow="hidden"><defs><clipPath id="clip0"><rect x="1862" y="669" width="1297" height="1031"/></clipPath></defs><g clip-path="url(#clip0)" transform="translate(-1862 -669)"><path d="M1862 1700 3159 1700 3159 669 1862 669Z" fill="#FFFFFF" fill-rule="evenodd"/><path d="M2046 1565 3133 1565 3133 750 2046 750Z" fill="#FFFFFF" fill-rule="evenodd"/><path d="M2273 1230C2276.71 1230 2280.27 1228.47 2282.9 1225.75 2285.53 1223.03 2287 1219.35 2287 1215.5 2287 1211.66 2285.53 1207.97 2282.9 1205.25 2280.27 1202.53 2276.71 1201 2273 1201 2269.29 1201 2265.73 1202.53 2263.1 1205.25 2260.48 1207.97 2259 1211.66 2259 1215.5 2259 1219.35 2260.48 1223.03 2263.1 1225.75 2265.73 1228.47 2269.29 1230 2273 1230Z" stroke="#FFFFFF" stroke-width="2.06358" stroke-linejoin="round" stroke-miterlimit="10" fill="#40498E" fill-rule="evenodd"/><path d="M2633.25 1346 2640.5 1338.75 2647.75 1346 2655 1338.75 2647.75 1331.5 2655 1324.25 2647.75 1317 2640.5 1324.25 2633.25 1317 2626 1324.25 2633.25 1331.5 2626 1338.75Z" stroke="#FFFFFF" stroke-width="2.06358" stroke-linejoin="round" stroke-miterlimit="10" fill="#40498E" fill-rule="evenodd"/><path d="M2606.5 1176C2610.34 1176 2614.03 1174.53 2616.75 1171.9 2619.47 1169.27 2621 1165.71 2621 1162 2621 1158.29 2619.47 1154.73 2616.75 1152.1 2614.03 1149.47 2610.34 1148 2606.5 1148 2602.65 1148 2598.96 1149.47 2596.25 1152.1 2593.53 1154.73 2592 1158.29 2592 1162 2592 1165.71 2593.53 1169.27 2596.25 1171.9 2598.96 1174.53 2602.65 1176 2606.5 1176Z" stroke="#FFFFFF" stroke-width="2.06358" stroke-linejoin="round" stroke-miterlimit="10" fill="#40498E" fill-rule="evenodd"/><path d="M2599.25 1378 2606.5 1371 2613.75 1378 2621 1371 2613.75 1364 2621 1357 2613.75 1350 2606.5 1357 2599.25 1350 2592 1357 2599.25 1364 2592 1371Z" stroke="#FFFFFF" stroke-width="2.06358" stroke-linejoin="round" stroke-miterlimit="10" fill="#40498E" fill-rule="evenodd"/><path d="M3083.5 1542C3087.34 1542 3091.03 1540.47 3093.75 1537.75 3096.47 1535.04 3098 1531.35 3098 1527.5 3098 1523.65 3096.47 1519.97 3093.75 1517.25 3091.03 1514.53 3087.34 1513 3083.5 1513 3079.66 1513 3075.96 1514.53 3073.25 1517.25 3070.53 1519.97 3069 1523.65 3069 1527.5 3069 1531.35 3070.53 1535.04 3073.25 1537.75 3075.96 1540.47 3079.66 1542 3083.5 1542Z" stroke="#FFFFFF" stroke-width="2.06358" stroke-linejoin="round" stroke-miterlimit="10" fill="#40498E" fill-rule="evenodd"/><path d="M2940 1311 2947 1304 2954 1311 2961 1304 2954 1297 2961 1290 2954 1283 2947 1290 2940 1283 2933 1290 2940 1297 2933 1304Z" stroke="#FFFFFF" stroke-width="2.06358" stroke-linejoin="round" stroke-miterlimit="10" fill="#40498E" fill-rule="evenodd"/><path d="M2947 1390C2950.71 1390 2954.28 1388.53 2956.9 1385.9 2959.53 1383.28 2961 1379.72 2961 1376 2961 1372.29 2959.53 1368.73 2956.9 1366.1 2954.28 1363.48 2950.71 1362 2947 1362 2943.29 1362 2939.72 1363.48 2937.1 1366.1 2934.47 1368.73 2933 1372.29 2933 1376 2933 1379.72 2934.47 1383.28 2937.1 1385.9 2939.72 1388.53 2943.29 1390 2947 1390Z" stroke="#FFFFFF" stroke-width="2.06358" stroke-linejoin="round" stroke-miterlimit="10" fill="#40498E" fill-rule="evenodd"/><path d="M3076.25 1361 3083.5 1353.75 3090.75 1361 3098 1353.75 3090.75 1346.5 3098 1339.25 3090.75 1332 3083.5 1339.25 3076.25 1332 3069 1339.25 3076.25 1346.5 3069 1353.75Z" stroke="#FFFFFF" stroke-width="2.06358" stroke-linejoin="round" stroke-miterlimit="10" fill="#40498E" fill-rule="evenodd"/><path d="M2491 1327C2494.71 1327 2498.27 1325.53 2500.9 1322.9 2503.53 1320.28 2505 1316.72 2505 1313 2505 1309.29 2503.53 1305.73 2500.9 1303.1 2498.27 1300.48 2494.71 1299 2491 1299 2487.29 1299 2483.72 1300.48 2481.1 1303.1 2478.47 1305.73 2477 1309.29 2477 1313 2477 1316.72 2478.47 1320.28 2481.1 1322.9 2483.72 1325.53 2487.29 1327 2491 1327Z" stroke="#FFFFFF" stroke-width="2.06358" stroke-linejoin="round" stroke-miterlimit="10" fill="#40498E" fill-rule="evenodd"/><path d="M2456.25 1483 2463.5 1476 2470.75 1483 2478 1476 2470.75 1469 2478 1462 2470.75 1455 2463.5 1462 2456.25 1455 2449 1462 2456.25 1469 2449 1476Z" stroke="#FFFFFF" stroke-width="2.06358" stroke-linejoin="round" stroke-miterlimit="10" fill="#40498E" fill-rule="evenodd"/><path d="M2245.5 1087C2249.35 1087 2253.04 1085.47 2255.75 1082.75 2258.47 1080.04 2260 1076.35 2260 1072.5 2260 1068.65 2258.47 1064.96 2255.75 1062.25 2253.04 1059.53 2249.35 1058 2245.5 1058 2241.66 1058 2237.97 1059.53 2235.25 1062.25 2232.53 1064.96 2231 1068.65 2231 1072.5 2231 1076.35 2232.53 1080.04 2235.25 1082.75 2237.97 1085.47 2241.66 1087 2245.5 1087Z" stroke="#FFFFFF" stroke-width="2.06358" stroke-linejoin="round" stroke-miterlimit="10" fill="#40498E" fill-rule="evenodd"/><path d="M2266 1128 2273 1120.75 2280 1128 2287 1120.75 2280 1113.5 2287 1106.25 2280 1099 2273 1106.25 2266 1099 2259 1106.25 2266 1113.5 2259 1120.75Z" stroke="#FFFFFF" stroke-width="2.06358" stroke-linejoin="round" stroke-miterlimit="10" fill="#40498E" fill-rule="evenodd"/><path d="M2164 1155C2167.71 1155 2171.27 1153.53 2173.9 1150.9 2176.53 1148.27 2178 1144.71 2178 1141 2178 1137.29 2176.53 1133.72 2173.9 1131.1 2171.27 1128.47 2167.71 1127 2164 1127 2160.29 1127 2156.73 1128.47 2154.1 1131.1 2151.48 1133.72 2150 1137.29 2150 1141 2150 1144.71 2151.48 1148.27 2154.1 1150.9 2156.73 1153.53 2160.29 1155 2164 1155Z" stroke="#FFFFFF" stroke-width="2.06358" stroke-linejoin="round" stroke-miterlimit="10" fill="#40498E" fill-rule="evenodd"/><path d="M2375 1206 2382 1198.75 2389 1206 2396 1198.75 2389 1191.5 2396 1184.25 2389 1177 2382 1184.25 2375 1177 2368 1184.25 2375 1191.5 2368 1198.75Z" stroke="#FFFFFF" stroke-width="2.06358" stroke-linejoin="round" stroke-miterlimit="10" fill="#40498E" fill-rule="evenodd"/><path d="M2334 1151C2337.71 1151 2341.28 1149.47 2343.9 1146.75 2346.53 1144.03 2348 1140.34 2348 1136.5 2348 1132.65 2346.53 1128.97 2343.9 1126.25 2341.28 1123.53 2337.71 1122 2334 1122 2330.29 1122 2326.73 1123.53 2324.1 1126.25 2321.47 1128.97 2320 1132.65 2320 1136.5 2320 1140.34 2321.47 1144.03 2324.1 1146.75 2326.73 1149.47 2330.29 1151 2334 1151Z" stroke="#FFFFFF" stroke-width="2.06358" stroke-linejoin="round" stroke-miterlimit="10" fill="#40498E" fill-rule="evenodd"/><path d="M2327 1244 2334 1236.75 2341 1244 2348 1236.75 2341 1229.5 2348 1222.25 2341 1215 2334 1222.25 2327 1215 2320 1222.25 2327 1229.5 2320 1236.75Z" stroke="#FFFFFF" stroke-width="2.06358" stroke-linejoin="round" stroke-miterlimit="10" fill="#40498E" fill-rule="evenodd"/><path d="M2463.5 1333C2467.34 1333 2471.03 1331.47 2473.75 1328.75 2476.47 1326.03 2478 1322.35 2478 1318.5 2478 1314.65 2476.47 1310.96 2473.75 1308.25 2471.03 1305.53 2467.34 1304 2463.5 1304 2459.65 1304 2455.97 1305.53 2453.25 1308.25 2450.53 1310.96 2449 1314.65 2449 1318.5 2449 1322.35 2450.53 1326.03 2453.25 1328.75 2455.97 1331.47 2459.65 1333 2463.5 1333Z" stroke="#FFFFFF" stroke-width="2.06358" stroke-linejoin="round" stroke-miterlimit="10" fill="#40498E" fill-rule="evenodd"/><path d="M2450 1463 2457 1455.75 2464 1463 2471 1455.75 2464 1448.5 2471 1441.25 2464 1434 2457 1441.25 2450 1434 2443 1441.25 2450 1448.5 2443 1455.75Z" stroke="#FFFFFF" stroke-width="2.06358" stroke-linejoin="round" stroke-miterlimit="10" fill="#40498E" fill-rule="evenodd"/><path d="M2239 1279C2242.71 1279 2246.27 1277.53 2248.9 1274.9 2251.53 1272.28 2253 1268.72 2253 1265 2253 1261.29 2251.53 1257.73 2248.9 1255.1 2246.27 1252.48 2242.71 1251 2239 1251 2235.29 1251 2231.72 1252.48 2229.1 1255.1 2226.48 1257.73 2225 1261.29 2225 1265 2225 1268.72 2226.48 1272.28 2229.1 1274.9 2231.72 1277.53 2235.29 1279 2239 1279Z" stroke="#FFFFFF" stroke-width="2.06358" stroke-linejoin="round" stroke-miterlimit="10" fill="#40498E" fill-rule="evenodd"/><path d="M2211.25 1153 2218.5 1146 2225.75 1153 2233 1146 2225.75 1139 2233 1132 2225.75 1125 2218.5 1132 2211.25 1125 2204 1132 2211.25 1139 2204 1146Z" stroke="#FFFFFF" stroke-width="2.06358" stroke-linejoin="round" stroke-miterlimit="10" fill="#40498E" fill-rule="evenodd"/><path d="M2402.5 1110C2406.34 1110 2410.03 1108.53 2412.75 1105.9 2415.47 1103.28 2417 1099.71 2417 1096 2417 1092.29 2415.47 1088.73 2412.75 1086.1 2410.03 1083.47 2406.34 1082 2402.5 1082 2398.66 1082 2394.96 1083.47 2392.25 1086.1 2389.53 1088.73 2388 1092.29 2388 1096 2388 1099.71 2389.53 1103.28 2392.25 1105.9 2394.96 1108.53 2398.66 1110 2402.5 1110Z" stroke="#FFFFFF" stroke-width="2.06358" stroke-linejoin="round" stroke-miterlimit="10" fill="#40498E" fill-rule="evenodd"/><path d="M2327 1014 2334 1006.75 2341 1014 2348 1006.75 2341 999.5 2348 992.25 2341 985 2334 992.25 2327 985 2320 992.25 2327 999.5 2320 1006.75Z" stroke="#FFFFFF" stroke-width="2.06358" stroke-linejoin="round" stroke-miterlimit="10" fill="#40498E" fill-rule="evenodd"/><path d="M2702 1226C2705.71 1226 2709.27 1224.47 2711.9 1221.75 2714.53 1219.03 2716 1215.35 2716 1211.5 2716 1207.65 2714.53 1203.97 2711.9 1201.25 2709.27 1198.53 2705.71 1197 2702 1197 2698.29 1197 2694.73 1198.53 2692.1 1201.25 2689.48 1203.97 2688 1207.65 2688 1211.5 2688 1215.35 2689.48 1219.03 2692.1 1221.75 2694.73 1224.47 2698.29 1226 2702 1226Z" stroke="#FFFFFF" stroke-width="2.06358" stroke-linejoin="round" stroke-miterlimit="10" fill="#40498E" fill-rule="evenodd"/><path d="M2831 1369 2838 1362 2845 1369 2852 1362 2845 1355 2852 1348 2845 1341 2838 1348 2831 1341 2824 1348 2831 1355 2824 1362Z" stroke="#FFFFFF" stroke-width="2.06358" stroke-linejoin="round" stroke-miterlimit="10" fill="#40498E" fill-rule="evenodd"/><path d="M2947 1250C2950.71 1250 2954.28 1248.53 2956.9 1245.9 2959.53 1243.27 2961 1239.71 2961 1236 2961 1232.29 2959.53 1228.73 2956.9 1226.1 2954.28 1223.47 2950.71 1222 2947 1222 2943.29 1222 2939.72 1223.47 2937.1 1226.1 2934.47 1228.73 2933 1232.29 2933 1236 2933 1239.71 2934.47 1243.27 2937.1 1245.9 2939.72 1248.53 2943.29 1250 2947 1250Z" stroke="#FFFFFF" stroke-width="2.06358" stroke-linejoin="round" stroke-miterlimit="10" fill="#40498E" fill-rule="evenodd"/><path d="M2940 1442 2947 1434.75 2954 1442 2961 1434.75 2954 1427.5 2961 1420.25 2954 1413 2947 1420.25 2940 1413 2933 1420.25 2940 1427.5 2933 1434.75Z" stroke="#FFFFFF" stroke-width="2.06358" stroke-linejoin="round" stroke-miterlimit="10" fill="#40498E" fill-rule="evenodd"/><path d="M2327.5 1357C2331.34 1357 2335.03 1355.53 2337.75 1352.9 2340.47 1350.28 2342 1346.72 2342 1343 2342 1339.29 2340.47 1335.73 2337.75 1333.1 2335.03 1330.48 2331.34 1329 2327.5 1329 2323.65 1329 2319.96 1330.48 2317.25 1333.1 2314.53 1335.73 2313 1339.29 2313 1343 2313 1346.72 2314.53 1350.28 2317.25 1352.9 2319.96 1355.53 2323.65 1357 2327.5 1357Z" stroke="#FFFFFF" stroke-width="2.06358" stroke-linejoin="round" stroke-miterlimit="10" fill="#40498E" fill-rule="evenodd"/><path d="M2266 1240 2273 1232.75 2280 1240 2287 1232.75 2280 1225.5 2287 1218.25 2280 1211 2273 1218.25 2266 1211 2259 1218.25 2266 1225.5 2259 1232.75Z" stroke="#FFFFFF" stroke-width="2.06358" stroke-linejoin="round" stroke-miterlimit="10" fill="#40498E" fill-rule="evenodd"/><path d="M2177.5 878C2181.35 878 2185.03 876.473 2187.75 873.753 2190.47 871.034 2192 867.346 2192 863.5 2192 859.655 2190.47 855.966 2187.75 853.247 2185.03 850.528 2181.35 849 2177.5 849 2173.65 849 2169.97 850.528 2167.25 853.247 2164.53 855.966 2163 859.655 2163 863.5 2163 867.346 2164.53 871.034 2167.25 873.753 2169.97 876.473 2173.65 878 2177.5 878Z" stroke="#FFFFFF" stroke-width="2.06358" stroke-linejoin="round" stroke-miterlimit="10" fill="#40498E" fill-rule="evenodd"/><path d="M2164 961.001 2171 954 2178 961.001 2185 954 2178 947 2185 940 2178 933 2171 940 2164 933 2157 940 2164 947 2157 954Z" stroke="#FFFFFF" stroke-width="2.06358" stroke-linejoin="round" stroke-miterlimit="10" fill="#40498E" fill-rule="evenodd"/><path d="M2218.5 955C2222.35 955 2226.04 953.525 2228.75 950.9 2231.47 948.274 2233 944.713 2233 941 2233 937.287 2231.47 933.726 2228.75 931.101 2226.04 928.475 2222.35 927 2218.5 927 2214.66 927 2210.97 928.475 2208.25 931.101 2205.53 933.726 2204 937.287 2204 941 2204 944.713 2205.53 948.274 2208.25 950.9 2210.97 953.525 2214.66 955 2218.5 955Z" stroke="#FFFFFF" stroke-width="2.06358" stroke-linejoin="round" stroke-miterlimit="10" fill="#40498E" fill-rule="evenodd"/><path d="M2266 1090 2273 1083 2280 1090 2287 1083 2280 1076 2287 1069 2280 1062 2273 1069 2266 1062 2259 1069 2266 1076 2259 1083Z" stroke="#FFFFFF" stroke-width="2.06358" stroke-linejoin="round" stroke-miterlimit="10" fill="#40498E" fill-rule="evenodd"/><path d="M2157 997C2160.71 997 2164.27 995.472 2166.9 992.753 2169.53 990.034 2171 986.345 2171 982.5 2171 978.655 2169.53 974.966 2166.9 972.247 2164.27 969.528 2160.71 968 2157 968 2153.29 968 2149.73 969.528 2147.1 972.247 2144.48 974.966 2143 978.655 2143 982.5 2143 986.345 2144.48 990.034 2147.1 992.753 2149.73 995.472 2153.29 997 2157 997Z" stroke="#FFFFFF" stroke-width="2.06358" stroke-linejoin="round" stroke-miterlimit="10" fill="#0B0405" fill-rule="evenodd"/><path d="M2129.25 939.001 2136.5 932 2143.75 939.001 2151 932 2143.75 925 2151 918 2143.75 911 2136.5 918 2129.25 911 2122 918 2129.25 925 2122 932Z" stroke="#FFFFFF" stroke-width="2.06358" stroke-linejoin="round" stroke-miterlimit="10" fill="#0B0405" fill-rule="evenodd"/><path d="M2096 809C2099.71 809 2103.27 807.472 2105.9 804.753 2108.52 802.034 2110 798.346 2110 794.5 2110 790.654 2108.52 786.966 2105.9 784.247 2103.27 781.528 2099.71 780 2096 780 2092.29 780 2088.73 781.528 2086.1 784.247 2083.47 786.966 2082 790.654 2082 794.5 2082 798.346 2083.47 802.034 2086.1 804.753 2088.73 807.472 2092.29 809 2096 809Z" stroke="#FFFFFF" stroke-width="2.06358" stroke-linejoin="round" stroke-miterlimit="10" fill="#0B0405" fill-rule="evenodd"/><path d="M2089 888 2096 881 2103 888 2110 881 2103 874 2110 867 2103 860 2096 867 2089 860 2082 867 2089 874 2082 881Z" stroke="#FFFFFF" stroke-width="2.06358" stroke-linejoin="round" stroke-miterlimit="10" fill="#0B0405" fill-rule="evenodd"/><path d="M2136.5 801C2140.35 801 2144.03 799.473 2146.75 796.753 2149.47 794.034 2151 790.346 2151 786.5 2151 782.655 2149.47 778.966 2146.75 776.247 2144.03 773.528 2140.35 772 2136.5 772 2132.65 772 2128.97 773.528 2126.25 776.247 2123.53 778.966 2122 782.655 2122 786.5 2122 790.346 2123.53 794.034 2126.25 796.753 2128.97 799.473 2132.65 801 2136.5 801Z" stroke="#FFFFFF" stroke-width="2.06358" stroke-linejoin="round" stroke-miterlimit="10" fill="#0B0405" fill-rule="evenodd"/><path d="M2177.25 809 2184.5 801.75 2191.75 809 2199 801.75 2191.75 794.5 2199 787.25 2191.75 780 2184.5 787.25 2177.25 780 2170 787.25 2177.25 794.5 2170 801.75Z" stroke="#FFFFFF" stroke-width="2.06358" stroke-linejoin="round" stroke-miterlimit="10" fill="#0B0405" fill-rule="evenodd"/><path d="M2245.5 1059C2249.35 1059 2253.04 1057.52 2255.75 1054.9 2258.47 1052.27 2260 1048.71 2260 1045 2260 1041.29 2258.47 1037.72 2255.75 1035.1 2253.04 1032.47 2249.35 1031 2245.5 1031 2241.66 1031 2237.97 1032.47 2235.25 1035.1 2232.53 1037.72 2231 1041.29 2231 1045 2231 1048.71 2232.53 1052.27 2235.25 1054.9 2237.97 1057.52 2241.66 1059 2245.5 1059Z" stroke="#FFFFFF" stroke-width="2.06358" stroke-linejoin="round" stroke-miterlimit="10" fill="#0B0405" fill-rule="evenodd"/><path d="M2150 1227 2157 1220 2164 1227 2171 1220 2164 1213 2171 1206 2164 1199 2157 1206 2150 1199 2143 1206 2150 1213 2143 1220Z" stroke="#FFFFFF" stroke-width="2.06358" stroke-linejoin="round" stroke-miterlimit="10" fill="#0B0405" fill-rule="evenodd"/><path d="M2184.5 916C2188.35 916 2192.03 914.525 2194.75 911.9 2197.47 909.274 2199 905.713 2199 902 2199 898.287 2197.47 894.726 2194.75 892.101 2192.03 889.475 2188.35 888 2184.5 888 2180.65 888 2176.97 889.475 2174.25 892.101 2171.53 894.726 2170 898.287 2170 902 2170 905.713 2171.53 909.274 2174.25 911.9 2176.97 914.525 2180.65 916 2184.5 916Z" stroke="#FFFFFF" stroke-width="2.06358" stroke-linejoin="round" stroke-miterlimit="10" fill="#0B0405" fill-rule="evenodd"/><path d="M2116 881 2123 874 2130 881 2137 874 2130 867 2137 860 2130 853 2123 860 2116 853 2109 860 2116 867 2109 874Z" stroke="#FFFFFF" stroke-width="2.06358" stroke-linejoin="round" stroke-miterlimit="10" fill="#0B0405" fill-rule="evenodd"/><path d="M2164 1120C2167.71 1120 2171.27 1118.53 2173.9 1115.9 2176.53 1113.27 2178 1109.71 2178 1106 2178 1102.29 2176.53 1098.73 2173.9 1096.1 2171.27 1093.47 2167.71 1092 2164 1092 2160.29 1092 2156.73 1093.47 2154.1 1096.1 2151.48 1098.73 2150 1102.29 2150 1106 2150 1109.71 2151.48 1113.27 2154.1 1115.9 2156.73 1118.53 2160.29 1120 2164 1120Z" stroke="#FFFFFF" stroke-width="2.06358" stroke-linejoin="round" stroke-miterlimit="10" fill="#0B0405" fill-rule="evenodd"/><path d="M2177.25 1063 2184.5 1056 2191.75 1063 2199 1056 2191.75 1049 2199 1042 2191.75 1035 2184.5 1042 2177.25 1035 2170 1042 2177.25 1049 2170 1056Z" stroke="#FFFFFF" stroke-width="2.06358" stroke-linejoin="round" stroke-miterlimit="10" fill="#0B0405" fill-rule="evenodd"/><path d="M2157 859C2160.71 859 2164.27 857.473 2166.9 854.753 2169.53 852.034 2171 848.346 2171 844.5 2171 840.655 2169.53 836.966 2166.9 834.247 2164.27 831.528 2160.71 830 2157 830 2153.29 830 2149.73 831.528 2147.1 834.247 2144.48 836.966 2143 840.655 2143 844.5 2143 848.346 2144.48 852.034 2147.1 854.753 2149.73 857.473 2153.29 859 2157 859Z" stroke="#FFFFFF" stroke-width="2.06358" stroke-linejoin="round" stroke-miterlimit="10" fill="#0B0405" fill-rule="evenodd"/><path d="M2143.25 876 2150.5 869 2157.75 876 2165 869 2157.75 862 2165 855 2157.75 848 2150.5 855 2143.25 848 2136 855 2143.25 862 2136 869Z" stroke="#FFFFFF" stroke-width="2.06358" stroke-linejoin="round" stroke-miterlimit="10" fill="#0B0405" fill-rule="evenodd"/><path d="M2136.5 977C2140.35 977 2144.03 975.473 2146.75 972.753 2149.47 970.034 2151 966.346 2151 962.5 2151 958.655 2149.47 954.966 2146.75 952.247 2144.03 949.528 2140.35 948 2136.5 948 2132.65 948 2128.97 949.528 2126.25 952.247 2123.53 954.966 2122 958.655 2122 962.5 2122 966.346 2123.53 970.034 2126.25 972.753 2128.97 975.473 2132.65 977 2136.5 977Z" stroke="#FFFFFF" stroke-width="2.06358" stroke-linejoin="round" stroke-miterlimit="10" fill="#0B0405" fill-rule="evenodd"/><path d="M2150 886 2157 879 2164 886 2171 879 2164 872 2171 865 2164 858 2157 865 2150 858 2143 865 2150 872 2143 879Z" stroke="#FFFFFF" stroke-width="2.06358" stroke-linejoin="round" stroke-miterlimit="10" fill="#0B0405" fill-rule="evenodd"/><path d="M2198 970C2201.71 970 2205.27 968.473 2207.9 965.753 2210.53 963.034 2212 959.345 2212 955.5 2212 951.654 2210.53 947.966 2207.9 945.247 2205.27 942.528 2201.71 941 2198 941 2194.29 941 2190.73 942.528 2188.1 945.247 2185.48 947.966 2184 951.654 2184 955.5 2184 959.345 2185.48 963.034 2188.1 965.753 2190.73 968.473 2194.29 970 2198 970Z" stroke="#FFFFFF" stroke-width="2.06358" stroke-linejoin="round" stroke-miterlimit="10" fill="#0B0405" fill-rule="evenodd"/><path d="M2198 1103 2205 1096 2212 1103 2219 1096 2212 1089 2219 1082 2212 1075 2205 1082 2198 1075 2191 1082 2198 1089 2191 1096Z" stroke="#FFFFFF" stroke-width="2.06358" stroke-linejoin="round" stroke-miterlimit="10" fill="#0B0405" fill-rule="evenodd"/><path d="M2157 856C2160.71 856 2164.27 854.525 2166.9 851.9 2169.53 849.274 2171 845.713 2171 842 2171 838.287 2169.53 834.726 2166.9 832.101 2164.27 829.475 2160.71 828 2157 828 2153.29 828 2149.73 829.475 2147.1 832.101 2144.48 834.726 2143 838.287 2143 842 2143 845.713 2144.48 849.274 2147.1 851.9 2149.73 854.525 2153.29 856 2157 856Z" stroke="#FFFFFF" stroke-width="2.06358" stroke-linejoin="round" stroke-miterlimit="10" fill="#0B0405" fill-rule="evenodd"/><path d="M2150 805 2157 797.75 2164 805 2171 797.75 2164 790.5 2171 783.25 2164 776 2157 783.25 2150 776 2143 783.25 2150 790.5 2143 797.75Z" stroke="#FFFFFF" stroke-width="2.06358" stroke-linejoin="round" stroke-miterlimit="10" fill="#0B0405" fill-rule="evenodd"/><path d="M2177.5 1145C2181.35 1145 2185.03 1143.53 2187.75 1140.9 2190.47 1138.27 2192 1134.71 2192 1131 2192 1127.29 2190.47 1123.73 2187.75 1121.1 2185.03 1118.47 2181.35 1117 2177.5 1117 2173.65 1117 2169.97 1118.47 2167.25 1121.1 2164.53 1123.73 2163 1127.29 2163 1131 2163 1134.71 2164.53 1138.27 2167.25 1140.9 2169.97 1143.53 2173.65 1145 2177.5 1145Z" stroke="#FFFFFF" stroke-width="2.06358" stroke-linejoin="round" stroke-miterlimit="10" fill="#0B0405" fill-rule="evenodd"/><path d="M2198 895 2205 887.75 2212 895 2219 887.75 2212 880.5 2219 873.25 2212 866 2205 873.25 2198 866 2191 873.25 2198 880.5 2191 887.75Z" stroke="#FFFFFF" stroke-width="2.06358" stroke-linejoin="round" stroke-miterlimit="10" fill="#0B0405" fill-rule="evenodd"/><path d="M2123 945C2126.71 945 2130.27 943.525 2132.9 940.9 2135.53 938.274 2137 934.713 2137 931 2137 927.287 2135.53 923.726 2132.9 921.101 2130.27 918.475 2126.71 917 2123 917 2119.29 917 2115.73 918.475 2113.1 921.101 2110.48 923.726 2109 927.287 2109 931 2109 934.713 2110.48 938.274 2113.1 940.9 2115.73 943.525 2119.29 945 2123 945Z" stroke="#FFFFFF" stroke-width="2.06358" stroke-linejoin="round" stroke-miterlimit="10" fill="#0B0405" fill-rule="evenodd"/><path d="M2143.25 942 2150.5 934.75 2157.75 942 2165 934.75 2157.75 927.5 2165 920.25 2157.75 913 2150.5 920.25 2143.25 913 2136 920.25 2143.25 927.5 2136 934.75Z" stroke="#FFFFFF" stroke-width="2.06358" stroke-linejoin="round" stroke-miterlimit="10" fill="#0B0405" fill-rule="evenodd"/><path d="M2171 1022C2174.71 1022 2178.27 1020.53 2180.9 1017.9 2183.52 1015.27 2185 1011.71 2185 1008 2185 1004.29 2183.52 1000.73 2180.9 998.101 2178.27 995.475 2174.71 994 2171 994 2167.29 994 2163.73 995.475 2161.1 998.101 2158.48 1000.73 2157 1004.29 2157 1008 2157 1011.71 2158.48 1015.27 2161.1 1017.9 2163.73 1020.53 2167.29 1022 2171 1022Z" stroke="#FFFFFF" stroke-width="2.06358" stroke-linejoin="round" stroke-miterlimit="10" fill="#0B0405" fill-rule="evenodd"/><path d="M2164 1141 2171 1133.75 2178 1141 2185 1133.75 2178 1126.5 2185 1119.25 2178 1112 2171 1119.25 2164 1112 2157 1119.25 2164 1126.5 2157 1133.75Z" stroke="#FFFFFF" stroke-width="2.06358" stroke-linejoin="round" stroke-miterlimit="10" fill="#0B0405" fill-rule="evenodd"/><path d="M2157 836C2160.71 836 2164.27 834.525 2166.9 831.9 2169.53 829.274 2171 825.713 2171 822 2171 818.287 2169.53 814.726 2166.9 812.101 2164.27 809.475 2160.71 808 2157 808 2153.29 808 2149.73 809.475 2147.1 812.101 2144.48 814.726 2143 818.287 2143 822 2143 825.713 2144.48 829.274 2147.1 831.9 2149.73 834.525 2153.29 836 2157 836Z" stroke="#FFFFFF" stroke-width="2.06358" stroke-linejoin="round" stroke-miterlimit="10" fill="#0B0405" fill-rule="evenodd"/><path d="M2136.25 948 2143.5 941 2150.75 948 2158 941 2150.75 934 2158 927 2150.75 920 2143.5 927 2136.25 920 2129 927 2136.25 934 2129 941Z" stroke="#FFFFFF" stroke-width="2.06358" stroke-linejoin="round" stroke-miterlimit="10" fill="#0B0405" fill-rule="evenodd"/><path d="M2245.5 908C2249.35 908 2253.04 906.472 2255.75 903.753 2258.47 901.034 2260 897.345 2260 893.5 2260 889.654 2258.47 885.966 2255.75 883.247 2253.04 880.528 2249.35 879 2245.5 879 2241.66 879 2237.97 880.528 2235.25 883.247 2232.53 885.966 2231 889.654 2231 893.5 2231 897.345 2232.53 901.034 2235.25 903.753 2237.97 906.472 2241.66 908 2245.5 908Z" stroke="#FFFFFF" stroke-width="2.06358" stroke-linejoin="round" stroke-miterlimit="10" fill="#0B0405" fill-rule="evenodd"/><path d="M2272.25 944 2279.5 936.75 2286.75 944 2294 936.75 2286.75 929.5 2294 922.25 2286.75 915 2279.5 922.25 2272.25 915 2265 922.25 2272.25 929.5 2265 936.75Z" stroke="#FFFFFF" stroke-width="2.06358" stroke-linejoin="round" stroke-miterlimit="10" fill="#0B0405" fill-rule="evenodd"/><path d="M2164 1033 2164 1169.44 2173.28 1171.94 2182.57 1174.69 2191.85 1177.42 2201.13 1179.66 2210.41 1181.89 2219.7 1184.29 2228.98 1187.02 2238.26 1189.74 2247.54 1192.47 2256.83 1195.18 2266.11 1197.9 2275.39 1200.63 2284.68 1202.69 2293.96 1204.47 2303.24 1207.26 2312.52 1210.06 2321.81 1213.08 2331.09 1216.1 2340.37 1218.84 2349.66 1222.14 2358.94 1225.19 2368.22 1228.18 2377.51 1230.8 2386.79 1233.76 2396.07 1236.54 2405.35 1239.13 2414.64 1241.76 2423.92 1244.64 2433.2 1247.34 2442.48 1250.54 2451.77 1253.35 2461.05 1257.05 2470.33 1259.97 2479.61 1263.09 2488.9 1266.45 2498.18 1269.62 2507.47 1272.53 2516.75 1276.09 2526.03 1279.1 2535.31 1282.53 2544.6 1286.03 2553.88 1289.29 2563.16 1293.03 2572.44 1296.99 2581.73 1300.42 2591.01 1304.39 2600.29 1308.2 2609.58 1312.28 2618.86 1316.3 2628.14 1320.46 2637.42 1324.11 2646.71 1327.07 2655.99 1330.32 2665.27 1334.46 2674.55 1337.67 2683.84 1342.66 2693.12 1347.79 2702.4 1351.56 2711.68 1355.35 2720.97 1359.13 2730.25 1363.66 2739.54 1367.94 2748.82 1371.93 2758.1 1376.29 2767.38 1381.3 2776.67 1384.93 2785.95 1389.05 2795.23 1393.47 2804.51 1397.9 2813.8 1402.17 2823.08 1406.27 2832.36 1410.35 2841.65 1414.43 2850.93 1418.52 2860.21 1422.46 2869.49 1426.69 2878.78 1430.8 2888.06 1435.64 2897.34 1440.17 2906.62 1444.25 2915.91 1449.4 2925.19 1454.25 2934.47 1458.29 2943.76 1462.33 2953.04 1466.38 2962.32 1470.43 2971.61 1475.14 2980.89 1479.6 2990.17 1483.75 2999.45 1487.9 3008.74 1492.04 3018.02 1496.18 3027.3 1500.66 3036.58 1505.36 3045.87 1510.07 3055.15 1514.12 3064.44 1518.12 3073.72 1522.12 3083 1527 3083 1375.73 3083 1375.73 3073.72 1372.92 3064.44 1370.54 3055.15 1368.29 3045.87 1365.48 3036.58 1362.94 3027.3 1360 3018.02 1357.59 3008.74 1354.48 2999.45 1352.12 2990.17 1349.94 2980.89 1347.31 2971.61 1344.67 2962.32 1342.04 2953.04 1339.22 2943.76 1336.63 2934.47 1333.6 2925.19 1330.94 2915.91 1328.11 2906.62 1325.14 2897.34 1322.32 2888.06 1319.49 2878.78 1316.68 2869.49 1314.16 2860.21 1311.04 2850.93 1308 2841.65 1305.01 2832.36 1301.84 2823.08 1298.76 2813.8 1296.73 2804.51 1293.53 2795.23 1290.24 2785.95 1286.86 2776.67 1283.37 2767.38 1280.27 2758.1 1277.07 2748.82 1274.01 2739.54 1271.05 2730.25 1267.97 2720.97 1265.06 2711.68 1261.81 2702.4 1258.89 2693.12 1255.64 2683.84 1252.57 2674.55 1250.32 2665.27 1246.92 2655.99 1243.67 2646.71 1240.25 2637.42 1237.17 2628.14 1233.82 2618.86 1230.25 2609.58 1226.52 2600.29 1222.89 2591.01 1219.29 2581.73 1216.01 2572.44 1212.68 2563.16 1208.91 2553.88 1205.2 2544.6 1201.63 2535.31 1197.95 2526.03 1194.31 2516.75 1190.87 2507.47 1187.29 2498.18 1182.69 2488.9 1178.89 2479.61 1175.41 2470.33 1172.08 2461.05 1168.34 2451.77 1164.87 2442.48 1161.07 2433.2 1157.08 2423.92 1153.6 2414.64 1149.56 2405.35 1145.29 2396.07 1140.77 2386.79 1136.53 2377.51 1132.43 2368.22 1128.34 2358.94 1124.25 2349.66 1120.17 2340.37 1116.34 2331.09 1112.54 2321.81 1108.44 2312.52 1103.97 2303.24 1099.71 2293.96 1095.62 2284.68 1091.49 2275.39 1086.78 2266.11 1082.45 2256.83 1078.91 2247.54 1074.63 2238.26 1070.27 2228.98 1065.9 2219.7 1061.54 2210.41 1057.02 2201.13 1052.09 2191.85 1046.95 2182.57 1042.25 2173.28 1037.72 2164 1033Z" fill="#40498E" fill-rule="evenodd" fill-opacity="0.14902"/><path d="M2096 823 2096 949.153 2097.86 949.395 2099.72 949.468 2101.58 949.541 2103.43 949.776 2105.29 950.368 2107.15 950.345 2109.01 950.917 2110.87 951.583 2112.73 951.951 2114.59 952.255 2116.44 952.093 2118.3 952.447 2120.16 952.167 2122.02 952.467 2123.88 952.684 2125.74 953.835 2127.6 956.001 2129.45 956.617 2131.31 956.695 2133.17 958.247 2135.03 959.799 2136.89 961.041 2138.75 961.719 2140.61 962.581 2142.46 963.062 2144.32 964.171 2146.18 964.59 2148.04 966.081 2149.9 967.468 2151.76 969.029 2153.62 969.729 2155.47 970.187 2157.33 971.198 2159.19 973.32 2161.05 975.004 2162.91 976.219 2164.77 976.977 2166.63 979.164 2168.48 981.292 2170.34 983.124 2172.2 985.589 2174.06 988.094 2175.92 990.593 2177.78 993.242 2179.64 995.875 2181.49 998.478 2183.35 1001.1 2185.21 1003.87 2187.07 1006.94 2188.93 1009.41 2190.79 1013.04 2192.65 1016.1 2194.5 1019.17 2196.36 1021.72 2198.22 1024.22 2200.08 1027.24 2201.94 1030.43 2203.8 1033.61 2205.66 1037.16 2207.51 1040.11 2209.37 1043.17 2211.23 1046.36 2213.09 1049.55 2214.95 1052.73 2216.81 1055.92 2218.67 1058.99 2220.52 1062.06 2222.38 1065.07 2224.24 1068 2226.1 1070.98 2227.96 1073.83 2229.82 1076.7 2231.68 1079.55 2233.53 1082.51 2235.39 1086.02 2237.25 1089.53 2239.11 1092.7 2240.97 1095.82 2242.83 1099.2 2244.68 1102.57 2246.55 1105.94 2248.4 1109.3 2250.26 1112.56 2252.12 1115.51 2253.98 1118.53 2255.84 1120.94 2257.7 1123.36 2259.55 1126.42 2261.41 1129.49 2263.27 1132.55 2265.13 1135.74 2266.99 1139.23 2268.85 1142.71 2270.7 1145.83 2272.57 1148.86 2274.42 1151.9 2276.28 1155.19 2278.14 1158.6 2280 1162 2280 945.424 2280 945.424 2278.14 944.887 2276.28 944.35 2274.42 943.813 2272.57 943.283 2270.7 942.817 2268.85 942.793 2266.99 942.048 2265.13 941.751 2263.27 941.568 2261.41 940.843 2259.55 940.376 2257.7 939.775 2255.84 938.787 2253.98 938.655 2252.12 938.436 2250.26 937.799 2248.4 937.169 2246.55 936.619 2244.68 936.084 2242.83 935.515 2240.97 934.963 2239.11 934.331 2237.25 933.79 2235.39 933.308 2233.53 932.755 2231.68 932.201 2229.82 931.612 2227.96 930.84 2226.1 930.067 2224.24 929.456 2222.38 929.246 2220.52 928.772 2218.67 928.19 2216.81 927.61 2214.95 927.245 2213.09 926.693 2211.23 926.12 2209.37 925.584 2207.51 925.278 2205.66 924.841 2203.8 923.94 2201.94 923.317 2200.08 922.81 2198.22 922.163 2196.36 920.949 2194.5 919.721 2192.65 918.512 2190.79 916.908 2188.93 916.066 2187.07 914.85 2185.21 914.009 2183.35 913.312 2181.49 911.953 2179.64 911.138 2177.78 909.891 2175.92 908.312 2174.06 907.256 2172.2 906.266 2170.34 905.266 2168.48 904.982 2166.63 903.393 2164.77 901.861 2162.91 900.897 2161.05 899.716 2159.19 898.28 2157.33 896.615 2155.47 894.716 2153.62 892.821 2151.76 890.922 2149.9 889.029 2148.04 887.315 2146.18 885.598 2144.32 884.102 2142.46 882.588 2140.61 881.403 2138.75 879.568 2136.89 877.666 2135.03 876.053 2133.17 874.279 2131.31 872.815 2129.45 871.204 2127.6 868.667 2125.74 865.995 2123.88 864.189 2122.02 862.16 2120.16 859.718 2118.3 857.226 2116.44 854.832 2114.59 851.931 2112.73 848.915 2110.87 846.109 2109.01 844.268 2107.15 842.033 2105.29 839.221 2103.43 835.628 2101.58 832.385 2099.72 830.029 2097.86 827.046 2096 823Z" fill="#0B0405" fill-rule="evenodd" fill-opacity="0.14902"/><path d="M2164.54 1565.59 2164.54 1577.59" stroke="#000000" stroke-width="2.66447" stroke-linejoin="round" stroke-miterlimit="10" fill="none" fill-rule="evenodd"/><path d="M7.79368 25.2474C10.983 25.2474 13.2899 23.8975 14.7138 21.1977 15.8149 19.1124 16.3656 16.2563 16.3656 12.629 16.3656 9.18629 15.8663 6.33957 14.8682 4.08846 13.4218 0.860872 11.0584-0.753116 7.77729-0.753116 4.81898-0.753116 2.61682 0.5666 1.17082 3.20603-0.0331581 5.41209-0.634959 8.37009-0.634959 12.0804-0.634959 14.9534-0.27365 17.4216 0.449731 19.4838 1.80388 23.3262 4.25186 25.2474 7.79368 25.2474ZM7.76052 2.14846C9.36812 2.14846 10.6472 2.87806 11.5977 4.33727 12.5486 5.8004 13.0239 8.52291 13.0239 12.5044 13.0239 15.3777 12.6786 17.7421 11.9887 19.5971 11.3023 21.456 9.96839 22.3854 7.98653 22.3854 6.16245 22.3854 4.82812 21.503 3.98393 19.7385 3.13973 17.9776 2.71782 15.3832 2.71782 11.9558 2.71782 9.37672 2.98766 7.30272 3.52695 5.73418 4.35286 3.34357 5.76417 2.14846 7.76052 2.14846Z" fill-rule="evenodd" transform="matrix(1 0 0 -1 2140 1617)"/><path d="M-0.335465 3.96676 3.66467 3.96676 3.66467-0.0337787-0.335465-0.0337787-0.335465 3.96676Z" fill-rule="evenodd" transform="matrix(1 0 0 -1 2162 1617)"/><path d="M8.2552 25.2474C11.6324 25.2474 14.0746 23.8975 15.5827 21.1977 16.7485 19.1124 17.3312 16.2563 17.3312 12.629 17.3312 9.18629 16.8026 6.33957 15.7457 4.08846 14.2147 0.860872 11.7119-0.753116 8.23785-0.753116 5.10558-0.753116 2.77393 0.5666 1.2429 3.20603-0.0314761 5.41209-0.669068 8.37009-0.669068 12.0804-0.669068 14.9534-0.286109 17.4216 0.479405 19.4838 1.91318 23.3262 4.50552 25.2474 8.2552 25.2474ZM8.2205 2.14846C9.92263 2.14846 11.2769 2.87806 12.2833 4.33727 13.2898 5.8004 13.793 8.52291 13.793 12.5044 13.793 15.3777 13.4278 17.7421 12.697 19.5971 11.9706 21.456 10.5578 22.3854 8.45939 22.3854 6.52805 22.3854 5.11526 21.503 4.22142 19.7385 3.32799 17.9776 2.88087 15.3832 2.88087 11.9558 2.88087 9.37672 3.16657 7.30272 3.73798 5.73418 4.61205 3.34357 6.10636 2.14846 8.2205 2.14846Z" fill-rule="evenodd" transform="matrix(1 0 0 -1 2170 1617)"/><path d="M2334.56 1565.59 2334.56 1577.59" stroke="#000000" stroke-width="2.66447" stroke-linejoin="round" stroke-miterlimit="10" fill="none" fill-rule="evenodd"/><path d="M8.27054 25.2474C11.6478 25.2474 14.09 23.8975 15.598 21.1977 16.7638 19.1124 17.3465 16.2563 17.3465 12.629 17.3465 9.18629 16.8179 6.33957 15.761 4.08846 14.23 0.860872 11.7273-0.753116 8.25319-0.753116 5.12091-0.753116 2.78926 0.5666 1.25824 3.20603-0.0165451 5.41209-0.653734 8.37009-0.653734 12.0804-0.653734 14.9534-0.270775 17.4216 0.494739 19.4838 1.92851 23.3262 4.52045 25.2474 8.27054 25.2474ZM8.23583 2.14846C9.93796 2.14846 11.2922 2.87806 12.2987 4.33727 13.3051 5.8004 13.8083 8.52291 13.8083 12.5044 13.8083 15.3777 13.4431 17.7421 12.7123 19.5971 11.9855 21.456 10.5731 22.3854 8.47473 22.3854 6.54339 22.3854 5.1306 21.503 4.23676 19.7385 3.34332 17.9776 2.8962 15.3832 2.8962 11.9558 2.8962 9.37672 3.18191 7.30272 3.75332 5.73418 4.62738 3.34357 6.12169 2.14846 8.23583 2.14846Z" fill-rule="evenodd" transform="matrix(1 0 0 -1 2310 1617)"/><path d="M-0.315956 3.96676 3.68418 3.96676 3.68418-0.0337787-0.315956-0.0337787-0.315956 3.96676Z" fill-rule="evenodd" transform="matrix(1 0 0 -1 2332 1617)"/><path d="M2.61042 6.4707C2.81625 4.61953 3.63802 3.34032 5.07612 2.63386 5.81159 2.27265 6.66085 2.09224 7.62429 2.09224 9.46297 2.09224 10.8235 2.7049 11.706 3.92983 12.5923 5.15516 13.0357 6.51101 13.0357 7.99737 13.0357 9.79864 12.5099 11.1908 11.4578 12.1743 10.4062 13.1613 9.14488 13.655 7.67394 13.655 6.60777 13.655 5.69206 13.4379 4.92719 13.0037 4.16232 12.5738 3.50933 11.9743 2.96899 11.2064L0.282579 11.3676 2.15791 25.2466 14.9828 25.2466 14.9828 22.1122 4.48575 22.1122 3.43792 14.951C4.01148 15.4044 4.55755 15.7461 5.07612 15.9768 5.99526 16.3723 7.05799 16.5699 8.2643 16.5699 10.5257 16.5699 12.4434 15.8075 14.0175 14.2829 15.5949 12.7582 16.3839 10.826 16.3839 8.4871 16.3839 6.04802 15.661 3.89751 14.216 2.03437 12.7745 0.175617 10.4741-0.753957 7.31537-0.753957 5.30409-0.753957 3.52422-0.162446 1.97615 1.02058 0.431506 2.2036-0.432652 4.02004-0.616328 6.4707L2.61042 6.4707Z" fill-rule="evenodd" transform="matrix(1 0 0 -1 2341 1617)"/><path d="M2504.58 1565.59 2504.58 1577.59" stroke="#000000" stroke-width="2.66447" stroke-linejoin="round" stroke-miterlimit="10" fill="none" fill-rule="evenodd"/><path d="M-0.531472 17.6931-0.531472 20.2078C1.92444 20.4374 3.63654 20.8227 4.60442 21.3631 5.57648 21.9076 6.30228 23.1879 6.78224 25.2026L9.4685 25.2026 9.4685-0.79756 5.83865-0.79756 5.83865 17.6931-0.531472 17.6931Z" fill-rule="evenodd" transform="matrix(1 0 0 -1 2482 1617)"/><path d="M-0.222336 3.96676 2.77808 3.96676 2.77808-0.0337787-0.222336-0.0337787-0.222336 3.96676Z" fill-rule="evenodd" transform="matrix(1 0 0 -1 2503 1617)"/><path d="M7.83201 25.2474C11.0212 25.2474 13.3281 23.8975 14.752 21.1977 15.853 19.1124 16.4038 16.2563 16.4038 12.629 16.4038 9.18629 15.9045 6.33957 14.9063 4.08846 13.46 0.860872 11.0967-0.753116 7.81562-0.753116 4.85737-0.753116 2.65526 0.5666 1.20929 3.20603 0.00533567 5.41209-0.596452 8.37009-0.596452 12.0804-0.596452 14.9534-0.235151 17.4216 0.487833 19.4838 1.84233 23.3262 4.29026 25.2474 7.83201 25.2474ZM7.79885 2.14846C9.40641 2.14846 10.6854 2.87806 11.636 4.33727 12.5869 5.8004 13.0621 8.52291 13.0621 12.5044 13.0621 15.3777 12.7168 17.7421 12.027 19.5971 11.3406 21.456 10.0067 22.3854 8.02485 22.3854 6.20081 22.3854 4.86652 21.503 4.02234 19.7385 3.17816 17.9776 2.75626 15.3832 2.75626 11.9558 2.75626 9.37672 3.02609 7.30272 3.56537 5.73418 4.39126 3.34357 5.80254 2.14846 7.79885 2.14846Z" fill-rule="evenodd" transform="matrix(1 0 0 -1 2511 1617)"/><path d="M2675.57 1565.59 2675.57 1577.59" stroke="#000000" stroke-width="2.66447" stroke-linejoin="round" stroke-miterlimit="10" fill="none" fill-rule="evenodd"/><path d="M-0.460984 17.6931-0.460984 20.2078C1.74933 20.4374 3.29021 20.8227 4.16167 21.3631 5.03615 21.9076 5.68974 23.1879 6.1217 25.2026L8.53895 25.2026 8.53895-0.79756 5.27211-0.79756 5.27211 17.6931-0.460984 17.6931Z" fill-rule="evenodd" transform="matrix(1 0 0 -1 2653 1617)"/><path d="M-0.276939 3.96676 3.72362 3.96676 3.72362-0.0337787-0.276939-0.0337787-0.276939 3.96676Z" fill-rule="evenodd" transform="matrix(1 0 0 -1 2673 1617)"/><path d="M2.80118 6.4707C3.01951 4.61953 3.88962 3.34032 5.41192 2.63386 6.19065 2.27265 7.09028 2.09224 8.11039 2.09224 10.0572 2.09224 11.4978 2.7049 12.4322 3.92983 13.3707 5.15516 13.8397 6.51101 13.8397 7.99737 13.8397 9.79864 13.2829 11.1908 12.1694 12.1743 11.0559 13.1613 9.72042 13.655 8.16296 13.655 7.03367 13.655 6.0641 13.4379 5.25423 13.0037 4.44436 12.5738 3.75337 11.9743 3.18084 11.2064L0.336804 11.3676 2.32245 25.2466 15.9014 25.2466 15.9014 22.1122 4.78723 22.1122 3.67735 14.951C4.28465 15.4044 4.86284 15.7461 5.41192 15.9768 6.38553 16.3723 7.51078 16.5699 8.78764 16.5699 11.1825 16.5699 13.213 15.8075 14.8792 14.2829 16.5499 12.7582 17.3848 10.826 17.3848 8.4871 17.3848 6.04802 16.6199 3.89751 15.0895 2.03437 13.5636 0.175617 11.1279-0.753957 7.78329-0.753957 5.6533-0.753957 3.76873-0.162446 2.12959 1.02058 0.494492 2.2036-0.4205 4.02004-0.615386 6.4707L2.80118 6.4707Z" fill-rule="evenodd" transform="matrix(1 0 0 -1 2681 1617)"/><path d="M2845.62 1565.59 2845.62 1577.59" stroke="#000000" stroke-width="2.66447" stroke-linejoin="round" stroke-miterlimit="10" fill="none" fill-rule="evenodd"/><path d="M-0.56448-0.798566C-0.450747 1.43229-0.0133132 3.37355 0.748583 5.02563 1.51048 6.67771 2.99585 8.17899 5.20471 9.52985L8.50144 11.5389C9.97768 12.4458 11.0142 13.2179 11.6114 13.8544 12.549 14.8579 13.018 16.0042 13.018 17.2933 13.018 18.8026 12.5875 19.9991 11.7267 20.883 10.8697 21.7707 9.72664 22.2147 8.29832 22.2147 6.17733 22.2147 4.71212 21.3712 3.90267 19.6846 3.46676 18.7773 3.22484 17.5231 3.17729 15.9216L0.0346144 15.9216C0.0711306 18.1753 0.466723 20.0147 1.22139 21.4386 2.56184 23.9474 4.92627 25.202 8.31467 25.202 11.1279 25.202 13.1846 24.399 14.4852 22.7934 15.7853 21.1879 16.4357 19.4026 16.4357 17.4381 16.4357 15.3657 15.7434 13.5921 14.3585 12.1177 13.5567 11.2609 12.1188 10.2245 10.0454 9.00884L7.6939 7.6307C6.57293 6.98254 5.69197 6.36126 5.05103 5.76684 3.90458 4.72081 3.183 3.55685 2.88631 2.27577L16.3148 2.27577 16.3148-0.798566-0.56448-0.798566Z" fill-rule="evenodd" transform="matrix(1 0 0 -1 2821 1617)"/><path d="M-0.256983 3.96676 3.74279 3.96676 3.74279-0.0337787-0.256983-0.0337787-0.256983 3.96676Z" fill-rule="evenodd" transform="matrix(1 0 0 -1 2843 1617)"/><path d="M8.33026 25.2474C11.7071 25.2474 14.1493 23.8975 15.6573 21.1977 16.8231 19.1124 17.4059 16.2563 17.4059 12.629 17.4059 9.18629 16.8776 6.33957 15.8204 4.08846 14.2893 0.860872 11.7866-0.753116 8.31251-0.753116 5.18064-0.753116 2.84899 0.5666 1.31756 3.20603 0.0431787 5.41209-0.594413 8.37009-0.594413 12.0804-0.594413 14.9534-0.211455 17.4216 0.554059 19.4838 1.98824 23.3262 4.58017 25.2474 8.33026 25.2474ZM8.29515 2.14846C9.99728 2.14846 11.3516 2.87806 12.358 4.33727 13.3644 5.8004 13.8676 8.52291 13.8676 12.5044 13.8676 15.3777 13.5024 17.7421 12.772 19.5971 12.0452 21.456 10.6325 22.3854 8.53405 22.3854 6.60271 22.3854 5.19032 21.503 4.29648 19.7385 3.40264 17.9776 2.95552 15.3832 2.95552 11.9558 2.95552 9.37672 3.24123 7.30272 3.81264 5.73418 4.68711 3.34357 6.18101 2.14846 8.29515 2.14846Z" fill-rule="evenodd" transform="matrix(1 0 0 -1 2851 1617)"/><path d="M3015.64 1565.59 3015.64 1577.59" stroke="#000000" stroke-width="2.66447" stroke-linejoin="round" stroke-miterlimit="10" fill="none" fill-rule="evenodd"/><path d="M-0.57916-0.798566C-0.458736 1.43229 0.00483304 3.37355 0.811549 5.02563 1.61826 6.67771 3.19102 8.17899 5.52981 9.52985L9.02047 11.5389C10.5832 12.4458 11.6811 13.2179 12.313 13.8544 13.3062 14.8579 13.8024 16.0042 13.8024 17.2933 13.8024 18.8026 13.3469 19.9991 12.4354 20.883 11.5276 21.7707 10.3177 22.2147 8.805 22.2147 6.55925 22.2147 5.00784 21.3712 4.15078 19.6846 3.68922 18.7773 3.43348 17.5231 3.38273 15.9216L0.0551773 15.9216C0.0938416 18.1753 0.512706 20.0147 1.31177 21.4386 2.73148 23.9474 5.23499 25.202 8.82232 25.202 11.8011 25.202 13.9788 24.399 15.3558 22.7934 16.7328 21.1879 17.4211 19.4026 17.4211 17.4381 17.4211 15.3657 16.6881 13.5921 15.2221 12.1177 14.3727 11.2609 12.8503 10.2245 10.6553 9.00884L8.16503 7.6307C6.97811 6.98254 6.04533 6.36126 5.36669 5.76684 4.15279 4.72081 3.38877 3.55685 3.07462 2.27577L17.293 2.27577 17.293-0.798566-0.57916-0.798566Z" fill-rule="evenodd" transform="matrix(1 0 0 -1 2991 1617)"/><path d="M-0.237497 3.96676 3.76306 3.96676 3.76306-0.0337787-0.237497-0.0337787-0.237497 3.96676Z" fill-rule="evenodd" transform="matrix(1 0 0 -1 3013 1617)"/><path d="M2.68107 6.4707C2.88689 4.61953 3.70904 3.34032 5.14676 2.63386 5.88223 2.27265 6.7315 2.09224 7.69494 2.09224 9.53361 2.09224 10.8942 2.7049 11.7771 3.92983 12.6634 5.15516 13.1063 6.51101 13.1063 7.99737 13.1063 9.79864 12.5805 11.1908 11.5289 12.1743 10.4768 13.1613 9.21552 13.655 7.74458 13.655 6.67842 13.655 5.76271 13.4379 4.99783 13.0037 4.23296 12.5738 3.58036 11.9743 3.03964 11.2064L0.353224 11.3676 2.22894 25.2466 15.0535 25.2466 15.0535 22.1122 4.5564 22.1122 3.50857 14.951C4.08212 15.4044 4.62819 15.7461 5.14676 15.9768 6.06591 16.3723 7.12863 16.5699 8.33494 16.5699 10.5963 16.5699 12.5144 15.8075 14.0881 14.2829 15.6656 12.7582 16.4545 10.826 16.4545 8.4871 16.4545 6.04802 15.732 3.89751 14.2867 2.03437 12.8451 0.175617 10.5452-0.753957 7.38639-0.753957 5.37473-0.753957 3.59487-0.162446 2.04679 1.02058 0.502151 2.2036-0.362007 4.02004-0.545683 6.4707L2.68107 6.4707Z" fill-rule="evenodd" transform="matrix(1 0 0 -1 3022 1617)"/><path d="M2046.52 1472.59 2034.52 1472.59" stroke="#000000" stroke-width="2.66447" stroke-linejoin="round" stroke-miterlimit="10" fill="none" fill-rule="evenodd"/><path d="M17.2761 2.44109 17.2761-0.559005-0.724201-0.559005-0.724201 2.44109 17.2761 2.44109Z" fill-rule="evenodd" transform="matrix(1 0 0 -1 1940 1478)"/><path d="M-0.531847 16.9985-0.531847 19.417C1.67884 19.6374 3.21973 20.0078 4.09081 20.5278 4.96566 21.0514 5.61888 22.282 6.05084 24.2192L8.46846 24.2192 8.46846-0.780877 5.20162-0.780877 5.20162 16.9985-0.531847 16.9985Z" fill-rule="evenodd" transform="matrix(1 0 0 -1 1963 1485)"/><path d="M8.23462 25.2333C11.6114 25.2333 14.0541 23.8834 15.5617 21.1836 16.7275 19.0987 17.3106 16.2421 17.3106 12.6149 17.3106 9.17218 16.782 6.32547 15.7251 4.07435 14.1937 0.846766 11.6913-0.767222 8.21727-0.767222 5.085-0.767222 2.75335 0.552494 1.22232 3.19193-0.0524601 5.39798-0.689649 8.35598-0.689649 12.0663-0.689649 14.9397-0.307093 17.4075 0.458421 19.4701 1.8926 23.3121 4.48453 25.2333 8.23462 25.2333ZM8.19951 2.13435C9.90164 2.13435 11.2559 2.86396 12.2623 4.32317 13.2692 5.7863 13.7724 8.5088 13.7724 12.4907 13.7724 15.3636 13.4068 17.728 12.6764 19.583 11.9496 21.4419 10.5372 22.3713 8.43841 22.3713 6.50707 22.3713 5.09468 21.4893 4.20084 19.7244 3.307 17.9635 2.86029 15.3695 2.86029 11.9417 2.86029 9.36262 3.14559 7.289 3.717 5.72047 4.59147 3.32985 6.08537 2.13435 8.19951 2.13435Z" fill-rule="evenodd" transform="matrix(1 0 0 -1 1981 1486)"/><path d="M8.23664 25.2333C11.6139 25.2333 14.0561 23.8834 15.5641 21.1836 16.7299 19.0987 17.3126 16.2421 17.3126 12.6149 17.3126 9.17218 16.784 6.32547 15.7271 4.07435 14.1961 0.846766 11.6934-0.767222 8.21929-0.767222 5.08702-0.767222 2.75537 0.552494 1.22434 3.19193-0.0500389 5.39798-0.687631 8.35598-0.687631 12.0663-0.687631 14.9397-0.304672 17.4075 0.460842 19.4701 1.89462 23.3121 4.48695 25.2333 8.23664 25.2333ZM8.20194 2.13435C9.90406 2.13435 11.2583 2.86396 12.2648 4.32317 13.2712 5.7863 13.7744 8.5088 13.7744 12.4907 13.7744 15.3636 13.4092 17.728 12.6784 19.583 11.952 21.4419 10.5392 22.3713 8.44083 22.3713 6.50949 22.3713 5.0967 21.4893 4.20327 19.7244 3.30943 17.9635 2.8623 15.3695 2.8623 11.9417 2.8623 9.36262 3.14801 7.289 3.71942 5.72047 4.59349 3.32985 6.08779 2.13435 8.20194 2.13435Z" fill-rule="evenodd" transform="matrix(1 0 0 -1 2001 1486)"/><path d="M2046.52 1374.58 2034.52 1374.58" stroke="#000000" stroke-width="2.66447" stroke-linejoin="round" stroke-miterlimit="10" fill="none" fill-rule="evenodd"/><path d="M18.2383 2.4308 18.2383-0.569298-0.762014-0.569298-0.762014 2.4308 18.2383 2.4308Z" fill-rule="evenodd" transform="matrix(1 0 0 -1 1960 1379)"/><path d="M2.7243 6.44555C2.94223 4.59439 3.81273 3.31557 5.33499 2.60871 6.1137 2.2479 7.01291 2.06709 8.03301 2.06709 9.9798 2.06709 11.4204 2.67976 12.3552 3.90509 13.2936 5.13042 13.7626 6.48626 13.7626 7.97262 13.7626 9.7739 13.2059 11.1661 12.0924 12.1495 10.9785 13.1366 9.643 13.6299 8.08557 13.6299 6.95671 13.6299 5.98715 13.4128 5.1773 12.9789 4.36745 12.5486 3.67647 11.9496 3.10396 11.1816L0.259573 11.3429 2.24559 25.2214 15.8242 25.2214 15.8242 22.0875 4.70991 22.0875 3.60046 14.9263C4.20775 15.3793 4.78592 15.7213 5.33499 15.9516 6.30818 16.3472 7.4334 16.5451 8.71064 16.5451 11.105 16.5451 13.1355 15.7828 14.8021 14.2577 16.4724 12.733 17.3077 10.8013 17.3077 8.46196 17.3077 6.02327 16.5427 3.87236 15.0124 2.00962 13.4861 0.150472 11.0508-0.778703 7.70632-0.778703 5.57636-0.778703 3.69183-0.187192 2.05273 0.99583 0.417257 2.17845-0.497716 3.99529-0.692194 6.44555L2.7243 6.44555Z" fill-rule="evenodd" transform="matrix(1 0 0 -1 1981 1388)"/><path d="M8.23664 25.2231C11.6139 25.2231 14.0561 23.8732 15.5641 21.1734 16.7299 19.0881 17.3126 16.232 17.3126 12.6043 17.3126 9.162 16.784 6.31489 15.7271 4.06416 14.1961 0.836186 11.6934-0.77741 8.21929-0.77741 5.08702-0.77741 2.75537 0.542306 1.22434 3.18174-0.0500389 5.3874-0.687631 8.3454-0.687631 12.0557-0.687631 14.9291-0.304672 17.3969 0.460842 19.4595 1.89462 23.3019 4.48695 25.2231 8.23664 25.2231ZM8.20194 2.12416C9.90406 2.12416 11.2583 2.85377 12.2648 4.31298 13.2712 5.77572 13.7744 8.49822 13.7744 12.4801 13.7744 15.3535 13.4092 17.7174 12.6784 19.5728 11.952 21.4317 10.5392 22.3611 8.44083 22.3611 6.50949 22.3611 5.0967 21.4787 4.20327 19.7138 3.30943 17.9533 2.8623 15.3589 2.8623 11.9315 2.8623 9.35243 3.14801 7.27842 3.71942 5.70989 4.59349 3.31927 6.08779 2.12416 8.20194 2.12416Z" fill-rule="evenodd" transform="matrix(1 0 0 -1 2001 1388)"/><path d="M2046.52 1276.57 2034.52 1276.57" stroke="#000000" stroke-width="2.66447" stroke-linejoin="round" stroke-miterlimit="10" fill="none" fill-rule="evenodd"/><path d="M8.23664 26.1823C11.6139 26.1823 14.0561 24.7805 15.5641 21.9768 16.7299 19.8113 17.3126 16.8453 17.3126 13.0785 17.3126 9.5034 16.784 6.5472 15.7271 4.20949 14.1961 0.857768 11.6934-0.818298 8.21929-0.818298 5.08702-0.818298 2.75537 0.552178 1.22434 3.29313-0.0500389 5.58363-0.687631 8.65581-0.687631 12.5088-0.687631 15.4923-0.304672 18.055 0.460842 20.197 1.89462 24.1872 4.48695 26.1823 8.23664 26.1823ZM8.20194 2.19488C9.90406 2.19488 11.2583 2.95255 12.2648 4.46788 13.2712 5.98729 13.7744 8.8141 13.7744 12.9491 13.7744 15.933 13.4092 18.3879 12.6784 20.3146 11.952 22.245 10.5392 23.2102 8.44083 23.2102 6.50949 23.2102 5.0967 22.2938 4.20327 20.4615 3.30943 18.6329 2.8623 15.9387 2.8623 12.3794 2.8623 9.70116 3.14801 7.54738 3.71942 5.91852 4.59349 3.43596 6.08779 2.19488 8.20194 2.19488Z" fill-rule="evenodd" transform="matrix(1 0 0 -1 2001 1290)"/><path d="M2046.52 1178.56 2034.52 1178.56" stroke="#000000" stroke-width="2.66447" stroke-linejoin="round" stroke-miterlimit="10" fill="none" fill-rule="evenodd"/><path d="M2.7243 6.4244C2.94223 4.57323 3.81273 3.29402 5.33499 2.58756 6.1137 2.22635 7.01291 2.04594 8.03301 2.04594 9.9798 2.04594 11.4204 2.65861 12.3552 3.88354 13.2936 5.10886 13.7626 6.46471 13.7626 7.95107 13.7626 9.75234 13.2059 11.1449 12.0924 12.128 10.9785 13.115 9.643 13.6087 8.08557 13.6087 6.95671 13.6087 5.98715 13.3916 5.1773 12.9578 4.36745 12.5275 3.67647 11.9284 3.10396 11.1601L0.259573 11.3213 2.24559 25.2003 15.8242 25.2003 15.8242 22.0659 4.70991 22.0659 3.60046 14.9047C4.20775 15.3581 4.78592 15.6998 5.33499 15.9305 6.30818 16.326 7.4334 16.524 8.71064 16.524 11.105 16.524 13.1355 15.7612 14.8021 14.2366 16.4724 12.7119 17.3077 10.7797 17.3077 8.4408 17.3077 6.00212 16.5427 3.85121 15.0124 1.98847 13.4861 0.129318 11.0508-0.800256 7.70632-0.800256 5.57636-0.800256 3.69183-0.208745 2.05273 0.974276 0.417257 2.1573-0.497716 3.97414-0.692194 6.4244L2.7243 6.4244Z" fill-rule="evenodd" transform="matrix(1 0 0 -1 1981 1192)"/><path d="M8.23664 26.1713C11.6139 26.1713 14.0561 24.7695 15.5641 21.9659 16.7299 19.8007 17.3126 16.8343 17.3126 13.0675 17.3126 9.49242 16.784 6.53621 15.7271 4.19851 14.1961 0.846782 11.6934-0.829284 8.21929-0.829284 5.08702-0.829284 2.75537 0.541191 1.22434 3.28214-0.0500389 5.57305-0.687631 8.64482-0.687631 12.4979-0.687631 15.4817-0.304672 18.0445 0.460842 20.1864 1.89462 24.1762 4.48695 26.1713 8.23664 26.1713ZM8.20194 2.18389C9.90406 2.18389 11.2583 2.94156 12.2648 4.45689 13.2712 5.9763 13.7744 8.80352 13.7744 12.9381 13.7744 15.922 13.4092 18.3773 12.6784 20.3036 11.952 22.234 10.5392 23.1992 8.44083 23.1992 6.50949 23.1992 5.0967 22.2833 4.20327 20.4505 3.30943 18.6219 2.8623 15.9281 2.8623 12.3685 2.8623 9.69018 3.14801 7.5368 3.71942 5.90794 4.59349 3.42538 6.08779 2.18389 8.20194 2.18389Z" fill-rule="evenodd" transform="matrix(1 0 0 -1 2001 1192)"/><path d="M2046.52 1080.54 2034.52 1080.54" stroke="#000000" stroke-width="2.66447" stroke-linejoin="round" stroke-miterlimit="10" fill="none" fill-rule="evenodd"/><path d="M-0.531847 17.6357-0.531847 20.1504C1.67884 20.38 3.21973 20.7649 4.09081 21.3057 4.96566 21.8502 5.61888 23.13 6.05084 25.1452L8.46846 25.1452 8.46846-0.855366 5.20162-0.855366 5.20162 17.6357-0.531847 17.6357Z" fill-rule="evenodd" transform="matrix(1 0 0 -1 1963 1093)"/><path d="M8.23462 26.1603C11.6114 26.1603 14.0541 24.7585 15.5617 21.9549 16.7275 19.7897 17.3106 16.8237 17.3106 13.0565 17.3106 9.48184 16.782 6.52522 15.7251 4.18752 14.1937 0.835795 11.6913-0.839864 8.21727-0.839864 5.085-0.839864 2.75335 0.530612 1.22232 3.27156-0.0524601 5.56206-0.689649 8.63383-0.689649 12.4869-0.689649 15.4708-0.307093 18.0335 0.458421 20.1755 1.8926 24.1656 4.48453 26.1603 8.23462 26.1603ZM8.19951 2.1729C9.90164 2.1729 11.2559 2.93057 12.2623 4.44632 13.2692 5.96531 13.7724 8.79253 13.7724 12.9276 13.7724 15.911 13.4068 18.3663 12.6764 20.2931 11.9496 22.2234 10.5372 23.1886 8.43841 23.1886 6.50707 23.1886 5.09468 22.2723 4.20084 20.4395 3.307 18.6113 2.86029 15.9171 2.86029 12.3579 2.86029 9.6796 3.14559 7.52582 3.717 5.89695 4.59147 3.41439 6.08537 2.1729 8.19951 2.1729Z" fill-rule="evenodd" transform="matrix(1 0 0 -1 1981 1094)"/><path d="M8.23664 26.1603C11.6139 26.1603 14.0561 24.7585 15.5641 21.9549 16.7299 19.7897 17.3126 16.8237 17.3126 13.0565 17.3126 9.48184 16.784 6.52522 15.7271 4.18752 14.1961 0.835795 11.6934-0.839864 8.21929-0.839864 5.08702-0.839864 2.75537 0.530612 1.22434 3.27156-0.0500389 5.56206-0.687631 8.63383-0.687631 12.4869-0.687631 15.4708-0.304672 18.0335 0.460842 20.1755 1.89462 24.1656 4.48695 26.1603 8.23664 26.1603ZM8.20194 2.1729C9.90406 2.1729 11.2583 2.93057 12.2648 4.44632 13.2712 5.96531 13.7744 8.79253 13.7744 12.9276 13.7744 15.911 13.4092 18.3663 12.6784 20.2931 11.952 22.2234 10.5392 23.1886 8.44083 23.1886 6.50949 23.1886 5.0967 22.2723 4.20327 20.4395 3.30943 18.6113 2.8623 15.9171 2.8623 12.3579 2.8623 9.6796 3.14801 7.52582 3.71942 5.89695 4.59349 3.41439 6.08779 2.1729 8.20194 2.1729Z" fill-rule="evenodd" transform="matrix(1 0 0 -1 2001 1094)"/><path d="M2046.52 982.528 2034.52 982.528" stroke="#000000" stroke-width="2.66447" stroke-linejoin="round" stroke-miterlimit="10" fill="none" fill-rule="evenodd"/><path d="M-0.531847 17.6247-0.531847 20.1395C1.67884 20.3691 3.21973 20.7539 4.09081 21.2948 4.96566 21.8393 5.61888 23.1191 6.05084 25.1343L8.46846 25.1343 8.46846-0.86628 5.20162-0.86628 5.20162 17.6247-0.531847 17.6247Z" fill-rule="evenodd" transform="matrix(1 0 0 -1 1963 995)"/><path d="M2.7243 6.40315C2.94223 4.55162 3.81273 3.27282 5.33499 2.56597 6.1137 2.20516 7.01291 2.02476 8.03301 2.02476 9.9798 2.02476 11.4204 2.63702 12.3552 3.86233 13.2936 5.08764 13.7626 6.44347 13.7626 7.92981 13.7626 9.73106 13.2059 11.1232 12.0924 12.1066 10.9785 13.0937 9.643 13.587 8.08557 13.587 6.95671 13.587 5.98715 13.3703 5.1773 12.936 4.36745 12.5058 3.67647 11.9067 3.10396 11.1388L0.259573 11.3 2.24559 25.1784 15.8242 25.1784 15.8242 22.0444 4.70991 22.0444 3.60046 14.8834C4.20775 15.3368 4.78592 15.6784 5.33499 15.9087 6.30818 16.3046 7.4334 16.5022 8.71064 16.5022 11.105 16.5022 13.1355 15.7399 14.8021 14.2152 16.4724 12.6902 17.3077 10.7584 17.3077 8.41953 17.3077 5.98048 16.5427 3.8296 15.0124 1.96689 13.4861 0.108163 11.0508-0.821398 7.70632-0.821398 5.57636-0.821398 3.69183-0.229896 2.05273 0.953109 0.417257 2.13611-0.497716 3.95253-0.692194 6.40315L2.7243 6.40315Z" fill-rule="evenodd" transform="matrix(1 0 0 -1 1981 996)"/><path d="M8.23664 26.1494C11.6139 26.1494 14.0561 24.7476 15.5641 21.944 16.7299 19.7785 17.3126 16.8125 17.3126 13.0458 17.3126 9.47072 16.784 6.51456 15.7271 4.17688 14.1961 0.824797 11.6934-0.850839 8.21929-0.850839 5.08702-0.850839 2.75537 0.519618 1.22434 3.26053-0.0500389 5.551-0.687631 8.62314-0.687631 12.4761-0.687631 15.4596-0.304672 18.0222 0.460842 20.1642 1.89462 24.1543 4.48695 26.1494 8.23664 26.1494ZM8.20194 2.1623C9.90406 2.1623 11.2583 2.91995 12.2648 4.43527 13.2712 5.95465 13.7744 8.78143 13.7744 12.9164 13.7744 15.9002 13.4092 18.3551 12.6784 20.2818 11.952 22.2122 10.5392 23.1773 8.44083 23.1773 6.50949 23.1773 5.0967 22.261 4.20327 20.4287 3.30943 18.6001 2.8623 15.9059 2.8623 12.3467 2.8623 9.66848 3.14801 7.51473 3.71942 5.88589 4.59349 3.40336 6.08779 2.1623 8.20194 2.1623Z" fill-rule="evenodd" transform="matrix(1 0 0 -1 2001 996)"/><path d="M2046.52 884.519 2034.52 884.519" stroke="#000000" stroke-width="2.66447" stroke-linejoin="round" stroke-miterlimit="10" fill="none" fill-rule="evenodd"/><path d="M-0.653489-0.877167C-0.539756 1.35365-0.102322 3.29489 0.659955 4.94695 1.42185 6.59901 2.90685 8.10026 5.1157 9.45111L8.41243 11.4601C9.88868 12.367 10.9252 13.1391 11.5224 13.776 12.46 14.7791 12.929 15.9254 12.929 17.2149 12.929 18.7237 12.4988 19.9202 11.6377 20.8041 10.7807 21.6917 9.63763 22.1357 8.20931 22.1357 6.08832 22.1357 4.62311 21.2923 3.81367 19.6057 3.37775 18.6989 3.13583 17.4443 3.08829 15.8428L-0.054394 15.8428C-0.0178777 18.0964 0.377715 19.9358 1.13238 21.36 2.47283 23.8684 4.83726 25.123 8.22567 25.123 11.0389 25.123 13.0956 24.32 14.3962 22.7145 15.6963 21.109 16.3467 19.3238 16.3467 17.3593 16.3467 15.2869 15.6544 13.5133 14.2699 12.0389 13.4676 11.1822 12.0298 10.1458 9.95638 8.9301L7.60489 7.55238C6.48392 6.90383 5.60296 6.28256 4.96203 5.68815 3.81557 4.64213 3.09399 3.47859 2.7973 2.19713L16.2258 2.19713 16.2258-0.877167-0.653489-0.877167Z" fill-rule="evenodd" transform="matrix(1 0 0 -1 1961 897)"/><path d="M8.23462 26.1384C11.6114 26.1384 14.0541 24.7366 15.5617 21.933 16.7275 19.7679 17.3106 16.8015 17.3106 13.0348 17.3106 9.45974 16.782 6.50357 15.7251 4.1659 14.1937 0.814218 11.6913-0.861826 8.21727-0.861826 5.085-0.861826 2.75335 0.508632 1.22232 3.24955-0.0524601 5.54042-0.689649 8.61215-0.689649 12.4651-0.689649 15.4486-0.307093 18.0117 0.458421 20.1532 1.8926 24.1433 4.48453 26.1384 8.23462 26.1384ZM8.19951 2.15131C9.90164 2.15131 11.2559 2.90897 12.2623 4.42428 13.2692 5.94367 13.7724 8.77085 13.7724 12.9054 13.7724 15.8892 13.4068 18.3445 12.6764 20.2708 11.9496 22.2012 10.5372 23.1663 8.43841 23.1663 6.50707 23.1663 5.09468 22.2504 4.20084 20.4177 3.307 18.5891 2.86029 15.8949 2.86029 12.3357 2.86029 9.65749 3.14559 7.50415 3.717 5.8749 4.59147 3.39237 6.08537 2.15131 8.19951 2.15131Z" fill-rule="evenodd" transform="matrix(1 0 0 -1 1981 898)"/><path d="M8.23664 26.1384C11.6139 26.1384 14.0561 24.7366 15.5641 21.933 16.7299 19.7679 17.3126 16.8015 17.3126 13.0348 17.3126 9.45974 16.784 6.50357 15.7271 4.1659 14.1961 0.814218 11.6934-0.861826 8.21929-0.861826 5.08702-0.861826 2.75537 0.508632 1.22434 3.24955-0.0500389 5.54042-0.687631 8.61215-0.687631 12.4651-0.687631 15.4486-0.304672 18.0117 0.460842 20.1532 1.89462 24.1433 4.48695 26.1384 8.23664 26.1384ZM8.20194 2.15131C9.90406 2.15131 11.2583 2.90897 12.2648 4.42428 13.2712 5.94367 13.7744 8.77085 13.7744 12.9054 13.7744 15.8892 13.4092 18.3445 12.6784 20.2708 11.952 22.2012 10.5392 23.1663 8.44083 23.1663 6.50949 23.1663 5.0967 22.2504 4.20327 20.4177 3.30943 18.5891 2.8623 15.8949 2.8623 12.3357 2.8623 9.65749 3.14801 7.50415 3.71942 5.8749 4.59349 3.39237 6.08779 2.15131 8.20194 2.15131Z" fill-rule="evenodd" transform="matrix(1 0 0 -1 2001 898)"/><path d="M2046.52 786.51 2034.52 786.51" stroke="#000000" stroke-width="2.66447" stroke-linejoin="round" stroke-miterlimit="10" fill="none" fill-rule="evenodd"/><path d="M-0.653489-0.887997C-0.539756 1.34282-0.102322 3.28446 0.659955 4.93612 1.42185 6.58818 2.90685 8.08943 5.1157 9.44028L8.41243 11.4493C9.88868 12.3561 10.9252 13.1282 11.5224 13.7652 12.46 14.7687 12.929 15.915 12.929 17.204 12.929 18.7129 12.4988 19.9093 11.6377 20.7933 10.7807 21.6809 9.63763 22.1249 8.20931 22.1249 6.08832 22.1249 4.62311 21.2814 3.81367 19.5949 3.37775 18.688 3.13583 17.4335 3.08829 15.8319L-0.054394 15.8319C-0.0178777 18.086 0.377715 19.925 1.13238 21.3492 2.47283 23.858 4.83726 25.1122 8.22567 25.1122 11.0389 25.1122 13.0956 24.3096 14.3962 22.7041 15.6963 21.0981 16.3467 19.3133 16.3467 17.3488 16.3467 15.276 15.6544 13.5028 14.2699 12.0281 13.4676 11.1713 12.0298 10.135 9.95638 8.91927L7.60489 7.54155C6.48392 6.893 5.60296 6.27173 4.96203 5.67732 3.81557 4.6313 3.09399 3.46776 2.7973 2.1863L16.2258 2.1863 16.2258-0.887997-0.653489-0.887997Z" fill-rule="evenodd" transform="matrix(1 0 0 -1 1961 799)"/><path d="M2.7243 6.3816C2.94223 4.53046 3.81273 3.25167 5.33499 2.54482 6.1137 2.18361 7.01291 2.00321 8.03301 2.00321 9.9798 2.00321 11.4204 2.61586 12.3552 3.84117 13.2936 5.06609 13.7626 6.42191 13.7626 7.90825 13.7626 9.7099 13.2059 11.102 12.0924 12.0851 10.9785 13.0721 9.643 13.5658 8.08557 13.5658 6.95671 13.5658 5.98715 13.3487 5.1773 12.9149 4.36745 12.4846 3.67647 11.8855 3.10396 11.1172L0.259573 11.2785 2.24559 25.1572 15.8242 25.1572 15.8242 22.0233 4.70991 22.0233 3.60046 14.8622C4.20775 15.3152 4.78592 15.6573 5.33499 15.8876 6.30818 16.2831 7.4334 16.481 8.71064 16.481 11.105 16.481 13.1355 15.7187 14.8021 14.1937 16.4724 12.669 17.3077 10.7372 17.3077 8.39798 17.3077 5.95933 16.5427 3.80845 15.0124 1.94573 13.4861 0.08661 11.0508-0.842552 7.70632-0.842552 5.57636-0.842552 3.69183-0.251448 2.05273 0.931557 0.417257 2.11456-0.497716 3.93138-0.692194 6.3816L2.7243 6.3816Z" fill-rule="evenodd" transform="matrix(1 0 0 -1 1981 799)"/><path d="M8.23664 25.1597C11.6139 25.1597 14.0561 23.8098 15.5641 21.1101 16.7299 19.0251 17.3126 16.1686 17.3126 12.5414 17.3126 9.09878 16.784 6.25211 15.7271 4.00102 14.1961 0.773481 11.6934-0.840484 8.21929-0.840484 5.08702-0.840484 2.75537 0.479605 1.22434 3.119-0.0500389 5.32464-0.687631 8.28259-0.687631 11.9929-0.687631 14.8662-0.304672 17.334 0.460842 19.3966 1.89462 23.2385 4.48695 25.1597 8.23664 25.1597ZM8.20194 2.06105C9.90406 2.06105 11.2583 2.79064 12.2648 4.24983 13.2712 5.71294 13.7744 8.43541 13.7744 12.4172 13.7744 15.2902 13.4092 17.6545 12.6784 19.5094 11.952 21.3687 10.5392 22.2981 8.44083 22.2981 6.50949 22.2981 5.0967 21.4157 4.20327 19.6509 3.30943 17.89 2.8623 15.296 2.8623 11.8687 2.8623 9.28922 3.14801 7.21563 3.71942 5.64712 4.59349 3.25653 6.08779 2.06105 8.20194 2.06105Z" fill-rule="evenodd" transform="matrix(1 0 0 -1 2001 799)"/><path d="M14.61 10.1945 10.6971 22.1215 6.53701 10.1945 14.61 10.1945ZM8.87239 26.1323 12.8191 26.1323 22.1718-0.867845 18.3433-0.867845 15.7328 7.2186 5.53781 7.2186 2.74772-0.867845-0.828592-0.867845 8.87239 26.1323Z" fill-rule="evenodd" transform="matrix(-1.83697e-16 -1 -1 1.83697e-16 1916 1288)"/><path d="M2.73435 26.1762 2.73435 9.91754C2.73435 8.00809 3.0966 6.42132 3.8203 5.15682 4.89659 3.24737 6.71266 2.29245 9.2681 2.29245 12.3265 2.29245 14.4075 3.32556 15.5112 5.39178 16.1034 6.51101 16.3997 8.0196 16.3997 9.91754L16.3997 26.1762 20.0644 26.1762 20.0644 11.4071C20.0644 8.1724 19.6229 5.6823 18.74 3.93677 17.1178 0.762826 14.0573-0.823948 9.55838-0.823948 5.0554-0.823948 1.9986 0.762826 0.38798 3.93677-0.494524 5.6823-0.935977 8.1724-0.935977 11.4071L-0.935977 26.1762 2.73435 26.1762ZM9.57567 26.1762 9.57567 26.1762Z" fill-rule="evenodd" transform="matrix(-1.83697e-16 -1 -1 1.83697e-16 1916 1261)"/><path d="M11.1913 27.1388C14.4752 27.1388 17.0223 26.2509 18.8336 24.4748 20.6449 22.7027 21.6506 20.6894 21.85 18.4346L18.4269 18.4346C18.039 20.145 17.2656 21.5003 16.1058 22.5001 14.946 23.5039 13.3189 24.0058 11.2253 24.0058 8.67228 24.0058 6.61076 23.085 5.04039 21.2435 3.47001 19.4056 2.68482 16.5875 2.68482 12.7885 2.68482 9.67269 3.39297 7.14589 4.8089 5.20766 6.22834 3.27344 8.34459 2.30613 11.1577 2.30613 13.7447 2.30613 15.7159 3.3256 17.0716 5.36413 17.7868 6.43736 18.3217 7.85041 18.6756 9.60328L22.0987 9.60328C21.7937 6.80406 20.7825 4.4566 19.0655 2.5609 17.0055 0.27924 14.2284-0.86139 10.7338-0.86139 7.72168-0.86139 5.19093 0.0746244 3.14232 1.94705 0.446166 4.41809-0.901717 8.23637-0.901717 13.4023-0.901717 17.3209 0.111053 20.5349 2.13698 23.0445 4.3248 25.7739 7.34316 27.1388 11.1913 27.1388ZM10.4855 27.1388 10.4855 27.1388Z" fill-rule="evenodd" transform="matrix(-1.83697e-16 -1 -1 1.83697e-16 1916 1236)"/><path d="M-0.412466 2.41036 8.58747 2.41036 8.58747-0.589735-0.412466-0.589735-0.412466 2.41036Z" fill-rule="evenodd" transform="matrix(-1.83697e-16 -1 -1 1.83697e-16 1907 1199)"/><path d="M2.51229 8.46173C2.5965 6.96065 2.94802 5.74075 3.56805 4.80162 4.75369 3.04656 6.84018 2.16863 9.82752 2.16863 11.1661 2.16863 12.3847 2.36141 13.4822 2.74618 15.6127 3.48893 16.678 4.82242 16.678 6.74707 16.678 8.19056 16.2288 9.22007 15.3299 9.83563 14.4231 10.4364 13.0004 10.9595 11.0612 11.4063L7.49795 12.2142C5.16479 12.7454 3.51443 13.3286 2.54645 13.9637 0.875032 15.072 0.0393228 16.7271 0.0393228 18.9289 0.0393228 21.3111 0.857952 23.2646 2.49481 24.7884 4.13207 26.3167 6.45013 27.0807 9.44899 27.0807 12.2103 27.0807 14.5554 26.4091 16.483 25.0656 18.4146 23.7261 19.3806 21.5843 19.3806 18.6401L16.0298 18.6401C15.8499 20.0604 15.4674 21.1475 14.8823 21.9019 13.7959 23.2874 11.9486 23.9805 9.33976 23.9805 7.23619 23.9805 5.72326 23.5337 4.80135 22.641 3.88342 21.7519 3.42426 20.7184 3.42426 19.5409 3.42426 18.2438 3.96167 17.293 5.0365 16.6887 5.74431 16.3039 7.34145 15.8228 9.82752 15.2452L13.5223 14.3969C15.3009 13.9885 16.6741 13.4305 17.642 12.7226 19.3174 11.4831 20.1551 9.68364 20.1551 7.32422 20.1551 4.39165 19.0934 2.29382 16.9708 1.03152 14.8477-0.230782 12.3827-0.862332 9.5749-0.862332 6.30078-0.862332 3.73606-0.0211983 1.88114 1.66067 0.02979 3.33494-0.878606 5.60196-0.844447 8.46173L2.51229 8.46173ZM9.71829 27.1383 9.71829 27.1383Z" fill-rule="evenodd" transform="matrix(-1.83697e-16 -1 -1 1.83697e-16 1916 1177)"/><path d="M-0.917467 26.1172 3.31389 26.1172 16.682 4.24551 16.682 26.1172 20.0829 26.1172 20.0829-0.88292 16.065-0.88292 2.50098 20.9713 2.50098-0.88292-0.917467-0.88292-0.917467 26.1172ZM9.34946 26.1172 9.34946 26.1172Z" fill-rule="evenodd" transform="matrix(-1.83697e-16 -1 -1 1.83697e-16 1916 1151)"/><path d="M10.9011 13.7462C12.5824 13.7462 13.9137 14.0892 14.8949 14.7754 15.8758 15.4615 16.3665 16.6985 16.3665 18.4863 16.3665 20.4078 15.6816 21.7193 14.312 22.421 13.5772 22.7856 12.596 22.9677 11.3686 22.9677L2.60182 22.9677 2.60182 13.7462 10.9011 13.7462ZM-0.982075 26.1144 11.2819 26.1144C13.302 26.1144 14.9661 25.8145 16.2742 25.2144 18.7637 24.0617 20.0083 21.9349 20.0083 18.8335 20.0083 17.218 19.6795 15.895 19.0214 14.8638 18.3674 13.8366 17.4516 13.0091 16.2742 12.3821 17.3094 11.9547 18.0885 11.392 18.6115 10.694 19.1349 9.99611 19.4253 8.86302 19.4833 7.29479L19.6099 3.67184C19.6487 2.64469 19.733 1.87829 19.864 1.37225 20.0794 0.517855 20.4642-0.0330026 21.0183-0.280318L21.0183-0.885772 16.6206-0.885772C16.4975-0.654754 16.3992-0.354879 16.3261 0.0138529 16.257 0.382585 16.1974 1.09397 16.1471 2.14883L15.9337 6.64777C15.849 8.41198 15.2046 9.59437 14.0004 10.1941 13.3155 10.5274 12.24 10.694 10.7741 10.694L2.60182 10.694 2.60182-0.885772-0.982075-0.885772-0.982075 26.1144Z" fill-rule="evenodd" transform="matrix(-1.83697e-16 -1 -1 1.83697e-16 1916 1124)"/><path d="M7.50985 33.382C5.71476 29.7651 4.54865 27.1024 4.01153 25.3945 3.19996 22.7945 2.79418 19.7921 2.79418 16.3879 2.79418 12.9489 3.25842 9.80614 4.1869 6.95959 4.75705 5.20244 5.88102 2.67655 7.5592-0.618061L5.48624-0.618061C3.81945 2.08452 2.78507 3.80933 2.38308 4.55716 1.98451 5.30499 1.55139 6.32023 1.08336 7.60289 0.443743 9.3565-0.00227755 11.2296-0.254327 13.2222-0.378833 14.2544-0.441086 15.2397-0.441086 16.1769-0.441086 19.688 0.0892041 22.8134 1.14902 25.5539 1.82546 27.296 3.23109 29.9055 5.36591 33.382L7.50985 33.382Z" fill-rule="evenodd" transform="matrix(-1.83697e-16 -1 -1 1.83697e-16 1923 1088)"/><path d="M2.75097 9.17227C2.75097 7.12633 3.18665 5.41215 4.05801 4.02932 4.92897 2.65045 6.32569 1.96082 8.24776 1.96082 9.74168 1.96082 10.9686 2.60057 11.9276 3.88086 12.8902 5.16076 13.3719 6.99688 13.3719 9.38921 13.3719 11.8045 12.8752 13.5931 11.8816 14.755 10.892 15.917 9.66907 16.4981 8.21323 16.4981 6.58955 16.4981 5.27299 15.879 4.26434 14.641 3.2553 13.4027 2.75097 11.58 2.75097 9.17227ZM7.60574 19.2982C9.07309 19.2982 10.3016 18.9894 11.2912 18.3722 11.8645 18.0144 12.5161 17.3897 13.2458 16.4981L13.2458 26.1553 16.3467 26.1553 16.3467-0.165084 13.4406-0.165084 13.4406 2.49804C12.6918 1.31671 11.8034 0.463582 10.7753-0.062154 9.74764-0.583931 8.57075-0.845215 7.24466-0.845215 5.10872-0.845215 3.25728 0.0502774 1.69074 1.84087 0.127768 3.63502-0.653519 6.01983-0.653519 8.99491-0.653519 11.78 0.0591223 14.1933 1.48441 16.2353 2.91366 18.2772 4.95397 19.2982 7.60574 19.2982Z" fill-rule="evenodd" transform="matrix(-1.83697e-16 -1 -1 1.83697e-16 1916 1078)"/><path d="M-0.731206 26.1482 2.42404 26.1482 2.42404 16.6076C3.13169 17.5243 3.9775 18.2233 4.9623 18.7049 5.95028 19.19 7.02133 19.4325 8.17505 19.4325 10.5787 19.4325 12.5287 18.6112 14.0247 16.9685 15.5207 15.3298 16.2686 12.9118 16.2686 9.71409 16.2686 6.68116 15.5282 4.16154 14.0475 2.156 12.5707 0.150455 10.5232-0.852315 7.90429-0.852315 6.43509-0.852315 5.19671-0.500988 4.18916 0.202063 3.58934 0.622464 2.94719 1.29098 2.26231 2.2076L2.26231-0.244936-0.731206-0.244936-0.731206 26.1482ZM7.70222 1.99562C9.45975 1.99562 10.7728 2.68715 11.6422 4.06983 12.5152 5.45648 12.9516 7.28259 12.9516 9.54815 12.9516 11.5688 12.5152 13.2401 11.6422 14.562 10.7728 15.8875 9.4905 16.5501 7.79447 16.5501 6.31768 16.5501 5.0218 16.0078 3.90642 14.9229 2.79504 13.8379 2.23954 12.0463 2.23954 9.54815 2.23954 7.74864 2.46837 6.28736 2.92602 5.16431 3.77943 3.05198 5.37163 1.99562 7.70222 1.99562Z" fill-rule="evenodd" transform="matrix(-1.83697e-16 -1 -1 1.83697e-16 1916 1056)"/><path d="M-0.304053-0.623582C1.51267 3.05047 2.68447 5.73017 3.21097 7.41515 4.00773 9.96588 4.4063 12.9548 4.4063 16.382 4.4063 19.8095 3.94358 22.9463 3.0189 25.7933 2.44875 27.5504 1.32478 30.0783-0.3534 33.3764L1.71955 33.3764C3.47782 30.4577 4.54144 28.6568 4.91078 27.9736 5.28354 27.2941 5.68743 26.3549 6.12244 25.1555 6.67057 23.6713 7.06193 22.2064 7.29576 20.7604 7.52959 19.3141 7.64688 17.9214 7.64688 16.5815 7.64688 13.0704 7.10938 9.93945 6.03475 7.18757 5.36212 5.41897 3.9637 2.815 1.83988-0.623582L-0.304053-0.623582Z" fill-rule="evenodd" transform="matrix(-1.83697e-16 -1 -1 1.83697e-16 1923 1036)"/><path d="M2164.5 1104.5 2173.78 1107.87 2183.07 1111.25 2192.35 1114.62 2201.63 1117.99 2210.91 1121.37 2220.2 1124.74 2229.48 1128.12 2238.76 1131.49 2248.04 1134.86 2257.33 1138.24 2266.61 1141.61 2275.89 1144.99 2285.18 1148.36 2294.46 1151.73 2303.74 1155.11 2313.02 1158.48 2322.31 1161.85 2331.59 1165.23 2340.87 1168.6 2350.16 1171.98 2359.44 1175.35 2368.72 1178.72 2378.01 1182.1 2387.29 1185.47 2396.57 1188.84 2405.85 1192.22 2415.14 1195.59 2424.42 1198.97 2433.7 1202.34 2442.98 1205.71 2452.27 1209.09 2461.55 1212.46 2470.83 1215.83 2480.11 1219.21 2489.4 1222.58 2498.68 1225.96 2507.97 1229.33 2517.25 1232.7 2526.53 1236.08 2535.81 1239.45 2545.1 1242.82 2554.38 1246.2 2563.66 1249.57 2572.94 1252.95 2582.23 1256.32 2591.51 1259.69 2600.79 1263.07 2610.08 1266.44 2619.36 1269.81 2628.64 1273.19 2637.92 1276.56 2647.21 1279.94 2656.49 1283.31 2665.77 1286.68 2675.05 1290.06 2684.34 1293.43 2693.62 1296.8 2702.9 1300.18 2712.18 1303.55 2721.47 1306.93 2730.75 1310.3 2740.04 1313.67 2749.32 1317.05 2758.6 1320.42 2767.88 1323.79 2777.17 1327.17 2786.45 1330.54 2795.73 1333.92 2805.01 1337.29 2814.3 1340.66 2823.58 1344.04 2832.86 1347.41 2842.15 1350.78 2851.43 1354.16 2860.71 1357.53 2869.99 1360.91 2879.28 1364.28 2888.56 1367.65 2897.84 1371.03 2907.12 1374.4 2916.41 1377.77 2925.69 1381.15 2934.97 1384.52 2944.25 1387.9 2953.54 1391.27 2962.82 1394.64 2972.11 1398.02 2981.39 1401.39 2990.67 1404.76 2999.95 1408.14 3009.24 1411.51 3018.52 1414.89 3027.8 1418.26 3037.08 1421.63 3046.37 1425.01 3055.65 1428.38 3064.94 1431.75 3074.22 1435.13 3083.5 1438.5" stroke="#40498E" stroke-width="7.49321" stroke-linecap="square" stroke-linejoin="round" stroke-miterlimit="10" fill="none" fill-rule="evenodd"/><path d="M2096.5 886.5 2098.36 887.854 2100.22 889.207 2102.08 890.561 2103.93 891.914 2105.79 893.268 2107.65 894.622 2109.51 895.975 2111.37 897.328 2113.23 898.682 2115.09 900.036 2116.94 901.389 2118.8 902.743 2120.66 904.096 2122.52 905.45 2124.38 906.803 2126.24 908.157 2128.1 909.511 2129.95 910.864 2131.81 912.217 2133.67 913.571 2135.53 914.924 2137.39 916.278 2139.25 917.631 2141.11 918.985 2142.96 920.339 2144.82 921.692 2146.68 923.046 2148.54 924.399 2150.4 925.752 2152.26 927.106 2154.12 928.46 2155.97 929.813 2157.83 931.167 2159.69 932.52 2161.55 933.874 2163.41 935.227 2165.27 936.581 2167.13 937.935 2168.98 939.288 2170.84 940.641 2172.7 941.995 2174.56 943.349 2176.42 944.702 2178.28 946.056 2180.14 947.409 2181.99 948.763 2183.85 950.117 2185.71 951.47 2187.57 952.824 2189.43 954.177 2191.29 955.53 2193.15 956.884 2195 958.238 2196.86 959.591 2198.72 960.945 2200.58 962.298 2202.44 963.652 2204.3 965.006 2206.16 966.359 2208.01 967.712 2209.87 969.066 2211.73 970.419 2213.59 971.773 2215.45 973.126 2217.31 974.48 2219.17 975.833 2221.02 977.187 2222.88 978.541 2224.74 979.894 2226.6 981.248 2228.46 982.601 2230.32 983.955 2232.18 985.308 2234.03 986.662 2235.89 988.015 2237.75 989.369 2239.61 990.722 2241.47 992.076 2243.33 993.43 2245.18 994.783 2247.05 996.137 2248.9 997.49 2250.76 998.844 2252.62 1000.2 2254.48 1001.55 2256.34 1002.9 2258.2 1004.26 2260.05 1005.61 2261.91 1006.97 2263.77 1008.32 2265.63 1009.67 2267.49 1011.03 2269.35 1012.38 2271.2 1013.73 2273.06 1015.09 2274.92 1016.44 2276.78 1017.79 2278.64 1019.15 2280.5 1020.5" stroke="#0B0405" stroke-width="7.49321" stroke-linecap="square" stroke-linejoin="round" stroke-miterlimit="10" fill="none" fill-rule="evenodd"/><path d="M2046.5 1565.5 2046.5 750.5" stroke="#000000" stroke-width="2.66447" stroke-linecap="square" stroke-miterlimit="8" fill="none" fill-rule="evenodd"/><path d="M3133.5 1565.5 3133.5 750.5" stroke="#000000" stroke-width="2.66447" stroke-linecap="square" stroke-miterlimit="8" fill="none" fill-rule="evenodd"/><path d="M2046.5 1565.5 3133.5 1565.5" stroke="#000000" stroke-width="2.66447" stroke-linecap="square" stroke-miterlimit="8" fill="none" fill-rule="evenodd"/><path d="M2046.5 750.5 3133.5 750.5" stroke="#000000" stroke-width="2.66447" stroke-linecap="square" stroke-miterlimit="8" fill="none" fill-rule="evenodd"/><path d="M2085.5 1394.2C2085.5 1391.61 2087.61 1389.5 2090.2 1389.5L2304.8 1389.5C2307.39 1389.5 2309.5 1391.61 2309.5 1394.2L2309.5 1520.8C2309.5 1523.39 2307.39 1525.5 2304.8 1525.5L2090.2 1525.5C2087.61 1525.5 2085.5 1523.39 2085.5 1520.8Z" stroke="#7F7F7F" stroke-width="3.4375" stroke-linejoin="round" stroke-miterlimit="10" fill="#EBEBEB" fill-rule="evenodd"/><text font-family="Helvetica,Helvetica_MSFontService,sans-serif" font-weight="400" font-size="41" transform="matrix(1 0 0 1 2096.46 1447)">r = </text><text font-family="Helvetica,Helvetica_MSFontService,sans-serif" font-weight="400" font-size="41" transform="matrix(1 0 0 1 2157.19 1447)">-</text><text font-family="Helvetica,Helvetica_MSFontService,sans-serif" font-weight="400" font-size="41" transform="matrix(1 0 0 1 2170.94 1447)">0.26</text><text font-family="Helvetica,Helvetica_MSFontService,sans-serif" font-weight="400" font-size="41" transform="matrix(1 0 0 1 2096.46 1496)">p = 0.162</text><path d="M2340.5 1394.2C2340.5 1391.61 2342.61 1389.5 2345.2 1389.5L2559.8 1389.5C2562.39 1389.5 2564.5 1391.61 2564.5 1394.2L2564.5 1520.8C2564.5 1523.39 2562.39 1525.5 2559.8 1525.5L2345.2 1525.5C2342.61 1525.5 2340.5 1523.39 2340.5 1520.8Z" stroke="#40498E" stroke-width="3.4375" stroke-linejoin="round" stroke-miterlimit="10" fill="#EBEBF6" fill-rule="evenodd"/><text font-family="Helvetica,Helvetica_MSFontService,sans-serif" font-weight="400" font-size="41" transform="matrix(1 0 0 1 2351.81 1447)">r = </text><text font-family="Helvetica,Helvetica_MSFontService,sans-serif" font-weight="400" font-size="41" transform="matrix(1 0 0 1 2412.53 1447)">-</text><text font-family="Helvetica,Helvetica_MSFontService,sans-serif" font-weight="400" font-size="41" transform="matrix(1 0 0 1 2426.28 1447)">0.66</text><text font-family="Helvetica,Helvetica_MSFontService,sans-serif" font-weight="400" font-size="41" transform="matrix(1 0 0 1 2351.81 1496)">p &lt; 0.001</text><path d="M2720.37 938.5 3106.63 938.5C3110.54 938.5 3112.5 936.046 3112.5 931.137L3112.5 775.863C3112.5 770.954 3110.54 768.5 3106.63 768.5L2720.37 768.5C2716.46 768.5 2714.5 770.954 2714.5 775.863L2714.5 931.137C2714.5 936.046 2716.46 938.5 2720.37 938.5Z" stroke="#CCCCCC" stroke-width="4.56709" stroke-miterlimit="8" stroke-opacity="0.8" fill="#FFFFFF" fill-rule="evenodd" fill-opacity="0.8"/><path d="M11.7514 26.3224C14.2197 26.3224 16.3543 25.8573 18.1548 24.9273 20.7642 23.5915 22.3608 21.2494 22.9447 17.9009L19.4252 17.9009C18.9943 19.7724 18.1053 21.136 16.7586 21.9917 15.4121 22.8475 13.7125 23.2753 11.66 23.2753 9.22965 23.2753 7.18302 22.3843 5.51957 20.6019 3.85641 18.8235 3.02469 16.1727 3.02469 12.6495 3.02469 9.6061 3.7095 7.12801 5.07913 5.21583 6.45252 3.30336 8.68799 2.34712 11.7858 2.34712 14.1587 2.34712 16.1235 3.01688 17.6799 4.3564 19.2364 5.69959 20.0319 7.87228 20.0661 10.8748L11.8431 10.8748 11.8431 13.7488 23.3739 13.7488 23.3739 0.0423363 21.0849 0.0423363 20.2263 3.34061C19.0247 2.04964 17.9584 1.15296 17.0275 0.650567 15.4635-0.208859 13.4776-0.638431 11.0704-0.638431 7.96125-0.638431 5.28504 0.34377 3.04175 2.30817 0.596609 4.77496-0.626107 8.15876-0.626107 12.4596-0.626107 16.7493 0.565954 20.1611 2.95037 22.6948 5.2165 25.1133 8.15009 26.3224 11.7514 26.3224ZM11.1621 26.3614 11.1621 26.3614Z" fill-rule="evenodd" transform="matrix(1 0 0 -1 2733 810)"/><path d="M-0.308871 19.0665 2.97727 19.0665 2.97727 15.6886C3.2433 16.3468 3.90078 17.1476 4.94907 18.0905 6.00141 19.0334 7.21144 19.5048 8.57916 19.5048 8.64466 19.5048 8.75331 19.4992 8.90479 19.4874 9.06032 19.4759 9.32231 19.4504 9.6911 19.4114L9.6911 15.9457C9.48622 15.9806 9.29779 16.004 9.12582 16.0158 8.95384 16.0273 8.76542 16.0332 8.56085 16.0332 6.8203 16.0332 5.48331 15.4994 4.54987 14.4318 3.61612 13.3683 3.14924 12.1428 3.14924 10.7556L3.14924-0.495099-0.308871-0.495099-0.308871 19.0665Z" fill-rule="evenodd" transform="matrix(1 0 0 -1 2762 810)"/><path d="M8.55006 2.25925C10.701 2.25925 12.1765 3.05005 12.9765 4.63167 13.7768 6.21328 14.1769 7.97445 14.1769 9.91487 14.1769 11.6687 13.8885 13.0948 13.3113 14.1943 12.3955 15.9217 10.82 16.7854 8.58477 16.7854 6.59949 16.7854 5.15669 16.0487 4.25666 14.5758 3.35633 13.1062 2.90602 11.33 2.90602 9.24745 2.90602 7.25086 3.35633 5.58699 4.25666 4.25584 5.15669 2.92468 6.58812 2.25925 8.55006 2.25925ZM8.67722 19.5393C11.1627 19.5393 13.2652 18.7315 14.9851 17.1164 16.7046 15.5047 17.5647 13.1343 17.5647 10.0045 17.5647 6.97601 16.8067 4.47453 15.2907 2.50035 13.7788 0.526165 11.4298-0.460926 8.24441-0.460926 5.58571-0.460926 3.47357 0.412139 1.90769 2.15827 0.345607 3.90809-0.435436 6.25441-0.435436 9.19696-0.435436 12.3528 0.387897 14.8654 2.03456 16.7349 3.68531 18.6044 5.89924 19.5393 8.67722 19.5393ZM8.56756 19.4494 8.56756 19.4494Z" fill-rule="evenodd" transform="matrix(1 0 0 -1 2773 810)"/><path d="M2.78212 19.0704 2.78212 6.44168C2.78212 5.47188 2.93238 4.67799 3.23319 4.06029 3.79006 2.92378 4.82924 2.35552 6.35128 2.35552 8.5301 2.35552 10.015 3.35004 10.8057 5.33908 11.2326 6.40776 11.4462 7.87023 11.4462 9.72676L11.4462 19.0704 14.5809 19.0704 14.5809 0.0480015 11.6243 0.0480015 11.6575 2.85566C11.2492 2.1319 10.7444 1.52167 10.143 1.02556 8.94768 0.0290308 7.49824-0.469379 5.79441-0.469379 3.13667-0.469379 1.32704 0.438049 0.365527 2.25319-0.157861 3.223-0.419555 4.51903-0.419555 6.14045L-0.419555 19.0704 2.78212 19.0704ZM7.08065 19.5308 7.08065 19.5308Z" fill-rule="evenodd" transform="matrix(1 0 0 -1 2795 810)"/><path d="M7.93846 9.41718C9.45385 9.41718 10.7133 10.0409 11.717 11.2885 12.7208 12.5359 13.2228 14.3992 13.2228 16.879 13.2228 18.391 12.9995 19.6895 12.5534 20.7742 11.7112 22.8646 10.1728 23.9099 7.93846 23.9099 5.69248 23.9099 4.15435 22.8059 3.32348 20.5985 2.87744 19.419 2.65441 17.9185 2.65441 16.0965 2.65441 14.6338 2.87744 13.3881 3.32348 12.3601 4.16572 10.3982 5.70415 9.41718 7.93846 9.41718ZM-0.460623 26.1606 2.69464 26.1606 2.69464 23.6489C3.34097 24.5106 4.04853 25.1779 4.81759 25.6504 5.91376 26.3573 7.2 26.7105 8.67691 26.7105 10.8652 26.7105 12.7228 25.8867 14.2496 24.2385 15.7763 22.5905 16.5396 20.2374 16.5396 17.1795 16.5396 13.0443 15.4399 10.0902 13.24 8.31721 11.8438 7.19458 10.2212 6.63341 8.37109 6.63341 6.91751 6.63341 5.69832 6.94711 4.71381 7.57452 4.13686 7.92981 3.49286 8.53858 2.78123 9.40026L2.78123-0.289618-0.460623-0.289618-0.460623 26.1606Z" fill-rule="evenodd" transform="matrix(1 0 0 -1 2815 817)"/><path d="M2749.06 863.514C2752.91 863.514 2756.6 862.039 2759.32 859.414 2762.04 856.788 2763.56 853.227 2763.56 849.514 2763.56 845.801 2762.04 842.24 2759.32 839.615 2756.6 836.989 2752.91 835.514 2749.06 835.514 2745.22 835.514 2741.53 836.989 2738.81 839.615 2736.09 842.24 2734.56 845.801 2734.56 849.514 2734.56 853.227 2736.09 856.788 2738.81 859.414 2741.53 862.039 2745.22 863.514 2749.06 863.514Z" stroke="#FFFFFF" stroke-width="2.83012" stroke-linejoin="round" stroke-miterlimit="10" fill="#40498E" fill-rule="evenodd"/><path d="M12.0006 27.3415C15.427 27.3415 18.0851 26.4535 19.975 24.6775 21.865 22.9053 22.9144 20.892 23.1226 18.6374L19.5506 18.6374C19.1461 20.3475 18.3386 21.7027 17.1284 22.7026 15.9181 23.7066 14.2206 24.2083 12.0358 24.2083 9.37168 24.2083 7.22051 23.2875 5.58196 21.4461 3.94342 19.6083 3.12429 16.7899 3.12429 12.991 3.12429 9.87532 3.86299 7.34836 5.3404 5.41037 6.82167 3.47619 9.03003 2.50881 11.9652 2.50881 14.6647 2.50881 16.7215 3.52832 18.136 5.56677 18.8828 6.63988 19.4407 8.05303 19.81 9.80591L23.3817 9.80591C23.0636 7.00686 22.0085 4.65943 20.2166 2.76361 18.0675 0.48208 15.1696-0.658687 11.5232-0.658687 8.3798-0.658687 5.73924 0.277357 3.60147 2.15003 0.788147 4.62077-0.618365 8.43904-0.618365 13.6049-0.618365 17.5236 0.438455 20.7377 2.55239 23.247 4.83552 25.9767 7.98483 27.3415 12.0006 27.3415ZM11.2637 27.3415 11.2637 27.3415Z" fill-rule="evenodd" transform="matrix(1 0 0 -1 2781 863)"/><path d="M11.2354 13.4469C12.9165 13.4469 14.2479 13.7774 15.2291 14.4379 16.2099 15.0986 16.7005 16.2898 16.7005 18.0115 16.7005 19.8617 16.0157 21.1245 14.6461 21.8004 13.9111 22.1513 12.9302 22.3269 11.7026 22.3269L2.93615 22.3269 2.93615 13.4469 11.2354 13.4469ZM-0.647779 25.3568 11.6163 25.3568C13.636 25.3568 15.3 25.0681 16.6084 24.4904 19.0977 23.3803 20.3422 21.3321 20.3422 18.3457 20.3422 16.7902 20.0132 15.5159 19.3555 14.5229 18.7013 13.5337 17.7855 12.7371 16.6084 12.1331 17.6432 11.7215 18.4225 11.1796 18.9457 10.5077 19.469 9.83547 19.7595 8.74452 19.8172 7.23426L19.9441 3.74573C19.9826 2.75645 20.0672 2.01836 20.1981 1.53117 20.4134 0.708303 20.7981 0.177863 21.3522-0.060147L21.3522-0.643287 16.9546-0.643287C16.8315-0.420743 16.7335-0.131751 16.6603 0.223117 16.5909 0.577984 16.5314 1.26337 16.4812 2.279L16.2677 6.6113C16.1831 8.31032 15.5388 9.44853 14.3343 10.0262 13.6494 10.3473 12.5741 10.5077 11.1082 10.5077L2.93615 10.5077 2.93615-0.643287-0.647779-0.643287-0.647779 25.3568Z" fill-rule="evenodd" transform="matrix(1 0 0 -1 2809 862)"/><path d="M9.72927 14.3643C11.2833 14.3643 12.4929 14.5702 13.3588 14.9818 14.7189 15.6311 15.3989 16.7996 15.3989 18.4872 15.3989 20.1862 14.6754 21.3301 13.2284 21.9193 12.4141 22.2515 11.2042 22.4177 9.5989 22.4177L3.01601 22.4177 3.01601 14.3643 9.72927 14.3643ZM10.9689 2.36378C13.2305 2.36378 14.8436 2.99045 15.8083 4.24409 16.4132 5.03316 16.7156 5.98835 16.7156 7.10967 16.7156 8.99742 15.832 10.2829 14.0646 10.9665 13.1235 11.3326 11.8821 11.5156 10.3404 11.5156L3.01601 11.5156 3.01601 2.36378 10.9689 2.36378ZM-0.595829 25.3568 11.0993 25.3568C14.2861 25.3568 16.5534 24.4469 17.9018 22.627 18.6925 21.555 19.0878 20.3165 19.0878 18.9119 19.0878 17.2734 18.5996 15.9292 17.6231 14.8798 17.1169 14.3247 16.3874 13.8169 15.4346 13.3564 16.8304 12.8503 17.874 12.2783 18.566 11.6405 19.7915 10.5077 20.4044 8.94444 20.4044 6.95099 20.4044 5.2749 19.853 3.7589 18.7497 2.40359 17.1091 0.372339 14.4977-0.643287 10.9155-0.643287L-0.595829-0.643287-0.595829 25.3568Z" fill-rule="evenodd" transform="matrix(1 0 0 -1 2835 862)"/><path d="M-0.324414 17.8477-0.324414 20.3624C1.88622 20.592 3.42684 20.9771 4.298 21.518 5.17301 22.0624 5.82624 23.3423 6.25824 25.3571L8.6758 25.3571 8.6758-0.643002 5.40882-0.643002 5.40882 17.8477-0.324414 17.8477Z" fill-rule="evenodd" transform="matrix(1 0 0 -1 2861 862)"/><path d="M2749.06 916.519C2752.91 916.519 2756.6 914.991 2759.32 912.272 2762.04 909.553 2763.56 905.864 2763.56 902.019 2763.56 898.173 2762.04 894.485 2759.32 891.766 2756.6 889.047 2752.91 887.519 2749.06 887.519 2745.22 887.519 2741.53 889.047 2738.81 891.766 2736.09 894.485 2734.56 898.173 2734.56 902.019 2734.56 905.864 2736.09 909.553 2738.81 912.272 2741.53 914.991 2745.22 916.519 2749.06 916.519Z" stroke="#FFFFFF" stroke-width="2.83012" stroke-linejoin="round" stroke-miterlimit="10" fill="#0B0405" fill-rule="evenodd"/><path d="M12.0006 27.3456C15.427 27.3456 18.0851 26.4576 19.975 24.6816 21.865 22.9097 22.9144 20.8961 23.1226 18.6415L19.5506 18.6415C19.1461 20.3519 18.3386 21.7068 17.1284 22.707 15.9181 23.7107 14.2206 24.2127 12.0358 24.2127 9.37168 24.2127 7.22051 23.2919 5.58196 21.4502 3.94342 19.6124 3.12429 16.794 3.12429 12.9951 3.12429 9.87943 3.86299 7.35275 5.3404 5.41447 6.82167 3.48029 9.03003 2.5132 11.9652 2.5132 14.6647 2.5132 16.7215 3.53242 18.136 5.57087 18.8828 6.64427 19.4407 8.05713 19.81 9.81001L23.3817 9.81001C23.0636 7.01096 22.0085 4.66353 20.2166 2.76801 18.0675 0.486181 15.1696-0.654587 11.5232-0.654587 8.3798-0.654587 5.73924 0.281458 3.60147 2.15413 0.788147 4.62487-0.618365 8.44314-0.618365 13.609-0.618365 17.5277 0.438455 20.7418 2.55239 23.2511 4.83552 25.9808 7.98483 27.3456 12.0006 27.3456ZM11.2637 27.3456 11.2637 27.3456Z" fill-rule="evenodd" transform="matrix(1 0 0 -1 2781 915)"/><path d="M8.54919 2.26719C10.6998 2.26719 12.1753 3.058 12.9756 4.63961 13.7759 6.22123 14.1757 7.98239 14.1757 9.9231 14.1757 11.6766 13.8873 13.1031 13.3101 14.2025 12.3946 15.9299 10.8191 16.7936 8.5836 16.7936 6.59833 16.7936 5.15553 16.057 4.25549 14.5837 3.35516 13.1144 2.90485 11.3382 2.90485 9.25568 2.90485 7.2588 3.35516 5.59493 4.25549 4.26406 5.15553 2.93291 6.58695 2.26719 8.54919 2.26719ZM8.67605 19.5472C11.1615 19.5472 13.264 18.7397 14.9839 17.1243 16.7035 15.5129 17.5636 13.1422 17.5636 10.0127 17.5636 6.98423 16.8056 4.48275 15.2895 2.50857 13.7776 0.534107 11.429-0.452984 8.24324-0.452984 5.58455-0.452984 3.47241 0.420081 1.90653 2.16621 0.344441 3.91631-0.436603 6.26235-0.436603 9.20519-0.436603 12.3608 0.38673 14.8736 2.0334 16.7431 3.68414 18.6126 5.89836 19.5472 8.67605 19.5472ZM8.56639 19.4576 8.56639 19.4576Z" fill-rule="evenodd" transform="matrix(1 0 0 -1 2807 915)"/><path d="M-0.452014 18.0886 2.68007 18.0886 2.68007 15.456C3.60662 16.5422 4.59009 17.322 5.63016 17.7949 6.67024 18.2677 7.82562 18.5043 9.09659 18.5043 11.8804 18.5043 13.7611 17.586 14.7386 15.7497 15.2784 14.7445 15.5481 13.3071 15.5481 11.4374L15.5481-0.46251 12.1931-0.46251 12.1931 11.2269C12.1931 12.3613 12.0153 13.274 11.6596 13.965 11.073 15.1215 10.0095 15.6998 8.46881 15.6998 7.6869 15.6998 7.04549 15.6239 6.54516 15.4725 5.64202 15.2174 4.84825 14.7095 4.16386 13.9482 3.61255 13.3349 3.2548 12.7011 3.09059 12.0471 2.92638 11.3968 2.84428 10.4656 2.84428 9.25384L2.84428-0.46251-0.452014-0.46251-0.452014 18.0886ZM7.29595 18.5377 7.29595 18.5377Z" fill-rule="evenodd" transform="matrix(1 0 0 -1 2829 914)"/><path d="M2.44664 24.4021 5.73775 24.4021 5.73775 19.0144 8.82659 19.0144 8.82659 16.3666 5.73775 16.3666 5.73775 3.76273C5.73775 3.08971 5.96722 2.63987 6.42614 2.4129 6.67695 2.27841 7.09729 2.21102 7.68717 2.21102 7.84531 2.21102 8.01485 2.21481 8.19608 2.22269 8.37731 2.23028 8.58749 2.24574 8.82659 2.26878L8.82659-0.292314C8.45244-0.399962 8.06308-0.476979 7.65823-0.523072 7.25718-0.57325 6.82135-0.598047 6.35102-0.598047 4.83159-0.598047 3.80032-0.211796 3.25663 0.561289 2.71673 1.33817 2.44664 2.3458 2.44664 3.5839L2.44664 16.3666-0.17334 16.3666-0.17334 19.0144 2.44664 19.0144 2.44664 24.4021Z" fill-rule="evenodd" transform="matrix(1 0 0 -1 2847 915)"/><path d="M-0.274351 18.1213 2.68316 18.1213 2.68316 14.912C2.92287 15.5376 3.51432 16.2983 4.45778 17.1941 5.40488 18.0898 6.4939 18.5377 7.72512 18.5377 7.78407 18.5377 7.88158 18.5321 8.01791 18.5211 8.15788 18.5099 8.39396 18.4858 8.72558 18.449L8.72558 15.1563C8.54147 15.1897 8.37189 15.2119 8.21711 15.2228 8.06234 15.2341 7.89275 15.2397 7.70836 15.2397 6.14216 15.2397 4.93887 14.7326 4.0985 13.7183 3.25812 12.7077 2.83794 11.5435 2.83794 10.226L2.83794-0.462481-0.274351-0.462481-0.274351 18.1213Z" fill-rule="evenodd" transform="matrix(1 0 0 -1 2860 914)"/><path d="M8.0789 2.26719C10.1101 2.26719 11.5035 3.058 12.2594 4.63961 13.0152 6.22123 13.3931 7.98239 13.3931 9.9231 13.3931 11.6766 13.1204 13.1031 12.5756 14.2025 11.7107 15.9299 10.2227 16.7936 8.11167 16.7936 6.2367 16.7936 4.87406 16.057 4.02375 14.5837 3.17344 13.1144 2.74842 11.3382 2.74842 9.25568 2.74842 7.2588 3.17344 5.59493 4.02375 4.26406 4.87406 2.93291 6.22568 2.26719 8.0789 2.26719ZM8.19872 19.5472C10.5461 19.5472 12.5318 18.7397 14.1561 17.1243 15.7804 15.5129 16.5924 13.1422 16.5924 10.0127 16.5924 6.98423 15.8766 4.48275 14.4451 2.50857 13.0169 0.534107 10.7987-0.452984 7.78995-0.452984 5.27924-0.452984 3.28417 0.420081 1.80529 2.16621 0.329987 3.91631-0.407388 6.26235-0.407388 9.20519-0.407388 12.3608 0.370202 14.8736 1.92538 16.7431 3.48414 18.6126 5.57535 19.5472 8.19872 19.5472ZM8.09515 19.4576 8.09515 19.4576Z" fill-rule="evenodd" transform="matrix(1 0 0 -1 2871 915)"/><path d="M-0.158353 25.3609 3.84178 25.3609 3.84178-0.639277-0.158353-0.639277-0.158353 25.3609Z" fill-rule="evenodd" transform="matrix(1 0 0 -1 2892 914)"/><path d="M8.39196 19.5046C9.7158 19.5046 10.9972 19.1906 12.2358 18.563 13.4745 17.9354 14.4182 17.1212 15.0674 16.1214 15.694 15.1704 16.1115 14.0597 16.3189 12.789 16.5045 11.9207 16.5973 10.5354 16.5973 8.63332L2.95157 8.63332C3.01089 6.71645 3.4576 5.17885 4.29227 4.02109 5.12666 2.86703 6.41901 2.29015 8.16931 2.29015 9.80126 2.29015 11.1049 2.83509 12.0801 3.92527 12.6364 4.56062 13.0295 5.29548 13.2594 6.12987L16.3358 6.12987C16.2579 5.43835 15.9889 4.66584 15.529 3.81235 15.073 2.96285 14.561 2.26762 13.9937 1.72609 13.0407 0.786481 11.8631 0.151137 10.4614-0.179653 9.70849-0.367576 8.85751-0.46168 7.90786-0.46168 5.59024-0.46168 3.62459 0.393525 2.01147 2.10394 0.401733 3.81435-0.402857 6.20687-0.402857 9.28178-0.402857 12.3154 0.407355 14.7777 2.02806 16.6684 3.65242 18.5593 5.77382 19.5046 8.39196 19.5046ZM13.3817 11.1539C13.2558 12.5258 12.9609 13.6237 12.4973 14.4467 11.6407 15.9729 10.2092 16.736 8.20277 16.736 6.76395 16.736 5.55678 16.2098 4.58155 15.1573 3.60969 14.1085 3.09607 12.7739 3.0404 11.1539L13.3817 11.1539ZM8.09706 19.5385 8.09706 19.5385Z" fill-rule="evenodd" transform="matrix(1 0 0 -1 2982 810)"/><path d="M13.9624 26.2625 17.6226 26.2625C17.1557 25.0552 16.1199 22.3006 14.5156 17.9993 13.3151 14.7667 12.309 12.1307 11.4969 10.0905 9.58654 5.28675 8.23883 2.35804 7.45435 1.30434 6.66987 0.246643 5.32037-0.281918 3.40586-0.281918 2.94284-0.281918 2.58599-0.263143 2.335-0.225592 2.08372-0.192023 1.77385-0.1283 1.40511-0.0344219L1.40511 2.84564C1.98202 2.69544 2.39775 2.60355 2.6526 2.56998 2.91162 2.53243 3.13911 2.51365 3.33538 2.51365 3.94738 2.51365 4.39642 2.61123 4.6828 2.8061 4.97304 2.99755 5.21629 3.23367 5.41256 3.51502 5.47531 3.60861 5.69477 4.09052 6.07155 4.96046 6.45219 5.82669 6.72875 6.4699 6.90123 6.89008L-0.377669 26.2625 3.37047 26.2625 8.64891 10.9342 13.9624 26.2625ZM8.63107 26.7182 8.63107 26.7182Z" fill-rule="evenodd" transform="matrix(1 0 0 -1 3001 817)"/><path d="M8.39524 19.5046C9.7191 19.5046 11.0005 19.1906 12.2392 18.563 13.4779 17.9354 14.4216 17.1212 15.0708 16.1214 15.6974 15.1704 16.1146 14.0597 16.3224 12.789 16.5076 11.9207 16.6004 10.5354 16.6004 8.63332L2.95444 8.63332C3.01376 6.71645 3.46076 5.17885 4.29517 4.02109 5.12958 2.86703 6.42195 2.29015 8.17258 2.29015 9.80428 2.29015 11.1079 2.83509 12.0834 3.92527 12.6395 4.56062 13.0328 5.29548 13.2628 6.12987L16.339 6.12987C16.2611 5.43835 15.9923 4.66584 15.5324 3.81235 15.0761 2.96285 14.5644 2.26762 13.9971 1.72609 13.0438 0.786481 11.8664 0.151137 10.4647-0.179653 9.71179-0.367576 8.86051-0.46168 7.91112-0.46168 5.59317-0.46168 3.62776 0.393525 2.01433 2.10394 0.404834 3.81435-0.400054 6.20687-0.400054 9.28178-0.400054 12.3154 0.410456 14.7777 2.0312 16.6684 3.65559 18.5593 5.77675 19.5046 8.39524 19.5046ZM13.3851 11.1539C13.2589 12.5258 12.9642 13.6237 12.5006 14.4467 11.6437 15.9729 10.2125 16.736 8.20603 16.736 6.7669 16.736 5.55971 16.2098 4.58446 15.1573 3.61286 14.1085 3.09923 12.7739 3.04356 11.1539L13.3851 11.1539ZM8.10033 19.5385 8.10033 19.5385Z" fill-rule="evenodd" transform="matrix(1 0 0 -1 3021 810)"/><path d="M2995.59 864.515C2999.3 864.515 3002.86 862.987 3005.48 860.268 3008.11 857.549 3009.59 853.86 3009.59 850.015 3009.59 846.169 3008.11 842.481 3005.48 839.762 3002.86 837.042 2999.3 835.515 2995.59 835.515 2991.87 835.515 2988.31 837.042 2985.69 839.762 2983.06 842.481 2981.59 846.169 2981.59 850.015 2981.59 853.86 2983.06 857.549 2985.69 860.268 2988.31 862.987 2991.87 864.515 2995.59 864.515Z" stroke="#000000" stroke-width="2.83012" stroke-linejoin="round" stroke-miterlimit="10" fill="none" fill-rule="evenodd"/><path d="M-0.105287 25.3568 2.89445 25.3568 2.89445-0.643287-0.105287-0.643287-0.105287 25.3568Z" fill-rule="evenodd" transform="matrix(1 0 0 -1 3029 862)"/><path d="M8.39253 19.5089C9.71664 19.5089 10.9977 19.1953 12.2364 18.5673 13.475 17.9397 14.4191 17.1258 15.0679 16.1257 15.6948 15.1747 16.112 14.0639 16.3195 12.7935 16.505 11.9249 16.5978 10.5398 16.5978 8.63775L2.95213 8.63775C3.01145 6.72057 3.45844 5.18294 4.29283 4.02515 5.12722 2.87108 6.41957 2.29418 8.17015 2.29418 9.80182 2.29418 11.1054 2.83914 12.0807 3.92934 12.637 4.56469 13.03 5.29957 13.26 6.13398L16.3364 6.13398C16.2585 5.44244 15.9895 4.66992 15.5298 3.8167 15.0735 2.96718 14.5619 2.27165 13.9943 1.7304 13.0413 0.790487 11.8639 0.155132 10.4619-0.175664 9.70905-0.36359 8.85808-0.45741 7.90871-0.45741 5.5908-0.45741 3.62515 0.39781 2.01204 2.10797 0.402576 3.81841-0.402295 6.21126-0.402295 9.28623-0.402295 12.3199 0.407917 14.782 2.02862 16.6727 3.65298 18.5636 5.77438 19.5089 8.39253 19.5089ZM13.3826 11.1581C13.2563 12.5303 12.9614 13.6279 12.4978 14.4512 11.6412 15.9774 10.2097 16.7405 8.20333 16.7405 6.76451 16.7405 5.55735 16.2141 4.58211 15.1616 3.61053 14.1127 3.09663 12.7784 3.04125 11.1581L13.3826 11.1581ZM8.09762 19.5429 8.09762 19.5429Z" fill-rule="evenodd" transform="matrix(1 0 0 -1 3036 863)"/><path d="M2.48322 21.6927C2.53232 23.0459 2.76347 24.0375 3.17638 24.6677 3.92238 25.7772 5.36011 26.3321 7.4887 26.3321 7.69343 26.3321 7.90161 26.3262 8.11381 26.3145 8.32601 26.303 8.56836 26.2857 8.84114 26.2626L8.84114 23.2875C8.50777 23.3145 8.26714 23.3301 8.11955 23.3339 7.97167 23.3415 7.83356 23.3456 7.70463 23.3456 6.73495 23.3456 6.15549 23.0884 5.96598 22.5743 5.77675 22.0602 5.68199 20.7516 5.68199 18.6482L8.84114 18.6482 8.84114 16.0793 5.64208 16.0793 5.64208-0.668383 2.48322-0.668383 2.48322 16.0793-0.159077 16.0793-0.159077 18.6482 2.48322 18.6482 2.48322 21.6927Z" fill-rule="evenodd" transform="matrix(1 0 0 -1 3055 862)"/><path d="M2.46807 24.398 5.75932 24.398 5.75932 19.0103 8.848 19.0103 8.848 16.3626 5.75932 16.3626 5.75932 3.75865C5.75932 3.08563 5.9888 2.63578 6.44774 2.40881 6.69826 2.27433 7.11862 2.20694 7.70853 2.20694 7.86667 2.20694 8.03651 2.21073 8.21775 2.21832 8.39899 2.22619 8.60917 2.24165 8.848 2.2647L8.848-0.296689C8.47412-0.404338 8.08445-0.481063 7.67959-0.527448 7.27852-0.577334 6.84296-0.602423 6.37232-0.602423 4.85313-0.602423 3.82152-0.21588 3.2778 0.557204 2.73789 1.33408 2.46807 2.34143 2.46807 3.57982L2.46807 16.3626-0.1523 16.3626-0.1523 19.0103 2.46807 19.0103 2.46807 24.398Z" fill-rule="evenodd" transform="matrix(1 0 0 -1 3065 863)"/><path d="M2988.59 916.518 2995.59 909.518 3002.59 916.518 3009.59 909.518 3002.59 902.518 3009.59 895.518 3002.59 888.518 2995.59 895.518 2988.59 888.518 2981.59 895.518 2988.59 902.518 2981.59 909.518Z" stroke="#000000" stroke-width="2.83012" stroke-miterlimit="8" fill="none" fill-rule="evenodd"/><path d="M-0.257867 19.0751 2.69965 19.0751 2.69965 15.6969C2.93935 16.3554 3.5308 17.1561 4.47426 18.099 5.42136 19.042 6.51066 19.5134 7.74161 19.5134 7.80056 19.5134 7.89806 19.5075 8.0344 19.496 8.17465 19.4841 8.41044 19.459 8.74207 19.42L8.74207 15.954C8.55796 15.9892 8.38837 16.0125 8.2336 16.0241 8.07882 16.0359 7.90924 16.0418 7.72485 16.0418 6.15864 16.0418 4.95536 15.508 4.11498 14.4403 3.27461 13.3765 2.85442 12.1511 2.85442 10.7642L2.85442-0.486823-0.257867-0.486823-0.257867 19.0751Z" fill-rule="evenodd" transform="matrix(1 0 0 -1 3029 915)"/><path d="M-0.100097 18.9261 2.89991 18.9261 2.89991-0.663865-0.100097-0.663865-0.100097 18.9261ZM-0.100097 26.3363 2.89991 26.3363 2.89991 22.5842-0.100097 22.5842-0.100097 26.3363Z" fill-rule="evenodd" transform="matrix(1 0 0 -1 3041 915)"/><path d="M7.73888 27.5976C9.26095 27.5976 10.5877 27.2257 11.7195 26.482 12.3376 26.0582 12.9654 25.4437 13.6026 24.6383L13.6026 27.0775 16.6098 27.0775 16.6098 9.48208C16.6098 7.02356 16.2488 5.0854 15.5264 3.6673 14.1744 1.03895 11.6211-0.275084 7.86655-0.275084 5.77671-0.275084 4.01922 0.193231 2.59378 1.12957 1.17215 2.06211 0.376564 3.52084 0.206437 5.50549L3.52084 5.50549C3.67545 4.63843 3.98818 3.96987 4.45932 3.4995 5.19723 2.77891 6.3562 2.41875 7.93595 2.41875 10.4352 2.41875 12.0711 3.29721 12.8436 5.05442 13.3033 6.09103 13.5138 7.9409 13.4752 10.6035 12.8263 9.61333 12.0421 8.87724 11.1227 8.39548 10.2073 7.91372 8.99449 7.67283 7.48413 7.67283 5.38258 7.67283 3.54397 8.41682 1.96803 9.9042 0.39589 11.3916-0.390326 13.8521-0.390326 17.2856-0.390326 20.5264 0.403503 23.0545 1.99116 24.8695 3.57882 26.6884 5.49473 27.5976 7.73888 27.5976ZM13.6026 17.6671C13.6026 20.0601 13.1083 21.8349 12.1194 22.9907 11.1303 24.1469 9.86913 24.7248 8.33565 24.7248 6.04113 24.7248 4.47104 23.6537 3.62509 21.5109 3.18088 20.3665 2.95863 18.8677 2.95863 17.014 2.95863 14.8329 3.40108 13.1739 4.28568 12.0371 5.17409 10.9002 6.36762 10.3319 7.86655 10.3319 10.2073 10.3319 11.8547 11.3857 12.8087 13.4937 13.3379 14.6844 13.6026 16.0756 13.6026 17.6671ZM8.11545 27.7248 8.11545 27.7248Z" fill-rule="evenodd" transform="matrix(1 0 0 -1 3048 923)"/><path d="M-0.428608 26.3361 2.86776 26.3361 2.86776 16.3006C3.64969 17.2893 4.35158 17.9848 4.97315 18.3874 6.03667 19.0832 7.36428 19.4309 8.95571 19.4309 11.8024 19.4309 13.732 18.4363 14.7446 16.4471 15.2959 15.3608 15.5716 13.8521 15.5716 11.9216L15.5716-0.664072 12.1815-0.664072 12.1815 11.6989C12.1815 13.1409 11.9978 14.1981 11.6302 14.8702 11.0321 15.9448 9.90777 16.4823 8.25766 16.4823 6.88914 16.4823 5.64778 16.0113 4.53328 15.0694 3.42293 14.1317 2.86776 12.3556 2.86776 9.74111L2.86776-0.664072-0.428608-0.664072-0.428608 26.3361Z" fill-rule="evenodd" transform="matrix(1 0 0 -1 3069 915)"/><path d="M2.46973 24.4021 5.76085 24.4021 5.76085 19.0144 8.84969 19.0144 8.84969 16.3666 5.76085 16.3666 5.76085 3.76273C5.76085 3.08971 5.99031 2.63987 6.44924 2.4129 6.69975 2.27841 7.12009 2.21102 7.70997 2.21102 7.86811 2.21102 8.03794 2.21481 8.21917 2.22269 8.40041 2.23028 8.61058 2.24574 8.84969 2.26878L8.84969-0.292314C8.47553-0.399962 8.08617-0.476979 7.68103-0.523072 7.28027-0.57325 6.84444-0.598047 6.37382-0.598047 4.85469-0.598047 3.82312-0.211504 3.27943 0.561289 2.73953 1.33817 2.46973 2.3458 2.46973 3.5839L2.46973 16.3666-0.15054 16.3666-0.15054 19.0144 2.46973 19.0144 2.46973 24.4021Z" fill-rule="evenodd" transform="matrix(1 0 0 -1 3088 915)"/><text font-family="Helvetica,Helvetica_MSFontService,sans-serif" font-weight="400" font-size="46" transform="matrix(1 0 0 1 2198.44 735)">Visual Acuity vs </text><text font-family="Helvetica,Helvetica_MSFontService,sans-serif" font-weight="400" font-size="46" transform="matrix(1 0 0 1 2530.73 735)">ssVEP</text><text font-family="Helvetica,Helvetica_MSFontService,sans-serif" font-weight="400" font-size="46" transform="matrix(1 0 0 1 2680.26 735)">AUC </text><text font-family="Helvetica,Helvetica_MSFontService,sans-serif" font-weight="400" font-size="46" transform="matrix(1 0 0 1 2789.69 735)">per group</text><text font-family="Helvetica,Helvetica_MSFontService,sans-serif" font-weight="400" font-size="39" transform="matrix(1 0 0 1 2390.25 1666)">Visual Acuity (logMAR)</text></g></svg>