<svg width="1306" height="1039" xmlns="http://www.w3.org/2000/svg" xmlns:xlink="http://www.w3.org/1999/xlink" xml:space="preserve" overflow="hidden"><defs><clipPath id="clip0"><rect x="247" y="663" width="1306" height="1039"/></clipPath></defs><g clip-path="url(#clip0)" transform="translate(-247 -663)"><path d="M247 1702 1553 1702 1553 663 247 663Z" fill="#FFFFFF" fill-rule="evenodd"/><path d="M452 1563 1527 1563 1527 746 452 746Z" fill="#FFFFFF" fill-rule="evenodd"/><path d="M730.5 1287.5C734.213 1287.5 737.777 1285.97 740.401 1283.25 743.026 1280.53 744.5 1276.84 744.5 1273 744.5 1269.16 743.026 1265.47 740.401 1262.75 737.777 1260.03 734.213 1258.5 730.5 1258.5 726.788 1258.5 723.227 1260.03 720.603 1262.75 717.975 1265.47 716.5 1269.16 716.5 1273 716.5 1276.84 717.975 1280.53 720.603 1283.25 723.227 1285.97 726.788 1287.5 730.5 1287.5Z" stroke="#FFFFFF" stroke-width="2.83625" stroke-linejoin="round" stroke-miterlimit="10" fill="#40498E" fill-rule="evenodd"/><path d="M669.748 1183.5 677 1176.5 684.248 1183.5 691.5 1176.5 684.248 1169.5 691.5 1162.5 684.248 1155.5 677 1162.5 669.748 1155.5 662.5 1162.5 669.748 1169.5 662.5 1176.5Z" stroke="#FFFFFF" stroke-width="2.83625" stroke-linejoin="round" stroke-miterlimit="10" fill="#40498E" fill-rule="evenodd"/><path d="M805 1070.5C808.845 1070.5 812.533 1068.97 815.251 1066.25 817.973 1063.54 819.5 1059.85 819.5 1056 819.5 1052.16 817.973 1048.47 815.251 1045.75 812.533 1043.03 808.845 1041.5 805 1041.5 801.155 1041.5 797.464 1043.03 794.746 1045.75 792.028 1048.47 790.5 1052.16 790.5 1056 790.5 1059.85 792.028 1063.54 794.746 1066.25 797.464 1068.97 801.155 1070.5 805 1070.5Z" stroke="#FFFFFF" stroke-width="2.83625" stroke-linejoin="round" stroke-miterlimit="10" fill="#40498E" fill-rule="evenodd"/><path d="M730.498 984.5 737.5 977.5 744.498 984.5 751.5 977.5 744.498 970.5 751.5 963.5 744.498 956.5 737.5 963.5 730.498 956.5 723.5 963.5 730.498 970.5 723.5 977.5Z" stroke="#FFFFFF" stroke-width="2.83625" stroke-linejoin="round" stroke-miterlimit="10" fill="#40498E" fill-rule="evenodd"/><path d="M1343.5 1193.5C1347.21 1193.5 1350.77 1191.97 1353.4 1189.25 1356.03 1186.53 1357.5 1182.85 1357.5 1179 1357.5 1175.16 1356.03 1171.46 1353.4 1168.75 1350.77 1166.03 1347.21 1164.5 1343.5 1164.5 1339.79 1164.5 1336.23 1166.03 1333.6 1168.75 1330.97 1171.46 1329.5 1175.16 1329.5 1179 1329.5 1182.85 1330.97 1186.53 1333.6 1189.25 1336.23 1191.97 1339.79 1193.5 1343.5 1193.5Z" stroke="#FFFFFF" stroke-width="2.83625" stroke-linejoin="round" stroke-miterlimit="10" fill="#40498E" fill-rule="evenodd"/><path d="M1336.5 1361.5 1343.5 1354.5 1350.5 1361.5 1357.5 1354.5 1350.5 1347.5 1357.5 1340.5 1350.5 1333.5 1343.5 1340.5 1336.5 1333.5 1329.5 1340.5 1336.5 1347.5 1329.5 1354.5Z" stroke="#FFFFFF" stroke-width="2.83625" stroke-linejoin="round" stroke-miterlimit="10" fill="#40498E" fill-rule="evenodd"/><path d="M865 1265.5C868.845 1265.5 872.533 1264.03 875.251 1261.4 877.973 1258.78 879.5 1255.21 879.5 1251.5 879.5 1247.79 877.973 1244.23 875.251 1241.6 872.533 1238.97 868.845 1237.5 865 1237.5 861.155 1237.5 857.464 1238.97 854.745 1241.6 852.027 1244.23 850.5 1247.79 850.5 1251.5 850.5 1255.21 852.027 1258.78 854.745 1261.4 857.464 1264.03 861.155 1265.5 865 1265.5Z" stroke="#FFFFFF" stroke-width="2.83625" stroke-linejoin="round" stroke-miterlimit="10" fill="#40498E" fill-rule="evenodd"/><path d="M851.498 1380.5 858.5 1373.25 865.498 1380.5 872.5 1373.25 865.498 1366 872.5 1358.75 865.498 1351.5 858.5 1358.75 851.498 1351.5 844.5 1358.75 851.498 1366 844.5 1373.25Z" stroke="#FFFFFF" stroke-width="2.83625" stroke-linejoin="round" stroke-miterlimit="10" fill="#40498E" fill-rule="evenodd"/><path d="M677 1175.5C680.845 1175.5 684.533 1173.97 687.255 1171.25 689.973 1168.53 691.5 1164.84 691.5 1161 691.5 1157.16 689.973 1153.47 687.255 1150.75 684.533 1148.03 680.845 1146.5 677 1146.5 673.155 1146.5 669.467 1148.03 666.745 1150.75 664.027 1153.47 662.5 1157.16 662.5 1161 662.5 1164.84 664.027 1168.53 666.745 1171.25 669.467 1173.97 673.155 1175.5 677 1175.5Z" stroke="#FFFFFF" stroke-width="2.83625" stroke-linejoin="round" stroke-miterlimit="10" fill="#40498E" fill-rule="evenodd"/><path d="M1033.5 1277.5 1040.5 1270.25 1047.5 1277.5 1054.5 1270.25 1047.5 1263 1054.5 1255.75 1047.5 1248.5 1040.5 1255.75 1033.5 1248.5 1026.5 1255.75 1033.5 1263 1026.5 1270.25Z" stroke="#FFFFFF" stroke-width="2.83625" stroke-linejoin="round" stroke-miterlimit="10" fill="#40498E" fill-rule="evenodd"/><path d="M892 1260.5C895.845 1260.5 899.533 1259.03 902.251 1256.4 904.973 1253.77 906.5 1250.21 906.5 1246.5 906.5 1242.79 904.973 1239.22 902.251 1236.6 899.533 1233.97 895.845 1232.5 892 1232.5 888.155 1232.5 884.467 1233.97 881.746 1236.6 879.028 1239.22 877.5 1242.79 877.5 1246.5 877.5 1250.21 879.028 1253.77 881.746 1256.4 884.467 1259.03 888.155 1260.5 892 1260.5Z" stroke="#FFFFFF" stroke-width="2.83625" stroke-linejoin="round" stroke-miterlimit="10" fill="#40498E" fill-rule="evenodd"/><path d="M857.748 1398.5 865 1391.25 872.248 1398.5 879.5 1391.25 872.248 1384 879.5 1376.75 872.248 1369.5 865 1376.75 857.748 1369.5 850.5 1376.75 857.748 1384 850.5 1391.25Z" stroke="#FFFFFF" stroke-width="2.83625" stroke-linejoin="round" stroke-miterlimit="10" fill="#40498E" fill-rule="evenodd"/><path d="M1007 1128.5C1010.85 1128.5 1014.53 1126.97 1017.25 1124.25 1019.97 1121.54 1021.5 1117.84 1021.5 1114 1021.5 1110.16 1019.97 1106.47 1017.25 1103.75 1014.53 1101.03 1010.85 1099.5 1007 1099.5 1003.16 1099.5 999.467 1101.03 996.745 1103.75 994.027 1106.47 992.5 1110.16 992.5 1114 992.5 1117.84 994.027 1121.54 996.745 1124.25 999.467 1126.97 1003.16 1128.5 1007 1128.5Z" stroke="#FFFFFF" stroke-width="2.83625" stroke-linejoin="round" stroke-miterlimit="10" fill="#40498E" fill-rule="evenodd"/><path d="M999.752 1306.5 1007 1299.25 1014.25 1306.5 1021.5 1299.25 1014.25 1292 1021.5 1284.75 1014.25 1277.5 1007 1284.75 999.752 1277.5 992.5 1284.75 999.752 1292 992.5 1299.25Z" stroke="#FFFFFF" stroke-width="2.83625" stroke-linejoin="round" stroke-miterlimit="10" fill="#40498E" fill-rule="evenodd"/><path d="M1101 1171.5C1104.85 1171.5 1108.53 1169.97 1111.25 1167.25 1113.97 1164.53 1115.5 1160.84 1115.5 1157 1115.5 1153.16 1113.97 1149.47 1111.25 1146.75 1108.53 1144.03 1104.85 1142.5 1101 1142.5 1097.16 1142.5 1093.47 1144.03 1090.75 1146.75 1088.03 1149.47 1086.5 1153.16 1086.5 1157 1086.5 1160.84 1088.03 1164.53 1090.75 1167.25 1093.47 1169.97 1097.16 1171.5 1101 1171.5Z" stroke="#FFFFFF" stroke-width="2.83625" stroke-linejoin="round" stroke-miterlimit="10" fill="#40498E" fill-rule="evenodd"/><path d="M1228.75 1297.5 1236 1290.5 1243.25 1297.5 1250.5 1290.5 1243.25 1283.5 1250.5 1276.5 1243.25 1269.5 1236 1276.5 1228.75 1269.5 1221.5 1276.5 1228.75 1283.5 1221.5 1290.5Z" stroke="#FFFFFF" stroke-width="2.83625" stroke-linejoin="round" stroke-miterlimit="10" fill="#40498E" fill-rule="evenodd"/><path d="M737.5 1105.5C741.213 1105.5 744.773 1104.03 747.401 1101.4 750.026 1098.77 751.5 1095.21 751.5 1091.5 751.5 1087.79 750.026 1084.22 747.401 1081.6 744.773 1078.97 741.213 1077.5 737.5 1077.5 733.788 1077.5 730.227 1078.97 727.599 1081.6 724.975 1084.22 723.5 1087.79 723.5 1091.5 723.5 1095.21 724.975 1098.77 727.599 1101.4 730.227 1104.03 733.788 1105.5 737.5 1105.5Z" stroke="#FFFFFF" stroke-width="2.83625" stroke-linejoin="round" stroke-miterlimit="10" fill="#40498E" fill-rule="evenodd"/><path d="M730.498 1187.5 737.5 1180.25 744.498 1187.5 751.5 1180.25 744.498 1173 751.5 1165.75 744.498 1158.5 737.5 1165.75 730.498 1158.5 723.5 1165.75 730.498 1173 723.5 1180.25Z" stroke="#FFFFFF" stroke-width="2.83625" stroke-linejoin="round" stroke-miterlimit="10" fill="#40498E" fill-rule="evenodd"/><path d="M650 1049.5C653.845 1049.5 657.533 1047.97 660.251 1045.25 662.973 1042.53 664.5 1038.84 664.5 1035 664.5 1031.15 662.973 1027.47 660.251 1024.75 657.533 1022.03 653.845 1020.5 650 1020.5 646.155 1020.5 642.467 1022.03 639.746 1024.75 637.028 1027.47 635.5 1031.15 635.5 1035 635.5 1038.84 637.028 1042.53 639.746 1045.25 642.467 1047.97 646.155 1049.5 650 1049.5Z" stroke="#FFFFFF" stroke-width="2.83625" stroke-linejoin="round" stroke-miterlimit="10" fill="#40498E" fill-rule="evenodd"/><path d="M669.748 1085.5 677 1078.25 684.248 1085.5 691.5 1078.25 684.248 1071 691.5 1063.75 684.248 1056.5 677 1063.75 669.748 1056.5 662.5 1063.75 669.748 1071 662.5 1078.25Z" stroke="#FFFFFF" stroke-width="2.83625" stroke-linejoin="round" stroke-miterlimit="10" fill="#40498E" fill-rule="evenodd"/><path d="M623.001 933.5C626.846 933.5 630.533 931.972 633.251 929.253 635.973 926.534 637.5 922.846 637.5 919 637.5 915.154 635.973 911.466 633.251 908.747 630.533 906.028 626.846 904.5 623.001 904.5 619.156 904.5 615.466 906.028 612.747 908.747 610.028 911.466 608.5 915.154 608.5 919 608.5 922.846 610.028 926.534 612.747 929.253 615.466 931.972 619.156 933.5 623.001 933.5Z" stroke="#FFFFFF" stroke-width="2.83625" stroke-linejoin="round" stroke-miterlimit="10" fill="#40498E" fill-rule="evenodd"/><path d="M669.748 1052.5 677 1045.25 684.248 1052.5 691.5 1045.25 684.248 1038 691.5 1030.75 684.248 1023.5 677 1030.75 669.748 1023.5 662.5 1030.75 669.748 1038 662.5 1045.25Z" stroke="#FFFFFF" stroke-width="2.83625" stroke-linejoin="round" stroke-miterlimit="10" fill="#40498E" fill-rule="evenodd"/><path d="M569 1109.5C572.845 1109.5 576.534 1107.97 579.253 1105.25 581.972 1102.53 583.5 1098.84 583.5 1095 583.5 1091.16 581.972 1087.46 579.253 1084.75 576.534 1082.03 572.845 1080.5 569 1080.5 565.155 1080.5 561.466 1082.03 558.747 1084.75 556.028 1087.46 554.5 1091.16 554.5 1095 554.5 1098.84 556.028 1102.53 558.747 1105.25 561.466 1107.97 565.155 1109.5 569 1109.5Z" stroke="#FFFFFF" stroke-width="2.83625" stroke-linejoin="round" stroke-miterlimit="10" fill="#40498E" fill-rule="evenodd"/><path d="M777.502 1153.5 784.5 1146.5 791.502 1153.5 798.5 1146.5 791.502 1139.5 798.5 1132.5 791.502 1125.5 784.5 1132.5 777.502 1125.5 770.5 1132.5 777.502 1139.5 770.5 1146.5Z" stroke="#FFFFFF" stroke-width="2.83625" stroke-linejoin="round" stroke-miterlimit="10" fill="#40498E" fill-rule="evenodd"/><path d="M582.5 865.5C586.213 865.5 589.774 863.972 592.4 861.253 595.025 858.534 596.5 854.845 596.5 851 596.5 847.155 595.025 843.466 592.4 840.747 589.774 838.028 586.213 836.5 582.5 836.5 578.787 836.5 575.226 838.028 572.6 840.747 569.975 843.466 568.5 847.155 568.5 851 568.5 854.845 569.975 858.534 572.6 861.253 575.226 863.972 578.787 865.5 582.5 865.5Z" stroke="#FFFFFF" stroke-width="2.83625" stroke-linejoin="round" stroke-miterlimit="10" fill="#40498E" fill-rule="evenodd"/><path d="M568.75 938.5 576 931.5 583.25 938.5 590.5 931.5 583.25 924.5 590.5 917.5 583.25 910.5 576 917.5 568.75 910.5 561.5 917.5 568.75 924.5 561.5 931.5Z" stroke="#FFFFFF" stroke-width="2.83625" stroke-linejoin="round" stroke-miterlimit="10" fill="#40498E" fill-rule="evenodd"/><path d="M643 1218.5C646.845 1218.5 650.533 1217.03 653.255 1214.4 655.973 1211.77 657.5 1208.21 657.5 1204.5 657.5 1200.79 655.973 1197.23 653.255 1194.6 650.533 1191.97 646.845 1190.5 643 1190.5 639.155 1190.5 635.467 1191.97 632.745 1194.6 630.027 1197.23 628.5 1200.79 628.5 1204.5 628.5 1208.21 630.027 1211.77 632.745 1214.4 635.467 1217.03 639.155 1218.5 643 1218.5Z" stroke="#FFFFFF" stroke-width="2.83625" stroke-linejoin="round" stroke-miterlimit="10" fill="#40498E" fill-rule="evenodd"/><path d="M615.75 1107.5 623.001 1100.5 630.249 1107.5 637.5 1100.5 630.249 1093.5 637.5 1086.5 630.249 1079.5 623.001 1086.5 615.75 1079.5 608.5 1086.5 615.75 1093.5 608.5 1100.5Z" stroke="#FFFFFF" stroke-width="2.83625" stroke-linejoin="round" stroke-miterlimit="10" fill="#40498E" fill-rule="evenodd"/><path d="M1478 1449.5C1481.85 1449.5 1485.53 1448.02 1488.25 1445.4 1490.97 1442.77 1492.5 1439.21 1492.5 1435.5 1492.5 1431.78 1490.97 1428.22 1488.25 1425.6 1485.53 1422.97 1481.85 1421.5 1478 1421.5 1474.15 1421.5 1470.46 1422.97 1467.75 1425.6 1465.03 1428.22 1463.5 1431.78 1463.5 1435.5 1463.5 1439.21 1465.03 1442.77 1467.75 1445.4 1470.46 1448.02 1474.15 1449.5 1478 1449.5Z" stroke="#FFFFFF" stroke-width="2.83625" stroke-linejoin="round" stroke-miterlimit="10" fill="#40498E" fill-rule="evenodd"/><path d="M1336.5 1246.5 1343.5 1239.5 1350.5 1246.5 1357.5 1239.5 1350.5 1232.5 1357.5 1225.5 1350.5 1218.5 1343.5 1225.5 1336.5 1218.5 1329.5 1225.5 1336.5 1232.5 1329.5 1239.5Z" stroke="#FFFFFF" stroke-width="2.83625" stroke-linejoin="round" stroke-miterlimit="10" fill="#40498E" fill-rule="evenodd"/><path d="M1343.5 1316.5C1347.21 1316.5 1350.77 1314.97 1353.4 1312.25 1356.03 1309.53 1357.5 1305.84 1357.5 1302 1357.5 1298.16 1356.03 1294.47 1353.4 1291.75 1350.77 1289.03 1347.21 1287.5 1343.5 1287.5 1339.79 1287.5 1336.23 1289.03 1333.6 1291.75 1330.97 1294.47 1329.5 1298.16 1329.5 1302 1329.5 1305.84 1330.97 1309.53 1333.6 1312.25 1336.23 1314.97 1339.79 1316.5 1343.5 1316.5Z" stroke="#FFFFFF" stroke-width="2.83625" stroke-linejoin="round" stroke-miterlimit="10" fill="#40498E" fill-rule="evenodd"/><path d="M1470.75 1290.5 1478 1283.25 1485.25 1290.5 1492.5 1283.25 1485.25 1276 1492.5 1268.75 1485.25 1261.5 1478 1268.75 1470.75 1261.5 1463.5 1268.75 1470.75 1276 1463.5 1283.25Z" stroke="#FFFFFF" stroke-width="2.83625" stroke-linejoin="round" stroke-miterlimit="10" fill="#40498E" fill-rule="evenodd"/><path d="M542 952.5C545.846 952.5 549.534 950.972 552.253 948.253 554.972 945.534 556.5 941.846 556.5 938 556.5 934.155 554.972 930.466 552.253 927.747 549.534 925.028 545.846 923.5 542 923.5 538.155 923.5 534.466 925.028 531.747 927.747 529.028 930.466 527.5 934.155 527.5 938 527.5 941.846 529.028 945.534 531.747 948.253 534.466 950.972 538.155 952.5 542 952.5Z" stroke="#FFFFFF" stroke-width="2.83625" stroke-linejoin="round" stroke-miterlimit="10" fill="#0B0405" fill-rule="evenodd"/><path d="M554.75 872.5 562 865.5 569.25 872.5 576.5 865.5 569.25 858.5 576.5 851.5 569.25 844.5 562 851.5 554.75 844.5 547.5 851.5 554.75 858.5 547.5 865.5Z" stroke="#FFFFFF" stroke-width="2.83625" stroke-linejoin="round" stroke-miterlimit="10" fill="#0B0405" fill-rule="evenodd"/><path d="M576 992.5C579.845 992.5 583.534 990.972 586.253 988.253 588.972 985.534 590.5 981.846 590.5 978 590.5 974.154 588.972 970.466 586.253 967.747 583.534 965.027 579.845 963.5 576 963.5 572.154 963.5 568.466 965.027 565.747 967.747 563.028 970.466 561.5 974.154 561.5 978 561.5 981.846 563.028 985.534 565.747 988.253 568.466 990.972 572.154 992.5 576 992.5Z" stroke="#FFFFFF" stroke-width="2.83625" stroke-linejoin="round" stroke-miterlimit="10" fill="#0B0405" fill-rule="evenodd"/><path d="M568.75 1096.5 576 1089.5 583.25 1096.5 590.5 1089.5 583.25 1082.5 590.5 1075.5 583.25 1068.5 576 1075.5 568.75 1068.5 561.5 1075.5 568.75 1082.5 561.5 1089.5Z" stroke="#FFFFFF" stroke-width="2.83625" stroke-linejoin="round" stroke-miterlimit="10" fill="#0B0405" fill-rule="evenodd"/><path d="M542 797.5C545.846 797.5 549.534 796.025 552.253 793.4 554.972 790.774 556.5 787.213 556.5 783.5 556.5 779.788 554.972 776.226 552.253 773.601 549.534 770.975 545.846 769.5 542 769.5 538.155 769.5 534.466 770.975 531.747 773.601 529.028 776.226 527.5 779.788 527.5 783.5 527.5 787.213 529.028 790.774 531.747 793.4 534.466 796.025 538.155 797.5 542 797.5Z" stroke="#FFFFFF" stroke-width="2.83625" stroke-linejoin="round" stroke-miterlimit="10" fill="#0B0405" fill-rule="evenodd"/><path d="M581.75 804.5 589 797.25 596.25 804.5 603.5 797.25 596.25 790 603.5 782.75 596.25 775.5 589 782.75 581.75 775.5 574.5 782.75 581.75 790 574.5 797.25Z" stroke="#FFFFFF" stroke-width="2.83625" stroke-linejoin="round" stroke-miterlimit="10" fill="#0B0405" fill-rule="evenodd"/><path d="M582.5 1100.5C586.213 1100.5 589.774 1099.03 592.4 1096.4 595.025 1093.77 596.5 1090.21 596.5 1086.5 596.5 1082.79 595.025 1079.23 592.4 1076.6 589.774 1073.97 586.213 1072.5 582.5 1072.5 578.787 1072.5 575.226 1073.97 572.6 1076.6 569.975 1079.23 568.5 1082.79 568.5 1086.5 568.5 1090.21 569.975 1093.77 572.6 1096.4 575.226 1099.03 578.787 1100.5 582.5 1100.5Z" stroke="#FFFFFF" stroke-width="2.83625" stroke-linejoin="round" stroke-miterlimit="10" fill="#0B0405" fill-rule="evenodd"/><path d="M602.5 880.5 609.5 873.25 616.501 880.5 623.5 873.25 616.501 866 623.5 858.75 616.501 851.5 609.5 858.75 602.5 851.5 595.5 858.75 602.5 866 595.5 873.25Z" stroke="#FFFFFF" stroke-width="2.83625" stroke-linejoin="round" stroke-miterlimit="10" fill="#0B0405" fill-rule="evenodd"/><path d="M602.5 946.5C606.213 946.5 609.774 944.972 612.399 942.253 615.025 939.534 616.5 935.845 616.5 932 616.5 928.155 615.025 924.466 612.399 921.747 609.774 919.028 606.213 917.5 602.5 917.5 598.787 917.5 595.226 919.028 592.6 921.747 589.975 924.466 588.5 928.155 588.5 932 588.5 935.845 589.975 939.534 592.6 942.253 595.226 944.972 598.787 946.5 602.5 946.5Z" stroke="#FFFFFF" stroke-width="2.83625" stroke-linejoin="round" stroke-miterlimit="10" fill="#0B0405" fill-rule="evenodd"/><path d="M602.5 1063.5 609.5 1056.25 616.501 1063.5 623.5 1056.25 616.501 1049 623.5 1041.75 616.501 1034.5 609.5 1041.75 602.5 1034.5 595.5 1041.75 602.5 1049 595.5 1056.25Z" stroke="#FFFFFF" stroke-width="2.83625" stroke-linejoin="round" stroke-miterlimit="10" fill="#0B0405" fill-rule="evenodd"/><path d="M528.5 924.5C532.213 924.5 535.774 922.972 538.399 920.253 541.025 917.534 542.5 913.845 542.5 910 542.5 906.155 541.025 902.466 538.399 899.747 535.774 897.028 532.213 895.5 528.5 895.5 524.787 895.5 521.226 897.028 518.601 899.747 515.975 902.466 514.5 906.155 514.5 910 514.5 913.845 515.975 917.534 518.601 920.253 521.226 922.972 524.787 924.5 528.5 924.5Z" stroke="#FFFFFF" stroke-width="2.83625" stroke-linejoin="round" stroke-miterlimit="10" fill="#0B0405" fill-rule="evenodd"/><path d="M548.5 921.5 555.5 914.5 562.5 921.5 569.5 914.5 562.5 907.5 569.5 900.5 562.5 893.5 555.5 900.5 548.5 893.5 541.5 900.5 548.5 907.5 541.5 914.5Z" stroke="#FFFFFF" stroke-width="2.83625" stroke-linejoin="round" stroke-miterlimit="10" fill="#0B0405" fill-rule="evenodd"/><path d="M562 828.5C565.845 828.5 569.534 826.972 572.253 824.253 574.972 821.534 576.5 817.845 576.5 814 576.5 810.155 574.972 806.466 572.253 803.747 569.534 801.028 565.845 799.5 562 799.5 558.155 799.5 554.466 801.028 551.747 803.747 549.028 806.466 547.5 810.155 547.5 814 547.5 817.845 549.028 821.534 551.747 824.253 554.466 826.972 558.155 828.5 562 828.5Z" stroke="#FFFFFF" stroke-width="2.83625" stroke-linejoin="round" stroke-miterlimit="10" fill="#0B0405" fill-rule="evenodd"/><path d="M541.75 927.5 549 920.25 556.25 927.5 563.5 920.25 556.25 913 563.5 905.75 556.25 898.5 549 905.75 541.75 898.5 534.5 905.75 541.75 913 534.5 920.25Z" stroke="#FFFFFF" stroke-width="2.83625" stroke-linejoin="round" stroke-miterlimit="10" fill="#0B0405" fill-rule="evenodd"/><path d="M589 899.5C592.846 899.5 596.534 897.972 599.253 895.253 601.972 892.534 603.5 888.846 603.5 885 603.5 881.155 601.972 877.466 599.253 874.747 596.534 872.028 592.846 870.5 589 870.5 585.155 870.5 581.466 872.028 578.747 874.747 576.028 877.466 574.5 881.155 574.5 885 574.5 888.846 576.028 892.534 578.747 895.253 581.466 897.972 585.155 899.5 589 899.5Z" stroke="#FFFFFF" stroke-width="2.83625" stroke-linejoin="round" stroke-miterlimit="10" fill="#0B0405" fill-rule="evenodd"/><path d="M521.5 868.5 528.5 861.25 535.5 868.5 542.5 861.25 535.5 854 542.5 846.75 535.5 839.5 528.5 846.75 521.5 839.5 514.5 846.75 521.5 854 514.5 861.25Z" stroke="#FFFFFF" stroke-width="2.83625" stroke-linejoin="round" stroke-miterlimit="10" fill="#0B0405" fill-rule="evenodd"/><path d="M562 848.5C565.845 848.5 569.534 846.972 572.253 844.253 574.972 841.534 576.5 837.845 576.5 834 576.5 830.155 574.972 826.466 572.253 823.747 569.534 821.028 565.845 819.5 562 819.5 558.155 819.5 554.466 821.028 551.747 823.747 549.028 826.466 547.5 830.155 547.5 834 547.5 837.845 549.028 841.534 551.747 844.253 554.466 846.972 558.155 848.5 562 848.5Z" stroke="#FFFFFF" stroke-width="2.83625" stroke-linejoin="round" stroke-miterlimit="10" fill="#0B0405" fill-rule="evenodd"/><path d="M548.5 863.5 555.5 856.5 562.5 863.5 569.5 856.5 562.5 849.501 569.5 842.5 562.5 835.5 555.5 842.5 548.5 835.5 541.5 842.5 548.5 849.501 541.5 856.5Z" stroke="#FFFFFF" stroke-width="2.83625" stroke-linejoin="round" stroke-miterlimit="10" fill="#0B0405" fill-rule="evenodd"/><path d="M650 891.5C653.845 891.5 657.533 889.972 660.251 887.253 662.973 884.534 664.5 880.845 664.5 877 664.5 873.155 662.973 869.466 660.251 866.747 657.533 864.028 653.845 862.5 650 862.5 646.155 862.5 642.467 864.028 639.746 866.747 637.028 869.466 635.5 873.155 635.5 877 635.5 880.845 637.028 884.534 639.746 887.253 642.467 889.972 646.155 891.5 650 891.5Z" stroke="#FFFFFF" stroke-width="2.83625" stroke-linejoin="round" stroke-miterlimit="10" fill="#0B0405" fill-rule="evenodd"/><path d="M676.498 923.5 683.5 916.25 690.498 923.5 697.5 916.25 690.498 909 697.5 901.75 690.498 894.5 683.5 901.75 676.498 894.5 669.5 901.75 676.498 909 669.5 916.25Z" stroke="#FFFFFF" stroke-width="2.83625" stroke-linejoin="round" stroke-miterlimit="10" fill="#0B0405" fill-rule="evenodd"/><path d="M569 1078.5C572.845 1078.5 576.534 1077.02 579.253 1074.4 581.972 1071.77 583.5 1068.21 583.5 1064.5 583.5 1060.78 581.972 1057.22 579.253 1054.6 576.534 1051.97 572.845 1050.5 569 1050.5 565.155 1050.5 561.466 1051.97 558.747 1054.6 556.028 1057.22 554.5 1060.78 554.5 1064.5 554.5 1068.21 556.028 1071.77 558.747 1074.4 561.466 1077.02 565.155 1078.5 569 1078.5Z" stroke="#FFFFFF" stroke-width="2.83625" stroke-linejoin="round" stroke-miterlimit="10" fill="#0B0405" fill-rule="evenodd"/><path d="M581.75 1028.5 589 1021.25 596.25 1028.5 603.5 1021.25 596.25 1014 603.5 1006.75 596.25 999.5 589 1006.75 581.75 999.5 574.5 1006.75 581.75 1014 574.5 1021.25Z" stroke="#FFFFFF" stroke-width="2.83625" stroke-linejoin="round" stroke-miterlimit="10" fill="#0B0405" fill-rule="evenodd"/><path d="M562 970.5C565.845 970.5 569.534 968.972 572.253 966.253 574.972 963.534 576.5 959.845 576.5 956 576.5 952.154 574.972 948.466 572.253 945.747 569.534 943.028 565.845 941.5 562 941.5 558.155 941.5 554.466 943.028 551.747 945.747 549.028 948.466 547.5 952.154 547.5 956 547.5 959.845 549.028 963.534 551.747 966.253 554.466 968.972 558.155 970.5 562 970.5Z" stroke="#FFFFFF" stroke-width="2.83625" stroke-linejoin="round" stroke-miterlimit="10" fill="#0B0405" fill-rule="evenodd"/><path d="M534.75 919.5 542 912.25 549.25 919.5 556.5 912.25 549.25 905 556.5 897.75 549.25 890.5 542 897.75 534.75 890.5 527.5 897.75 534.75 905 527.5 912.25Z" stroke="#FFFFFF" stroke-width="2.83625" stroke-linejoin="round" stroke-miterlimit="10" fill="#0B0405" fill-rule="evenodd"/><path d="M650 1025.5C653.845 1025.5 657.533 1023.97 660.251 1021.25 662.973 1018.53 664.5 1014.85 664.5 1011 664.5 1007.15 662.973 1003.47 660.251 1000.75 657.533 998.028 653.845 996.5 650 996.5 646.155 996.5 642.467 998.028 639.746 1000.75 637.028 1003.47 635.5 1007.15 635.5 1011 635.5 1014.85 637.028 1018.53 639.746 1021.25 642.467 1023.97 646.155 1025.5 650 1025.5Z" stroke="#FFFFFF" stroke-width="2.83625" stroke-linejoin="round" stroke-miterlimit="10" fill="#0B0405" fill-rule="evenodd"/><path d="M554.75 1172.5 562 1165.5 569.25 1172.5 576.5 1165.5 569.25 1158.5 576.5 1151.5 569.25 1144.5 562 1151.5 554.75 1144.5 547.5 1151.5 554.75 1158.5 547.5 1165.5Z" stroke="#FFFFFF" stroke-width="2.83625" stroke-linejoin="round" stroke-miterlimit="10" fill="#0B0405" fill-rule="evenodd"/><path d="M562 846.5C565.845 846.5 569.534 844.972 572.253 842.253 574.972 839.534 576.5 835.846 576.5 832 576.5 828.155 574.972 824.466 572.253 821.747 569.534 819.028 565.845 817.5 562 817.5 558.155 817.5 554.466 819.028 551.747 821.747 549.028 824.466 547.5 828.155 547.5 832 547.5 835.846 549.028 839.534 551.747 842.253 554.466 844.972 558.155 846.5 562 846.5Z" stroke="#FFFFFF" stroke-width="2.83625" stroke-linejoin="round" stroke-miterlimit="10" fill="#0B0405" fill-rule="evenodd"/><path d="M554.75 801.5 562 794.25 569.25 801.5 576.5 794.25 569.25 787 576.5 779.75 569.25 772.5 562 779.75 554.75 772.5 547.5 779.75 554.75 787 547.5 794.25Z" stroke="#FFFFFF" stroke-width="2.83625" stroke-linejoin="round" stroke-miterlimit="10" fill="#0B0405" fill-rule="evenodd"/><path d="M501.5 804.5C505.213 804.5 508.774 802.972 511.4 800.253 514.025 797.534 515.5 793.846 515.5 790 515.5 786.155 514.025 782.466 511.4 779.747 508.774 777.028 505.213 775.5 501.5 775.5 497.787 775.5 494.226 777.028 491.6 779.747 488.975 782.466 487.5 786.155 487.5 790 487.5 793.846 488.975 797.534 491.6 800.253 494.226 802.972 497.787 804.5 501.5 804.5Z" stroke="#FFFFFF" stroke-width="2.83625" stroke-linejoin="round" stroke-miterlimit="10" fill="#0B0405" fill-rule="evenodd"/><path d="M494.5 874.5 501.5 867.5 508.5 874.5 515.5 867.5 508.5 860.501 515.5 853.5 508.5 846.5 501.5 853.5 494.5 846.5 487.5 853.5 494.5 860.501 487.5 867.5Z" stroke="#FFFFFF" stroke-width="2.83625" stroke-linejoin="round" stroke-miterlimit="10" fill="#0B0405" fill-rule="evenodd"/><path d="M501 890 501 961.905 510.868 966.444 520.737 970.525 530.606 974.99 540.475 980.15 550.343 984.779 560.212 989.321 570.08 993.602 579.95 998.009 589.818 1002.65 599.687 1007.29 609.555 1012.17 619.425 1017.29 629.293 1021.58 639.16 1025.98 649.031 1030.69 658.899 1035.13 668.766 1040.43 678.637 1044.99 688.505 1049.61 698.372 1054.7 708.243 1060.14 718.111 1065.2 727.978 1070.16 737.849 1075.68 747.717 1081.15 757.584 1086.43 767.455 1091.72 777.323 1097.01 787.19 1103.3 797.061 1108.67 806.929 1114.27 816.796 1119.71 826.667 1125.44 836.535 1131.11 846.402 1136.49 856.273 1142.55 866.141 1148.23 876.008 1153.71 885.88 1159.93 895.747 1166.26 905.615 1171.45 915.486 1177.39 925.353 1183.75 935.22 1188.93 945.092 1194.45 954.959 1200.25 964.827 1205.71 974.698 1211.09 984.565 1217.51 994.433 1224.21 1004.3 1230.12 1014.17 1235.59 1024.04 1241.05 1033.91 1246.51 1043.78 1251.98 1053.64 1257.68 1063.52 1264.08 1073.38 1270.49 1083.25 1276.89 1093.12 1283.3 1102.99 1289.7 1112.86 1296.12 1122.73 1302.54 1132.6 1308.96 1142.46 1315.38 1152.33 1321.49 1162.2 1327.02 1172.07 1332.53 1181.94 1338.04 1191.81 1343.55 1201.68 1349.93 1211.55 1356.08 1221.41 1361.68 1231.28 1367.28 1241.15 1373.09 1251.02 1379.05 1260.89 1385.02 1270.76 1391.35 1280.63 1397.8 1290.49 1404.26 1300.36 1410.72 1310.23 1417.17 1320.1 1423.62 1329.97 1430.06 1339.84 1436.51 1349.71 1442.95 1359.58 1449.07 1369.44 1455.13 1379.31 1461.57 1389.18 1468.01 1399.05 1474.45 1408.92 1480.9 1418.79 1487.34 1428.66 1493.78 1438.52 1500.23 1448.39 1506.67 1458.26 1513.11 1468.13 1519.55 1478 1526 1478 1353.58 1478 1353.58 1468.13 1349.51 1458.26 1345.44 1448.39 1341.16 1438.52 1336.72 1428.66 1332.5 1418.79 1328.08 1408.92 1323.64 1399.05 1319.21 1389.18 1314.77 1379.31 1310.34 1369.44 1305.99 1359.58 1301.72 1349.71 1297.24 1339.84 1292.76 1329.97 1288.27 1320.1 1284.07 1310.23 1279.56 1300.36 1275.02 1290.49 1270.47 1280.63 1265.97 1270.76 1261.52 1260.89 1257.04 1251.02 1252.5 1241.15 1247.95 1231.28 1243.64 1221.41 1239.33 1211.55 1234.9 1201.68 1230.64 1191.81 1226.49 1181.94 1222.34 1172.07 1218.28 1162.2 1214.26 1152.33 1210.24 1142.46 1206.22 1132.6 1201.59 1122.73 1197.43 1112.86 1192.95 1102.99 1188.48 1093.12 1183.77 1083.25 1179.43 1073.38 1175.08 1063.52 1170.54 1053.64 1165.98 1043.78 1161.44 1033.91 1156.89 1024.04 1152.65 1014.17 1148.11 1004.3 1143.53 994.433 1138.95 984.565 1134.37 974.698 1129.84 964.827 1125.54 954.959 1121.23 945.092 1116.76 935.22 1112.08 925.353 1107.3 915.486 1102.48 905.615 1097.72 895.747 1093.13 885.88 1088.55 876.008 1084 866.141 1079.39 856.273 1074.79 846.402 1070.15 836.535 1065.48 826.667 1060.47 816.796 1055.64 806.929 1050.67 797.061 1045.85 787.19 1040.51 777.323 1035.27 767.455 1030.44 757.584 1025.61 747.717 1020.82 737.849 1015.82 727.978 1011.02 718.111 1005.96 708.243 1001.13 698.372 995.832 688.505 990.85 678.637 986.146 668.766 980.856 658.899 975.668 649.031 970.319 639.16 965.353 629.293 960.16 619.425 955.154 609.555 949.77 599.687 944.682 589.818 939.604 579.95 934.543 570.08 929.795 560.212 924.373 550.343 919.297 540.475 913.231 530.606 907.002 520.737 901.019 510.868 895.168 501 890Z" fill="#000000" fill-rule="evenodd" fill-opacity="0.14902"/><path d="M568.027 1563.07 568.027 1576.07" stroke="#000000" stroke-width="3.66161" stroke-linejoin="round" stroke-miterlimit="10" fill="none" fill-rule="evenodd"/><path d="M8.91647 24.5024C7.00384 24.5024 5.56425 23.577 4.59797 21.7261 3.63586 19.8792 3.15481 17.0988 3.15481 13.3854 3.15481 9.68759 3.63586 6.91333 4.59797 5.06236 5.56425 3.21139 7.00384 2.28605 8.91647 2.28605 10.8452 2.28605 12.2904 3.21139 13.2528 5.06236 14.2188 6.91333 14.7019 9.68759 14.7019 13.3854 14.7019 17.0988 14.2188 19.8792 13.2528 21.7261 12.2904 23.577 10.8452 24.5024 8.91647 24.5024ZM8.91647 27.3943C11.9996 27.3943 14.3544 26.1971 15.9804 23.8024 17.6064 21.4119 18.4195 17.9394 18.4195 13.3854 18.4195 8.84314 17.6064 5.37479 15.9804 2.98012 14.3544 0.58925 11.9996-0.605894 8.91647-0.605894 5.83718-0.605894 3.48453 0.58925 1.85851 2.98012 0.2325 5.37479-0.580656 8.84314-0.580656 13.3854-0.580656 17.9394 0.2325 21.4119 1.85851 23.8024 3.48453 26.1971 5.83718 27.3943 8.91647 27.3943Z" fill-rule="evenodd" transform="matrix(1 0 0 -1 541 1618)"/><path d="M-0.212654 3.96478 2.78744 3.96478 2.78744-0.0356087-0.212654-0.0356087-0.212654 3.96478Z" fill-rule="evenodd" transform="matrix(1 0 0 -1 567 1617)"/><path d="M8.44998 24.5024C6.63774 24.5024 5.2742 23.577 4.35878 21.7261 3.44703 19.8792 2.99129 17.0988 2.99129 13.3854 2.99129 9.68759 3.44703 6.91333 4.35878 5.06236 5.2742 3.21139 6.63774 2.28605 8.44998 2.28605 10.2769 2.28605 11.6463 3.21139 12.5578 5.06236 13.4732 6.91333 13.9309 9.68759 13.9309 13.3854 13.9309 17.0988 13.4732 19.8792 12.5578 21.7261 11.6463 23.577 10.2769 24.5024 8.44998 24.5024ZM8.44998 27.3943C11.3709 27.3943 13.6017 26.1971 15.1421 23.8024 16.6825 21.4119 17.4526 17.9394 17.4526 13.3854 17.4526 8.84314 16.6825 5.37479 15.1421 2.98012 13.6017 0.58925 11.3709-0.605894 8.44998-0.605894 5.53277-0.605894 3.30394 0.58925 1.76351 2.98012 0.22308 5.37479-0.547277 8.84314-0.547277 13.3854-0.547277 17.9394 0.22308 21.4119 1.76351 23.8024 3.30394 26.1971 5.53277 27.3943 8.44998 27.3943Z" fill-rule="evenodd" transform="matrix(1 0 0 -1 577 1618)"/><path d="M737.042 1563.07 737.042 1576.07" stroke="#000000" stroke-width="3.66161" stroke-linejoin="round" stroke-miterlimit="10" fill="none" fill-rule="evenodd"/><path d="M8.93032 24.5024C7.01736 24.5024 5.57803 23.577 4.61174 21.7261 3.64931 19.8792 3.16825 17.0988 3.16825 13.3854 3.16825 9.68759 3.64931 6.91333 4.61174 5.06236 5.57803 3.21139 7.01736 2.28605 8.93032 2.28605 10.8587 2.28605 12.3043 3.21139 13.2664 5.06236 14.2327 6.91333 14.7159 9.68759 14.7159 13.3854 14.7159 17.0988 14.2327 19.8792 13.2664 21.7261 12.3043 23.577 10.8587 24.5024 8.93032 24.5024ZM8.93032 27.3943C12.0135 27.3943 14.3683 26.1971 15.9944 23.8024 17.6204 21.4119 18.4333 17.9394 18.4333 13.3854 18.4333 8.84314 17.6204 5.37479 15.9944 2.98012 14.3683 0.58925 12.0135-0.605894 8.93032-0.605894 5.85097-0.605894 3.49827 0.58925 1.87223 2.98012 0.246181 5.37479-0.56699 8.84314-0.56699 13.3854-0.56699 17.9394 0.246181 21.4119 1.87223 23.8024 3.49827 26.1971 5.85097 27.3943 8.93032 27.3943Z" fill-rule="evenodd" transform="matrix(1 0 0 -1 710 1618)"/><path d="M-0.269775 3.96478 3.73066 3.96478 3.73066-0.0356087-0.269775-0.0356087-0.269775 3.96478Z" fill-rule="evenodd" transform="matrix(1 0 0 -1 735 1617)"/><path d="M0.578864 27.3964 14.5327 27.3964 14.5327 24.2647 3.8338 24.2647 3.8338 17.5368C4.34788 17.7214 4.86223 17.8586 5.37659 17.949 5.89464 18.0393 6.41269 18.0845 6.93074 18.0845 9.86286 18.0845 12.1846 17.2447 13.8964 15.5652 15.612 13.8857 16.4699 11.6116 16.4699 8.74315 16.4699 5.78826 15.5896 3.49066 13.8288 1.85038 12.0683 0.213951 9.58693-0.604113 6.38456-0.604113 5.28082-0.604113 4.15663-0.506053 3.0114-0.309931 1.87044-0.11381 0.689693 0.180669-0.530555 0.572912L-0.530555 4.31081C0.524587 3.71026 1.61497 3.26304 2.74115 2.96856 3.86734 2.67438 5.05746 2.52729 6.31124 2.52729 8.34224 2.52729 9.94896 3.08446 11.1317 4.19878 12.3178 5.31341 12.9109 6.828 12.9109 8.74315 12.9109 10.6541 12.3178 12.167 11.1317 13.2813 9.94896 14.3995 8.34224 14.9587 6.31124 14.9587 5.36153 14.9587 4.41381 14.8488 3.46779 14.6292 2.52546 14.4096 1.56239 14.0661 0.578864 13.5992L0.578864 27.3964Z" fill-rule="evenodd" transform="matrix(1 0 0 -1 746 1618)"/><path d="M905.056 1563.07 905.056 1576.07" stroke="#000000" stroke-width="3.66161" stroke-linejoin="round" stroke-miterlimit="10" fill="none" fill-rule="evenodd"/><path d="M-0.033717 2.46526 5.90454 2.46526 5.90454 23.0658-0.557784 21.7638-0.557784 25.0908 5.86995 26.3928 9.50441 26.3928 9.50441 2.46526 15.4427 2.46526 15.4427-0.607333-0.033717-0.607333-0.033717 2.46526Z" fill-rule="evenodd" transform="matrix(1 0 0 -1 880 1617)"/><path d="M-0.255705 3.96478 3.74443 3.96478 3.74443-0.0356087-0.255705-0.0356087-0.255705 3.96478Z" fill-rule="evenodd" transform="matrix(1 0 0 -1 903 1617)"/><path d="M8.47561 24.5024C6.66337 24.5024 5.29983 23.577 4.38441 21.7261 3.47266 19.8792 3.01693 17.0988 3.01693 13.3854 3.01693 9.68759 3.47266 6.91333 4.38441 5.06236 5.29983 3.21139 6.66337 2.28605 8.47561 2.28605 10.3025 2.28605 11.672 3.21139 12.5834 5.06236 13.4988 6.91333 13.9566 9.68759 13.9566 13.3854 13.9566 17.0988 13.4988 19.8792 12.5834 21.7261 11.672 23.577 10.3025 24.5024 8.47561 24.5024ZM8.47561 27.3943C11.3965 27.3943 13.6273 26.1971 15.1677 23.8024 16.7081 21.4119 17.4782 17.9394 17.4782 13.3854 17.4782 8.84314 16.7081 5.37479 15.1677 2.98012 13.6273 0.58925 11.3965-0.605894 8.47561-0.605894 5.5584-0.605894 3.32957 0.58925 1.78914 2.98012 0.248711 5.37479-0.521646 8.84314-0.521646 13.3854-0.521646 17.9394 0.248711 21.4119 1.78914 23.8024 3.32957 26.1971 5.5584 27.3943 8.47561 27.3943Z" fill-rule="evenodd" transform="matrix(1 0 0 -1 914 1618)"/><path d="M1074.05 1563.07 1074.05 1576.07" stroke="#000000" stroke-width="3.66161" stroke-linejoin="round" stroke-miterlimit="10" fill="none" fill-rule="evenodd"/><path d="M-0.020346 2.46526 5.91778 2.46526 5.91778 23.0658-0.544401 21.7638-0.544401 25.0908 5.88319 26.3928 9.51728 26.3928 9.51728 2.46526 15.4554 2.46526 15.4554-0.607333-0.020346-0.607333-0.020346 2.46526Z" fill-rule="evenodd" transform="matrix(1 0 0 -1 1048 1617)"/><path d="M-0.241919 3.96478 3.75816 3.96478 3.75816-0.0356087-0.241919-0.0356087-0.241919 3.96478Z" fill-rule="evenodd" transform="matrix(1 0 0 -1 1072 1617)"/><path d="M0.640284 27.3964 15.4147 27.3964 15.4147 24.2647 4.08663 24.2647 4.08663 17.5368C4.63093 17.7214 5.17553 17.8586 5.72013 17.949 6.26865 18.0393 6.81716 18.0845 7.36568 18.0845 10.4702 18.0845 12.9284 17.2447 14.741 15.5652 16.5574 13.8857 17.4658 11.6116 17.4658 8.74315 17.4658 5.78826 16.5337 3.49066 14.6694 1.85038 12.8054 0.213951 10.1781-0.604113 6.78737-0.604113 5.61873-0.604113 4.42843-0.506053 3.21586-0.309931 2.00781-0.11381 0.75763 0.180669-0.534373 0.572912L-0.534373 4.31081C0.582815 3.71026 1.73731 3.26304 2.92972 2.96856 4.12213 2.67438 5.38224 2.52729 6.70974 2.52729 8.86017 2.52729 10.5614 3.08446 11.8137 4.19878 13.0696 5.31341 13.6975 6.828 13.6975 8.74315 13.6975 10.6541 13.0696 12.167 11.8137 13.2813 10.5614 14.3995 8.86017 14.9587 6.70974 14.9587 5.70419 14.9587 4.70073 14.8488 3.69909 14.6292 2.70135 14.4096 1.68165 14.0661 0.640284 13.5992L0.640284 27.3964Z" fill-rule="evenodd" transform="matrix(1 0 0 -1 1082 1618)"/><path d="M1242.08 1563.07 1242.08 1576.07" stroke="#000000" stroke-width="3.66161" stroke-linejoin="round" stroke-miterlimit="10" fill="none" fill-rule="evenodd"/><path d="M3.86785 2.40961 16.5118 2.40961 16.5118-0.608644-0.488333-0.608644-0.488333 2.40961C0.88514 3.81945 2.75824 5.71052 5.13039 8.08254 7.5066 10.4586 8.99882 11.9915 9.60736 12.6811 10.7665 13.9696 11.5757 15.0609 12.0351 15.9553 12.498 16.8495 12.7294 17.7287 12.7294 18.5928 12.7294 20.0026 12.23 21.1507 11.2314 22.0375 10.2327 22.9279 8.93192 23.3733 7.32876 23.3733 6.19221 23.3733 4.99281 23.1781 3.72998 22.7879 2.47121 22.3973 1.12438 21.8044-0.310494 21.0087L-0.310494 24.635C1.14726 25.215 2.50944 25.6526 3.77604 25.9482 5.0464 26.2437 6.20756 26.3915 7.25982 26.3915 10.0337 26.3915 12.2454 25.7037 13.8946 24.3283 15.5435 22.9563 16.3681 21.1223 16.3681 18.8258 16.3681 17.7345 16.1616 16.7 15.7483 15.7223 15.339 14.7484 14.5892 13.5982 13.4987 12.2719 13.2 11.927 12.2492 10.9344 10.646 9.29323 9.04661 7.65239 6.78742 5.35785 3.86785 2.40961Z" fill-rule="evenodd" transform="matrix(1 0 0 -1 1215 1617)"/><path d="M-0.227871 3.96478 3.77226 3.96478 3.77226-0.0356087-0.227871-0.0356087-0.227871 3.96478Z" fill-rule="evenodd" transform="matrix(1 0 0 -1 1240 1617)"/><path d="M8.97373 24.5024C7.06077 24.5024 5.62144 23.577 4.65515 21.7261 3.69272 19.8792 3.21166 17.0988 3.21166 13.3854 3.21166 9.68759 3.69272 6.91333 4.65515 5.06236 5.62144 3.21139 7.06077 2.28605 8.97373 2.28605 10.9021 2.28605 12.3477 3.21139 13.3098 5.06236 14.2761 6.91333 14.7593 9.68759 14.7593 13.3854 14.7593 17.0988 14.2761 19.8792 13.3098 21.7261 12.3477 23.577 10.9021 24.5024 8.97373 24.5024ZM8.97373 27.3943C12.0569 27.3943 14.4117 26.1971 16.0378 23.8024 17.6638 21.4119 18.4767 17.9394 18.4767 13.3854 18.4767 8.84314 17.6638 5.37479 16.0378 2.98012 14.4117 0.58925 12.0569-0.605894 8.97373-0.605894 5.89438-0.605894 3.54168 0.58925 1.91564 2.98012 0.28959 5.37479-0.523581 8.84314-0.523581 13.3854-0.523581 17.9394 0.28959 21.4119 1.91564 23.8024 3.54168 26.1971 5.89438 27.3943 8.97373 27.3943Z" fill-rule="evenodd" transform="matrix(1 0 0 -1 1250 1618)"/><path d="M1410.1 1563.07 1410.1 1576.07" stroke="#000000" stroke-width="3.66161" stroke-linejoin="round" stroke-miterlimit="10" fill="none" fill-rule="evenodd"/><path d="M3.88097 2.40961 16.5252 2.40961 16.5252-0.608644-0.475309-0.608644-0.475309 2.40961C0.898482 3.81945 2.77133 5.71052 5.14382 8.08254 7.51979 10.4586 9.01234 11.9915 9.62059 12.6811 10.78 13.9696 11.5893 15.0609 12.0484 15.9553 12.5116 16.8495 12.743 17.7287 12.743 18.5928 12.743 20.0026 12.2436 21.1507 11.2449 22.0375 10.2462 22.9279 8.94514 23.3733 7.34195 23.3733 6.20567 23.3733 5.00595 23.1781 3.74339 22.7879 2.48458 22.3973 1.13744 21.8044-0.297177 21.0087L-0.297177 24.635C1.16061 25.215 2.52282 25.6526 3.78915 25.9482 5.05954 26.2437 6.22102 26.3915 7.27301 26.3915 10.0472 26.3915 12.259 25.7037 13.9079 24.3283 15.5572 22.9563 16.3818 21.1223 16.3818 18.8258 16.3818 17.7345 16.175 16.7 15.762 15.7223 15.3524 14.7484 14.6025 13.5982 13.512 12.2719 13.2137 11.927 12.2627 10.9344 10.6596 9.29323 9.06013 7.65239 6.8006 5.35785 3.88097 2.40961Z" fill-rule="evenodd" transform="matrix(1 0 0 -1 1384 1617)"/><path d="M-0.214107 3.96478 3.78633 3.96478 3.78633-0.0356087-0.214107-0.0356087-0.214107 3.96478Z" fill-rule="evenodd" transform="matrix(1 0 0 -1 1408 1617)"/><path d="M0.667665 27.3964 15.442 27.3964 15.442 24.2647 4.11401 24.2647 4.11401 17.5368C4.65831 17.7214 5.20291 17.8586 5.74751 17.949 6.29603 18.0393 6.84454 18.0845 7.39306 18.0845 10.4976 18.0845 12.9558 17.2447 14.7684 15.5652 16.5848 13.8857 17.4932 11.6116 17.4932 8.74315 17.4932 5.78826 16.561 3.49066 14.6967 1.85038 12.8328 0.213951 10.2054-0.604113 6.81475-0.604113 5.64611-0.604113 4.45581-0.506053 3.24324-0.309931 2.03489-0.11381 0.78501 0.180669-0.506992 0.572912L-0.506992 4.31081C0.610196 3.71026 1.76469 3.26304 2.9571 2.96856 4.14951 2.67438 5.40962 2.52729 6.73713 2.52729 8.88755 2.52729 10.5888 3.08446 11.841 4.19878 13.0969 5.31341 13.7249 6.828 13.7249 8.74315 13.7249 10.6541 13.0969 12.167 11.841 13.2813 10.5888 14.3995 8.88755 14.9587 6.73713 14.9587 5.73157 14.9587 4.72811 14.8488 3.72647 14.6292 2.72873 14.4096 1.70903 14.0661 0.667665 13.5992L0.667665 27.3964Z" fill-rule="evenodd" transform="matrix(1 0 0 -1 1419 1618)"/><path d="M452.016 1559.08 439.016 1559.08" stroke="#000000" stroke-width="3.66161" stroke-linejoin="round" stroke-miterlimit="10" fill="none" fill-rule="evenodd"/><path d="M-0.769556 2.49723 22.2308 2.49723 22.2308-0.503154-0.769556-0.503154-0.769556 2.49723Z" fill-rule="evenodd" transform="matrix(1 0 0 -1 329 1563)"/><path d="M4.02431 2.40617 17.4123 2.40617 17.4123-0.612088-0.588221-0.612088-0.588221 2.40617C0.866383 3.81601 2.84941 5.70708 5.36146 8.0791 7.87719 10.4551 9.45753 11.9881 10.1016 12.6777 11.3292 13.9661 12.1861 15.0577 12.6722 15.9519 13.1626 16.846 13.4076 17.7253 13.4076 18.5893 13.4076 19.9992 12.8789 21.1473 11.8215 22.034 10.764 22.9245 9.38638 23.3698 7.68889 23.3698 6.48576 23.3698 5.21548 23.1747 3.87864 22.7844 2.54579 22.3942 1.1194 21.801-0.39961 21.0053L-0.39961 24.6319C1.14393 25.2115 2.58627 25.6492 3.92709 25.9447 5.27221 26.2403 6.50202 26.3881 7.61589 26.3881 10.5533 26.3881 12.8952 25.7002 14.6411 24.3248 16.3874 22.9529 17.2605 21.1189 17.2605 18.8223 17.2605 17.731 17.0415 16.6965 16.6042 15.7189 16.1705 14.7449 15.3765 13.5948 14.2219 12.2684 13.906 11.9235 12.8991 10.9309 11.2016 9.29008 9.50814 7.64895 7.11569 5.35469 4.02431 2.40617Z" fill-rule="evenodd" transform="matrix(1 0 0 -1 358 1573)"/><path d="M8.43522 24.4989C6.62323 24.4989 5.25937 23.5735 4.34394 21.7225 3.43245 19.8757 2.97642 17.0953 2.97642 13.3819 2.97642 9.68409 3.43245 6.90982 4.34394 5.05885 5.25937 3.20788 6.62323 2.28254 8.43522 2.28254 10.2621 2.28254 11.6316 3.20788 12.5431 5.05885 13.4586 6.90982 13.9163 9.68409 13.9163 13.3819 13.9163 17.0953 13.4586 19.8757 12.5431 21.7225 11.6316 23.5735 10.2621 24.4989 8.43522 24.4989ZM8.43522 27.3908C11.3562 27.3908 13.587 26.1936 15.1275 23.7989 16.6679 21.4084 17.4383 17.9359 17.4383 13.3819 17.4383 8.83963 16.6679 5.37129 15.1275 2.97662 13.587 0.586038 11.3562-0.609398 8.43522-0.609398 5.51795-0.609398 3.28908 0.586038 1.74862 2.97662 0.208155 5.37129-0.562217 8.83963-0.562217 13.3819-0.562217 17.9359 0.208155 21.4084 1.74862 23.7989 3.28908 26.1936 5.51795 27.3908 8.43522 27.3908Z" fill-rule="evenodd" transform="matrix(1 0 0 -1 382 1574)"/><path d="M8.90547 24.4989C6.99284 24.4989 5.55325 23.5735 4.58727 21.7225 3.62486 19.8757 3.14381 17.0953 3.14381 13.3819 3.14381 9.68409 3.62486 6.90982 4.58727 5.05885 5.55325 3.20788 6.99284 2.28254 8.90547 2.28254 10.8342 2.28254 12.2794 3.20788 13.2418 5.05885 14.2081 6.90982 14.6909 9.68409 14.6909 13.3819 14.6909 17.0953 14.2081 19.8757 13.2418 21.7225 12.2794 23.5735 10.8342 24.4989 8.90547 24.4989ZM8.90547 27.3908C11.9889 27.3908 14.3434 26.1936 15.9694 23.7989 17.5957 21.4084 18.4085 17.9359 18.4085 13.3819 18.4085 8.83963 17.5957 5.37129 15.9694 2.97662 14.3434 0.586038 11.9889-0.609398 8.90547-0.609398 5.82618-0.609398 3.47353 0.586038 1.84751 2.97662 0.2215 5.37129-0.591359 8.83963-0.591359 13.3819-0.591359 17.9359 0.2215 21.4084 1.84751 23.7989 3.47353 26.1936 5.82618 27.3908 8.90547 27.3908Z" fill-rule="evenodd" transform="matrix(1 0 0 -1 405 1574)"/><path d="M452.016 1386.06 439.016 1386.06" stroke="#000000" stroke-width="3.66161" stroke-linejoin="round" stroke-miterlimit="10" fill="none" fill-rule="evenodd"/><path d="M-0.769556 2.48382 22.2308 2.48382 22.2308-0.516275-0.769556-0.516275-0.769556 2.48382Z" fill-rule="evenodd" transform="matrix(1 0 0 -1 329 1390)"/><path d="M-0.0744099 2.44832 5.86385 2.44832 5.86385 23.0486-0.598477 21.7465-0.598477 25.0739 5.82926 26.3759 9.46343 26.3759 9.46343 2.44832 15.4017 2.44832 15.4017-0.624276-0.0744099-0.624276-0.0744099 2.44832Z" fill-rule="evenodd" transform="matrix(1 0 0 -1 360 1400)"/><path d="M8.43522 24.4854C6.62323 24.4854 5.25937 23.5598 4.34394 21.7091 3.43245 19.8619 2.97642 17.0818 2.97642 13.3685 2.97642 9.67066 3.43245 6.8961 4.34394 5.04513 5.25937 3.19445 6.62323 2.26882 8.43522 2.26882 10.2621 2.26882 11.6316 3.19445 12.5431 5.04513 13.4586 6.8961 13.9163 9.67066 13.9163 13.3685 13.9163 17.0818 13.4586 19.8619 12.5431 21.7091 11.6316 23.5598 10.2621 24.4854 8.43522 24.4854ZM8.43522 27.3774C11.3562 27.3774 13.587 26.1799 15.1275 23.7855 16.6679 21.3946 17.4383 17.9225 17.4383 13.3685 17.4383 8.8262 16.6679 5.35756 15.1275 2.9629 13.587 0.572315 11.3562-0.623122 8.43522-0.623122 5.51795-0.623122 3.28908 0.572315 1.74862 2.9629 0.208155 5.35756-0.562217 8.8262-0.562217 13.3685-0.562217 17.9225 0.208155 21.3946 1.74862 23.7855 3.28908 26.1799 5.51795 27.3774 8.43522 27.3774Z" fill-rule="evenodd" transform="matrix(1 0 0 -1 382 1401)"/><path d="M8.90547 24.4854C6.99284 24.4854 5.55325 23.5598 4.58727 21.7091 3.62486 19.8619 3.14381 17.0818 3.14381 13.3685 3.14381 9.67066 3.62486 6.8961 4.58727 5.04513 5.55325 3.19445 6.99284 2.26882 8.90547 2.26882 10.8342 2.26882 12.2794 3.19445 13.2418 5.04513 14.2081 6.8961 14.6909 9.67066 14.6909 13.3685 14.6909 17.0818 14.2081 19.8619 13.2418 21.7091 12.2794 23.5598 10.8342 24.4854 8.90547 24.4854ZM8.90547 27.3774C11.9889 27.3774 14.3434 26.1799 15.9694 23.7855 17.5957 21.3946 18.4085 17.9225 18.4085 13.3685 18.4085 8.8262 17.5957 5.35756 15.9694 2.9629 14.3434 0.572315 11.9889-0.623122 8.90547-0.623122 5.82618-0.623122 3.47353 0.572315 1.84751 2.9629 0.2215 5.35756-0.591359 8.8262-0.591359 13.3685-0.591359 17.9225 0.2215 21.3946 1.84751 23.7855 3.47353 26.1799 5.82618 27.3774 8.90547 27.3774Z" fill-rule="evenodd" transform="matrix(1 0 0 -1 405 1401)"/><path d="M452.016 1214.04 439.016 1214.04" stroke="#000000" stroke-width="3.66161" stroke-linejoin="round" stroke-miterlimit="10" fill="none" fill-rule="evenodd"/><path d="M8.90547 24.4714C6.99284 24.4714 5.55325 23.5461 4.58727 21.6951 3.62486 19.848 3.14381 17.0679 3.14381 13.3546 3.14381 9.65681 3.62486 6.88229 4.58727 5.03163 5.55325 3.18068 6.99284 2.25536 8.90547 2.25536 10.8342 2.25536 12.2794 3.18068 13.2418 5.03163 14.2081 6.88229 14.6909 9.65681 14.6909 13.3546 14.6909 17.0679 14.2081 19.848 13.2418 21.6951 12.2794 23.5461 10.8342 24.4714 8.90547 24.4714ZM8.90547 27.3633C11.9889 27.3633 14.3434 26.1661 15.9694 23.7715 17.5957 21.3809 18.4085 17.9085 18.4085 13.3546 18.4085 8.81236 17.5957 5.34377 15.9694 2.94943 14.3434 0.558583 11.9889-0.636838 8.90547-0.636838 5.82618-0.636838 3.47353 0.558583 1.84751 2.94943 0.2215 5.34377-0.591359 8.81236-0.591359 13.3546-0.591359 17.9085 0.2215 21.3809 1.84751 23.7715 3.47353 26.1661 5.82618 27.3633 8.90547 27.3633Z" fill-rule="evenodd" transform="matrix(1 0 0 -1 405 1228)"/><path d="M452.016 1041.03 439.016 1041.03" stroke="#000000" stroke-width="3.66161" stroke-linejoin="round" stroke-miterlimit="10" fill="none" fill-rule="evenodd"/><path d="M-0.0744099 2.42112 5.86385 2.42112 5.86385 23.0211-0.598477 21.7191-0.598477 25.0464 5.82926 26.3481 9.46343 26.3481 9.46343 2.42112 15.4017 2.42112 15.4017-0.651727-0.0744099-0.651727-0.0744099 2.42112Z" fill-rule="evenodd" transform="matrix(1 0 0 -1 360 1055)"/><path d="M8.43522 24.4577C6.62323 24.4577 5.25937 23.5323 4.34394 21.6814 3.43245 19.8345 2.97642 17.0542 2.97642 13.3409 2.97642 9.64308 3.43245 6.86885 4.34394 5.01791 5.25937 3.16696 6.62323 2.24163 8.43522 2.24163 10.2621 2.24163 11.6316 3.16696 12.5431 5.01791 13.4586 6.86885 13.9163 9.64308 13.9163 13.3409 13.9163 17.0542 13.4586 19.8345 12.5431 21.6814 11.6316 23.5323 10.2621 24.4577 8.43522 24.4577ZM8.43522 27.3496C11.3562 27.3496 13.587 26.1524 15.1275 23.7578 16.6679 21.3672 17.4383 17.8948 17.4383 13.3409 17.4383 8.79864 16.6679 5.33034 15.1275 2.9357 13.587 0.545152 11.3562-0.650269 8.43522-0.650269 5.51795-0.650269 3.28908 0.545152 1.74862 2.9357 0.208155 5.33034-0.562217 8.79864-0.562217 13.3409-0.562217 17.8948 0.208155 21.3672 1.74862 23.7578 3.28908 26.1524 5.51795 27.3496 8.43522 27.3496Z" fill-rule="evenodd" transform="matrix(1 0 0 -1 382 1055)"/><path d="M8.90547 24.4577C6.99284 24.4577 5.55325 23.5323 4.58727 21.6814 3.62486 19.8345 3.14381 17.0542 3.14381 13.3409 3.14381 9.64308 3.62486 6.86885 4.58727 5.01791 5.55325 3.16696 6.99284 2.24163 8.90547 2.24163 10.8342 2.24163 12.2794 3.16696 13.2418 5.01791 14.2081 6.86885 14.6909 9.64308 14.6909 13.3409 14.6909 17.0542 14.2081 19.8345 13.2418 21.6814 12.2794 23.5323 10.8342 24.4577 8.90547 24.4577ZM8.90547 27.3496C11.9889 27.3496 14.3434 26.1524 15.9694 23.7578 17.5957 21.3672 18.4085 17.8948 18.4085 13.3409 18.4085 8.79864 17.5957 5.33034 15.9694 2.9357 14.3434 0.545152 11.9889-0.650269 8.90547-0.650269 5.82618-0.650269 3.47353 0.545152 1.84751 2.9357 0.2215 5.33034-0.591359 8.79864-0.591359 13.3409-0.591359 17.8948 0.2215 21.3672 1.84751 23.7578 3.47353 26.1524 5.82618 27.3496 8.90547 27.3496Z" fill-rule="evenodd" transform="matrix(1 0 0 -1 405 1055)"/><path d="M452.016 868.017 439.016 868.017" stroke="#000000" stroke-width="3.66161" stroke-linejoin="round" stroke-miterlimit="10" fill="none" fill-rule="evenodd"/><path d="M4.02431 2.35279 17.4123 2.35279 17.4123-0.665463-0.588221-0.665463-0.588221 2.35279C0.866383 3.76235 2.84941 5.65342 5.36146 8.02573 7.87719 10.4018 9.45753 11.9344 10.1016 12.6243 11.3292 13.9127 12.1861 15.004 12.6722 15.8982 13.1626 16.7927 13.4076 17.6719 13.4076 18.5357 13.4076 19.9455 12.8789 21.0936 11.8215 21.9804 10.764 22.8711 9.38638 23.3162 7.68889 23.3162 6.48576 23.3162 5.21548 23.121 3.87864 22.7308 2.54579 22.3405 1.1197 21.7473-0.39961 20.9516L-0.39961 24.5782C1.14393 25.1579 2.58627 25.5958 3.92709 25.8913 5.27221 26.1869 6.50202 26.3347 7.61589 26.3347 10.5533 26.3347 12.8952 25.6469 14.6411 24.2712 16.3874 22.8995 17.2605 21.0652 17.2605 18.769 17.2605 17.6774 17.0415 16.6429 16.6042 15.6652 16.1705 14.6913 15.3765 13.5411 14.2219 12.2148 13.906 11.8701 12.8991 10.8773 11.2016 9.23641 9.50814 7.59557 7.11569 5.30103 4.02431 2.35279Z" fill-rule="evenodd" transform="matrix(1 0 0 -1 358 882)"/><path d="M8.43522 24.4445C6.62323 24.4445 5.25937 23.5189 4.34394 21.6679 3.43245 19.8211 2.97642 17.041 2.97642 13.3276 2.97642 9.62978 3.43245 6.85522 4.34394 5.00425 5.25937 3.15357 6.62323 2.22794 8.43522 2.22794 10.2621 2.22794 11.6316 3.15357 12.5431 5.00425 13.4586 6.85522 13.9163 9.62978 13.9163 13.3276 13.9163 17.041 13.4586 19.8211 12.5431 21.6679 11.6316 23.5189 10.2621 24.4445 8.43522 24.4445ZM8.43522 27.3365C11.3562 27.3365 13.587 26.139 15.1275 23.7446 16.6679 21.3538 17.4383 17.8813 17.4383 13.3276 17.4383 8.78532 16.6679 5.31669 15.1275 2.92202 13.587 0.531435 11.3562-0.664002 8.43522-0.664002 5.51795-0.664002 3.28908 0.531435 1.74862 2.92202 0.208155 5.31669-0.562217 8.78532-0.562217 13.3276-0.562217 17.8813 0.208155 21.3538 1.74862 23.7446 3.28908 26.139 5.51795 27.3365 8.43522 27.3365Z" fill-rule="evenodd" transform="matrix(1 0 0 -1 382 883)"/><path d="M8.90547 24.4445C6.99284 24.4445 5.55325 23.5189 4.58727 21.6679 3.62486 19.8211 3.14381 17.041 3.14381 13.3276 3.14381 9.62978 3.62486 6.85522 4.58727 5.00425 5.55325 3.15357 6.99284 2.22794 8.90547 2.22794 10.8342 2.22794 12.2794 3.15357 13.2418 5.00425 14.2081 6.85522 14.6909 9.62978 14.6909 13.3276 14.6909 17.041 14.2081 19.8211 13.2418 21.6679 12.2794 23.5189 10.8342 24.4445 8.90547 24.4445ZM8.90547 27.3365C11.9889 27.3365 14.3434 26.139 15.9694 23.7446 17.5957 21.3538 18.4085 17.8813 18.4085 13.3276 18.4085 8.78532 17.5957 5.31669 15.9694 2.92202 14.3434 0.531435 11.9889-0.664002 8.90547-0.664002 5.82618-0.664002 3.47353 0.531435 1.84751 2.92202 0.2215 5.31669-0.591359 8.78532-0.591359 13.3276-0.591359 17.8813 0.2215 21.3538 1.84751 23.7446 3.47353 26.139 5.82618 27.3365 8.90547 27.3365Z" fill-rule="evenodd" transform="matrix(1 0 0 -1 405 883)"/><path d="M11.8605 22.7681 6.8488 9.33172 16.884 9.33172 11.8605 22.7681ZM9.77283 26.3674 13.96 26.3674 24.3579-0.632748 20.5213-0.632748 18.0361 6.29388 5.73798 6.29388 3.2525-0.632748-0.642177-0.632748 9.77283 26.3674Z" fill-rule="evenodd" transform="matrix(-1.83697e-16 -1 -1 1.83697e-16 302 1294)"/><path d="M-0.691583 27.3678 3.04166 27.3678 3.04166 10.6808C3.04166 7.73778 3.57273 5.61881 4.63488 4.32383 5.70089 3.03301 7.4294 2.3873 9.82042 2.3873 12.1954 2.3873 13.9162 3.03301 14.9822 4.32383 16.0482 5.61881 16.5814 7.73778 16.5814 10.6808L16.5814 27.3678 20.3087 27.3678 20.3087 10.2217C20.3087 6.64308 19.4228 3.93932 17.6512 2.11066 15.8836 0.281995 13.2733-0.632038 9.82042-0.632038 6.35152-0.632038 3.73146 0.281995 1.95993 2.11066 0.192255 3.93932-0.691583 6.64308-0.691583 10.2217L-0.691583 27.3678Z" fill-rule="evenodd" transform="matrix(-1.83697e-16 -1 -1 1.83697e-16 303 1266)"/><path d="M21.3424 24.7964 21.3424 20.9502C20.0991 22.0954 18.7737 22.9495 17.3667 23.5125 15.9596 24.0792 14.465 24.3625 12.8827 24.3625 9.76437 24.3625 7.3772 23.4199 5.72084 21.5342 4.06418 19.6488 3.23601 16.9225 3.23601 13.3558 3.23601 9.80047 4.06418 7.08026 5.72084 5.19456 7.3772 3.30916 9.76437 2.36631 12.8827 2.36631 14.465 2.36631 15.9596 2.64984 17.3667 3.2166 18.7737 3.78336 20.0991 4.63948 21.3424 5.78468L21.3424 1.96716C20.0521 1.09965 18.684 0.447918 17.238 0.0122637 15.7959-0.419595 14.272-0.63567 12.6664-0.63567 8.53464-0.63567 5.28034 0.61377 2.90261 3.11236 0.529008 5.61503-0.657646 9.02931-0.657646 13.3558-0.657646 17.6936 0.529008 21.112 2.90261 23.6106 5.28034 26.1133 8.53464 27.3645 12.6664 27.3645 14.2956 27.3645 15.831 27.1504 17.2732 26.7224 18.7191 26.2946 20.0754 25.6525 21.3424 24.7964Z" fill-rule="evenodd" transform="matrix(-1.83697e-16 -1 -1 1.83697e-16 303 1240)"/><path d="M-0.308278 2.52409 8.69193 2.52409 8.69193-0.475947-0.308278-0.475947-0.308278 2.52409Z" fill-rule="evenodd" transform="matrix(-1.83697e-16 -1 -1 1.83697e-16 294 1202)"/><path d="M16.7751 25.9889 16.7751 22.426C15.3902 23.0891 14.0828 23.5826 12.8524 23.9067 11.6217 24.2343 10.434 24.3981 9.28827 24.3981 7.30197 24.3981 5.76882 24.0127 4.68881 23.2415 3.6088 22.4704 3.06864 21.3733 3.06864 19.9505 3.06864 18.755 3.42748 17.8528 4.14486 17.2434 4.86224 16.6381 6.22196 16.1484 8.22373 15.7744L10.4281 15.3232C13.1511 14.8026 15.1607 13.889 16.4568 12.5817 17.7526 11.2745 18.4008 9.5257 18.4008 7.33575 18.4008 4.71745 17.5231 2.73364 15.7683 1.38405 14.0171 0.0344552 11.4483-0.640342 8.06169-0.640342 6.78489-0.640342 5.42546-0.495805 3.98281-0.206731 2.54426 0.0826341 1.05344 0.510697-0.489348 1.07746L-0.489348 4.83687C0.991543 4.0079 2.44382 3.38128 3.86719 2.95731 5.29027 2.53684 6.68853 2.3266 8.06169 2.3266 10.1446 2.3266 11.7531 2.73539 12.8868 3.55298 14.0209 4.37435 14.5879 5.54466 14.5879 7.06391 14.5879 8.38634 14.1812 9.42175 13.3671 10.1698 12.5534 10.9179 11.2188 11.4788 9.3636 11.8529L7.13613 12.2868C4.41289 12.8264 2.44207 13.6749 1.22308 14.8315 0.00817527 15.9884-0.599422 17.5982-0.599422 19.6611-0.599422 22.0481 0.241462 23.9277 1.92323 25.3006 3.605 26.6733 5.92094 27.3595 8.87162 27.3595 10.1408 27.3595 11.4308 27.2439 12.7423 27.0126 14.0577 26.7851 15.4019 26.4438 16.7751 25.9889Z" fill-rule="evenodd" transform="matrix(-1.83697e-16 -1 -1 1.83697e-16 303 1177)"/><path d="M-0.680871 26.3566 4.13353 26.3566 15.8527 3.77136 15.8527 26.3566 19.3191 26.3566 19.3191-0.643849 14.5044-0.643849 2.79123 21.9414 2.79123-0.643849-0.680871-0.643849-0.680871 26.3566Z" fill-rule="evenodd" transform="matrix(-1.83697e-16 -1 -1 1.83697e-16 302 1152)"/><path d="M12.0754 12.0152C12.857 11.7488 13.6177 11.1818 14.3573 10.3138 15.0967 9.44594 15.8401 8.25201 16.5874 6.73208L20.2906-0.645894 16.3678-0.645894 12.9246 6.28074C12.0311 8.08988 11.1663 9.28965 10.3304 9.87975 9.49487 10.4701 8.35462 10.7652 6.91029 10.7652L2.9356 10.7652 2.9356-0.645894-0.70963-0.645894-0.70963 26.3543 7.52283 26.3543C10.6039 26.3543 12.9034 25.7081 14.4209 24.4157 15.9384 23.1271 16.697 21.181 16.697 18.577 16.697 16.8759 16.3022 15.4641 15.5127 14.3414 14.7232 13.2226 13.5774 12.4473 12.0754 12.0152ZM2.9356 23.3509 2.9356 13.7685 7.52283 13.7685C9.27912 13.7685 10.606 14.1755 11.5033 14.9893 12.4007 15.8035 12.8494 16.9992 12.8494 18.577 12.8494 20.155 12.4007 21.3449 11.5033 22.1473 10.606 22.9498 9.27912 23.3509 7.52283 23.3509L2.9356 23.3509Z" fill-rule="evenodd" transform="matrix(-1.83697e-16 -1 -1 1.83697e-16 302 1124)"/><path d="M7.64657 32.447C6.09192 29.6757 4.93536 26.9315 4.17662 24.2143 3.42153 21.5008 3.04399 18.7508 3.04399 15.9643 3.04399 13.1815 3.42519 10.4236 4.18788 7.69117 4.95028 4.95842 6.10318 2.21046 7.64657-0.552981L4.85709-0.552981C3.11663 2.28382 1.8131 5.07036 0.946531 7.80691 0.0799568 10.5435-0.35333 13.2625-0.35333 15.9643-0.35333 18.6543 0.0760153 21.362 0.935269 24.0868 1.79818 26.8158 3.10536 29.6023 4.85709 32.447L7.64657 32.447Z" fill-rule="evenodd" transform="matrix(-1.83697e-16 -1 -1 1.83697e-16 307 1087)"/><path d="M14.1375 17.2396 14.1375 28.327 17.4464 28.327 17.4464-0.140373 14.1375-0.140373 14.1375 2.93306C13.4432 1.71521 12.5647 0.810026 11.5022 0.216618 10.4434-0.376495 9.16967-0.672904 7.68108-0.672904 5.24898-0.672904 3.26758 0.314435 1.73688 2.28911 0.209959 4.26763-0.553503 6.86675-0.553503 10.0865-0.553503 13.3059 0.209959 15.9032 1.73688 17.8779 3.26758 19.8526 5.24898 20.8399 7.68108 20.8399 9.16967 20.8399 10.4434 20.5432 11.5022 19.9501 12.5647 19.3608 13.4432 18.4574 14.1375 17.2396ZM2.8648 10.0865C2.8648 7.61206 3.36545 5.67048 4.36646 4.26172 5.36775 2.85297 6.74309 2.14844 8.49246 2.14844 10.2418 2.14844 11.6192 2.85297 12.6243 4.26172 13.6331 5.67048 14.1375 7.61206 14.1375 10.0865 14.1375 12.5606 13.6331 14.5022 12.6243 15.9109 11.6192 17.3197 10.2418 18.0242 8.49246 18.0242 6.74309 18.0242 5.36775 17.3197 4.36646 15.9109 3.36545 14.5022 2.8648 12.5606 2.8648 10.0865Z" fill-rule="evenodd" transform="matrix(-1.83697e-16 -1 -1 1.83697e-16 303 1074)"/><path d="M13.9499 10.0844C13.9499 12.5585 13.4499 14.5001 12.4498 15.9088 11.4498 17.3179 10.0761 18.0221 8.32897 18.0221 6.57802 18.0221 5.20238 17.3179 4.20234 15.9088 3.20229 14.5001 2.70256 12.5585 2.70256 10.0844 2.70256 7.60999 3.20229 5.6687 4.20234 4.25965 5.20238 2.8509 6.57802 2.14667 8.32897 2.14667 10.0761 2.14667 11.4498 2.8509 12.4498 4.25965 13.4499 5.6687 13.9499 7.60999 13.9499 10.0844ZM2.70256 17.2378C3.39981 18.4553 4.27716 19.3588 5.33464 19.948 6.39588 20.5411 7.66218 20.8378 9.13353 20.8378 11.578 20.8378 13.563 19.8505 15.0877 17.8758 16.6165 15.9012 17.381 13.3038 17.381 10.0844 17.381 6.86468 16.6165 4.26556 15.0877 2.28704 13.563 0.312367 11.578-0.674972 9.13353-0.674972 7.66218-0.674972 6.39588-0.378268 5.33464 0.214844 4.27716 0.807957 3.39981 1.71344 2.70256 2.93099L2.70256-0.142442-0.619517-0.142442-0.619517 28.3249 2.70256 28.3249 2.70256 17.2378Z" fill-rule="evenodd" transform="matrix(-1.83697e-16 -1 -1 1.83697e-16 303 1049)"/><path d="M-0.342929 32.442 2.44639 32.442C4.18722 29.5976 5.4908 26.8108 6.35741 24.0822 7.22403 21.357 7.65733 18.6497 7.65733 15.9593 7.65733 13.2575 7.22403 10.5385 6.35741 7.80195 5.4908 5.06568 4.18722 2.27886 2.44639-0.55795L-0.342929-0.55795C1.20053 2.20549 2.35348 4.95374 3.11592 7.6862 3.87864 10.419 4.25986 13.1766 4.25986 15.9593 4.25986 18.7461 3.87864 21.4961 3.11592 24.2093 2.35348 26.9266 1.20053 29.6707-0.342929 32.442Z" fill-rule="evenodd" transform="matrix(-1.83697e-16 -1 -1 1.83697e-16 307 1026)"/><path d="M501 927 510.868 931.94 520.737 936.879 530.606 941.818 540.475 946.758 550.343 951.697 560.212 956.637 570.08 961.576 579.95 966.515 589.818 971.455 599.687 976.394 609.555 981.334 619.425 986.273 629.293 991.212 639.16 996.152 649.031 1001.09 658.899 1006.03 668.766 1010.97 678.637 1015.91 688.505 1020.85 698.372 1025.79 708.243 1030.73 718.111 1035.67 727.978 1040.61 737.849 1045.54 747.717 1050.48 757.584 1055.42 767.455 1060.36 777.323 1065.3 787.19 1070.24 797.061 1075.18 806.929 1080.12 816.796 1085.06 826.667 1090 836.535 1094.94 846.402 1099.88 856.273 1104.82 866.141 1109.76 876.008 1114.7 885.88 1119.64 895.747 1124.57 905.615 1129.51 915.486 1134.45 925.353 1139.39 935.22 1144.33 945.092 1149.27 954.959 1154.21 964.827 1159.15 974.698 1164.09 984.565 1169.03 994.433 1173.97 1004.3 1178.91 1014.17 1183.85 1024.04 1188.79 1033.91 1193.73 1043.78 1198.67 1053.64 1203.6 1063.52 1208.54 1073.38 1213.48 1083.25 1218.42 1093.12 1223.36 1102.99 1228.3 1112.86 1233.24 1122.73 1238.18 1132.6 1243.12 1142.46 1248.06 1152.33 1253 1162.2 1257.94 1172.07 1262.88 1181.94 1267.82 1191.81 1272.76 1201.68 1277.7 1211.55 1282.64 1221.41 1287.57 1231.28 1292.51 1241.15 1297.45 1251.02 1302.39 1260.89 1307.33 1270.76 1312.27 1280.63 1317.21 1290.49 1322.15 1300.36 1327.09 1310.23 1332.03 1320.1 1336.97 1329.97 1341.91 1339.84 1346.85 1349.71 1351.79 1359.58 1356.73 1369.44 1361.67 1379.31 1366.6 1389.18 1371.54 1399.05 1376.48 1408.92 1381.42 1418.79 1386.36 1428.66 1391.3 1438.52 1396.24 1448.39 1401.18 1458.26 1406.12 1468.13 1411.06 1478 1416" stroke="#000000" stroke-width="10.2981" stroke-linecap="square" stroke-linejoin="round" stroke-miterlimit="10" fill="none" fill-rule="evenodd"/><path d="M452 1563 452 746" stroke="#000000" stroke-width="3.66161" stroke-linecap="square" stroke-miterlimit="8" fill="none" fill-rule="evenodd"/><path d="M1527 1563 1527 746" stroke="#000000" stroke-width="3.66161" stroke-linecap="square" stroke-miterlimit="8" fill="none" fill-rule="evenodd"/><path d="M452 1563 1527 1563" stroke="#000000" stroke-width="3.66161" stroke-linecap="square" stroke-miterlimit="8" fill="none" fill-rule="evenodd"/><path d="M452 746 1527 746" stroke="#000000" stroke-width="3.66161" stroke-linecap="square" stroke-miterlimit="8" fill="none" fill-rule="evenodd"/><path d="M1114.41 937.5 1503.59 937.5C1507.53 937.5 1509.5 934.973 1509.5 929.921L1509.5 770.079C1509.5 765.026 1507.53 762.5 1503.59 762.5L1114.41 762.5C1110.47 762.5 1108.5 765.026 1108.5 770.079L1108.5 929.921C1108.5 934.973 1110.47 937.5 1114.41 937.5Z" stroke="#CCCCCC" stroke-width="4.56709" stroke-miterlimit="8" stroke-opacity="0.8" fill="#FFFFFF" fill-rule="evenodd" fill-opacity="0.8"/><path d="M11.7514 28.2727C14.2197 28.2727 16.3543 27.7731 18.1548 26.7742 20.7642 25.3394 22.3608 22.8238 22.9447 19.2272L19.4252 19.2272C18.9943 21.2374 18.1053 22.7019 16.7586 23.6211 15.4121 24.5402 13.7125 24.9998 11.66 24.9998 9.22965 24.9998 7.18302 24.0428 5.51957 22.1284 3.85641 20.2182 3.02469 17.371 3.02469 13.5867 3.02469 10.3178 3.7095 7.65613 5.07913 5.60227 6.45252 3.5481 8.68799 2.52102 11.7858 2.52102 14.1587 2.52102 16.1235 3.2404 17.6799 4.67917 19.2364 6.12187 20.0319 8.45555 20.0661 11.6805L11.8431 11.6805 11.8431 14.7675 23.3739 14.7675 23.3739 0.045473 21.0849 0.045473 20.2263 3.58812C19.0247 2.2015 17.9584 1.23838 17.0275 0.698768 15.4635-0.224333 13.4776-0.685732 11.0704-0.685732 7.96125-0.685732 5.28504 0.36924 3.04175 2.47919 0.596609 5.12874-0.626107 8.76325-0.626107 13.3827-0.626107 17.9903 0.565954 21.6548 2.95037 24.3762 5.2165 26.974 8.15009 28.2727 11.7514 28.2727ZM11.1621 28.3145 11.1621 28.3145Z" fill-rule="evenodd" transform="matrix(1 0 0 -1 1127 806)"/><path d="M-0.277983 19.0665 2.67953 19.0665 2.67953 15.6886C2.91896 16.3468 3.51068 17.1476 4.45415 18.0905 5.40125 19.0334 6.49027 19.5048 7.72121 19.5048 7.78016 19.5048 7.87795 19.4992 8.01428 19.4874 8.15425 19.4759 8.39005 19.4504 8.72195 19.4114L8.72195 15.9457C8.53756 15.9806 8.36798 16.004 8.2132 16.0158 8.05842 16.0273 7.88884 16.0332 7.70473 16.0332 6.13825 16.0332 4.93496 15.4994 4.09487 14.4318 3.25449 13.3683 2.83431 12.1428 2.83431 10.7556L2.83431-0.495099-0.277983-0.495099-0.277983 19.0665Z" fill-rule="evenodd" transform="matrix(1 0 0 -1 1157 805)"/><path d="M8.55006 2.37221C10.701 2.37221 12.1765 3.20256 12.9765 4.86326 13.7768 6.52396 14.1769 8.37318 14.1769 10.4106 14.1769 12.2521 13.8885 13.7496 13.3113 14.904 12.3955 16.7178 10.82 17.6247 8.58477 17.6247 6.59949 17.6247 5.15669 16.8512 4.25666 15.3046 3.35633 13.7615 2.90602 11.8965 2.90602 9.70984 2.90602 7.61342 3.35633 5.86635 4.25666 4.46864 5.15669 3.07092 6.58812 2.37221 8.55006 2.37221ZM8.67722 20.5163C11.1627 20.5163 13.2652 19.6681 14.9851 17.9722 16.7046 16.28 17.5647 13.791 17.5647 10.5047 17.5647 7.32482 16.8067 4.69826 15.2907 2.62537 13.7788 0.552474 11.4298-0.483973 8.24441-0.483973 5.58571-0.483973 3.47357 0.432746 1.90769 2.26619 0.345607 4.1035-0.435436 6.56714-0.435436 9.65683-0.435436 12.9705 0.387897 15.6087 2.03456 17.5716 3.68531 19.5346 5.89924 20.5163 8.67722 20.5163ZM8.56756 20.4219 8.56756 20.4219Z" fill-rule="evenodd" transform="matrix(1 0 0 -1 1167 806)"/><path d="M2.96753 20.0239 2.96753 6.76378C2.96753 5.74548 3.12781 4.91189 3.44866 4.26331 4.04265 3.06997 5.15108 2.4733 6.77456 2.4733 9.09858 2.4733 10.6824 3.51755 11.5258 5.60605 11.9812 6.72816 12.209 8.26375 12.209 10.2131L12.209 20.0239 15.5526 20.0239 15.5526 0.0504016 12.399 0.0504016 12.4344 2.99844C11.9989 2.2385 11.4604 1.59776 10.819 1.07684 9.54399 0.0304824 7.99795-0.492849 6.18058-0.492849 3.34571-0.492849 1.41548 0.459952 0.389888 2.36586-0.168381 3.38415-0.447515 4.74499-0.447515 6.44748L-0.447515 20.0239 2.96753 20.0239ZM7.55254 20.5074 7.55254 20.5074Z" fill-rule="evenodd" transform="matrix(1 0 0 -1 1189 806)"/><path d="M7.93829 9.76585C9.45365 9.76585 10.713 10.4126 11.7168 11.7065 12.7205 13 13.2225 14.9323 13.2225 17.5039 13.2225 19.072 12.9992 20.4184 12.5532 21.5434 11.7109 23.7112 10.1726 24.7951 7.93829 24.7951 5.69236 24.7951 4.15426 23.6502 3.32341 21.3611 2.87738 20.138 2.65436 18.5819 2.65436 16.6924 2.65436 15.1756 2.87738 13.8838 3.32341 12.8177 4.16563 10.7831 5.70402 9.76585 7.93829 9.76585ZM-0.460613 27.1291 2.69459 27.1291 2.69459 24.5245C3.3409 25.4181 4.04844 26.1101 4.81749 26.6001 5.91363 27.3331 7.19985 27.6995 8.67673 27.6995 10.8649 27.6995 12.7225 26.8452 14.2493 25.1359 15.776 23.4269 16.5392 20.9867 16.5392 17.8156 16.5392 13.5273 15.4396 10.4638 13.2397 8.62515 11.8436 7.46095 10.2209 6.879 8.37092 6.879 6.91736 6.879 5.69819 7.20432 4.71371 7.85497 4.13677 8.2234 3.49279 8.85472 2.78117 9.7483L2.78117-0.300341-0.460613-0.300341-0.460613 27.1291Z" fill-rule="evenodd" transform="matrix(1 0 0 -1 1210 813)"/><path d="M1143.06 861.515C1146.91 861.515 1150.6 859.935 1153.32 857.122 1156.04 854.309 1157.56 850.493 1157.56 846.515 1157.56 842.537 1156.04 838.721 1153.32 835.908 1150.6 833.096 1146.91 831.515 1143.06 831.515 1139.22 831.515 1135.53 833.096 1132.81 835.908 1130.09 838.721 1128.56 842.537 1128.56 846.515 1128.56 850.493 1130.09 854.309 1132.81 857.122 1135.53 859.935 1139.22 861.515 1143.06 861.515Z" stroke="#FFFFFF" stroke-width="2.83012" stroke-linejoin="round" stroke-miterlimit="10" fill="#40498E" fill-rule="evenodd"/><path d="M12.0006 28.318C15.427 28.318 18.0851 27.3983 19.975 25.5588 21.865 23.7233 22.9144 21.6382 23.1226 19.3031L19.5506 19.3031C19.1461 21.0743 18.3386 22.4778 17.1284 23.5134 15.9181 24.5533 14.2206 25.0729 12.0358 25.0729 9.37168 25.0729 7.22051 24.1192 5.58196 22.2121 3.94342 20.3086 3.12429 17.3896 3.12429 13.455 3.12429 10.228 3.86299 7.6108 5.3404 5.6036 6.82167 3.60034 9.03003 2.59841 11.9652 2.59841 14.6647 2.59841 16.7215 3.65434 18.136 5.76559 18.8828 6.87703 19.4407 8.34064 19.81 10.1561L23.3817 10.1561C23.0636 7.25711 22.0085 4.82584 20.2166 2.86232 18.0675 0.499298 15.1696-0.682212 11.5232-0.682212 8.3798-0.682212 5.73924 0.287263 3.60147 2.22682 0.788147 4.7858-0.618365 8.74044-0.618365 14.0908-0.618365 18.1494 0.438455 21.4783 2.55239 24.0773 4.83552 26.9045 7.98483 28.318 12.0006 28.318ZM11.2637 28.318 11.2637 28.318Z" fill-rule="evenodd" transform="matrix(1 0 0 -1 1175 860)"/><path d="M11.2354 13.9641C12.9165 13.9641 14.2479 14.3073 15.2291 14.9932 16.2099 15.6794 16.7005 16.9164 16.7005 18.7042 16.7005 20.6256 16.0157 21.937 14.6461 22.6389 13.9111 23.0033 12.9302 23.1856 11.7026 23.1856L2.93615 23.1856 2.93615 13.9641 11.2354 13.9641ZM-0.647779 26.3321 11.6163 26.3321C13.636 26.3321 15.3 26.0323 16.6084 25.4324 19.0977 24.2796 20.3422 22.1526 20.3422 19.0513 20.3422 17.436 20.0132 16.1127 19.3555 15.0815 18.7013 14.0542 17.7855 13.227 16.6084 12.5998 17.6432 12.1724 18.4225 11.6096 18.9457 10.9118 19.469 10.2138 19.7595 9.08086 19.8172 7.5125L19.9441 3.8898C19.9826 2.86247 20.0672 2.09599 20.1981 1.59006 20.4134 0.735546 20.7981 0.184704 21.3522-0.0624604L21.3522-0.668029 16.9546-0.668029C16.8315-0.436926 16.7335-0.136818 16.6603 0.231699 16.5909 0.600215 16.5314 1.31197 16.4812 2.36666L16.2677 6.86559C16.1831 8.62995 15.5388 9.81194 14.3343 10.4119 13.6494 10.7453 12.5741 10.9118 11.1082 10.9118L2.93615 10.9118 2.93615-0.668029-0.647779-0.668029-0.647779 26.3321Z" fill-rule="evenodd" transform="matrix(1 0 0 -1 1204 859)"/><path d="M9.26596 14.9167C10.746 14.9167 11.898 15.1306 12.7226 15.558 14.018 16.2323 14.6656 17.4458 14.6656 19.1983 14.6656 20.9626 13.9766 22.1506 12.5985 22.7624 11.8229 23.1074 10.6706 23.2799 9.14179 23.2799L2.87238 23.2799 2.87238 14.9167 9.26596 14.9167ZM10.4465 2.4547C12.6005 2.4547 14.1367 3.10547 15.0555 4.40733 15.6316 5.22675 15.9196 6.21868 15.9196 7.38312 15.9196 9.34349 15.0781 10.6784 13.3948 11.3883 12.4986 11.7684 11.3163 11.9585 9.84797 11.9585L2.87238 11.9585 2.87238 2.4547 10.4465 2.4547ZM-0.567455 26.3321 10.5707 26.3321C13.6058 26.3321 15.7651 25.3872 17.0493 23.4973 17.8023 22.384 18.1788 21.0979 18.1788 19.6393 18.1788 17.9377 17.7138 16.5419 16.7839 15.4521 16.3018 14.8757 15.607 14.3484 14.6996 13.8701 16.0289 13.3445 17.0228 12.7506 17.6819 12.0882 18.849 10.9118 19.4328 9.28846 19.4328 7.21835 19.4328 5.47778 18.9076 3.90348 17.8568 2.49604 16.2943 0.38666 13.8073-0.668029 10.3957-0.668029L-0.567455-0.668029-0.567455 26.3321Z" fill-rule="evenodd" transform="matrix(1 0 0 -1 1230 859)"/><path d="M-0.360461 17.8477-0.360461 20.3624C2.09581 20.592 3.80762 20.9771 4.77557 21.518 5.74781 22.0624 6.47362 23.3423 6.95363 25.3571L9.63981 25.3571 9.63981-0.643002 6.00982-0.643002 6.00982 17.8477-0.360461 17.8477Z" fill-rule="evenodd" transform="matrix(1 0 0 -1 1255 859)"/><path d="M1143.06 915.519C1146.91 915.519 1150.6 913.939 1153.32 911.126 1156.04 908.313 1157.56 904.497 1157.56 900.519 1157.56 896.541 1156.04 892.726 1153.32 889.913 1150.6 887.1 1146.91 885.519 1143.06 885.519 1139.22 885.519 1135.53 887.1 1132.81 889.913 1130.09 892.726 1128.56 896.541 1128.56 900.519 1128.56 904.497 1130.09 908.313 1132.81 911.126 1135.53 913.939 1139.22 915.519 1143.06 915.519Z" stroke="#FFFFFF" stroke-width="2.83012" stroke-linejoin="round" stroke-miterlimit="10" fill="#0B0405" fill-rule="evenodd"/><path d="M12.0006 28.3219C15.427 28.3219 18.0851 27.4022 19.975 25.5628 21.865 23.7276 22.9144 21.6421 23.1226 19.3071L19.5506 19.3071C19.1461 21.0785 18.3386 22.4818 17.1284 23.5177 15.9181 24.5572 14.2206 25.0771 12.0358 25.0771 9.37168 25.0771 7.22051 24.1234 5.58196 22.2161 3.94342 20.3126 3.12429 17.3936 3.12429 13.459 3.12429 10.2321 3.86299 7.61526 5.3404 5.60778 6.82167 3.60455 9.03003 2.60293 11.9652 2.60293 14.6647 2.60293 16.7215 3.65854 18.136 5.76976 18.8828 6.88149 19.4407 8.34478 19.81 10.1603L23.3817 10.1603C23.0636 7.26127 22.0085 4.83003 20.2166 2.86683 18.0675 0.503538 15.1696-0.677957 11.5232-0.677957 8.3798-0.677957 5.73924 0.291506 3.60147 2.23104 0.788147 4.78998-0.618365 8.74458-0.618365 14.0948-0.618365 18.1535 0.438455 21.4823 2.55239 24.0813 4.83552 26.9084 7.98483 28.3219 12.0006 28.3219ZM11.2637 28.3219 11.2637 28.3219Z" fill-rule="evenodd" transform="matrix(1 0 0 -1 1175 914)"/><path d="M8.54919 2.38055C10.6998 2.38055 12.1753 3.2109 12.9756 4.8716 13.7759 6.5323 14.1757 8.38152 14.1757 10.4193 14.1757 12.2605 13.8873 13.7582 13.3101 14.9126 12.3946 16.7264 10.8191 17.6333 8.5836 17.6333 6.59833 17.6333 5.15553 16.8598 4.25549 15.3129 3.35516 13.7702 2.90485 11.9051 2.90485 9.71848 2.90485 7.62176 3.35516 5.87469 4.25549 4.47727 5.15553 3.07956 6.58695 2.38055 8.54919 2.38055ZM8.67605 20.5246C11.1615 20.5246 13.264 19.6767 14.9839 17.9806 16.7035 16.2886 17.5636 13.7993 17.5636 10.5134 17.5636 7.33346 16.8056 4.7069 15.2895 2.63401 13.7776 0.560813 11.429-0.475634 8.24324-0.475634 5.58455-0.475634 3.47241 0.441086 1.90653 2.27452 0.344441 4.11213-0.436603 6.57548-0.436603 9.66547-0.436603 12.9788 0.38673 15.6173 2.0334 17.5803 3.68414 19.5433 5.89836 20.5246 8.67605 20.5246ZM8.56639 20.4305 8.56639 20.4305Z" fill-rule="evenodd" transform="matrix(1 0 0 -1 1202 914)"/><path d="M-0.423762 19.0407 2.51256 19.0407 2.51256 16.2695C3.3812 17.4128 4.30319 18.2337 5.27826 18.7315 6.25333 19.2292 7.33649 19.4783 8.52803 19.4783 11.1378 19.4783 12.901 18.5116 13.8174 16.5787 14.3234 15.5206 14.5763 14.0075 14.5763 12.0394L14.5763-0.486853 11.431-0.486853 11.431 11.8178C11.431 13.012 11.2643 13.9727 10.9308 14.7 10.3809 15.9174 9.38389 16.5262 7.93949 16.5262 7.20645 16.5262 6.60512 16.4462 6.13607 16.2869 5.28938 16.0184 4.54523 15.4837 3.90361 14.6823 3.38676 14.0367 3.05136 13.3696 2.89742 12.6812 2.74347 11.9967 2.6665 11.0165 2.6665 9.7409L2.6665-0.486853-0.423762-0.486853-0.423762 19.0407ZM6.83993 19.5134 6.83993 19.5134Z" fill-rule="evenodd" transform="matrix(1 0 0 -1 1224 913)"/><path d="M2.44664 25.3782 5.73775 25.3782 5.73775 19.775 8.82659 19.775 8.82659 17.0213 5.73775 17.0213 5.73775 3.91325C5.73775 3.2133 5.96722 2.74546 6.42614 2.50942 6.67695 2.36955 7.09729 2.29947 7.68717 2.29947 7.84531 2.29947 8.01485 2.30341 8.19608 2.3116 8.37731 2.31949 8.58749 2.33557 8.82659 2.35954L8.82659-0.304006C8.45244-0.415961 8.06308-0.496058 7.65823-0.543995 7.25718-0.59618 6.82135-0.621969 6.35102-0.621969 4.83159-0.621969 3.80032-0.220268 3.25663 0.583741 2.71673 1.39169 2.44664 2.43964 2.44664 3.72726L2.44664 17.0213-0.17334 17.0213-0.17334 19.775 2.44664 19.775 2.44664 25.3782Z" fill-rule="evenodd" transform="matrix(1 0 0 -1 1242 914)"/><path d="M-0.304835 19.0751 2.9813 19.0751 2.9813 15.6969C3.24765 16.3554 3.90481 17.1561 4.95311 18.099 6.00544 19.042 7.21547 19.5134 8.58351 19.5134 8.64901 19.5134 8.75734 19.5075 8.90883 19.496 9.06435 19.4841 9.32666 19.4587 9.69513 19.42L9.69513 15.954C9.49056 15.9892 9.30214 16.0125 9.13016 16.0241 8.95819 16.0359 8.76976 16.0418 8.56488 16.0418 6.82465 16.0418 5.48766 15.508 4.55391 14.4403 3.62015 13.3765 3.15328 12.1511 3.15328 10.7642L3.15328-0.486823-0.304835-0.486823-0.304835 19.0751Z" fill-rule="evenodd" transform="matrix(1 0 0 -1 1254 913)"/><path d="M8.55414 2.38055C10.7048 2.38055 12.1803 3.2109 12.9805 4.8716 13.7808 6.5323 14.181 8.38152 14.181 10.4193 14.181 12.2605 13.8922 13.7582 13.3154 14.9126 12.3996 16.7264 10.8241 17.6333 8.58885 17.6333 6.60358 17.6333 5.16078 16.8598 4.26045 15.3129 3.36012 13.7702 2.9101 11.9051 2.9101 9.71848 2.9101 7.62176 3.36012 5.87469 4.26045 4.47727 5.16078 3.07956 6.59191 2.38055 8.55414 2.38055ZM8.68101 20.5246C11.1665 20.5246 13.269 19.6767 14.9889 17.9806 16.7087 16.2886 17.5685 13.7993 17.5685 10.5134 17.5685 7.33346 16.8105 4.7069 15.2948 2.63401 13.7826 0.560813 11.4339-0.475634 8.2482-0.475634 5.5898-0.475634 3.47736 0.441086 1.91149 2.27452 0.349399 4.11213-0.431353 6.57548-0.431353 9.66547-0.431353 12.9788 0.39198 15.6173 2.03865 17.5803 3.6891 19.5433 5.90332 20.5246 8.68101 20.5246ZM8.57135 20.4305 8.57135 20.4305Z" fill-rule="evenodd" transform="matrix(1 0 0 -1 1265 914)"/><path d="M-0.158353 26.3363 3.84178 26.3363 3.84178-0.663865-0.158353-0.663865-0.158353 26.3363Z" fill-rule="evenodd" transform="matrix(1 0 0 -1 1287 913)"/><path d="M8.88563 20.4799C10.2873 20.4799 11.6441 20.1502 12.9556 19.4912 14.2671 18.8322 15.2664 17.9773 15.9537 16.9275 16.6172 15.929 17.0592 14.7627 17.2789 13.4285 17.4754 12.5167 17.5736 11.0621 17.5736 9.065L3.1252 9.065C3.188 7.05229 3.661 5.4378 4.54477 4.22215 5.42824 3.01039 6.79661 2.40466 8.64988 2.40466 10.3778 2.40466 11.7581 2.97685 12.7907 4.12154 13.3798 4.78866 13.7959 5.56027 14.0394 6.43638L17.2968 6.43638C17.2143 5.71028 16.9295 4.89914 16.4425 4.00297 15.9597 3.111 15.4176 2.381 14.8169 1.8124 13.8078 0.825806 12.5609 0.158694 11.0768-0.188636 10.2796-0.385955 9.37857-0.484764 8.37305-0.484764 5.91909-0.484764 3.83781 0.413202 2.1298 2.20914 0.425365 4.00507-0.426556 6.51722-0.426556 9.74589-0.426556 12.9311 0.431318 15.5167 2.14736 17.5018 3.86728 19.4873 6.11347 20.4799 8.88563 20.4799ZM14.1689 11.7116C14.0356 13.1521 13.7233 14.3049 13.2324 15.169 12.3255 16.7715 10.8097 17.5728 8.6853 17.5728 7.16185 17.5728 5.88367 17.0203 4.85106 15.9152 3.82203 14.8139 3.2782 13.4126 3.21926 11.7116L14.1689 11.7116ZM8.57338 20.5155 8.57338 20.5155Z" fill-rule="evenodd" transform="matrix(1 0 0 -1 1377 806)"/><path d="M13.1865 27.2349 16.6432 27.2349C16.2022 25.9828 15.224 23.1262 13.7088 18.6657 12.575 15.3135 11.6249 12.5799 10.8579 10.4641 9.05375 5.48249 7.78094 2.44535 7.04006 1.35263 6.29918 0.255775 5.02468-0.292356 3.21657-0.292356 2.77929-0.292356 2.44227-0.272886 2.20523-0.233944 1.96791-0.199133 1.67527-0.13305 1.32702-0.0356964L1.32702 2.951C1.87186 2.79523 2.26449 2.69995 2.50518 2.66513 2.7498 2.62619 2.96465 2.60672 3.15001 2.60672 3.728 2.60672 4.15208 2.70791 4.42254 2.90999 4.69665 3.10854 4.92639 3.3534 5.11175 3.64516 5.17101 3.74222 5.37827 4.24197 5.73411 5.14412 6.0936 6.04243 6.35479 6.70945 6.51768 7.14518L-0.356679 27.2349 3.18315 27.2349 8.16823 11.3391 13.1865 27.2349ZM8.15138 27.7075 8.15138 27.7075Z" fill-rule="evenodd" transform="matrix(1 0 0 -1 1397 813)"/><path d="M8.88908 20.4799C10.2908 20.4799 11.6476 20.1502 12.9592 19.4912 14.2707 18.8322 15.27 17.9773 15.9573 16.9275 16.6208 15.929 17.0626 14.7627 17.2825 13.4285 17.4787 12.5167 17.5769 11.0621 17.5769 9.065L3.12824 9.065C3.19104 7.05229 3.66434 5.4378 4.54783 4.22215 5.43132 3.01039 6.79972 2.40466 8.65333 2.40466 10.381 2.40466 11.7613 2.97685 12.7942 4.12154 13.383 4.78866 13.7995 5.56027 14.043 6.43638L17.3001 6.43638C17.2176 5.71028 16.9331 4.89914 16.4461 4.00297 15.963 3.111 15.4212 2.381 14.8205 1.8124 13.8111 0.825806 12.5644 0.158694 11.0802-0.188636 10.2831-0.385955 9.38173-0.484764 8.37649-0.484764 5.92219-0.484764 3.84116 0.413202 2.13282 2.20914 0.428648 4.00507-0.423587 6.51722-0.423587 9.74589-0.423587 12.9311 0.434601 15.5167 2.15068 17.5018 3.87063 19.4873 6.11657 20.4799 8.88908 20.4799ZM14.1725 11.7116C14.0388 13.1521 13.7268 14.3049 13.236 15.169 12.3287 16.7715 10.8132 17.5728 8.68875 17.5728 7.16497 17.5728 5.88676 17.0203 4.85414 15.9152 3.82538 14.8139 3.28154 13.4126 3.2226 11.7116L14.1725 11.7116ZM8.57683 20.5155 8.57683 20.5155Z" fill-rule="evenodd" transform="matrix(1 0 0 -1 1416 806)"/><path d="M1391.09 861.515C1394.93 861.515 1398.62 859.935 1401.34 857.122 1404.06 854.309 1405.59 850.493 1405.59 846.515 1405.59 842.537 1404.06 838.722 1401.34 835.908 1398.62 833.096 1394.93 831.515 1391.09 831.515 1387.24 831.515 1383.55 833.096 1380.84 835.908 1378.12 838.722 1376.59 842.537 1376.59 846.515 1376.59 850.493 1378.12 854.309 1380.84 857.122 1383.55 859.935 1387.24 861.515 1391.09 861.515Z" stroke="#000000" stroke-width="2.83012" stroke-linejoin="round" stroke-miterlimit="10" fill="none" fill-rule="evenodd"/><path d="M-0.140387 26.3321 3.85938 26.3321 3.85938-0.668029-0.140387-0.668029-0.140387 26.3321Z" fill-rule="evenodd" transform="matrix(1 0 0 -1 1424 859)"/><path d="M8.88623 20.4841C10.2882 20.4841 11.6447 20.1547 12.9562 19.4954 14.2677 18.8363 15.2673 17.9818 15.9543 16.9317 16.6181 15.9331 17.0598 14.7669 17.2795 13.433 17.476 12.5209 17.5742 11.0666 17.5742 9.0695L3.12579 9.0695C3.1886 7.05648 3.66189 5.442 4.54536 4.22634 5.42883 3.01458 6.7972 2.40885 8.65077 2.40885 10.3784 2.40885 11.7587 2.98105 12.7913 4.12574 13.3804 4.79285 13.7965 5.56446 14.04 6.44057L17.2974 6.44057C17.2149 5.71447 16.9301 4.90334 16.4434 4.00746 15.9603 3.11549 15.4185 2.3852 14.8175 1.81689 13.8084 0.829998 12.5618 0.162886 11.0773-0.184444 10.2802-0.381763 9.37916-0.480273 8.37394-0.480273 5.91969-0.480273 3.8384 0.417694 2.1304 2.21333 0.426258 4.00926-0.42596 6.52171-0.42596 9.75038-0.42596 12.9356 0.431914 15.5208 2.14796 17.506 3.86787 19.4915 6.11406 20.4841 8.88623 20.4841ZM14.1698 11.7158C14.0361 13.1566 13.7239 14.3091 13.233 15.1735 12.3261 16.776 10.8103 17.5773 8.6859 17.5773 7.16244 17.5773 5.88426 17.0245 4.85166 15.9194 3.82293 14.8181 3.27879 13.4171 3.22015 11.7158L14.1698 11.7158ZM8.57397 20.5197 8.57397 20.5197Z" fill-rule="evenodd" transform="matrix(1 0 0 -1 1431 860)"/><path d="M2.48322 21.6927C2.53232 23.0459 2.76347 24.0375 3.17638 24.6677 3.92238 25.7772 5.36011 26.3321 7.4887 26.3321 7.69343 26.3321 7.90161 26.3262 8.11381 26.3145 8.32601 26.303 8.56836 26.2857 8.84114 26.2626L8.84114 23.2875C8.50777 23.3145 8.26714 23.3301 8.11955 23.3339 7.97167 23.3415 7.83356 23.3456 7.70463 23.3456 6.73495 23.3456 6.15549 23.0884 5.96598 22.5743 5.77675 22.0602 5.68199 20.7516 5.68199 18.6482L8.84114 18.6482 8.84114 16.0793 5.64208 16.0793 5.64208-0.668383 2.48322-0.668383 2.48322 16.0793-0.159077 16.0793-0.159077 18.6482 2.48322 18.6482 2.48322 21.6927Z" fill-rule="evenodd" transform="matrix(1 0 0 -1 1451 859)"/><path d="M2.46797 25.3739 5.75909 25.3739 5.75909 19.7707 8.84764 19.7707 8.84764 17.0171 5.75909 17.0171 5.75909 3.909C5.75909 3.20906 5.98856 2.74122 6.44748 2.50517 6.69799 2.3653 7.11833 2.29522 7.70822 2.29522 7.86636 2.29522 8.03619 2.29916 8.21742 2.30705 8.39865 2.31524 8.60882 2.33132 8.84764 2.35529L8.84764-0.308557C8.47378-0.420512 8.08413-0.500306 7.67928-0.548546 7.27823-0.600428 6.84269-0.62652 6.37207-0.62652 4.85293-0.62652 3.82137-0.224516 3.27767 0.579493 2.73778 1.38745 2.46797 2.43509 2.46797 3.72302L2.46797 17.0171-0.152294 17.0171-0.152294 19.7707 2.46797 19.7707 2.46797 25.3739Z" fill-rule="evenodd" transform="matrix(1 0 0 -1 1461 860)"/><path d="M1383.84 915.519 1391.09 908.269 1398.34 915.519 1405.59 908.269 1398.34 901.019 1405.59 893.769 1398.34 886.519 1391.09 893.769 1383.84 886.519 1376.59 893.769 1383.84 901.019 1376.59 908.269Z" stroke="#000000" stroke-width="2.83012" stroke-miterlimit="8" fill="none" fill-rule="evenodd"/><path d="M-0.28652 20.0288 2.99962 20.0288 2.99962 16.4817C3.26596 17.1732 3.92313 18.014 4.97142 19.004 6.02376 19.9941 7.2341 20.4891 8.60182 20.4891 8.66732 20.4891 8.77566 20.4829 8.92715 20.4708 9.08298 20.4584 9.34497 20.432 9.71345 20.391L9.71345 16.7517C9.50888 16.7887 9.32045 16.8132 9.14848 16.8253 8.9765 16.8377 8.78808 16.8439 8.5832 16.8439 6.84297 16.8439 5.50597 16.2834 4.57222 15.1624 3.63847 14.0454 3.17159 12.7586 3.17159 11.3024L3.17159-0.511165-0.28652-0.511165-0.28652 20.0288Z" fill-rule="evenodd" transform="matrix(1 0 0 -1 1424 914)"/><path d="M-0.100109 19.6271 2.90025 19.6271 2.90025-0.688454-0.100109-0.688454-0.100109 19.6271ZM-0.100109 27.3117 2.90025 27.3117 2.90025 23.4207-0.100109 23.4207-0.100109 27.3117Z" fill-rule="evenodd" transform="matrix(1 0 0 -1 1437 914)"/><path d="M7.73888 28.5833C9.26095 28.5833 10.5877 28.1981 11.7195 27.4279 12.3376 26.9889 12.9654 26.3524 13.6026 25.5183L13.6026 28.0446 16.6098 28.0446 16.6098 9.82073C16.6098 7.27442 16.2488 5.26703 15.5264 3.79828 14.1744 1.07605 11.6211-0.284909 7.86655-0.284909 5.77671-0.284909 4.01922 0.200133 2.59378 1.16991 1.17215 2.13576 0.376564 3.64659 0.206437 5.70212L3.52084 5.70212C3.67545 4.80409 3.98818 4.11165 4.45932 3.62449 5.19723 2.87816 6.3562 2.50514 7.93595 2.50514 10.4352 2.50514 12.0711 3.41497 12.8436 5.23494 13.3033 6.30857 13.5138 8.22452 13.4752 10.9822 12.8263 9.95668 12.0421 9.1943 11.1227 8.69533 10.2073 8.19636 8.99449 7.94687 7.48413 7.94687 5.38258 7.94687 3.54397 8.71743 1.96803 10.2579 0.39589 11.7984-0.390326 14.3469-0.390326 17.9029-0.390326 21.2595 0.403503 23.8779 1.99116 25.7578 3.57882 27.6416 5.49473 28.5833 7.73888 28.5833ZM13.6026 18.2981C13.6026 20.7766 13.1083 22.6147 12.1194 23.8119 11.1303 25.0093 9.86913 25.6079 8.33565 25.6079 6.04113 25.6079 4.47104 24.4985 3.62509 22.2792 3.18088 21.0939 2.95863 19.5416 2.95863 17.6217 2.95863 15.3627 3.40108 13.6445 4.28568 12.467 5.17409 11.2895 6.36762 10.7009 7.86655 10.7009 10.2073 10.7009 11.8547 11.7924 12.8087 13.9757 13.3379 15.2089 13.6026 16.6498 13.6026 18.2981ZM8.11545 28.715 8.11545 28.715Z" fill-rule="evenodd" transform="matrix(1 0 0 -1 1443 922)"/><path d="M-0.428598 27.3115 2.86769 27.3115 2.86769 16.9043C3.6496 17.9297 4.35148 18.6509 4.97304 19.0684 6.03653 19.79 7.36412 20.1506 8.9555 20.1506 11.8022 20.1506 13.7317 19.1191 14.7442 17.0562 15.2956 15.9298 15.5712 14.3652 15.5712 12.3631L15.5712-0.688668 12.1812-0.688668 12.1812 12.1322C12.1812 13.6276 11.9975 14.724 11.6299 15.4209 11.0318 16.5354 9.90755 17.0928 8.25747 17.0928 6.88899 17.0928 5.64765 16.6043 4.53318 15.6275 3.42286 14.6551 2.86769 12.8132 2.86769 10.1019L2.86769-0.688668-0.428598-0.688668-0.428598 27.3115Z" fill-rule="evenodd" transform="matrix(1 0 0 -1 1465 914)"/><path d="M2.46973 25.3782 5.76085 25.3782 5.76085 19.775 8.84969 19.775 8.84969 17.0213 5.76085 17.0213 5.76085 3.91325C5.76085 3.2133 5.99031 2.74546 6.44924 2.50942 6.69975 2.36955 7.12009 2.29947 7.70997 2.29947 7.86811 2.29947 8.03794 2.30341 8.21917 2.3116 8.40041 2.31949 8.61058 2.33557 8.84969 2.35954L8.84969-0.304006C8.47553-0.415961 8.08617-0.496058 7.68103-0.543995 7.28027-0.59618 6.84444-0.621969 6.37382-0.621969 4.85469-0.621969 3.82312-0.219965 3.27943 0.583741 2.73953 1.39169 2.46973 2.43964 2.46973 3.72726L2.46973 17.0213-0.15054 17.0213-0.15054 19.775 2.46973 19.775 2.46973 25.3782Z" fill-rule="evenodd" transform="matrix(1 0 0 -1 1484 914)"/><path d="M465.5 1421.2C465.5 1418.61 467.606 1416.5 470.203 1416.5L669.797 1416.5C672.394 1416.5 674.5 1418.61 674.5 1421.2L674.5 1547.8C674.5 1550.39 672.394 1552.5 669.797 1552.5L470.203 1552.5C467.606 1552.5 465.5 1550.39 465.5 1547.8Z" stroke="#D6D6D6" stroke-width="3.4375" stroke-linejoin="round" stroke-miterlimit="10" fill="none" fill-rule="evenodd"/><text font-family="Helvetica,Helvetica_MSFontService,sans-serif" font-weight="400" font-size="41" transform="matrix(1 0 0 1 492.516 1475)">r = 0.75</text><text font-family="Helvetica,Helvetica_MSFontService,sans-serif" font-weight="400" font-size="41" transform="matrix(1 0 0 1 492.516 1524)">p &lt; 0.001</text><text font-family="Helvetica,Helvetica_MSFontService,sans-serif" font-weight="400" font-size="46" transform="matrix(1 0 0 1 507.323 725)">Visual Acuity vs </text><text font-family="Helvetica,Helvetica_MSFontService,sans-serif" font-weight="400" font-size="46" transform="matrix(1 0 0 1 839.615 725)">ssVEP</text><text font-family="Helvetica,Helvetica_MSFontService,sans-serif" font-weight="400" font-size="46" transform="matrix(1 0 0 1 989.146 725)">AUC across all subjects</text><text font-family="Helvetica,Helvetica_MSFontService,sans-serif" font-weight="400" font-size="39" transform="matrix(1 0 0 1 785.433 1668)">Visual Acuity (logMAR)</text></g></svg>